<?xml version="1.0" encoding="UTF-8" standalone="no"?>
<!DOCTYPE svg PUBLIC "-//W3C//DTD SVG 1.1//EN"
 "http://www.w3.org/Graphics/SVG/1.1/DTD/svg11.dtd">
<!-- Generated by graphviz version 2.40.1 (20161225.0304)
 -->
<!-- Title: JSP&lt; Task, Job, Machine &gt; Pages: 1 -->
<!--zoomable 424 -->
<svg id="main" version="1.1" xmlns="http://www.w3.org/2000/svg" xmlns:xlink="http://www.w3.org/1999/xlink" xml:space="preserve" onload="init(evt)">
<style type="text/css"><![CDATA[
.edge:hover path { stroke: red; }
.edge:hover polygon { stroke: red; fill: red; }
]]></style>
<script type="text/javascript"><![CDATA[
var edges = document.getElementsByTagName('g');
if (edges && edges.length) {
  for (var i=0;i<edges.length;i++) {
    if (edges[i].id.substr(0,4)=='edge') {
      edges[i].setAttribute('class','edge');
    }
  }
}
]]></script>
        <defs>
                <circle id="rim" cx="0" cy="0" r="7"/>
                <circle id="rim2" cx="0" cy="0" r="3.5"/>
                <g id="zoomPlus">
                        <use xlink:href="#rim" fill="#404040">
                                <set attributeName="fill" to="#808080" begin="zoomplus.mouseover" end="zoomplus.mouseout"/>
                        </use>
                        <path d="M-4,0h8M0,-4v8" fill="none" stroke="white" stroke-width="1.5" pointer-events="none"/>
                </g>
                <g id="zoomMin">
                        <use xlink:href="#rim" fill="#404040">
                                <set attributeName="fill" to="#808080" begin="zoomminus.mouseover" end="zoomminus.mouseout"/>
                        </use>
                        <path d="M-4,0h8" fill="none" stroke="white" stroke-width="1.5" pointer-events="none"/>
                </g>
                <g id="dirArrow">
                        <path fill="none" stroke="white" stroke-width="1.5" d="M0,-3.0v7 M-2.5,-0.5L0,-3.0L2.5,-0.5"/>
                </g>
               <g id="resetDef">
                       <use xlink:href="#rim2" fill="#404040">
                               <set attributeName="fill" to="#808080" begin="reset.mouseover" end="reset.mouseout"/>
                       </use>
               </g>
        </defs>

<script type="text/javascript">
var viewWidth = 756;
var viewHeight = 424;
var sectionId = 'dynsection-0';
</script>
<script xlink:href="svgpan.js"/>
<svg id="graph" class="graph">
<g id="viewport">
<title>JSP&lt; Task, Job, Machine &gt;</title>
<!-- Node1 -->
<g id="node1" class="node">
<title>Node1</title>
<g id="a_node1"><a xlink:title="JSP formulation.">
<polygon fill="#bfbfbf" stroke="#000000" points="302,-.5 302,-255.5 466,-255.5 466,-.5 302,-.5"/>
<text text-anchor="middle" x="384" y="-243.5" font-family="Helvetica,sans-Serif" font-size="10.00" fill="#000000">JSP&lt; Task, Job, Machine &gt;</text>
<polyline fill="none" stroke="#000000" points="302,-236.5 466,-236.5 "/>
<text text-anchor="middle" x="384" y="-224.5" font-family="Helvetica,sans-Serif" font-size="10.00" fill="#000000"> </text>
<polyline fill="none" stroke="#000000" points="302,-217.5 466,-217.5 "/>
<text text-anchor="start" x="310" y="-205.5" font-family="Helvetica,sans-Serif" font-size="10.00" fill="#000000">+ AddTask()</text>
<text text-anchor="start" x="310" y="-194.5" font-family="Helvetica,sans-Serif" font-size="10.00" fill="#000000">+ AddJob()</text>
<text text-anchor="start" x="310" y="-183.5" font-family="Helvetica,sans-Serif" font-size="10.00" fill="#000000">+ AddMachine()</text>
<text text-anchor="start" x="310" y="-172.5" font-family="Helvetica,sans-Serif" font-size="10.00" fill="#000000">+ GetTasks()</text>
<text text-anchor="start" x="310" y="-161.5" font-family="Helvetica,sans-Serif" font-size="10.00" fill="#000000">+ GetJobs()</text>
<text text-anchor="start" x="310" y="-150.5" font-family="Helvetica,sans-Serif" font-size="10.00" fill="#000000">+ GetMachines()</text>
<text text-anchor="start" x="310" y="-139.5" font-family="Helvetica,sans-Serif" font-size="10.00" fill="#000000">+ GetTask()</text>
<text text-anchor="start" x="310" y="-128.5" font-family="Helvetica,sans-Serif" font-size="10.00" fill="#000000">+ GetTask()</text>
<text text-anchor="start" x="310" y="-117.5" font-family="Helvetica,sans-Serif" font-size="10.00" fill="#000000">+ GetJob()</text>
<text text-anchor="start" x="310" y="-106.5" font-family="Helvetica,sans-Serif" font-size="10.00" fill="#000000">+ GetMachine()</text>
<text text-anchor="start" x="310" y="-95.5" font-family="Helvetica,sans-Serif" font-size="10.00" fill="#000000">+ GetJobTasks()</text>
<text text-anchor="start" x="310" y="-84.5" font-family="Helvetica,sans-Serif" font-size="10.00" fill="#000000">+ GetMachineTasks()</text>
<text text-anchor="start" x="310" y="-73.5" font-family="Helvetica,sans-Serif" font-size="10.00" fill="#000000">+ GetNumberOfTasks()</text>
<text text-anchor="start" x="310" y="-62.5" font-family="Helvetica,sans-Serif" font-size="10.00" fill="#000000">+ GetNumberOfJobs()</text>
<text text-anchor="start" x="310" y="-51.5" font-family="Helvetica,sans-Serif" font-size="10.00" fill="#000000">+ GetNumberOfMachines()</text>
<text text-anchor="start" x="310" y="-40.5" font-family="Helvetica,sans-Serif" font-size="10.00" fill="#000000">+ GetNumberOfTasksInJob()</text>
<text text-anchor="start" x="310" y="-29.5" font-family="Helvetica,sans-Serif" font-size="10.00" fill="#000000">+ GetNumberOfTasksInMachine()</text>
<text text-anchor="start" x="310" y="-18.5" font-family="Helvetica,sans-Serif" font-size="10.00" fill="#000000">+ GetInitialTasks()</text>
<text text-anchor="start" x="310" y="-7.5" font-family="Helvetica,sans-Serif" font-size="10.00" fill="#000000">+ GetFinalTasks()</text>
</a>
</g>
</g>
<!-- Node2 -->
<g id="node2" class="node">
<title>Node2</title>
<g id="a_node2"><a xlink:title=" ">
<polygon fill="none" stroke="#bfbfbf" points="0,-303.5 0,-415.5 146,-415.5 146,-303.5 0,-303.5"/>
<text text-anchor="start" x="8" y="-403.5" font-family="Helvetica,sans-Serif" font-size="10.00" fill="#000000">unordered_map&lt; unsigned</text>
<text text-anchor="start" x="8" y="-392.5" font-family="Helvetica,sans-Serif" font-size="10.00" fill="#000000"> int, std::unordered_set</text>
<text text-anchor="start" x="8" y="-381.5" font-family="Helvetica,sans-Serif" font-size="10.00" fill="#000000">&lt; std::reference_wrapper</text>
<text text-anchor="start" x="8" y="-370.5" font-family="Helvetica,sans-Serif" font-size="10.00" fill="#000000">&lt; const TaskType &gt;, std::</text>
<text text-anchor="start" x="8" y="-359.5" font-family="Helvetica,sans-Serif" font-size="10.00" fill="#000000">hash&lt; TaskType &gt;, std::equal</text>
<text text-anchor="middle" x="73" y="-348.5" font-family="Helvetica,sans-Serif" font-size="10.00" fill="#000000">_to&lt; TaskType &gt; &gt; &gt;</text>
<polyline fill="none" stroke="#bfbfbf" points="0,-341.5 146,-341.5 "/>
<text text-anchor="middle" x="73" y="-329.5" font-family="Helvetica,sans-Serif" font-size="10.00" fill="#000000"> </text>
<polyline fill="none" stroke="#bfbfbf" points="0,-322.5 146,-322.5 "/>
<text text-anchor="middle" x="73" y="-310.5" font-family="Helvetica,sans-Serif" font-size="10.00" fill="#000000"> </text>
</a>
</g>
</g>
<!-- Node2&#45;&gt;Node1 -->
<g id="edge1" class="edge">
<title>Node2&#45;&gt;Node1</title>
<path fill="none" stroke="#404040" d="M146.3088,-304.9309C189.8992,-272.4834 245.5819,-231.0347 292.0938,-196.4125"/>
<polygon fill="none" stroke="#404040" points="292.2461,-196.2991 294.6706,-189.5078 301.8721,-189.1338 299.4475,-195.9251 292.2461,-196.2991"/>
<text text-anchor="middle" x="219.5" y="-277" font-family="Helvetica,sans-Serif" font-size="10.00" fill="#000000"> &#45;machine_tasks</text>
</g>
<!-- Node3 -->
<g id="node3" class="node">
<title>Node3</title>
<g id="a_node3"><a xlink:title=" ">
<polygon fill="none" stroke="#bfbfbf" points="164,-314.5 164,-404.5 300,-404.5 300,-314.5 164,-314.5"/>
<text text-anchor="start" x="172" y="-392.5" font-family="Helvetica,sans-Serif" font-size="10.00" fill="#000000">unordered_map&lt; unsigned</text>
<text text-anchor="start" x="172" y="-381.5" font-family="Helvetica,sans-Serif" font-size="10.00" fill="#000000"> int, std::deque&lt; std</text>
<text text-anchor="start" x="172" y="-370.5" font-family="Helvetica,sans-Serif" font-size="10.00" fill="#000000">::reference_wrapper&lt; const</text>
<text text-anchor="middle" x="232" y="-359.5" font-family="Helvetica,sans-Serif" font-size="10.00" fill="#000000"> TaskType &gt; &gt; &gt;</text>
<polyline fill="none" stroke="#bfbfbf" points="164,-352.5 300,-352.5 "/>
<text text-anchor="middle" x="232" y="-340.5" font-family="Helvetica,sans-Serif" font-size="10.00" fill="#000000"> </text>
<polyline fill="none" stroke="#bfbfbf" points="164,-333.5 300,-333.5 "/>
<text text-anchor="middle" x="232" y="-321.5" font-family="Helvetica,sans-Serif" font-size="10.00" fill="#000000"> </text>
</a>
</g>
</g>
<!-- Node3&#45;&gt;Node1 -->
<g id="edge2" class="edge">
<title>Node3&#45;&gt;Node1</title>
<path fill="none" stroke="#404040" d="M261.668,-314.3149C271.5819,-299.2157 283.1968,-281.526 295.2522,-263.1653"/>
<polygon fill="none" stroke="#404040" points="295.4006,-262.9391 295.3501,-255.7282 301.9869,-252.9081 302.0375,-260.119 295.4006,-262.9391"/>
<text text-anchor="middle" x="310.5" y="-277" font-family="Helvetica,sans-Serif" font-size="10.00" fill="#000000"> &#45;job_tasks</text>
</g>
<!-- Node4 -->
<g id="node4" class="node">
<title>Node4</title>
<g id="a_node4"><a xlink:title=" ">
<polygon fill="none" stroke="#bfbfbf" points="318.5,-325.5 318.5,-393.5 449.5,-393.5 449.5,-325.5 318.5,-325.5"/>
<text text-anchor="start" x="326.5" y="-381.5" font-family="Helvetica,sans-Serif" font-size="10.00" fill="#000000">unordered_map&lt; unsigned</text>
<text text-anchor="middle" x="384" y="-370.5" font-family="Helvetica,sans-Serif" font-size="10.00" fill="#000000"> int, MachineType &gt;</text>
<polyline fill="none" stroke="#bfbfbf" points="318.5,-363.5 449.5,-363.5 "/>
<text text-anchor="middle" x="384" y="-351.5" font-family="Helvetica,sans-Serif" font-size="10.00" fill="#000000"> </text>
<polyline fill="none" stroke="#bfbfbf" points="318.5,-344.5 449.5,-344.5 "/>
<text text-anchor="middle" x="384" y="-332.5" font-family="Helvetica,sans-Serif" font-size="10.00" fill="#000000"> </text>
</a>
</g>
</g>
<!-- Node4&#45;&gt;Node1 -->
<g id="edge3" class="edge">
<title>Node4&#45;&gt;Node1</title>
<path fill="none" stroke="#404040" d="M384,-325.3414C384,-309.3913 384,-289.2358 384,-267.9366"/>
<polygon fill="none" stroke="#404040" points="384.0001,-267.6479 380,-261.6479 384,-255.6479 388,-261.6478 384.0001,-267.6479"/>
<text text-anchor="middle" x="408.5" y="-277" font-family="Helvetica,sans-Serif" font-size="10.00" fill="#000000"> &#45;machines</text>
</g>
<!-- Node5 -->
<g id="node5" class="node">
<title>Node5</title>
<g id="a_node5"><a xlink:title=" ">
<polygon fill="none" stroke="#bfbfbf" points="467.5,-325.5 467.5,-393.5 598.5,-393.5 598.5,-325.5 467.5,-325.5"/>
<text text-anchor="start" x="475.5" y="-381.5" font-family="Helvetica,sans-Serif" font-size="10.00" fill="#000000">unordered_map&lt; unsigned</text>
<text text-anchor="middle" x="533" y="-370.5" font-family="Helvetica,sans-Serif" font-size="10.00" fill="#000000"> int, JobType &gt;</text>
<polyline fill="none" stroke="#bfbfbf" points="467.5,-363.5 598.5,-363.5 "/>
<text text-anchor="middle" x="533" y="-351.5" font-family="Helvetica,sans-Serif" font-size="10.00" fill="#000000"> </text>
<polyline fill="none" stroke="#bfbfbf" points="467.5,-344.5 598.5,-344.5 "/>
<text text-anchor="middle" x="533" y="-332.5" font-family="Helvetica,sans-Serif" font-size="10.00" fill="#000000"> </text>
</a>
</g>
</g>
<!-- Node5&#45;&gt;Node1 -->
<g id="edge4" class="edge">
<title>Node5&#45;&gt;Node1</title>
<path fill="none" stroke="#404040" d="M511.0145,-325.3414C500.4144,-308.872 486.9283,-287.9189 472.7259,-265.8526"/>
<polygon fill="none" stroke="#404040" points="472.6525,-265.7385 466.0416,-262.8581 466.1578,-255.6479 472.7687,-258.5283 472.6525,-265.7385"/>
<text text-anchor="middle" x="496.5" y="-277" font-family="Helvetica,sans-Serif" font-size="10.00" fill="#000000"> &#45;jobs</text>
</g>
<!-- Node6 -->
<g id="node6" class="node">
<title>Node6</title>
<g id="a_node6"><a xlink:title=" ">
<polygon fill="none" stroke="#bfbfbf" points="616.5,-325.5 616.5,-393.5 747.5,-393.5 747.5,-325.5 616.5,-325.5"/>
<text text-anchor="start" x="624.5" y="-381.5" font-family="Helvetica,sans-Serif" font-size="10.00" fill="#000000">unordered_map&lt; unsigned</text>
<text text-anchor="middle" x="682" y="-370.5" font-family="Helvetica,sans-Serif" font-size="10.00" fill="#000000"> int, TaskType &gt;</text>
<polyline fill="none" stroke="#bfbfbf" points="616.5,-363.5 747.5,-363.5 "/>
<text text-anchor="middle" x="682" y="-351.5" font-family="Helvetica,sans-Serif" font-size="10.00" fill="#000000"> </text>
<polyline fill="none" stroke="#bfbfbf" points="616.5,-344.5 747.5,-344.5 "/>
<text text-anchor="middle" x="682" y="-332.5" font-family="Helvetica,sans-Serif" font-size="10.00" fill="#000000"> </text>
</a>
</g>
</g>
<!-- Node6&#45;&gt;Node1 -->
<g id="edge5" class="edge">
<title>Node6&#45;&gt;Node1</title>
<path fill="none" stroke="#404040" d="M638.0291,-325.3414C595.4933,-292.2977 529.7228,-241.2041 475.7628,-199.2855"/>
<polygon fill="none" stroke="#404040" points="475.6551,-199.2019 468.4629,-198.6798 466.1785,-191.84 473.3708,-192.3621 475.6551,-199.2019"/>
<text text-anchor="middle" x="600.5" y="-277" font-family="Helvetica,sans-Serif" font-size="10.00" fill="#000000"> &#45;tasks</text>
</g>
</g>
</svg>
        <g id="navigator" transform="translate(0 0)" fill="#404254">
                <rect fill="#f2f5e9" fill-opacity="0.5" stroke="#606060" stroke-width=".5" x="0" y="0" width="60" height="60"/>
                <use id="zoomplus" xlink:href="#zoomPlus" x="17" y="9" onmousedown="handleZoom(evt,'in')"/>
                <use id="zoomminus" xlink:href="#zoomMin" x="42" y="9" onmousedown="handleZoom(evt,'out')"/>
                <use id="reset" xlink:href="#resetDef" x="30" y="36" onmousedown="handleReset()"/>
                <g id="arrowUp" xlink:href="#dirArrow" transform="translate(30 24)" onmousedown="handlePan(0,-1)">
                  <use xlink:href="#rim" fill="#404040">
                        <set attributeName="fill" to="#808080" begin="arrowUp.mouseover" end="arrowUp.mouseout"/>
                  </use>
                  <path fill="none" stroke="white" stroke-width="1.5" d="M0,-3.0v7 M-2.5,-0.5L0,-3.0L2.5,-0.5"/>
                </g>
                <g id="arrowRight" xlink:href="#dirArrow" transform="rotate(90) translate(36 -43)" onmousedown="handlePan(1,0)">
                  <use xlink:href="#rim" fill="#404040">
                        <set attributeName="fill" to="#808080" begin="arrowRight.mouseover" end="arrowRight.mouseout"/>
                  </use>
                  <path fill="none" stroke="white" stroke-width="1.5" d="M0,-3.0v7 M-2.5,-0.5L0,-3.0L2.5,-0.5"/>
                </g>
                <g id="arrowDown" xlink:href="#dirArrow" transform="rotate(180) translate(-30 -48)" onmousedown="handlePan(0,1)">
                  <use xlink:href="#rim" fill="#404040">
                        <set attributeName="fill" to="#808080" begin="arrowDown.mouseover" end="arrowDown.mouseout"/>
                  </use>
                  <path fill="none" stroke="white" stroke-width="1.5" d="M0,-3.0v7 M-2.5,-0.5L0,-3.0L2.5,-0.5"/>
                </g>
                <g id="arrowLeft" xlink:href="#dirArrow" transform="rotate(270) translate(-36 17)" onmousedown="handlePan(-1,0)">
                  <use xlink:href="#rim" fill="#404040">
                        <set attributeName="fill" to="#808080" begin="arrowLeft.mouseover" end="arrowLeft.mouseout"/>
                  </use>
                  <path fill="none" stroke="white" stroke-width="1.5" d="M0,-3.0v7 M-2.5,-0.5L0,-3.0L2.5,-0.5"/>
                </g>
        </g>
        <svg viewBox="0 0 15 15" width="100%" height="30px" preserveAspectRatio="xMaxYMin meet">
         <g id="arrow_out" transform="scale(0.3 0.3)">
          <a xlink:href="classJSP__coll__graph_org.svg" target="_base">
           <rect id="button" ry="5" rx="5" y="6" x="6" height="38" width="38"
                fill="#f2f5e9" fill-opacity="0.5" stroke="#606060" stroke-width="1.0"/>
           <path id="arrow"
             d="M 11.500037,31.436501 C 11.940474,20.09759 22.043105,11.32322 32.158766,21.979434 L 37.068811,17.246167 C 37.068811,17.246167 37.088388,32 37.088388,32 L 22.160133,31.978069 C 22.160133,31.978069 26.997745,27.140456 26.997745,27.140456 C 18.528582,18.264221 13.291696,25.230495 11.500037,31.436501 z"
             style="fill:#404040;"/>
          </a>
         </g>
        </svg>
</svg>
