<?xml version="1.0" encoding="UTF-8" standalone="no"?>
<!DOCTYPE svg PUBLIC "-//W3C//DTD SVG 1.1//EN"
 "http://www.w3.org/Graphics/SVG/1.1/DTD/svg11.dtd">
<!-- Generated by graphviz version 2.40.1 (20161225.0304)
 -->
<!-- Title: JSPMakespanMinimizationSolution::UpdateHeadsAndTails Pages: 1 -->
<svg width="590pt" height="220pt"
 viewBox="0.00 0.00 590.00 220.00" xmlns="http://www.w3.org/2000/svg" xmlns:xlink="http://www.w3.org/1999/xlink">
<g id="graph0" class="graph" transform="scale(1 1) rotate(0) translate(4 216)">
<title>JSPMakespanMinimizationSolution::UpdateHeadsAndTails</title>
<!-- Node174 -->
<g id="node1" class="node">
<title>Node174</title>
<g id="a_node1"><a xlink:title="Updates the head and tail of all the tasks that have been affected by modifications since the last ca...">
<polygon fill="#bfbfbf" stroke="#000000" points="0,-93.5 0,-123.5 170,-123.5 170,-93.5 0,-93.5"/>
<text text-anchor="start" x="8" y="-111.5" font-family="Helvetica,sans-Serif" font-size="10.00" fill="#000000">JSPMakespanMinimizationSolution</text>
<text text-anchor="middle" x="85" y="-100.5" font-family="Helvetica,sans-Serif" font-size="10.00" fill="#000000">::UpdateHeadsAndTails</text>
</a>
</g>
</g>
<!-- Node175 -->
<g id="node2" class="node">
<title>Node175</title>
<g id="a_node2"><a xlink:href="classJSPMakespanMinimizationSolution.html#a4b5965dd69809fb79768a5f4c462920b" target="_top" xlink:title="Inserts in a container all the tasks in topological order.">
<polygon fill="none" stroke="#000000" points="206,-181.5 206,-211.5 376,-211.5 376,-181.5 206,-181.5"/>
<text text-anchor="start" x="214" y="-199.5" font-family="Helvetica,sans-Serif" font-size="10.00" fill="#000000">JSPMakespanMinimizationSolution</text>
<text text-anchor="middle" x="291" y="-188.5" font-family="Helvetica,sans-Serif" font-size="10.00" fill="#000000">::GetTasksTopologicalOrder</text>
</a>
</g>
</g>
<!-- Node174&#45;&gt;Node175 -->
<g id="edge1" class="edge">
<title>Node174&#45;&gt;Node175</title>
<path fill="none" stroke="#191970" d="M114.4313,-123.7063C138.6872,-135.9706 174.1527,-153.2921 206,-166.5 215.5303,-170.4525 225.7895,-174.3589 235.77,-177.9808"/>
<polygon fill="#191970" stroke="#191970" points="234.626,-181.2888 245.2206,-181.3585 236.9819,-174.6971 234.626,-181.2888"/>
</g>
<!-- Node176 -->
<g id="node3" class="node">
<title>Node176</title>
<g id="a_node3"><a xlink:href="classJSPMakespanMinimizationSolution.html#a07f32775230bfb3a2ccd4f44f7bffb6a" target="_top" xlink:title="Returns a pair with the tasks that are scheduled after the specified task. The first component is the...">
<polygon fill="none" stroke="#000000" points="412,-164.5 412,-194.5 582,-194.5 582,-164.5 412,-164.5"/>
<text text-anchor="start" x="420" y="-182.5" font-family="Helvetica,sans-Serif" font-size="10.00" fill="#000000">JSPMakespanMinimizationSolution</text>
<text text-anchor="middle" x="497" y="-171.5" font-family="Helvetica,sans-Serif" font-size="10.00" fill="#000000">::GetNextTasks</text>
</a>
</g>
</g>
<!-- Node174&#45;&gt;Node176 -->
<g id="edge8" class="edge">
<title>Node174&#45;&gt;Node176</title>
<path fill="none" stroke="#191970" d="M154.9532,-123.5354C171.6503,-126.9628 189.4341,-130.481 206,-133.5 271.1516,-145.3732 344.8378,-157.003 401.7599,-165.5985"/>
<polygon fill="#191970" stroke="#191970" points="401.4166,-169.0862 411.8262,-167.1134 402.4584,-162.1642 401.4166,-169.0862"/>
</g>
<!-- Node177 -->
<g id="node4" class="node">
<title>Node177</title>
<g id="a_node4"><a xlink:href="classJSPMakespanMinimizationSolution.html#acb6b836e6ccea549562ec0e2ae0e2d7b" target="_top" xlink:title="Returns a pair with the tasks that are scheduled before the specified task. The first component is th...">
<polygon fill="none" stroke="#000000" points="206,-93.5 206,-123.5 376,-123.5 376,-93.5 206,-93.5"/>
<text text-anchor="start" x="214" y="-111.5" font-family="Helvetica,sans-Serif" font-size="10.00" fill="#000000">JSPMakespanMinimizationSolution</text>
<text text-anchor="middle" x="291" y="-100.5" font-family="Helvetica,sans-Serif" font-size="10.00" fill="#000000">::GetPrevTasks</text>
</a>
</g>
</g>
<!-- Node174&#45;&gt;Node177 -->
<g id="edge3" class="edge">
<title>Node174&#45;&gt;Node177</title>
<path fill="none" stroke="#191970" d="M170.2751,-108.5C178.6164,-108.5 187.1176,-108.5 195.551,-108.5"/>
<polygon fill="#191970" stroke="#191970" points="195.7889,-112.0001 205.7889,-108.5 195.7888,-105.0001 195.7889,-112.0001"/>
</g>
<!-- Node178 -->
<g id="node5" class="node">
<title>Node178</title>
<g id="a_node5"><a xlink:href="namespacestd.html#aabf08e25820a0127a265bb20575664b9" target="_top" xlink:title=" ">
<polygon fill="none" stroke="#000000" points="263.5,-55 263.5,-74 318.5,-74 318.5,-55 263.5,-55"/>
<text text-anchor="middle" x="291" y="-62" font-family="Helvetica,sans-Serif" font-size="10.00" fill="#000000">std::max</text>
</a>
</g>
</g>
<!-- Node174&#45;&gt;Node178 -->
<g id="edge4" class="edge">
<title>Node174&#45;&gt;Node178</title>
<path fill="none" stroke="#191970" d="M155.3174,-93.4808C188.1834,-86.4608 226.0023,-78.383 253.35,-72.5417"/>
<polygon fill="#191970" stroke="#191970" points="254.2382,-75.9311 263.2865,-70.4194 252.7759,-69.0855 254.2382,-75.9311"/>
</g>
<!-- Node182 -->
<g id="node9" class="node">
<title>Node182</title>
<g id="a_node9"><a xlink:href="classJSPMakespanMinimizationSolution.html#a6a196bbd5a7a0a1bbeb6ab46721a5027" target="_top" xlink:title="Returns the problem that the solution solves.">
<polygon fill="none" stroke="#000000" points="206,-5.5 206,-35.5 376,-35.5 376,-5.5 206,-5.5"/>
<text text-anchor="start" x="214" y="-23.5" font-family="Helvetica,sans-Serif" font-size="10.00" fill="#000000">JSPMakespanMinimizationSolution</text>
<text text-anchor="middle" x="291" y="-12.5" font-family="Helvetica,sans-Serif" font-size="10.00" fill="#000000">::GetProblem</text>
</a>
</g>
</g>
<!-- Node174&#45;&gt;Node182 -->
<g id="edge9" class="edge">
<title>Node174&#45;&gt;Node182</title>
<path fill="none" stroke="#191970" d="M110.2779,-93.4922C134.2953,-79.6823 171.7308,-59.3087 206,-45.5 211.8986,-43.1232 218.109,-40.862 224.3765,-38.7411"/>
<polygon fill="#191970" stroke="#191970" points="225.813,-41.9542 234.236,-35.5273 223.6436,-35.2988 225.813,-41.9542"/>
</g>
<!-- Node175&#45;&gt;Node176 -->
<g id="edge2" class="edge">
<title>Node175&#45;&gt;Node176</title>
<path fill="none" stroke="#191970" d="M376.2751,-189.4627C384.6164,-188.7744 393.1176,-188.0728 401.551,-187.3769"/>
<polygon fill="#191970" stroke="#191970" points="402.1106,-190.8427 411.7889,-186.532 401.5349,-183.8664 402.1106,-190.8427"/>
</g>
<!-- Node179 -->
<g id="node6" class="node">
<title>Node179</title>
<g id="a_node6"><a xlink:href="classTriangularFuzzyNumber.html#afe61a993d8d969f858845dbb6b5eb7a0" target="_top" xlink:title="Returns the smallest possible value.">
<polygon fill="none" stroke="#000000" points="437,-98.5 437,-128.5 557,-128.5 557,-98.5 437,-98.5"/>
<text text-anchor="start" x="445" y="-116.5" font-family="Helvetica,sans-Serif" font-size="10.00" fill="#000000">TriangularFuzzyNumber</text>
<text text-anchor="middle" x="497" y="-105.5" font-family="Helvetica,sans-Serif" font-size="10.00" fill="#000000">::GetSmallest</text>
</a>
</g>
</g>
<!-- Node178&#45;&gt;Node179 -->
<g id="edge5" class="edge">
<title>Node178&#45;&gt;Node179</title>
<path fill="none" stroke="#191970" d="M318.5689,-70.9563C335.2057,-74.8601 356.8254,-79.9464 376,-84.5 392.3607,-88.3853 409.9595,-92.5892 426.5308,-96.5587"/>
<polygon fill="#191970" stroke="#191970" points="426.1554,-100.0677 436.6958,-98.995 427.787,-93.2605 426.1554,-100.0677"/>
</g>
<!-- Node180 -->
<g id="node7" class="node">
<title>Node180</title>
<g id="a_node7"><a xlink:href="classTriangularFuzzyNumber.html#ac79e432898eb12448e54d085295a09f9" target="_top" xlink:title="Returns the most probable value.">
<polygon fill="none" stroke="#000000" points="437,-49.5 437,-79.5 557,-79.5 557,-49.5 437,-49.5"/>
<text text-anchor="start" x="445" y="-67.5" font-family="Helvetica,sans-Serif" font-size="10.00" fill="#000000">TriangularFuzzyNumber</text>
<text text-anchor="middle" x="497" y="-56.5" font-family="Helvetica,sans-Serif" font-size="10.00" fill="#000000">::GetMostProbable</text>
</a>
</g>
</g>
<!-- Node178&#45;&gt;Node180 -->
<g id="edge6" class="edge">
<title>Node178&#45;&gt;Node180</title>
<path fill="none" stroke="#191970" d="M318.7821,-64.5C346.2875,-64.5 389.5281,-64.5 426.5281,-64.5"/>
<polygon fill="#191970" stroke="#191970" points="426.7802,-68.0001 436.7802,-64.5 426.7801,-61.0001 426.7802,-68.0001"/>
</g>
<!-- Node181 -->
<g id="node8" class="node">
<title>Node181</title>
<g id="a_node8"><a xlink:href="classTriangularFuzzyNumber.html#a0133fef04fbb1a8e571d117c01c6af71" target="_top" xlink:title="Returns the largest possible value.">
<polygon fill="none" stroke="#000000" points="437,-.5 437,-30.5 557,-30.5 557,-.5 437,-.5"/>
<text text-anchor="start" x="445" y="-18.5" font-family="Helvetica,sans-Serif" font-size="10.00" fill="#000000">TriangularFuzzyNumber</text>
<text text-anchor="middle" x="497" y="-7.5" font-family="Helvetica,sans-Serif" font-size="10.00" fill="#000000">::GetLargest</text>
</a>
</g>
</g>
<!-- Node178&#45;&gt;Node181 -->
<g id="edge7" class="edge">
<title>Node178&#45;&gt;Node181</title>
<path fill="none" stroke="#191970" d="M318.599,-58.5C335.2465,-54.8388 356.8668,-50.0097 376,-45.5 392.7292,-41.557 410.7231,-37.1733 427.5873,-33.0019"/>
<polygon fill="#191970" stroke="#191970" points="428.5051,-36.3804 437.368,-30.5753 426.8195,-29.5864 428.5051,-36.3804"/>
</g>
</g>
</svg>
