<?xml version="1.0" encoding="UTF-8" standalone="no"?>
<!DOCTYPE svg PUBLIC "-//W3C//DTD SVG 1.1//EN"
 "http://www.w3.org/Graphics/SVG/1.1/DTD/svg11.dtd">
<!-- Generated by graphviz version 2.40.1 (20161225.0304)
 -->
<!-- Title: PermutationWithRepetition::EvaluateSolutionMakespan Pages: 1 -->
<svg width="475pt" height="137pt"
 viewBox="0.00 0.00 475.00 137.00" xmlns="http://www.w3.org/2000/svg" xmlns:xlink="http://www.w3.org/1999/xlink">
<g id="graph0" class="graph" transform="scale(1 1) rotate(0) translate(4 133)">
<title>PermutationWithRepetition::EvaluateSolutionMakespan</title>
<!-- Node4 -->
<g id="node1" class="node">
<title>Node4</title>
<g id="a_node1"><a xlink:title="Returns the makespan of an encoded solution and updates the chromosome accordingly.">
<polygon fill="#bfbfbf" stroke="#000000" points="0,-71.5 0,-101.5 141,-101.5 141,-71.5 0,-71.5"/>
<text text-anchor="start" x="8" y="-89.5" font-family="Helvetica,sans-Serif" font-size="10.00" fill="#000000">PermutationWithRepetition</text>
<text text-anchor="middle" x="70.5" y="-78.5" font-family="Helvetica,sans-Serif" font-size="10.00" fill="#000000">::EvaluateSolutionMakespan</text>
</a>
</g>
</g>
<!-- Node5 -->
<g id="node2" class="node">
<title>Node5</title>
<g id="a_node2"><a xlink:href="classPermutationWithRepetition.html#a01946e3ec6be5a4c8fadac70d6fe5b0a" target="_top" xlink:title="Inserts in a container the tasks and its priorities according to the genes in the encoded solution.">
<polygon fill="none" stroke="#000000" points="177,-93.5 177,-123.5 311,-123.5 311,-93.5 177,-93.5"/>
<text text-anchor="start" x="185" y="-111.5" font-family="Helvetica,sans-Serif" font-size="10.00" fill="#000000">PermutationWithRepetition</text>
<text text-anchor="middle" x="244" y="-100.5" font-family="Helvetica,sans-Serif" font-size="10.00" fill="#000000">::CalculatePriorities</text>
</a>
</g>
</g>
<!-- Node4&#45;&gt;Node5 -->
<g id="edge1" class="edge">
<title>Node4&#45;&gt;Node5</title>
<path fill="none" stroke="#191970" d="M141.0691,-95.4482C149.5654,-96.5256 158.2764,-97.6302 166.8604,-98.7186"/>
<polygon fill="#191970" stroke="#191970" points="166.4974,-102.2005 176.8583,-99.9864 167.378,-95.2561 166.4974,-102.2005"/>
</g>
<!-- Node6 -->
<g id="node3" class="node">
<title>Node6</title>
<g id="a_node3"><a xlink:href="namespacestd.html#aabf08e25820a0127a265bb20575664b9" target="_top" xlink:title=" ">
<polygon fill="none" stroke="#000000" points="216.5,-55 216.5,-74 271.5,-74 271.5,-55 216.5,-55"/>
<text text-anchor="middle" x="244" y="-62" font-family="Helvetica,sans-Serif" font-size="10.00" fill="#000000">std::max</text>
</a>
</g>
</g>
<!-- Node4&#45;&gt;Node6 -->
<g id="edge2" class="edge">
<title>Node4&#45;&gt;Node6</title>
<path fill="none" stroke="#191970" d="M141.0691,-77.5518C163.3917,-74.7212 187.1963,-71.7028 206.2846,-69.2824"/>
<polygon fill="#191970" stroke="#191970" points="206.8843,-72.7344 216.3646,-68.0042 206.0037,-65.79 206.8843,-72.7344"/>
</g>
<!-- Node7 -->
<g id="node4" class="node">
<title>Node7</title>
<g id="a_node4"><a xlink:href="classTriangularFuzzyNumber.html#afe61a993d8d969f858845dbb6b5eb7a0" target="_top" xlink:title="Returns the smallest possible value.">
<polygon fill="none" stroke="#000000" points="347,-98.5 347,-128.5 467,-128.5 467,-98.5 347,-98.5"/>
<text text-anchor="start" x="355" y="-116.5" font-family="Helvetica,sans-Serif" font-size="10.00" fill="#000000">TriangularFuzzyNumber</text>
<text text-anchor="middle" x="407" y="-105.5" font-family="Helvetica,sans-Serif" font-size="10.00" fill="#000000">::GetSmallest</text>
</a>
</g>
</g>
<!-- Node6&#45;&gt;Node7 -->
<g id="edge3" class="edge">
<title>Node6&#45;&gt;Node7</title>
<path fill="none" stroke="#191970" d="M271.7141,-72.7507C283.7847,-76.3499 298.0949,-80.6247 311,-84.5 322.7245,-88.0208 335.2506,-91.7953 347.2533,-95.4184"/>
<polygon fill="#191970" stroke="#191970" points="346.5986,-98.8768 357.1835,-98.4174 348.6225,-92.1757 346.5986,-98.8768"/>
</g>
<!-- Node8 -->
<g id="node5" class="node">
<title>Node8</title>
<g id="a_node5"><a xlink:href="classTriangularFuzzyNumber.html#ac79e432898eb12448e54d085295a09f9" target="_top" xlink:title="Returns the most probable value.">
<polygon fill="none" stroke="#000000" points="347,-49.5 347,-79.5 467,-79.5 467,-49.5 347,-49.5"/>
<text text-anchor="start" x="355" y="-67.5" font-family="Helvetica,sans-Serif" font-size="10.00" fill="#000000">TriangularFuzzyNumber</text>
<text text-anchor="middle" x="407" y="-56.5" font-family="Helvetica,sans-Serif" font-size="10.00" fill="#000000">::GetMostProbable</text>
</a>
</g>
</g>
<!-- Node6&#45;&gt;Node8 -->
<g id="edge4" class="edge">
<title>Node6&#45;&gt;Node8</title>
<path fill="none" stroke="#191970" d="M271.6507,-64.5C289.532,-64.5 313.6731,-64.5 336.6165,-64.5"/>
<polygon fill="#191970" stroke="#191970" points="336.6993,-68.0001 346.6992,-64.5 336.6992,-61.0001 336.6993,-68.0001"/>
</g>
<!-- Node9 -->
<g id="node6" class="node">
<title>Node9</title>
<g id="a_node6"><a xlink:href="classTriangularFuzzyNumber.html#a0133fef04fbb1a8e571d117c01c6af71" target="_top" xlink:title="Returns the largest possible value.">
<polygon fill="none" stroke="#000000" points="347,-.5 347,-30.5 467,-30.5 467,-.5 347,-.5"/>
<text text-anchor="start" x="355" y="-18.5" font-family="Helvetica,sans-Serif" font-size="10.00" fill="#000000">TriangularFuzzyNumber</text>
<text text-anchor="middle" x="407" y="-7.5" font-family="Helvetica,sans-Serif" font-size="10.00" fill="#000000">::GetLargest</text>
</a>
</g>
</g>
<!-- Node6&#45;&gt;Node9 -->
<g id="edge5" class="edge">
<title>Node6&#45;&gt;Node9</title>
<path fill="none" stroke="#191970" d="M271.6507,-56.1878C292.3495,-49.9655 321.4362,-41.2216 347.3433,-33.4336"/>
<polygon fill="#191970" stroke="#191970" points="348.5237,-36.7336 357.0927,-30.5028 346.5085,-30.0299 348.5237,-36.7336"/>
</g>
</g>
</svg>
