<?xml version="1.0" encoding="UTF-8" standalone="no"?>
<!DOCTYPE svg PUBLIC "-//W3C//DTD SVG 1.1//EN"
 "http://www.w3.org/Graphics/SVG/1.1/DTD/svg11.dtd">
<!-- Generated by graphviz version 2.40.1 (20161225.0304)
 -->
<!-- Title: JSPTotalWeightedTardinessMinimizationSolution::operator&gt; Pages: 1 -->
<svg width="989pt" height="280pt"
 viewBox="0.00 0.00 989.00 279.50" xmlns="http://www.w3.org/2000/svg" xmlns:xlink="http://www.w3.org/1999/xlink">
<g id="graph0" class="graph" transform="scale(1 1) rotate(0) translate(4 275.5)">
<title>JSPTotalWeightedTardinessMinimizationSolution::operator&gt;</title>
<!-- Node120 -->
<g id="node1" class="node">
<title>Node120</title>
<g id="a_node1"><a xlink:title=" ">
<polygon fill="#bfbfbf" stroke="#000000" points="0,-95.5 0,-125.5 154,-125.5 154,-95.5 0,-95.5"/>
<text text-anchor="start" x="8" y="-113.5" font-family="Helvetica,sans-Serif" font-size="10.00" fill="#000000">JSPTotalWeightedTardiness</text>
<text text-anchor="middle" x="77" y="-102.5" font-family="Helvetica,sans-Serif" font-size="10.00" fill="#000000">MinimizationSolution::operator&gt;</text>
</a>
</g>
</g>
<!-- Node121 -->
<g id="node2" class="node">
<title>Node121</title>
<g id="a_node2"><a xlink:href="classJSPTotalWeightedTardinessMinimizationSolution.html#a16125d45de3069850197292176085da6" target="_top" xlink:title="Returns the quality of the solution.">
<polygon fill="none" stroke="#000000" points="190,-95.5 190,-125.5 349,-125.5 349,-95.5 190,-95.5"/>
<text text-anchor="start" x="198" y="-113.5" font-family="Helvetica,sans-Serif" font-size="10.00" fill="#000000">JSPTotalWeightedTardiness</text>
<text text-anchor="middle" x="269.5" y="-102.5" font-family="Helvetica,sans-Serif" font-size="10.00" fill="#000000">MinimizationSolution::GetQuality</text>
</a>
</g>
</g>
<!-- Node120&#45;&gt;Node121 -->
<g id="edge1" class="edge">
<title>Node120&#45;&gt;Node121</title>
<path fill="none" stroke="#191970" d="M154.1879,-110.5C162.5167,-110.5 171.0438,-110.5 179.5061,-110.5"/>
<polygon fill="#191970" stroke="#191970" points="179.7786,-114.0001 189.7785,-110.5 179.7785,-107.0001 179.7786,-114.0001"/>
</g>
<!-- Node122 -->
<g id="node3" class="node">
<title>Node122</title>
<g id="a_node3"><a xlink:href="classJSPTotalWeightedTardinessMinimizationSolution.html#add102398703fa0d4ab3f817660c56de2" target="_top" xlink:title="Updates the head and tail of all the tasks that have been affected by modifications since the last ca...">
<polygon fill="none" stroke="#000000" points="385,-126 385,-167 558,-167 558,-126 385,-126"/>
<text text-anchor="start" x="393" y="-155" font-family="Helvetica,sans-Serif" font-size="10.00" fill="#000000">JSPTotalWeightedTardiness</text>
<text text-anchor="start" x="393" y="-144" font-family="Helvetica,sans-Serif" font-size="10.00" fill="#000000">MinimizationSolution::UpdateHeads</text>
<text text-anchor="middle" x="471.5" y="-133" font-family="Helvetica,sans-Serif" font-size="10.00" fill="#000000">AndTails</text>
</a>
</g>
</g>
<!-- Node121&#45;&gt;Node122 -->
<g id="edge2" class="edge">
<title>Node121&#45;&gt;Node122</title>
<path fill="none" stroke="#191970" d="M349.0458,-124.6765C357.4572,-126.1755 366.0768,-127.7117 374.6564,-129.2407"/>
<polygon fill="#191970" stroke="#191970" points="374.2357,-132.7208 384.6947,-131.0298 375.464,-125.8294 374.2357,-132.7208"/>
</g>
<!-- Node126 -->
<g id="node7" class="node">
<title>Node126</title>
<g id="a_node7"><a xlink:href="namespacestd.html#aabf08e25820a0127a265bb20575664b9" target="_top" xlink:title=" ">
<polygon fill="none" stroke="#000000" points="654,-55 654,-74 709,-74 709,-55 654,-55"/>
<text text-anchor="middle" x="681.5" y="-62" font-family="Helvetica,sans-Serif" font-size="10.00" fill="#000000">std::max</text>
</a>
</g>
</g>
<!-- Node121&#45;&gt;Node126 -->
<g id="edge12" class="edge">
<title>Node121&#45;&gt;Node126</title>
<path fill="none" stroke="#191970" d="M349.4263,-101.5762C438.0539,-91.6809 577.2693,-76.1374 643.7343,-68.7166"/>
<polygon fill="#191970" stroke="#191970" points="644.2082,-72.1855 653.758,-67.5974 643.4314,-65.2287 644.2082,-72.1855"/>
</g>
<!-- Node123 -->
<g id="node4" class="node">
<title>Node123</title>
<g id="a_node4"><a xlink:href="classJSPTotalWeightedTardinessMinimizationSolution.html#ab231b628d8113f4987804c9fcbd8905b" target="_top" xlink:title="Inserts in a container all the tasks in topological order.">
<polygon fill="none" stroke="#000000" points="604,-230 604,-271 759,-271 759,-230 604,-230"/>
<text text-anchor="start" x="612" y="-259" font-family="Helvetica,sans-Serif" font-size="10.00" fill="#000000">JSPTotalWeightedTardiness</text>
<text text-anchor="start" x="612" y="-248" font-family="Helvetica,sans-Serif" font-size="10.00" fill="#000000">MinimizationSolution::GetTasks</text>
<text text-anchor="middle" x="681.5" y="-237" font-family="Helvetica,sans-Serif" font-size="10.00" fill="#000000">TopologicalOrder</text>
</a>
</g>
</g>
<!-- Node122&#45;&gt;Node123 -->
<g id="edge3" class="edge">
<title>Node122&#45;&gt;Node123</title>
<path fill="none" stroke="#191970" d="M505.1785,-167.0688C529.4339,-181.4846 563.181,-200.7365 594,-215.5 601.5299,-219.1071 609.5348,-222.6669 617.526,-226.055"/>
<polygon fill="#191970" stroke="#191970" points="616.2943,-229.3334 626.8714,-229.9459 618.9849,-222.8711 616.2943,-229.3334"/>
</g>
<!-- Node124 -->
<g id="node5" class="node">
<title>Node124</title>
<g id="a_node5"><a xlink:href="classJSPTotalWeightedTardinessMinimizationSolution.html#a41c4bea1c8348de5dd0b18255cd14c96" target="_top" xlink:title="Returns a pair with the tasks that are scheduled after the specified task. The first component is the...">
<polygon fill="none" stroke="#000000" points="805,-210.5 805,-240.5 981,-240.5 981,-210.5 805,-210.5"/>
<text text-anchor="start" x="813" y="-228.5" font-family="Helvetica,sans-Serif" font-size="10.00" fill="#000000">JSPTotalWeightedTardiness</text>
<text text-anchor="middle" x="893" y="-217.5" font-family="Helvetica,sans-Serif" font-size="10.00" fill="#000000">MinimizationSolution::GetNextTasks</text>
</a>
</g>
</g>
<!-- Node122&#45;&gt;Node124 -->
<g id="edge11" class="edge">
<title>Node122&#45;&gt;Node124</title>
<path fill="none" stroke="#191970" d="M537.2144,-167.0041C555.4787,-172.2293 575.4049,-177.4937 594,-181.5 660.4269,-195.8115 736.1659,-206.9036 794.7949,-214.371"/>
<polygon fill="#191970" stroke="#191970" points="794.4342,-217.8531 804.7932,-215.6305 795.3091,-210.908 794.4342,-217.8531"/>
</g>
<!-- Node125 -->
<g id="node6" class="node">
<title>Node125</title>
<g id="a_node6"><a xlink:href="classJSPTotalWeightedTardinessMinimizationSolution.html#ae35f63c78d6899bdaa4ccc044891fef6" target="_top" xlink:title="Returns a pair with the tasks that are scheduled before the specified task. The first component is th...">
<polygon fill="none" stroke="#000000" points="594,-142.5 594,-172.5 769,-172.5 769,-142.5 594,-142.5"/>
<text text-anchor="start" x="602" y="-160.5" font-family="Helvetica,sans-Serif" font-size="10.00" fill="#000000">JSPTotalWeightedTardiness</text>
<text text-anchor="middle" x="681.5" y="-149.5" font-family="Helvetica,sans-Serif" font-size="10.00" fill="#000000">MinimizationSolution::GetPrevTasks</text>
</a>
</g>
</g>
<!-- Node122&#45;&gt;Node125 -->
<g id="edge5" class="edge">
<title>Node122&#45;&gt;Node125</title>
<path fill="none" stroke="#191970" d="M558.1275,-151.0376C566.5729,-151.48 575.182,-151.931 583.7269,-152.3786"/>
<polygon fill="#191970" stroke="#191970" points="583.5454,-155.8738 593.7149,-152.9017 583.9117,-148.8833 583.5454,-155.8738"/>
</g>
<!-- Node122&#45;&gt;Node126 -->
<g id="edge6" class="edge">
<title>Node122&#45;&gt;Node126</title>
<path fill="none" stroke="#191970" d="M510.217,-125.9463C542.7638,-108.7756 585.3334,-86.6088 594,-83.5 609.9638,-77.7736 628.2132,-73.4771 643.9006,-70.432"/>
<polygon fill="#191970" stroke="#191970" points="644.5898,-73.864 653.7897,-68.6091 643.3208,-66.9799 644.5898,-73.864"/>
</g>
<!-- Node130 -->
<g id="node11" class="node">
<title>Node130</title>
<g id="a_node11"><a xlink:href="classJSPTotalWeightedTardinessMinimizationSolution.html#a223b298444c077682038c4716d1f032f" target="_top" xlink:title="Returns the problem that the solution solves.">
<polygon fill="none" stroke="#000000" points="599.5,-93.5 599.5,-123.5 763.5,-123.5 763.5,-93.5 599.5,-93.5"/>
<text text-anchor="start" x="607.5" y="-111.5" font-family="Helvetica,sans-Serif" font-size="10.00" fill="#000000">JSPTotalWeightedTardiness</text>
<text text-anchor="middle" x="681.5" y="-100.5" font-family="Helvetica,sans-Serif" font-size="10.00" fill="#000000">MinimizationSolution::GetProblem</text>
</a>
</g>
</g>
<!-- Node122&#45;&gt;Node130 -->
<g id="edge10" class="edge">
<title>Node122&#45;&gt;Node130</title>
<path fill="none" stroke="#191970" d="M558.1275,-130.8246C568.4874,-128.9499 579.0936,-127.0307 589.5256,-125.143"/>
<polygon fill="#191970" stroke="#191970" points="590.2434,-128.57 599.4604,-123.3453 588.9969,-121.6819 590.2434,-128.57"/>
</g>
<!-- Node123&#45;&gt;Node124 -->
<g id="edge4" class="edge">
<title>Node123&#45;&gt;Node124</title>
<path fill="none" stroke="#191970" d="M759.0538,-241.3329C770.6591,-239.9611 782.7531,-238.5316 794.7189,-237.1172"/>
<polygon fill="#191970" stroke="#191970" points="795.2065,-240.584 804.7265,-235.9342 794.3848,-233.6324 795.2065,-240.584"/>
</g>
<!-- Node127 -->
<g id="node8" class="node">
<title>Node127</title>
<g id="a_node8"><a xlink:href="classTriangularFuzzyNumber.html#afe61a993d8d969f858845dbb6b5eb7a0" target="_top" xlink:title="Returns the smallest possible value.">
<polygon fill="none" stroke="#000000" points="833,-98.5 833,-128.5 953,-128.5 953,-98.5 833,-98.5"/>
<text text-anchor="start" x="841" y="-116.5" font-family="Helvetica,sans-Serif" font-size="10.00" fill="#000000">TriangularFuzzyNumber</text>
<text text-anchor="middle" x="893" y="-105.5" font-family="Helvetica,sans-Serif" font-size="10.00" fill="#000000">::GetSmallest</text>
</a>
</g>
</g>
<!-- Node126&#45;&gt;Node127 -->
<g id="edge7" class="edge">
<title>Node126&#45;&gt;Node127</title>
<path fill="none" stroke="#191970" d="M709.1231,-70.3241C726.362,-74.0019 749.0006,-78.91 769,-83.5 786.4143,-87.4967 805.1662,-91.9534 822.6836,-96.1834"/>
<polygon fill="#191970" stroke="#191970" points="822.2926,-99.6898 832.8355,-98.6425 823.9406,-92.8866 822.2926,-99.6898"/>
</g>
<!-- Node128 -->
<g id="node9" class="node">
<title>Node128</title>
<g id="a_node9"><a xlink:href="classTriangularFuzzyNumber.html#ac79e432898eb12448e54d085295a09f9" target="_top" xlink:title="Returns the most probable value.">
<polygon fill="none" stroke="#000000" points="833,-49.5 833,-79.5 953,-79.5 953,-49.5 833,-49.5"/>
<text text-anchor="start" x="841" y="-67.5" font-family="Helvetica,sans-Serif" font-size="10.00" fill="#000000">TriangularFuzzyNumber</text>
<text text-anchor="middle" x="893" y="-56.5" font-family="Helvetica,sans-Serif" font-size="10.00" fill="#000000">::GetMostProbable</text>
</a>
</g>
</g>
<!-- Node126&#45;&gt;Node128 -->
<g id="edge8" class="edge">
<title>Node126&#45;&gt;Node128</title>
<path fill="none" stroke="#191970" d="M709.1499,-64.5C737.8274,-64.5 783.8179,-64.5 822.6251,-64.5"/>
<polygon fill="#191970" stroke="#191970" points="822.8391,-68.0001 832.8391,-64.5 822.8391,-61.0001 822.8391,-68.0001"/>
</g>
<!-- Node129 -->
<g id="node10" class="node">
<title>Node129</title>
<g id="a_node10"><a xlink:href="classTriangularFuzzyNumber.html#a0133fef04fbb1a8e571d117c01c6af71" target="_top" xlink:title="Returns the largest possible value.">
<polygon fill="none" stroke="#000000" points="833,-.5 833,-30.5 953,-30.5 953,-.5 833,-.5"/>
<text text-anchor="start" x="841" y="-18.5" font-family="Helvetica,sans-Serif" font-size="10.00" fill="#000000">TriangularFuzzyNumber</text>
<text text-anchor="middle" x="893" y="-7.5" font-family="Helvetica,sans-Serif" font-size="10.00" fill="#000000">::GetLargest</text>
</a>
</g>
</g>
<!-- Node126&#45;&gt;Node129 -->
<g id="edge9" class="edge">
<title>Node126&#45;&gt;Node129</title>
<path fill="none" stroke="#191970" d="M709.1499,-58.0941C737.8274,-51.4502 783.8179,-40.7951 822.6251,-31.8044"/>
<polygon fill="#191970" stroke="#191970" points="823.8871,-35.1048 832.8391,-29.438 822.3072,-28.2854 823.8871,-35.1048"/>
</g>
</g>
</svg>
