<?xml version="1.0" encoding="UTF-8" standalone="no"?>
<!DOCTYPE svg PUBLIC "-//W3C//DTD SVG 1.1//EN"
 "http://www.w3.org/Graphics/SVG/1.1/DTD/svg11.dtd">
<!-- Generated by graphviz version 2.40.1 (20161225.0304)
 -->
<!-- Title: JSPTotalWeightedTardinessMinimizationSolution::UpdateHeadsAndTails Pages: 1 -->
<svg width="604pt" height="231pt"
 viewBox="0.00 0.00 604.00 230.50" xmlns="http://www.w3.org/2000/svg" xmlns:xlink="http://www.w3.org/1999/xlink">
<g id="graph0" class="graph" transform="scale(1 1) rotate(0) translate(4 226.5)">
<title>JSPTotalWeightedTardinessMinimizationSolution::UpdateHeadsAndTails</title>
<!-- Node160 -->
<g id="node1" class="node">
<title>Node160</title>
<g id="a_node1"><a xlink:title="Updates the head and tail of all the tasks that have been affected by modifications since the last ca...">
<polygon fill="#bfbfbf" stroke="#000000" points="0,-88 0,-129 173,-129 173,-88 0,-88"/>
<text text-anchor="start" x="8" y="-117" font-family="Helvetica,sans-Serif" font-size="10.00" fill="#000000">JSPTotalWeightedTardiness</text>
<text text-anchor="start" x="8" y="-106" font-family="Helvetica,sans-Serif" font-size="10.00" fill="#000000">MinimizationSolution::UpdateHeads</text>
<text text-anchor="middle" x="86.5" y="-95" font-family="Helvetica,sans-Serif" font-size="10.00" fill="#000000">AndTails</text>
</a>
</g>
</g>
<!-- Node161 -->
<g id="node2" class="node">
<title>Node161</title>
<g id="a_node2"><a xlink:href="classJSPTotalWeightedTardinessMinimizationSolution.html#ab231b628d8113f4987804c9fcbd8905b" target="_top" xlink:title="Inserts in a container all the tasks in topological order.">
<polygon fill="none" stroke="#000000" points="219,-181 219,-222 374,-222 374,-181 219,-181"/>
<text text-anchor="start" x="227" y="-210" font-family="Helvetica,sans-Serif" font-size="10.00" fill="#000000">JSPTotalWeightedTardiness</text>
<text text-anchor="start" x="227" y="-199" font-family="Helvetica,sans-Serif" font-size="10.00" fill="#000000">MinimizationSolution::GetTasks</text>
<text text-anchor="middle" x="296.5" y="-188" font-family="Helvetica,sans-Serif" font-size="10.00" fill="#000000">TopologicalOrder</text>
</a>
</g>
</g>
<!-- Node160&#45;&gt;Node161 -->
<g id="edge1" class="edge">
<title>Node160&#45;&gt;Node161</title>
<path fill="none" stroke="#191970" d="M128.162,-129.0083C151.7245,-140.4093 181.8246,-154.645 209,-166.5 217.0629,-170.0174 225.5985,-173.6011 234.0528,-177.0682"/>
<polygon fill="#191970" stroke="#191970" points="232.9519,-180.3988 243.5337,-180.9233 235.5886,-173.9143 232.9519,-180.3988"/>
</g>
<!-- Node162 -->
<g id="node3" class="node">
<title>Node162</title>
<g id="a_node3"><a xlink:href="classJSPTotalWeightedTardinessMinimizationSolution.html#a41c4bea1c8348de5dd0b18255cd14c96" target="_top" xlink:title="Returns a pair with the tasks that are scheduled after the specified task. The first component is the...">
<polygon fill="none" stroke="#000000" points="420,-167.5 420,-197.5 596,-197.5 596,-167.5 420,-167.5"/>
<text text-anchor="start" x="428" y="-185.5" font-family="Helvetica,sans-Serif" font-size="10.00" fill="#000000">JSPTotalWeightedTardiness</text>
<text text-anchor="middle" x="508" y="-174.5" font-family="Helvetica,sans-Serif" font-size="10.00" fill="#000000">MinimizationSolution::GetNextTasks</text>
</a>
</g>
</g>
<!-- Node160&#45;&gt;Node162 -->
<g id="edge9" class="edge">
<title>Node160&#45;&gt;Node162</title>
<path fill="none" stroke="#191970" d="M173.0838,-126.6064C185.1327,-128.9986 197.3655,-131.3603 209,-133.5 275.878,-145.7995 351.4561,-158.1719 409.8945,-167.4073"/>
<polygon fill="#191970" stroke="#191970" points="409.4365,-170.8782 419.8596,-168.978 410.5265,-163.9636 409.4365,-170.8782"/>
</g>
<!-- Node163 -->
<g id="node4" class="node">
<title>Node163</title>
<g id="a_node4"><a xlink:href="classJSPTotalWeightedTardinessMinimizationSolution.html#ae35f63c78d6899bdaa4ccc044891fef6" target="_top" xlink:title="Returns a pair with the tasks that are scheduled before the specified task. The first component is th...">
<polygon fill="none" stroke="#000000" points="209,-93.5 209,-123.5 384,-123.5 384,-93.5 209,-93.5"/>
<text text-anchor="start" x="217" y="-111.5" font-family="Helvetica,sans-Serif" font-size="10.00" fill="#000000">JSPTotalWeightedTardiness</text>
<text text-anchor="middle" x="296.5" y="-100.5" font-family="Helvetica,sans-Serif" font-size="10.00" fill="#000000">MinimizationSolution::GetPrevTasks</text>
</a>
</g>
</g>
<!-- Node160&#45;&gt;Node163 -->
<g id="edge3" class="edge">
<title>Node160&#45;&gt;Node163</title>
<path fill="none" stroke="#191970" d="M173.1275,-108.5C181.4811,-108.5 189.9948,-108.5 198.4483,-108.5"/>
<polygon fill="#191970" stroke="#191970" points="198.7149,-112.0001 208.7149,-108.5 198.7148,-105.0001 198.7149,-112.0001"/>
</g>
<!-- Node164 -->
<g id="node5" class="node">
<title>Node164</title>
<g id="a_node5"><a xlink:href="namespacestd.html#aabf08e25820a0127a265bb20575664b9" target="_top" xlink:title=" ">
<polygon fill="none" stroke="#000000" points="269,-55 269,-74 324,-74 324,-55 269,-55"/>
<text text-anchor="middle" x="296.5" y="-62" font-family="Helvetica,sans-Serif" font-size="10.00" fill="#000000">std::max</text>
</a>
</g>
</g>
<!-- Node160&#45;&gt;Node164 -->
<g id="edge4" class="edge">
<title>Node160&#45;&gt;Node164</title>
<path fill="none" stroke="#191970" d="M173.1275,-90.3495C203.0466,-84.0807 235.0198,-77.3816 258.9187,-72.3742"/>
<polygon fill="#191970" stroke="#191970" points="259.8956,-75.7456 268.9653,-70.2692 258.46,-68.8944 259.8956,-75.7456"/>
</g>
<!-- Node168 -->
<g id="node9" class="node">
<title>Node168</title>
<g id="a_node9"><a xlink:href="classJSPTotalWeightedTardinessMinimizationSolution.html#a223b298444c077682038c4716d1f032f" target="_top" xlink:title="Returns the problem that the solution solves.">
<polygon fill="none" stroke="#000000" points="214.5,-5.5 214.5,-35.5 378.5,-35.5 378.5,-5.5 214.5,-5.5"/>
<text text-anchor="start" x="222.5" y="-23.5" font-family="Helvetica,sans-Serif" font-size="10.00" fill="#000000">JSPTotalWeightedTardiness</text>
<text text-anchor="middle" x="296.5" y="-12.5" font-family="Helvetica,sans-Serif" font-size="10.00" fill="#000000">MinimizationSolution::GetProblem</text>
</a>
</g>
</g>
<!-- Node160&#45;&gt;Node168 -->
<g id="edge8" class="edge">
<title>Node160&#45;&gt;Node168</title>
<path fill="none" stroke="#191970" d="M121.8144,-87.982C145.8327,-74.6208 178.6443,-57.5069 209,-45.5 215.1199,-43.0794 221.5649,-40.7845 228.0672,-38.6387"/>
<polygon fill="#191970" stroke="#191970" points="229.1358,-41.9717 237.6036,-35.6041 227.0131,-35.3012 229.1358,-41.9717"/>
</g>
<!-- Node161&#45;&gt;Node162 -->
<g id="edge2" class="edge">
<title>Node161&#45;&gt;Node162</title>
<path fill="none" stroke="#191970" d="M374.0538,-194.533C385.6591,-193.4904 397.7531,-192.404 409.7189,-191.329"/>
<polygon fill="#191970" stroke="#191970" points="410.0798,-194.8108 419.7265,-190.43 409.4534,-187.8389 410.0798,-194.8108"/>
</g>
<!-- Node165 -->
<g id="node6" class="node">
<title>Node165</title>
<g id="a_node6"><a xlink:href="classTriangularFuzzyNumber.html#afe61a993d8d969f858845dbb6b5eb7a0" target="_top" xlink:title="Returns the smallest possible value.">
<polygon fill="none" stroke="#000000" points="448,-98.5 448,-128.5 568,-128.5 568,-98.5 448,-98.5"/>
<text text-anchor="start" x="456" y="-116.5" font-family="Helvetica,sans-Serif" font-size="10.00" fill="#000000">TriangularFuzzyNumber</text>
<text text-anchor="middle" x="508" y="-105.5" font-family="Helvetica,sans-Serif" font-size="10.00" fill="#000000">::GetSmallest</text>
</a>
</g>
</g>
<!-- Node164&#45;&gt;Node165 -->
<g id="edge5" class="edge">
<title>Node164&#45;&gt;Node165</title>
<path fill="none" stroke="#191970" d="M324.0942,-70.7699C341.3222,-74.6937 363.9595,-79.8662 384,-84.5 401.3762,-88.5177 420.114,-92.8829 437.63,-96.9777"/>
<polygon fill="#191970" stroke="#191970" points="437.248,-100.4827 447.7824,-99.3527 438.8426,-93.6668 437.248,-100.4827"/>
</g>
<!-- Node166 -->
<g id="node7" class="node">
<title>Node166</title>
<g id="a_node7"><a xlink:href="classTriangularFuzzyNumber.html#ac79e432898eb12448e54d085295a09f9" target="_top" xlink:title="Returns the most probable value.">
<polygon fill="none" stroke="#000000" points="448,-49.5 448,-79.5 568,-79.5 568,-49.5 448,-49.5"/>
<text text-anchor="start" x="456" y="-67.5" font-family="Helvetica,sans-Serif" font-size="10.00" fill="#000000">TriangularFuzzyNumber</text>
<text text-anchor="middle" x="508" y="-56.5" font-family="Helvetica,sans-Serif" font-size="10.00" fill="#000000">::GetMostProbable</text>
</a>
</g>
</g>
<!-- Node164&#45;&gt;Node166 -->
<g id="edge6" class="edge">
<title>Node164&#45;&gt;Node166</title>
<path fill="none" stroke="#191970" d="M324.1499,-64.5C352.8274,-64.5 398.8179,-64.5 437.6251,-64.5"/>
<polygon fill="#191970" stroke="#191970" points="437.8391,-68.0001 447.8391,-64.5 437.8391,-61.0001 437.8391,-68.0001"/>
</g>
<!-- Node167 -->
<g id="node8" class="node">
<title>Node167</title>
<g id="a_node8"><a xlink:href="classTriangularFuzzyNumber.html#a0133fef04fbb1a8e571d117c01c6af71" target="_top" xlink:title="Returns the largest possible value.">
<polygon fill="none" stroke="#000000" points="448,-.5 448,-30.5 568,-30.5 568,-.5 448,-.5"/>
<text text-anchor="start" x="456" y="-18.5" font-family="Helvetica,sans-Serif" font-size="10.00" fill="#000000">TriangularFuzzyNumber</text>
<text text-anchor="middle" x="508" y="-7.5" font-family="Helvetica,sans-Serif" font-size="10.00" fill="#000000">::GetLargest</text>
</a>
</g>
</g>
<!-- Node164&#45;&gt;Node167 -->
<g id="edge7" class="edge">
<title>Node164&#45;&gt;Node167</title>
<path fill="none" stroke="#191970" d="M324.1231,-58.6759C341.362,-54.9981 364.0006,-50.09 384,-45.5 401.4143,-41.5033 420.1662,-37.0466 437.6836,-32.8166"/>
<polygon fill="#191970" stroke="#191970" points="438.9406,-36.1134 447.8355,-30.3575 437.2926,-29.3102 438.9406,-36.1134"/>
</g>
</g>
</svg>
