<?xml version="1.0" encoding="UTF-8" standalone="no"?>
<!DOCTYPE svg PUBLIC "-//W3C//DTD SVG 1.1//EN"
 "http://www.w3.org/Graphics/SVG/1.1/DTD/svg11.dtd">
<!-- Generated by graphviz version 2.40.1 (20161225.0304)
 -->
<!-- Title: TabuSearchVariableLength::FindSolution Pages: 1 -->
<svg width="464pt" height="421pt"
 viewBox="0.00 0.00 464.00 421.00" xmlns="http://www.w3.org/2000/svg" xmlns:xlink="http://www.w3.org/1999/xlink">
<g id="graph0" class="graph" transform="scale(1 1) rotate(0) translate(4 417)">
<title>TabuSearchVariableLength::FindSolution</title>
<!-- Node0 -->
<g id="node1" class="node">
<title>Node0</title>
<g id="a_node1"><a xlink:title="Finds a solution to a problem using a tabu search metaheuristic with a variable length tabu list.">
<polygon fill="#bfbfbf" stroke="#000000" points="0,-169.5 0,-199.5 132,-199.5 132,-169.5 0,-169.5"/>
<text text-anchor="start" x="8" y="-187.5" font-family="Helvetica,sans-Serif" font-size="10.00" fill="#000000">TabuSearchVariableLength</text>
<text text-anchor="middle" x="66" y="-176.5" font-family="Helvetica,sans-Serif" font-size="10.00" fill="#000000">::FindSolution</text>
</a>
</g>
</g>
<!-- Node1 -->
<g id="node2" class="node">
<title>Node1</title>
<g id="a_node2"><a xlink:href="namespacestd.html#aabf08e25820a0127a265bb20575664b9" target="_top" xlink:title=" ">
<polygon fill="none" stroke="#000000" points="206.5,-339 206.5,-358 261.5,-358 261.5,-339 206.5,-339"/>
<text text-anchor="middle" x="234" y="-346" font-family="Helvetica,sans-Serif" font-size="10.00" fill="#000000">std::max</text>
</a>
</g>
</g>
<!-- Node0&#45;&gt;Node1 -->
<g id="edge1" class="edge">
<title>Node0&#45;&gt;Node1</title>
<path fill="none" stroke="#191970" d="M72.4933,-199.7987C85.8683,-229.4477 119.37,-294.8538 168,-329.5 176.4487,-335.5192 186.7775,-339.6417 196.7328,-342.4613"/>
<polygon fill="#191970" stroke="#191970" points="195.9325,-345.8688 206.4801,-344.8687 197.611,-339.073 195.9325,-345.8688"/>
</g>
<!-- Node5 -->
<g id="node6" class="node">
<title>Node5</title>
<g id="a_node6"><a xlink:href="classLocalSearchLogger.html#a21d895d4ddc94e2664e1f0d8bcd8fd95" target="_top" xlink:title="Sets the initial solution.">
<polygon fill="none" stroke="#000000" points="181,-289.5 181,-319.5 287,-319.5 287,-289.5 181,-289.5"/>
<text text-anchor="start" x="189" y="-307.5" font-family="Helvetica,sans-Serif" font-size="10.00" fill="#000000">LocalSearchLogger::</text>
<text text-anchor="middle" x="234" y="-296.5" font-family="Helvetica,sans-Serif" font-size="10.00" fill="#000000">SetInitialSolution</text>
</a>
</g>
</g>
<!-- Node0&#45;&gt;Node5 -->
<g id="edge5" class="edge">
<title>Node0&#45;&gt;Node5</title>
<path fill="none" stroke="#191970" d="M78.7516,-199.5986C96.7855,-220.1337 131.6186,-256.8938 168,-279.5 171.3011,-281.5512 174.7973,-283.4779 178.3897,-285.2794"/>
<polygon fill="#191970" stroke="#191970" points="176.9179,-288.4548 187.4611,-289.4994 179.8705,-282.108 176.9179,-288.4548"/>
</g>
<!-- Node6 -->
<g id="node7" class="node">
<title>Node6</title>
<g id="a_node7"><a xlink:href="neighborhoods_8hpp.html#ac99360b58624982b5a4477075904dfc8" target="_top" xlink:title="Inserts in a container all the neighbors of a solution.">
<polygon fill="none" stroke="#000000" points="195.5,-251 195.5,-270 272.5,-270 272.5,-251 195.5,-251"/>
<text text-anchor="middle" x="234" y="-258" font-family="Helvetica,sans-Serif" font-size="10.00" fill="#000000">GetNeighbors</text>
</a>
</g>
</g>
<!-- Node0&#45;&gt;Node6 -->
<g id="edge6" class="edge">
<title>Node0&#45;&gt;Node6</title>
<path fill="none" stroke="#191970" d="M89.5351,-199.7029C109.7222,-212.2352 139.9138,-229.7923 168,-241.5 173.57,-243.8218 179.5171,-245.9682 185.4745,-247.9178"/>
<polygon fill="#191970" stroke="#191970" points="184.8576,-251.3908 195.4455,-251.0091 186.9305,-244.7047 184.8576,-251.3908"/>
</g>
<!-- Node7 -->
<g id="node8" class="node">
<title>Node7</title>
<g id="a_node8"><a xlink:href="classTabuList.html#a1dd0b884519a00d2d4f673f653edd202" target="_top" xlink:title="Changes the capacity of the tabu list. If the current size is greater than the new one,...">
<polygon fill="none" stroke="#000000" points="168,-213 168,-232 300,-232 300,-213 168,-213"/>
<text text-anchor="middle" x="234" y="-220" font-family="Helvetica,sans-Serif" font-size="10.00" fill="#000000">TabuList::ChangeCapacity</text>
</a>
</g>
</g>
<!-- Node0&#45;&gt;Node7 -->
<g id="edge7" class="edge">
<title>Node0&#45;&gt;Node7</title>
<path fill="none" stroke="#191970" d="M132.398,-199.5186C148.7996,-203.2285 166.1385,-207.1504 181.7591,-210.6836"/>
<polygon fill="#191970" stroke="#191970" points="181.2231,-214.1507 191.7489,-212.9432 182.7674,-207.3232 181.2231,-214.1507"/>
</g>
<!-- Node8 -->
<g id="node9" class="node">
<title>Node8</title>
<g id="a_node9"><a xlink:href="classTabuList.html#a676b3872d4fd499fab11750bf71c5232" target="_top" xlink:title="Pushes the element to the end of the tabu list removing the element at the front if the tabu list is ...">
<polygon fill="none" stroke="#000000" points="180.5,-175 180.5,-194 287.5,-194 287.5,-175 180.5,-175"/>
<text text-anchor="middle" x="234" y="-182" font-family="Helvetica,sans-Serif" font-size="10.00" fill="#000000">TabuList::ForcePush</text>
</a>
</g>
</g>
<!-- Node0&#45;&gt;Node8 -->
<g id="edge8" class="edge">
<title>Node0&#45;&gt;Node8</title>
<path fill="none" stroke="#191970" d="M132.398,-184.5C144.8658,-184.5 157.8752,-184.5 170.2597,-184.5"/>
<polygon fill="#191970" stroke="#191970" points="170.4902,-188.0001 180.4902,-184.5 170.4902,-181.0001 170.4902,-188.0001"/>
</g>
<!-- Node10 -->
<g id="node11" class="node">
<title>Node10</title>
<g id="a_node11"><a xlink:href="classTabuList.html#a8f65dd6528a10ca1037455f64d3ed9b2" target="_top" xlink:title="Checks if the element is in the tabu list.">
<polygon fill="none" stroke="#000000" points="185,-137 185,-156 283,-156 283,-137 185,-137"/>
<text text-anchor="middle" x="234" y="-144" font-family="Helvetica,sans-Serif" font-size="10.00" fill="#000000">TabuList::Contains</text>
</a>
</g>
</g>
<!-- Node0&#45;&gt;Node10 -->
<g id="edge10" class="edge">
<title>Node0&#45;&gt;Node10</title>
<path fill="none" stroke="#191970" d="M132.398,-169.4814C148.7996,-165.7715 166.1385,-161.8496 181.7591,-158.3164"/>
<polygon fill="#191970" stroke="#191970" points="182.7674,-161.6768 191.7489,-156.0568 181.2231,-154.8493 182.7674,-161.6768"/>
</g>
<!-- Node11 -->
<g id="node12" class="node">
<title>Node11</title>
<g id="a_node12"><a xlink:href="classTabuList.html#a95b6790fe7511f5c82b73dfa705a8a5c" target="_top" xlink:title="Returns the capacity of the tabu list.">
<polygon fill="none" stroke="#000000" points="185,-99 185,-118 283,-118 283,-99 185,-99"/>
<text text-anchor="middle" x="234" y="-106" font-family="Helvetica,sans-Serif" font-size="10.00" fill="#000000">TabuList::Capacity</text>
</a>
</g>
</g>
<!-- Node0&#45;&gt;Node11 -->
<g id="edge11" class="edge">
<title>Node0&#45;&gt;Node11</title>
<path fill="none" stroke="#191970" d="M89.5351,-169.2971C109.7222,-156.7648 139.9138,-139.2077 168,-127.5 173.4994,-125.2076 179.3666,-123.0862 185.2483,-121.1564"/>
<polygon fill="#191970" stroke="#191970" points="186.5888,-124.4049 195.0983,-118.0932 184.51,-117.7207 186.5888,-124.4049"/>
</g>
<!-- Node12 -->
<g id="node13" class="node">
<title>Node12</title>
<g id="a_node13"><a xlink:href="classLocalSearchLogger.html#a00cf6f5c674a5f72c5bf01c4662a283d" target="_top" xlink:title="Adds a log.">
<polygon fill="none" stroke="#000000" points="181,-49.5 181,-79.5 287,-79.5 287,-49.5 181,-49.5"/>
<text text-anchor="start" x="189" y="-67.5" font-family="Helvetica,sans-Serif" font-size="10.00" fill="#000000">LocalSearchLogger::</text>
<text text-anchor="middle" x="234" y="-56.5" font-family="Helvetica,sans-Serif" font-size="10.00" fill="#000000">AddLog</text>
</a>
</g>
</g>
<!-- Node0&#45;&gt;Node12 -->
<g id="edge12" class="edge">
<title>Node0&#45;&gt;Node12</title>
<path fill="none" stroke="#191970" d="M78.7516,-169.4014C96.7855,-148.8663 131.6186,-112.1062 168,-89.5 171.3011,-87.4488 174.7973,-85.5221 178.3897,-83.7206"/>
<polygon fill="#191970" stroke="#191970" points="179.8705,-86.892 187.4611,-79.5006 176.9179,-80.5452 179.8705,-86.892"/>
</g>
<!-- Node13 -->
<g id="node14" class="node">
<title>Node13</title>
<g id="a_node14"><a xlink:href="classLocalSearchLogger.html#a19dca66de1099beddc9f962f21a81c00" target="_top" xlink:title="Sets the best solution found by the algorithm.">
<polygon fill="none" stroke="#000000" points="181,-.5 181,-30.5 287,-30.5 287,-.5 181,-.5"/>
<text text-anchor="start" x="189" y="-18.5" font-family="Helvetica,sans-Serif" font-size="10.00" fill="#000000">LocalSearchLogger::</text>
<text text-anchor="middle" x="234" y="-7.5" font-family="Helvetica,sans-Serif" font-size="10.00" fill="#000000">SetBestSolution</text>
</a>
</g>
</g>
<!-- Node0&#45;&gt;Node13 -->
<g id="edge13" class="edge">
<title>Node0&#45;&gt;Node13</title>
<path fill="none" stroke="#191970" d="M72.707,-169.4906C86.4565,-140.3488 120.5844,-75.7905 168,-39.5 169.8093,-38.1152 171.7062,-36.8047 173.6682,-35.565"/>
<polygon fill="#191970" stroke="#191970" points="175.59,-38.5007 182.618,-30.5724 172.1798,-32.3875 175.59,-38.5007"/>
</g>
<!-- Node2 -->
<g id="node3" class="node">
<title>Node2</title>
<g id="a_node3"><a xlink:href="classTriangularFuzzyNumber.html#afe61a993d8d969f858845dbb6b5eb7a0" target="_top" xlink:title="Returns the smallest possible value.">
<polygon fill="none" stroke="#000000" points="336,-382.5 336,-412.5 456,-412.5 456,-382.5 336,-382.5"/>
<text text-anchor="start" x="344" y="-400.5" font-family="Helvetica,sans-Serif" font-size="10.00" fill="#000000">TriangularFuzzyNumber</text>
<text text-anchor="middle" x="396" y="-389.5" font-family="Helvetica,sans-Serif" font-size="10.00" fill="#000000">::GetSmallest</text>
</a>
</g>
</g>
<!-- Node1&#45;&gt;Node2 -->
<g id="edge2" class="edge">
<title>Node1&#45;&gt;Node2</title>
<path fill="none" stroke="#191970" d="M261.8488,-356.9234C282.3844,-363.1348 311.0805,-371.8145 336.6643,-379.5528"/>
<polygon fill="#191970" stroke="#191970" points="335.7087,-382.9203 346.2937,-382.4654 337.7353,-376.2201 335.7087,-382.9203"/>
</g>
<!-- Node3 -->
<g id="node4" class="node">
<title>Node3</title>
<g id="a_node4"><a xlink:href="classTriangularFuzzyNumber.html#ac79e432898eb12448e54d085295a09f9" target="_top" xlink:title="Returns the most probable value.">
<polygon fill="none" stroke="#000000" points="336,-333.5 336,-363.5 456,-363.5 456,-333.5 336,-333.5"/>
<text text-anchor="start" x="344" y="-351.5" font-family="Helvetica,sans-Serif" font-size="10.00" fill="#000000">TriangularFuzzyNumber</text>
<text text-anchor="middle" x="396" y="-340.5" font-family="Helvetica,sans-Serif" font-size="10.00" fill="#000000">::GetMostProbable</text>
</a>
</g>
</g>
<!-- Node1&#45;&gt;Node3 -->
<g id="edge3" class="edge">
<title>Node1&#45;&gt;Node3</title>
<path fill="none" stroke="#191970" d="M261.8488,-348.5C279.5001,-348.5 303.1806,-348.5 325.7314,-348.5"/>
<polygon fill="#191970" stroke="#191970" points="325.9874,-352.0001 335.9874,-348.5 325.9874,-345.0001 325.9874,-352.0001"/>
</g>
<!-- Node4 -->
<g id="node5" class="node">
<title>Node4</title>
<g id="a_node5"><a xlink:href="classTriangularFuzzyNumber.html#a0133fef04fbb1a8e571d117c01c6af71" target="_top" xlink:title="Returns the largest possible value.">
<polygon fill="none" stroke="#000000" points="336,-284.5 336,-314.5 456,-314.5 456,-284.5 336,-284.5"/>
<text text-anchor="start" x="344" y="-302.5" font-family="Helvetica,sans-Serif" font-size="10.00" fill="#000000">TriangularFuzzyNumber</text>
<text text-anchor="middle" x="396" y="-291.5" font-family="Helvetica,sans-Serif" font-size="10.00" fill="#000000">::GetLargest</text>
</a>
</g>
</g>
<!-- Node1&#45;&gt;Node4 -->
<g id="edge4" class="edge">
<title>Node1&#45;&gt;Node4</title>
<path fill="none" stroke="#191970" d="M261.6571,-340.6885C273.4854,-337.3088 287.4376,-333.2706 300,-329.5 312.6609,-325.6999 326.2287,-321.5238 339.0599,-317.5265"/>
<polygon fill="#191970" stroke="#191970" points="340.2003,-320.8371 348.7012,-314.5137 338.1124,-314.1557 340.2003,-320.8371"/>
</g>
<!-- Node9 -->
<g id="node10" class="node">
<title>Node9</title>
<g id="a_node10"><a xlink:href="classTabuList.html#a5cda682bba8562695d6e8859f879f6be" target="_top" xlink:title="Removes the element at the front of the tabu list.">
<polygon fill="none" stroke="#000000" points="357.5,-175 357.5,-194 434.5,-194 434.5,-175 357.5,-175"/>
<text text-anchor="middle" x="396" y="-182" font-family="Helvetica,sans-Serif" font-size="10.00" fill="#000000">TabuList::Pop</text>
</a>
</g>
</g>
<!-- Node8&#45;&gt;Node9 -->
<g id="edge9" class="edge">
<title>Node8&#45;&gt;Node9</title>
<path fill="none" stroke="#191970" d="M287.9437,-184.5C307.1259,-184.5 328.5954,-184.5 347.3119,-184.5"/>
<polygon fill="#191970" stroke="#191970" points="347.3948,-188.0001 357.3947,-184.5 347.3947,-181.0001 347.3948,-188.0001"/>
</g>
</g>
</svg>
