<?xml version="1.0" encoding="UTF-8" standalone="no"?>
<!DOCTYPE svg PUBLIC "-//W3C//DTD SVG 1.1//EN"
 "http://www.w3.org/Graphics/SVG/1.1/DTD/svg11.dtd">
<!-- Generated by graphviz version 2.40.1 (20161225.0304)
 -->
<!-- Title: JSPTask&lt; Time, Job, Machine &gt; Pages: 1 -->
<svg width="449pt" height="270pt"
 viewBox="0.00 0.00 449.00 270.00" xmlns="http://www.w3.org/2000/svg" xmlns:xlink="http://www.w3.org/1999/xlink">
<g id="graph0" class="graph" transform="scale(1 1) rotate(0) translate(4 266)">
<title>JSPTask&lt; Time, Job, Machine &gt;</title>
<!-- Node1 -->
<g id="node1" class="node">
<title>Node1</title>
<g id="a_node1"><a xlink:title="Task of a JSP.">
<polygon fill="#bfbfbf" stroke="#000000" points="230.5,-.5 230.5,-145.5 342.5,-145.5 342.5,-.5 230.5,-.5"/>
<text text-anchor="start" x="238.5" y="-133.5" font-family="Helvetica,sans-Serif" font-size="10.00" fill="#000000">JSPTask&lt; Time, Job,</text>
<text text-anchor="middle" x="286.5" y="-122.5" font-family="Helvetica,sans-Serif" font-size="10.00" fill="#000000"> Machine &gt;</text>
<polyline fill="none" stroke="#000000" points="230.5,-115.5 342.5,-115.5 "/>
<text text-anchor="middle" x="286.5" y="-103.5" font-family="Helvetica,sans-Serif" font-size="10.00" fill="#000000"> </text>
<polyline fill="none" stroke="#000000" points="230.5,-96.5 342.5,-96.5 "/>
<text text-anchor="start" x="238.5" y="-84.5" font-family="Helvetica,sans-Serif" font-size="10.00" fill="#000000">+ JSPTask()</text>
<text text-anchor="start" x="238.5" y="-73.5" font-family="Helvetica,sans-Serif" font-size="10.00" fill="#000000">+ GetTaskID()</text>
<text text-anchor="start" x="238.5" y="-62.5" font-family="Helvetica,sans-Serif" font-size="10.00" fill="#000000">+ GetJob()</text>
<text text-anchor="start" x="238.5" y="-51.5" font-family="Helvetica,sans-Serif" font-size="10.00" fill="#000000">+ GetMachine()</text>
<text text-anchor="start" x="238.5" y="-40.5" font-family="Helvetica,sans-Serif" font-size="10.00" fill="#000000">+ GetPosition()</text>
<text text-anchor="start" x="238.5" y="-29.5" font-family="Helvetica,sans-Serif" font-size="10.00" fill="#000000">+ GetDuration()</text>
<text text-anchor="start" x="238.5" y="-18.5" font-family="Helvetica,sans-Serif" font-size="10.00" fill="#000000">+ operator==()</text>
<text text-anchor="start" x="238.5" y="-7.5" font-family="Helvetica,sans-Serif" font-size="10.00" fill="#000000">+ operator!=()</text>
</a>
</g>
</g>
<!-- Node2 -->
<g id="node2" class="node">
<title>Node2</title>
<g id="a_node2"><a xlink:title=" ">
<polygon fill="none" stroke="#bfbfbf" points="0,-193.5 0,-261.5 103,-261.5 103,-193.5 0,-193.5"/>
<text text-anchor="start" x="8" y="-249.5" font-family="Helvetica,sans-Serif" font-size="10.00" fill="#000000">reference_wrapper&lt;</text>
<text text-anchor="middle" x="51.5" y="-238.5" font-family="Helvetica,sans-Serif" font-size="10.00" fill="#000000"> const JobType &gt;</text>
<polyline fill="none" stroke="#bfbfbf" points="0,-231.5 103,-231.5 "/>
<text text-anchor="middle" x="51.5" y="-219.5" font-family="Helvetica,sans-Serif" font-size="10.00" fill="#000000"> </text>
<polyline fill="none" stroke="#bfbfbf" points="0,-212.5 103,-212.5 "/>
<text text-anchor="middle" x="51.5" y="-200.5" font-family="Helvetica,sans-Serif" font-size="10.00" fill="#000000"> </text>
</a>
</g>
</g>
<!-- Node2&#45;&gt;Node1 -->
<g id="edge1" class="edge">
<title>Node2&#45;&gt;Node1</title>
<path fill="none" stroke="#404040" d="M103.0717,-193.5943C137.4044,-171.0225 182.8401,-141.1508 219.9011,-116.7852"/>
<polygon fill="none" stroke="#404040" points="220.0888,-116.6618 222.9049,-110.0233 230.1159,-110.0695 227.2998,-116.7081 220.0888,-116.6618"/>
<text text-anchor="middle" x="158" y="-167" font-family="Helvetica,sans-Serif" font-size="10.00" fill="#000000"> &#45;job</text>
</g>
<!-- Node3 -->
<g id="node3" class="node">
<title>Node3</title>
<g id="a_node3"><a xlink:title=" ">
<polygon fill="none" stroke="#bfbfbf" points="121,-193.5 121,-261.5 234,-261.5 234,-193.5 121,-193.5"/>
<text text-anchor="start" x="129" y="-249.5" font-family="Helvetica,sans-Serif" font-size="10.00" fill="#000000">reference_wrapper&lt;</text>
<text text-anchor="middle" x="177.5" y="-238.5" font-family="Helvetica,sans-Serif" font-size="10.00" fill="#000000"> const MachineType &gt;</text>
<polyline fill="none" stroke="#bfbfbf" points="121,-231.5 234,-231.5 "/>
<text text-anchor="middle" x="177.5" y="-219.5" font-family="Helvetica,sans-Serif" font-size="10.00" fill="#000000"> </text>
<polyline fill="none" stroke="#bfbfbf" points="121,-212.5 234,-212.5 "/>
<text text-anchor="middle" x="177.5" y="-200.5" font-family="Helvetica,sans-Serif" font-size="10.00" fill="#000000"> </text>
</a>
</g>
</g>
<!-- Node3&#45;&gt;Node1 -->
<g id="edge2" class="edge">
<title>Node3&#45;&gt;Node1</title>
<path fill="none" stroke="#404040" d="M201.6906,-193.2114C209.5874,-182.0183 218.7289,-169.0608 228.0256,-155.8835"/>
<polygon fill="none" stroke="#404040" points="228.2291,-155.5949 228.4196,-148.3863 235.1469,-145.7895 234.9565,-152.9981 228.2291,-155.5949"/>
<text text-anchor="middle" x="243" y="-167" font-family="Helvetica,sans-Serif" font-size="10.00" fill="#000000"> &#45;machine</text>
</g>
<!-- Node4 -->
<g id="node4" class="node">
<title>Node4</title>
<g id="a_node4"><a xlink:title=" ">
<polygon fill="none" stroke="#bfbfbf" points="252,-199 252,-256 321,-256 321,-199 252,-199"/>
<text text-anchor="middle" x="286.5" y="-244" font-family="Helvetica,sans-Serif" font-size="10.00" fill="#000000">unsigned int</text>
<polyline fill="none" stroke="#bfbfbf" points="252,-237 321,-237 "/>
<text text-anchor="middle" x="286.5" y="-225" font-family="Helvetica,sans-Serif" font-size="10.00" fill="#000000"> </text>
<polyline fill="none" stroke="#bfbfbf" points="252,-218 321,-218 "/>
<text text-anchor="middle" x="286.5" y="-206" font-family="Helvetica,sans-Serif" font-size="10.00" fill="#000000"> </text>
</a>
</g>
</g>
<!-- Node4&#45;&gt;Node1 -->
<g id="edge3" class="edge">
<title>Node4&#45;&gt;Node1</title>
<path fill="none" stroke="#404040" d="M286.5,-198.8018C286.5,-187.0073 286.5,-172.6733 286.5,-157.9626"/>
<polygon fill="none" stroke="#404040" points="286.5001,-157.5644 282.5,-151.5644 286.5,-145.5644 290.5,-151.5644 286.5001,-157.5644"/>
<text text-anchor="middle" x="304.5" y="-167" font-family="Helvetica,sans-Serif" font-size="10.00" fill="#000000"> &#45;taskID</text>
</g>
<!-- Node5 -->
<g id="node5" class="node">
<title>Node5</title>
<g id="a_node5"><a xlink:title=" ">
<polygon fill="none" stroke="#bfbfbf" points="339.5,-199 339.5,-256 377.5,-256 377.5,-199 339.5,-199"/>
<text text-anchor="middle" x="358.5" y="-244" font-family="Helvetica,sans-Serif" font-size="10.00" fill="#000000">Time</text>
<polyline fill="none" stroke="#bfbfbf" points="339.5,-237 377.5,-237 "/>
<text text-anchor="middle" x="358.5" y="-225" font-family="Helvetica,sans-Serif" font-size="10.00" fill="#000000"> </text>
<polyline fill="none" stroke="#bfbfbf" points="339.5,-218 377.5,-218 "/>
<text text-anchor="middle" x="358.5" y="-206" font-family="Helvetica,sans-Serif" font-size="10.00" fill="#000000"> </text>
</a>
</g>
</g>
<!-- Node5&#45;&gt;Node1 -->
<g id="edge4" class="edge">
<title>Node5&#45;&gt;Node1</title>
<path fill="none" stroke="#404040" d="M345.1261,-198.8018C339.4647,-186.6534 332.5478,-171.811 325.4768,-156.6377"/>
<polygon fill="none" stroke="#404040" points="325.3853,-156.4413 319.2252,-152.6925 320.3164,-145.5644 326.4765,-149.3132 325.3853,-156.4413"/>
<text text-anchor="middle" x="353" y="-167" font-family="Helvetica,sans-Serif" font-size="10.00" fill="#000000"> &#45;duration</text>
</g>
<!-- Node6 -->
<g id="node6" class="node">
<title>Node6</title>
<g id="a_node6"><a xlink:title=" ">
<polygon fill="none" stroke="#bfbfbf" points="398,-199 398,-256 441,-256 441,-199 398,-199"/>
<text text-anchor="middle" x="419.5" y="-244" font-family="Helvetica,sans-Serif" font-size="10.00" fill="#000000">size_t</text>
<polyline fill="none" stroke="#bfbfbf" points="398,-237 441,-237 "/>
<text text-anchor="middle" x="419.5" y="-225" font-family="Helvetica,sans-Serif" font-size="10.00" fill="#000000"> </text>
<polyline fill="none" stroke="#bfbfbf" points="398,-218 441,-218 "/>
<text text-anchor="middle" x="419.5" y="-206" font-family="Helvetica,sans-Serif" font-size="10.00" fill="#000000"> </text>
</a>
</g>
</g>
<!-- Node6&#45;&gt;Node1 -->
<g id="edge5" class="edge">
<title>Node6&#45;&gt;Node1</title>
<path fill="none" stroke="#404040" d="M402.2677,-198.8214C395.0869,-187.6031 386.3628,-174.8512 377.5,-164 369.3843,-154.0636 360.3309,-144.0063 351.1689,-134.3823"/>
<polygon fill="none" stroke="#404040" points="351.0935,-134.3044 344.0465,-132.7749 342.748,-125.6816 349.795,-127.2112 351.0935,-134.3044"/>
<text text-anchor="middle" x="404.5" y="-167" font-family="Helvetica,sans-Serif" font-size="10.00" fill="#000000"> &#45;position</text>
</g>
</g>
</svg>
