<?xml version="1.0" encoding="UTF-8" standalone="no"?>
<!DOCTYPE svg PUBLIC "-//W3C//DTD SVG 1.1//EN"
 "http://www.w3.org/Graphics/SVG/1.1/DTD/svg11.dtd">
<!-- Generated by graphviz version 2.40.1 (20161225.0304)
 -->
<!-- Title: JSPTotalWeightedTardinessMinimizationSolution::operator&gt;= Pages: 1 -->
<svg width="995pt" height="280pt"
 viewBox="0.00 0.00 995.00 279.50" xmlns="http://www.w3.org/2000/svg" xmlns:xlink="http://www.w3.org/1999/xlink">
<g id="graph0" class="graph" transform="scale(1 1) rotate(0) translate(4 275.5)">
<title>JSPTotalWeightedTardinessMinimizationSolution::operator&gt;=</title>
<!-- Node131 -->
<g id="node1" class="node">
<title>Node131</title>
<g id="a_node1"><a xlink:title=" ">
<polygon fill="#bfbfbf" stroke="#000000" points="0,-95.5 0,-125.5 160,-125.5 160,-95.5 0,-95.5"/>
<text text-anchor="start" x="8" y="-113.5" font-family="Helvetica,sans-Serif" font-size="10.00" fill="#000000">JSPTotalWeightedTardiness</text>
<text text-anchor="middle" x="80" y="-102.5" font-family="Helvetica,sans-Serif" font-size="10.00" fill="#000000">MinimizationSolution::operator&gt;=</text>
</a>
</g>
</g>
<!-- Node132 -->
<g id="node2" class="node">
<title>Node132</title>
<g id="a_node2"><a xlink:href="classJSPTotalWeightedTardinessMinimizationSolution.html#a16125d45de3069850197292176085da6" target="_top" xlink:title="Returns the quality of the solution.">
<polygon fill="none" stroke="#000000" points="196,-95.5 196,-125.5 355,-125.5 355,-95.5 196,-95.5"/>
<text text-anchor="start" x="204" y="-113.5" font-family="Helvetica,sans-Serif" font-size="10.00" fill="#000000">JSPTotalWeightedTardiness</text>
<text text-anchor="middle" x="275.5" y="-102.5" font-family="Helvetica,sans-Serif" font-size="10.00" fill="#000000">MinimizationSolution::GetQuality</text>
</a>
</g>
</g>
<!-- Node131&#45;&gt;Node132 -->
<g id="edge1" class="edge">
<title>Node131&#45;&gt;Node132</title>
<path fill="none" stroke="#191970" d="M160.0814,-110.5C168.5701,-110.5 177.2426,-110.5 185.8314,-110.5"/>
<polygon fill="#191970" stroke="#191970" points="185.8594,-114.0001 195.8593,-110.5 185.8593,-107.0001 185.8594,-114.0001"/>
</g>
<!-- Node133 -->
<g id="node3" class="node">
<title>Node133</title>
<g id="a_node3"><a xlink:href="classJSPTotalWeightedTardinessMinimizationSolution.html#add102398703fa0d4ab3f817660c56de2" target="_top" xlink:title="Updates the head and tail of all the tasks that have been affected by modifications since the last ca...">
<polygon fill="none" stroke="#000000" points="391,-126 391,-167 564,-167 564,-126 391,-126"/>
<text text-anchor="start" x="399" y="-155" font-family="Helvetica,sans-Serif" font-size="10.00" fill="#000000">JSPTotalWeightedTardiness</text>
<text text-anchor="start" x="399" y="-144" font-family="Helvetica,sans-Serif" font-size="10.00" fill="#000000">MinimizationSolution::UpdateHeads</text>
<text text-anchor="middle" x="477.5" y="-133" font-family="Helvetica,sans-Serif" font-size="10.00" fill="#000000">AndTails</text>
</a>
</g>
</g>
<!-- Node132&#45;&gt;Node133 -->
<g id="edge2" class="edge">
<title>Node132&#45;&gt;Node133</title>
<path fill="none" stroke="#191970" d="M355.0458,-124.6765C363.4572,-126.1755 372.0768,-127.7117 380.6564,-129.2407"/>
<polygon fill="#191970" stroke="#191970" points="380.2357,-132.7208 390.6947,-131.0298 381.464,-125.8294 380.2357,-132.7208"/>
</g>
<!-- Node137 -->
<g id="node7" class="node">
<title>Node137</title>
<g id="a_node7"><a xlink:href="namespacestd.html#aabf08e25820a0127a265bb20575664b9" target="_top" xlink:title=" ">
<polygon fill="none" stroke="#000000" points="660,-55 660,-74 715,-74 715,-55 660,-55"/>
<text text-anchor="middle" x="687.5" y="-62" font-family="Helvetica,sans-Serif" font-size="10.00" fill="#000000">std::max</text>
</a>
</g>
</g>
<!-- Node132&#45;&gt;Node137 -->
<g id="edge12" class="edge">
<title>Node132&#45;&gt;Node137</title>
<path fill="none" stroke="#191970" d="M355.4263,-101.5762C444.0539,-91.6809 583.2693,-76.1374 649.7343,-68.7166"/>
<polygon fill="#191970" stroke="#191970" points="650.2082,-72.1855 659.758,-67.5974 649.4314,-65.2287 650.2082,-72.1855"/>
</g>
<!-- Node134 -->
<g id="node4" class="node">
<title>Node134</title>
<g id="a_node4"><a xlink:href="classJSPTotalWeightedTardinessMinimizationSolution.html#ab231b628d8113f4987804c9fcbd8905b" target="_top" xlink:title="Inserts in a container all the tasks in topological order.">
<polygon fill="none" stroke="#000000" points="610,-230 610,-271 765,-271 765,-230 610,-230"/>
<text text-anchor="start" x="618" y="-259" font-family="Helvetica,sans-Serif" font-size="10.00" fill="#000000">JSPTotalWeightedTardiness</text>
<text text-anchor="start" x="618" y="-248" font-family="Helvetica,sans-Serif" font-size="10.00" fill="#000000">MinimizationSolution::GetTasks</text>
<text text-anchor="middle" x="687.5" y="-237" font-family="Helvetica,sans-Serif" font-size="10.00" fill="#000000">TopologicalOrder</text>
</a>
</g>
</g>
<!-- Node133&#45;&gt;Node134 -->
<g id="edge3" class="edge">
<title>Node133&#45;&gt;Node134</title>
<path fill="none" stroke="#191970" d="M511.1785,-167.0688C535.4339,-181.4846 569.181,-200.7365 600,-215.5 607.5299,-219.1071 615.5348,-222.6669 623.526,-226.055"/>
<polygon fill="#191970" stroke="#191970" points="622.2943,-229.3334 632.8714,-229.9459 624.9849,-222.8711 622.2943,-229.3334"/>
</g>
<!-- Node135 -->
<g id="node5" class="node">
<title>Node135</title>
<g id="a_node5"><a xlink:href="classJSPTotalWeightedTardinessMinimizationSolution.html#a41c4bea1c8348de5dd0b18255cd14c96" target="_top" xlink:title="Returns a pair with the tasks that are scheduled after the specified task. The first component is the...">
<polygon fill="none" stroke="#000000" points="811,-210.5 811,-240.5 987,-240.5 987,-210.5 811,-210.5"/>
<text text-anchor="start" x="819" y="-228.5" font-family="Helvetica,sans-Serif" font-size="10.00" fill="#000000">JSPTotalWeightedTardiness</text>
<text text-anchor="middle" x="899" y="-217.5" font-family="Helvetica,sans-Serif" font-size="10.00" fill="#000000">MinimizationSolution::GetNextTasks</text>
</a>
</g>
</g>
<!-- Node133&#45;&gt;Node135 -->
<g id="edge11" class="edge">
<title>Node133&#45;&gt;Node135</title>
<path fill="none" stroke="#191970" d="M543.2144,-167.0041C561.4787,-172.2293 581.4049,-177.4937 600,-181.5 666.4269,-195.8115 742.1659,-206.9036 800.7949,-214.371"/>
<polygon fill="#191970" stroke="#191970" points="800.4342,-217.8531 810.7932,-215.6305 801.3091,-210.908 800.4342,-217.8531"/>
</g>
<!-- Node136 -->
<g id="node6" class="node">
<title>Node136</title>
<g id="a_node6"><a xlink:href="classJSPTotalWeightedTardinessMinimizationSolution.html#ae35f63c78d6899bdaa4ccc044891fef6" target="_top" xlink:title="Returns a pair with the tasks that are scheduled before the specified task. The first component is th...">
<polygon fill="none" stroke="#000000" points="600,-142.5 600,-172.5 775,-172.5 775,-142.5 600,-142.5"/>
<text text-anchor="start" x="608" y="-160.5" font-family="Helvetica,sans-Serif" font-size="10.00" fill="#000000">JSPTotalWeightedTardiness</text>
<text text-anchor="middle" x="687.5" y="-149.5" font-family="Helvetica,sans-Serif" font-size="10.00" fill="#000000">MinimizationSolution::GetPrevTasks</text>
</a>
</g>
</g>
<!-- Node133&#45;&gt;Node136 -->
<g id="edge5" class="edge">
<title>Node133&#45;&gt;Node136</title>
<path fill="none" stroke="#191970" d="M564.1275,-151.0376C572.5729,-151.48 581.182,-151.931 589.7269,-152.3786"/>
<polygon fill="#191970" stroke="#191970" points="589.5454,-155.8738 599.7149,-152.9017 589.9117,-148.8833 589.5454,-155.8738"/>
</g>
<!-- Node133&#45;&gt;Node137 -->
<g id="edge6" class="edge">
<title>Node133&#45;&gt;Node137</title>
<path fill="none" stroke="#191970" d="M516.217,-125.9463C548.7638,-108.7756 591.3334,-86.6088 600,-83.5 615.9638,-77.7736 634.2132,-73.4771 649.9006,-70.432"/>
<polygon fill="#191970" stroke="#191970" points="650.5898,-73.864 659.7897,-68.6091 649.3208,-66.9799 650.5898,-73.864"/>
</g>
<!-- Node141 -->
<g id="node11" class="node">
<title>Node141</title>
<g id="a_node11"><a xlink:href="classJSPTotalWeightedTardinessMinimizationSolution.html#a223b298444c077682038c4716d1f032f" target="_top" xlink:title="Returns the problem that the solution solves.">
<polygon fill="none" stroke="#000000" points="605.5,-93.5 605.5,-123.5 769.5,-123.5 769.5,-93.5 605.5,-93.5"/>
<text text-anchor="start" x="613.5" y="-111.5" font-family="Helvetica,sans-Serif" font-size="10.00" fill="#000000">JSPTotalWeightedTardiness</text>
<text text-anchor="middle" x="687.5" y="-100.5" font-family="Helvetica,sans-Serif" font-size="10.00" fill="#000000">MinimizationSolution::GetProblem</text>
</a>
</g>
</g>
<!-- Node133&#45;&gt;Node141 -->
<g id="edge10" class="edge">
<title>Node133&#45;&gt;Node141</title>
<path fill="none" stroke="#191970" d="M564.1275,-130.8246C574.4874,-128.9499 585.0936,-127.0307 595.5256,-125.143"/>
<polygon fill="#191970" stroke="#191970" points="596.2434,-128.57 605.4604,-123.3453 594.9969,-121.6819 596.2434,-128.57"/>
</g>
<!-- Node134&#45;&gt;Node135 -->
<g id="edge4" class="edge">
<title>Node134&#45;&gt;Node135</title>
<path fill="none" stroke="#191970" d="M765.0538,-241.3329C776.6591,-239.9611 788.7531,-238.5316 800.7189,-237.1172"/>
<polygon fill="#191970" stroke="#191970" points="801.2065,-240.584 810.7265,-235.9342 800.3848,-233.6324 801.2065,-240.584"/>
</g>
<!-- Node138 -->
<g id="node8" class="node">
<title>Node138</title>
<g id="a_node8"><a xlink:href="classTriangularFuzzyNumber.html#afe61a993d8d969f858845dbb6b5eb7a0" target="_top" xlink:title="Returns the smallest possible value.">
<polygon fill="none" stroke="#000000" points="839,-98.5 839,-128.5 959,-128.5 959,-98.5 839,-98.5"/>
<text text-anchor="start" x="847" y="-116.5" font-family="Helvetica,sans-Serif" font-size="10.00" fill="#000000">TriangularFuzzyNumber</text>
<text text-anchor="middle" x="899" y="-105.5" font-family="Helvetica,sans-Serif" font-size="10.00" fill="#000000">::GetSmallest</text>
</a>
</g>
</g>
<!-- Node137&#45;&gt;Node138 -->
<g id="edge7" class="edge">
<title>Node137&#45;&gt;Node138</title>
<path fill="none" stroke="#191970" d="M715.1231,-70.3241C732.362,-74.0019 755.0006,-78.91 775,-83.5 792.4143,-87.4967 811.1662,-91.9534 828.6836,-96.1834"/>
<polygon fill="#191970" stroke="#191970" points="828.2926,-99.6898 838.8355,-98.6425 829.9406,-92.8866 828.2926,-99.6898"/>
</g>
<!-- Node139 -->
<g id="node9" class="node">
<title>Node139</title>
<g id="a_node9"><a xlink:href="classTriangularFuzzyNumber.html#ac79e432898eb12448e54d085295a09f9" target="_top" xlink:title="Returns the most probable value.">
<polygon fill="none" stroke="#000000" points="839,-49.5 839,-79.5 959,-79.5 959,-49.5 839,-49.5"/>
<text text-anchor="start" x="847" y="-67.5" font-family="Helvetica,sans-Serif" font-size="10.00" fill="#000000">TriangularFuzzyNumber</text>
<text text-anchor="middle" x="899" y="-56.5" font-family="Helvetica,sans-Serif" font-size="10.00" fill="#000000">::GetMostProbable</text>
</a>
</g>
</g>
<!-- Node137&#45;&gt;Node139 -->
<g id="edge8" class="edge">
<title>Node137&#45;&gt;Node139</title>
<path fill="none" stroke="#191970" d="M715.1499,-64.5C743.8274,-64.5 789.8179,-64.5 828.6251,-64.5"/>
<polygon fill="#191970" stroke="#191970" points="828.8391,-68.0001 838.8391,-64.5 828.8391,-61.0001 828.8391,-68.0001"/>
</g>
<!-- Node140 -->
<g id="node10" class="node">
<title>Node140</title>
<g id="a_node10"><a xlink:href="classTriangularFuzzyNumber.html#a0133fef04fbb1a8e571d117c01c6af71" target="_top" xlink:title="Returns the largest possible value.">
<polygon fill="none" stroke="#000000" points="839,-.5 839,-30.5 959,-30.5 959,-.5 839,-.5"/>
<text text-anchor="start" x="847" y="-18.5" font-family="Helvetica,sans-Serif" font-size="10.00" fill="#000000">TriangularFuzzyNumber</text>
<text text-anchor="middle" x="899" y="-7.5" font-family="Helvetica,sans-Serif" font-size="10.00" fill="#000000">::GetLargest</text>
</a>
</g>
</g>
<!-- Node137&#45;&gt;Node140 -->
<g id="edge9" class="edge">
<title>Node137&#45;&gt;Node140</title>
<path fill="none" stroke="#191970" d="M715.1499,-58.0941C743.8274,-51.4502 789.8179,-40.7951 828.6251,-31.8044"/>
<polygon fill="#191970" stroke="#191970" points="829.8871,-35.1048 838.8391,-29.438 828.3072,-28.2854 829.8871,-35.1048"/>
</g>
</g>
</svg>
