<?xml version="1.0" encoding="UTF-8" standalone="no"?>
<!DOCTYPE svg PUBLIC "-//W3C//DTD SVG 1.1//EN"
 "http://www.w3.org/Graphics/SVG/1.1/DTD/svg11.dtd">
<!-- Generated by graphviz version 2.40.1 (20161225.0304)
 -->
<!-- Title: JSPMakespanMinimizationSolution::SolutionSequence Pages: 1 -->
<svg width="590pt" height="88pt"
 viewBox="0.00 0.00 590.00 88.00" xmlns="http://www.w3.org/2000/svg" xmlns:xlink="http://www.w3.org/1999/xlink">
<g id="graph0" class="graph" transform="scale(1 1) rotate(0) translate(4 84)">
<title>JSPMakespanMinimizationSolution::SolutionSequence</title>
<!-- Node158 -->
<g id="node1" class="node">
<title>Node158</title>
<g id="a_node1"><a xlink:title="Returns a string with the solution.">
<polygon fill="#bfbfbf" stroke="#000000" points="0,-24.5 0,-54.5 170,-54.5 170,-24.5 0,-24.5"/>
<text text-anchor="start" x="8" y="-42.5" font-family="Helvetica,sans-Serif" font-size="10.00" fill="#000000">JSPMakespanMinimizationSolution</text>
<text text-anchor="middle" x="85" y="-31.5" font-family="Helvetica,sans-Serif" font-size="10.00" fill="#000000">::SolutionSequence</text>
</a>
</g>
</g>
<!-- Node159 -->
<g id="node2" class="node">
<title>Node159</title>
<g id="a_node2"><a xlink:href="classJSPMakespanMinimizationSolution.html#a4b5965dd69809fb79768a5f4c462920b" target="_top" xlink:title="Inserts in a container all the tasks in topological order.">
<polygon fill="none" stroke="#000000" points="206,-49.5 206,-79.5 376,-79.5 376,-49.5 206,-49.5"/>
<text text-anchor="start" x="214" y="-67.5" font-family="Helvetica,sans-Serif" font-size="10.00" fill="#000000">JSPMakespanMinimizationSolution</text>
<text text-anchor="middle" x="291" y="-56.5" font-family="Helvetica,sans-Serif" font-size="10.00" fill="#000000">::GetTasksTopologicalOrder</text>
</a>
</g>
</g>
<!-- Node158&#45;&gt;Node159 -->
<g id="edge1" class="edge">
<title>Node158&#45;&gt;Node159</title>
<path fill="none" stroke="#191970" d="M170.2751,-49.8489C178.7081,-50.8723 187.3045,-51.9156 195.829,-52.9501"/>
<polygon fill="#191970" stroke="#191970" points="195.44,-56.4285 205.7889,-54.1588 196.2834,-49.4795 195.44,-56.4285"/>
</g>
<!-- Node161 -->
<g id="node4" class="node">
<title>Node161</title>
<g id="a_node4"><a xlink:href="classJSPMakespanMinimizationSolution.html#a6a196bbd5a7a0a1bbeb6ab46721a5027" target="_top" xlink:title="Returns the problem that the solution solves.">
<polygon fill="none" stroke="#000000" points="206,-.5 206,-30.5 376,-30.5 376,-.5 206,-.5"/>
<text text-anchor="start" x="214" y="-18.5" font-family="Helvetica,sans-Serif" font-size="10.00" fill="#000000">JSPMakespanMinimizationSolution</text>
<text text-anchor="middle" x="291" y="-7.5" font-family="Helvetica,sans-Serif" font-size="10.00" fill="#000000">::GetProblem</text>
</a>
</g>
</g>
<!-- Node158&#45;&gt;Node161 -->
<g id="edge3" class="edge">
<title>Node158&#45;&gt;Node161</title>
<path fill="none" stroke="#191970" d="M170.2751,-29.565C178.7081,-28.5826 187.3045,-27.581 195.829,-26.5879"/>
<polygon fill="#191970" stroke="#191970" points="196.2611,-30.0613 205.7889,-25.4275 195.451,-23.1083 196.2611,-30.0613"/>
</g>
<!-- Node160 -->
<g id="node3" class="node">
<title>Node160</title>
<g id="a_node3"><a xlink:href="classJSPMakespanMinimizationSolution.html#a07f32775230bfb3a2ccd4f44f7bffb6a" target="_top" xlink:title="Returns a pair with the tasks that are scheduled after the specified task. The first component is the...">
<polygon fill="none" stroke="#000000" points="412,-49.5 412,-79.5 582,-79.5 582,-49.5 412,-49.5"/>
<text text-anchor="start" x="420" y="-67.5" font-family="Helvetica,sans-Serif" font-size="10.00" fill="#000000">JSPMakespanMinimizationSolution</text>
<text text-anchor="middle" x="497" y="-56.5" font-family="Helvetica,sans-Serif" font-size="10.00" fill="#000000">::GetNextTasks</text>
</a>
</g>
</g>
<!-- Node159&#45;&gt;Node160 -->
<g id="edge2" class="edge">
<title>Node159&#45;&gt;Node160</title>
<path fill="none" stroke="#191970" d="M376.2751,-64.5C384.6164,-64.5 393.1176,-64.5 401.551,-64.5"/>
<polygon fill="#191970" stroke="#191970" points="401.7889,-68.0001 411.7889,-64.5 401.7888,-61.0001 401.7889,-68.0001"/>
</g>
</g>
</svg>
