<?xml version="1.0" encoding="UTF-8" standalone="no"?>
<!DOCTYPE svg PUBLIC "-//W3C//DTD SVG 1.1//EN"
 "http://www.w3.org/Graphics/SVG/1.1/DTD/svg11.dtd">
<!-- Generated by graphviz version 2.40.1 (20161225.0304)
 -->
<!-- Title: JSPJob&lt; Date &gt; Pages: 1 -->
<svg width="197pt" height="226pt"
 viewBox="0.00 0.00 196.50 226.00" xmlns="http://www.w3.org/2000/svg" xmlns:xlink="http://www.w3.org/1999/xlink">
<g id="graph0" class="graph" transform="scale(1 1) rotate(0) translate(4 222)">
<title>JSPJob&lt; Date &gt;</title>
<!-- Node1 -->
<g id="node1" class="node">
<title>Node1</title>
<g id="a_node1"><a xlink:title="Job of a JSP.">
<polygon fill="#bfbfbf" stroke="#000000" points="53,-.5 53,-112.5 142,-112.5 142,-.5 53,-.5"/>
<text text-anchor="middle" x="97.5" y="-100.5" font-family="Helvetica,sans-Serif" font-size="10.00" fill="#000000">JSPJob&lt; Date &gt;</text>
<polyline fill="none" stroke="#000000" points="53,-93.5 142,-93.5 "/>
<text text-anchor="middle" x="97.5" y="-81.5" font-family="Helvetica,sans-Serif" font-size="10.00" fill="#000000"> </text>
<polyline fill="none" stroke="#000000" points="53,-74.5 142,-74.5 "/>
<text text-anchor="start" x="61" y="-62.5" font-family="Helvetica,sans-Serif" font-size="10.00" fill="#000000">+ JSPJob()</text>
<text text-anchor="start" x="61" y="-51.5" font-family="Helvetica,sans-Serif" font-size="10.00" fill="#000000">+ GetJobID()</text>
<text text-anchor="start" x="61" y="-40.5" font-family="Helvetica,sans-Serif" font-size="10.00" fill="#000000">+ GetDueDate()</text>
<text text-anchor="start" x="61" y="-29.5" font-family="Helvetica,sans-Serif" font-size="10.00" fill="#000000">+ GetWeight()</text>
<text text-anchor="start" x="61" y="-18.5" font-family="Helvetica,sans-Serif" font-size="10.00" fill="#000000">+ operator==()</text>
<text text-anchor="start" x="61" y="-7.5" font-family="Helvetica,sans-Serif" font-size="10.00" fill="#000000">+ operator!=()</text>
</a>
</g>
</g>
<!-- Node2 -->
<g id="node2" class="node">
<title>Node2</title>
<g id="a_node2"><a xlink:title=" ">
<polygon fill="none" stroke="#bfbfbf" points="0,-160.5 0,-217.5 45,-217.5 45,-160.5 0,-160.5"/>
<text text-anchor="middle" x="22.5" y="-205.5" font-family="Helvetica,sans-Serif" font-size="10.00" fill="#000000">double</text>
<polyline fill="none" stroke="#bfbfbf" points="0,-198.5 45,-198.5 "/>
<text text-anchor="middle" x="22.5" y="-186.5" font-family="Helvetica,sans-Serif" font-size="10.00" fill="#000000"> </text>
<polyline fill="none" stroke="#bfbfbf" points="0,-179.5 45,-179.5 "/>
<text text-anchor="middle" x="22.5" y="-167.5" font-family="Helvetica,sans-Serif" font-size="10.00" fill="#000000"> </text>
</a>
</g>
</g>
<!-- Node2&#45;&gt;Node1 -->
<g id="edge1" class="edge">
<title>Node2&#45;&gt;Node1</title>
<path fill="none" stroke="#404040" d="M38.7739,-160.2495C44.9333,-149.3678 52.2319,-136.4737 59.5532,-123.5394"/>
<polygon fill="none" stroke="#404040" points="59.7727,-123.1515 59.2473,-115.9596 65.6839,-112.7084 66.2093,-119.9004 59.7727,-123.1515"/>
<text text-anchor="middle" x="71" y="-134" font-family="Helvetica,sans-Serif" font-size="10.00" fill="#000000"> &#45;weight</text>
</g>
<!-- Node3 -->
<g id="node3" class="node">
<title>Node3</title>
<g id="a_node3"><a xlink:title=" ">
<polygon fill="none" stroke="#bfbfbf" points="63,-160.5 63,-217.5 132,-217.5 132,-160.5 63,-160.5"/>
<text text-anchor="middle" x="97.5" y="-205.5" font-family="Helvetica,sans-Serif" font-size="10.00" fill="#000000">unsigned int</text>
<polyline fill="none" stroke="#bfbfbf" points="63,-198.5 132,-198.5 "/>
<text text-anchor="middle" x="97.5" y="-186.5" font-family="Helvetica,sans-Serif" font-size="10.00" fill="#000000"> </text>
<polyline fill="none" stroke="#bfbfbf" points="63,-179.5 132,-179.5 "/>
<text text-anchor="middle" x="97.5" y="-167.5" font-family="Helvetica,sans-Serif" font-size="10.00" fill="#000000"> </text>
</a>
</g>
</g>
<!-- Node3&#45;&gt;Node1 -->
<g id="edge2" class="edge">
<title>Node3&#45;&gt;Node1</title>
<path fill="none" stroke="#404040" d="M97.5,-160.2495C97.5,-149.8031 97.5,-137.502 97.5,-125.0912"/>
<polygon fill="none" stroke="#404040" points="97.5001,-124.7084 93.5,-118.7085 97.5,-112.7084 101.5,-118.7084 97.5001,-124.7084"/>
<text text-anchor="middle" x="112.5" y="-134" font-family="Helvetica,sans-Serif" font-size="10.00" fill="#000000"> &#45;jobID</text>
</g>
<!-- Node4 -->
<g id="node4" class="node">
<title>Node4</title>
<g id="a_node4"><a xlink:title=" ">
<polygon fill="none" stroke="#bfbfbf" points="150.5,-160.5 150.5,-217.5 188.5,-217.5 188.5,-160.5 150.5,-160.5"/>
<text text-anchor="middle" x="169.5" y="-205.5" font-family="Helvetica,sans-Serif" font-size="10.00" fill="#000000">Date</text>
<polyline fill="none" stroke="#bfbfbf" points="150.5,-198.5 188.5,-198.5 "/>
<text text-anchor="middle" x="169.5" y="-186.5" font-family="Helvetica,sans-Serif" font-size="10.00" fill="#000000"> </text>
<polyline fill="none" stroke="#bfbfbf" points="150.5,-179.5 188.5,-179.5 "/>
<text text-anchor="middle" x="169.5" y="-167.5" font-family="Helvetica,sans-Serif" font-size="10.00" fill="#000000"> </text>
</a>
</g>
</g>
<!-- Node4&#45;&gt;Node1 -->
<g id="edge3" class="edge">
<title>Node4&#45;&gt;Node1</title>
<path fill="none" stroke="#404040" d="M153.8771,-160.2495C147.964,-149.3678 140.9574,-136.4737 133.9289,-123.5394"/>
<polygon fill="none" stroke="#404040" points="133.773,-123.2523 127.3936,-119.8902 128.0435,-112.7084 134.4228,-116.0705 133.773,-123.2523"/>
<text text-anchor="middle" x="164.5" y="-134" font-family="Helvetica,sans-Serif" font-size="10.00" fill="#000000"> &#45;due_date</text>
</g>
</g>
</svg>
