<?xml version="1.0" encoding="UTF-8" standalone="no"?>
<!DOCTYPE svg PUBLIC "-//W3C//DTD SVG 1.1//EN"
 "http://www.w3.org/Graphics/SVG/1.1/DTD/svg11.dtd">
<!-- Generated by graphviz version 2.40.1 (20161225.0304)
 -->
<!-- Title: JSPTotalWeightedTardinessMinimizationSolution::operator!= Pages: 1 -->
<!--zoomable 231 -->
<svg id="main" version="1.1" xmlns="http://www.w3.org/2000/svg" xmlns:xlink="http://www.w3.org/1999/xlink" xml:space="preserve" onload="init(evt)">
<style type="text/css"><![CDATA[
.edge:hover path { stroke: red; }
.edge:hover polygon { stroke: red; fill: red; }
]]></style>
<script type="text/javascript"><![CDATA[
var edges = document.getElementsByTagName('g');
if (edges && edges.length) {
  for (var i=0;i<edges.length;i++) {
    if (edges[i].id.substr(0,4)=='edge') {
      edges[i].setAttribute('class','edge');
    }
  }
}
]]></script>
        <defs>
                <circle id="rim" cx="0" cy="0" r="7"/>
                <circle id="rim2" cx="0" cy="0" r="3.5"/>
                <g id="zoomPlus">
                        <use xlink:href="#rim" fill="#404040">
                                <set attributeName="fill" to="#808080" begin="zoomplus.mouseover" end="zoomplus.mouseout"/>
                        </use>
                        <path d="M-4,0h8M0,-4v8" fill="none" stroke="white" stroke-width="1.5" pointer-events="none"/>
                </g>
                <g id="zoomMin">
                        <use xlink:href="#rim" fill="#404040">
                                <set attributeName="fill" to="#808080" begin="zoomminus.mouseover" end="zoomminus.mouseout"/>
                        </use>
                        <path d="M-4,0h8" fill="none" stroke="white" stroke-width="1.5" pointer-events="none"/>
                </g>
                <g id="dirArrow">
                        <path fill="none" stroke="white" stroke-width="1.5" d="M0,-3.0v7 M-2.5,-0.5L0,-3.0L2.5,-0.5"/>
                </g>
               <g id="resetDef">
                       <use xlink:href="#rim2" fill="#404040">
                               <set attributeName="fill" to="#808080" begin="reset.mouseover" end="reset.mouseout"/>
                       </use>
               </g>
        </defs>

<script type="text/javascript">
var viewWidth = 797;
var viewHeight = 231;
var sectionId = 'dynsection-12';
</script>
<script xlink:href="svgpan.js"/>
<svg id="graph" class="graph">
<g id="viewport">
<title>JSPTotalWeightedTardinessMinimizationSolution::operator!=</title>
<!-- Node78 -->
<g id="node1" class="node">
<title>Node78</title>
<g id="a_node1"><a xlink:title=" ">
<polygon fill="#bfbfbf" stroke="#000000" points="0,-93.5 0,-123.5 157,-123.5 157,-93.5 0,-93.5"/>
<text text-anchor="start" x="8" y="-111.5" font-family="Helvetica,sans-Serif" font-size="10.00" fill="#000000">JSPTotalWeightedTardiness</text>
<text text-anchor="middle" x="78.5" y="-100.5" font-family="Helvetica,sans-Serif" font-size="10.00" fill="#000000">MinimizationSolution::operator!=</text>
</a>
</g>
</g>
<!-- Node79 -->
<g id="node2" class="node">
<title>Node79</title>
<g id="a_node2"><a xlink:href="classJSPTotalWeightedTardinessMinimizationSolution.html#add102398703fa0d4ab3f817660c56de2" target="_top" xlink:title="Updates the head and tail of all the tasks that have been affected by modifications since the last ca...">
<polygon fill="none" stroke="#000000" points="193,-88 193,-129 366,-129 366,-88 193,-88"/>
<text text-anchor="start" x="201" y="-117" font-family="Helvetica,sans-Serif" font-size="10.00" fill="#000000">JSPTotalWeightedTardiness</text>
<text text-anchor="start" x="201" y="-106" font-family="Helvetica,sans-Serif" font-size="10.00" fill="#000000">MinimizationSolution::UpdateHeads</text>
<text text-anchor="middle" x="279.5" y="-95" font-family="Helvetica,sans-Serif" font-size="10.00" fill="#000000">AndTails</text>
</a>
</g>
</g>
<!-- Node78&#45;&gt;Node79 -->
<g id="edge1" class="edge">
<title>Node78&#45;&gt;Node79</title>
<path fill="none" stroke="#191970" d="M157.0754,-108.5C165.5433,-108.5 174.2295,-108.5 182.8774,-108.5"/>
<polygon fill="#191970" stroke="#191970" points="182.9962,-112.0001 192.9962,-108.5 182.9962,-105.0001 182.9962,-112.0001"/>
</g>
<!-- Node80 -->
<g id="node3" class="node">
<title>Node80</title>
<g id="a_node3"><a xlink:href="classJSPTotalWeightedTardinessMinimizationSolution.html#ab231b628d8113f4987804c9fcbd8905b" target="_top" xlink:title="Inserts in a container all the tasks in topological order.">
<polygon fill="none" stroke="#000000" points="412,-181 412,-222 567,-222 567,-181 412,-181"/>
<text text-anchor="start" x="420" y="-210" font-family="Helvetica,sans-Serif" font-size="10.00" fill="#000000">JSPTotalWeightedTardiness</text>
<text text-anchor="start" x="420" y="-199" font-family="Helvetica,sans-Serif" font-size="10.00" fill="#000000">MinimizationSolution::GetTasks</text>
<text text-anchor="middle" x="489.5" y="-188" font-family="Helvetica,sans-Serif" font-size="10.00" fill="#000000">TopologicalOrder</text>
</a>
</g>
</g>
<!-- Node79&#45;&gt;Node80 -->
<g id="edge2" class="edge">
<title>Node79&#45;&gt;Node80</title>
<path fill="none" stroke="#191970" d="M321.162,-129.0083C344.7245,-140.4093 374.8246,-154.645 402,-166.5 410.0629,-170.0174 418.5985,-173.6011 427.0528,-177.0682"/>
<polygon fill="#191970" stroke="#191970" points="425.9519,-180.3988 436.5337,-180.9233 428.5886,-173.9143 425.9519,-180.3988"/>
</g>
<!-- Node81 -->
<g id="node4" class="node">
<title>Node81</title>
<g id="a_node4"><a xlink:href="classJSPTotalWeightedTardinessMinimizationSolution.html#a41c4bea1c8348de5dd0b18255cd14c96" target="_top" xlink:title="Returns a pair with the tasks that are scheduled after the specified task. The first component is the...">
<polygon fill="none" stroke="#000000" points="613,-167.5 613,-197.5 789,-197.5 789,-167.5 613,-167.5"/>
<text text-anchor="start" x="621" y="-185.5" font-family="Helvetica,sans-Serif" font-size="10.00" fill="#000000">JSPTotalWeightedTardiness</text>
<text text-anchor="middle" x="701" y="-174.5" font-family="Helvetica,sans-Serif" font-size="10.00" fill="#000000">MinimizationSolution::GetNextTasks</text>
</a>
</g>
</g>
<!-- Node79&#45;&gt;Node81 -->
<g id="edge10" class="edge">
<title>Node79&#45;&gt;Node81</title>
<path fill="none" stroke="#191970" d="M366.0838,-126.6064C378.1327,-128.9986 390.3655,-131.3603 402,-133.5 468.878,-145.7995 544.4561,-158.1719 602.8945,-167.4073"/>
<polygon fill="#191970" stroke="#191970" points="602.4365,-170.8782 612.8596,-168.978 603.5265,-163.9636 602.4365,-170.8782"/>
</g>
<!-- Node82 -->
<g id="node5" class="node">
<title>Node82</title>
<g id="a_node5"><a xlink:href="classJSPTotalWeightedTardinessMinimizationSolution.html#ae35f63c78d6899bdaa4ccc044891fef6" target="_top" xlink:title="Returns a pair with the tasks that are scheduled before the specified task. The first component is th...">
<polygon fill="none" stroke="#000000" points="402,-93.5 402,-123.5 577,-123.5 577,-93.5 402,-93.5"/>
<text text-anchor="start" x="410" y="-111.5" font-family="Helvetica,sans-Serif" font-size="10.00" fill="#000000">JSPTotalWeightedTardiness</text>
<text text-anchor="middle" x="489.5" y="-100.5" font-family="Helvetica,sans-Serif" font-size="10.00" fill="#000000">MinimizationSolution::GetPrevTasks</text>
</a>
</g>
</g>
<!-- Node79&#45;&gt;Node82 -->
<g id="edge4" class="edge">
<title>Node79&#45;&gt;Node82</title>
<path fill="none" stroke="#191970" d="M366.1275,-108.5C374.4811,-108.5 382.9948,-108.5 391.4483,-108.5"/>
<polygon fill="#191970" stroke="#191970" points="391.7149,-112.0001 401.7149,-108.5 391.7148,-105.0001 391.7149,-112.0001"/>
</g>
<!-- Node83 -->
<g id="node6" class="node">
<title>Node83</title>
<g id="a_node6"><a xlink:href="namespacestd.html#aabf08e25820a0127a265bb20575664b9" target="_top" xlink:title=" ">
<polygon fill="none" stroke="#000000" points="462,-55 462,-74 517,-74 517,-55 462,-55"/>
<text text-anchor="middle" x="489.5" y="-62" font-family="Helvetica,sans-Serif" font-size="10.00" fill="#000000">std::max</text>
</a>
</g>
</g>
<!-- Node79&#45;&gt;Node83 -->
<g id="edge5" class="edge">
<title>Node79&#45;&gt;Node83</title>
<path fill="none" stroke="#191970" d="M366.1275,-90.3495C396.0466,-84.0807 428.0198,-77.3816 451.9187,-72.3742"/>
<polygon fill="#191970" stroke="#191970" points="452.8956,-75.7456 461.9653,-70.2692 451.46,-68.8944 452.8956,-75.7456"/>
</g>
<!-- Node87 -->
<g id="node10" class="node">
<title>Node87</title>
<g id="a_node10"><a xlink:href="classJSPTotalWeightedTardinessMinimizationSolution.html#a223b298444c077682038c4716d1f032f" target="_top" xlink:title="Returns the problem that the solution solves.">
<polygon fill="none" stroke="#000000" points="407.5,-5.5 407.5,-35.5 571.5,-35.5 571.5,-5.5 407.5,-5.5"/>
<text text-anchor="start" x="415.5" y="-23.5" font-family="Helvetica,sans-Serif" font-size="10.00" fill="#000000">JSPTotalWeightedTardiness</text>
<text text-anchor="middle" x="489.5" y="-12.5" font-family="Helvetica,sans-Serif" font-size="10.00" fill="#000000">MinimizationSolution::GetProblem</text>
</a>
</g>
</g>
<!-- Node79&#45;&gt;Node87 -->
<g id="edge9" class="edge">
<title>Node79&#45;&gt;Node87</title>
<path fill="none" stroke="#191970" d="M314.8144,-87.982C338.8327,-74.6208 371.6443,-57.5069 402,-45.5 408.1199,-43.0794 414.5649,-40.7845 421.0672,-38.6387"/>
<polygon fill="#191970" stroke="#191970" points="422.1358,-41.9717 430.6036,-35.6041 420.0131,-35.3012 422.1358,-41.9717"/>
</g>
<!-- Node80&#45;&gt;Node81 -->
<g id="edge3" class="edge">
<title>Node80&#45;&gt;Node81</title>
<path fill="none" stroke="#191970" d="M567.0538,-194.533C578.6591,-193.4904 590.7531,-192.404 602.7189,-191.329"/>
<polygon fill="#191970" stroke="#191970" points="603.0798,-194.8108 612.7265,-190.43 602.4534,-187.8389 603.0798,-194.8108"/>
</g>
<!-- Node84 -->
<g id="node7" class="node">
<title>Node84</title>
<g id="a_node7"><a xlink:href="classTriangularFuzzyNumber.html#afe61a993d8d969f858845dbb6b5eb7a0" target="_top" xlink:title="Returns the smallest possible value.">
<polygon fill="none" stroke="#000000" points="641,-98.5 641,-128.5 761,-128.5 761,-98.5 641,-98.5"/>
<text text-anchor="start" x="649" y="-116.5" font-family="Helvetica,sans-Serif" font-size="10.00" fill="#000000">TriangularFuzzyNumber</text>
<text text-anchor="middle" x="701" y="-105.5" font-family="Helvetica,sans-Serif" font-size="10.00" fill="#000000">::GetSmallest</text>
</a>
</g>
</g>
<!-- Node83&#45;&gt;Node84 -->
<g id="edge6" class="edge">
<title>Node83&#45;&gt;Node84</title>
<path fill="none" stroke="#191970" d="M517.0942,-70.7699C534.3222,-74.6937 556.9595,-79.8662 577,-84.5 594.3762,-88.5177 613.114,-92.8829 630.63,-96.9777"/>
<polygon fill="#191970" stroke="#191970" points="630.248,-100.4827 640.7824,-99.3527 631.8426,-93.6668 630.248,-100.4827"/>
</g>
<!-- Node85 -->
<g id="node8" class="node">
<title>Node85</title>
<g id="a_node8"><a xlink:href="classTriangularFuzzyNumber.html#ac79e432898eb12448e54d085295a09f9" target="_top" xlink:title="Returns the most probable value.">
<polygon fill="none" stroke="#000000" points="641,-49.5 641,-79.5 761,-79.5 761,-49.5 641,-49.5"/>
<text text-anchor="start" x="649" y="-67.5" font-family="Helvetica,sans-Serif" font-size="10.00" fill="#000000">TriangularFuzzyNumber</text>
<text text-anchor="middle" x="701" y="-56.5" font-family="Helvetica,sans-Serif" font-size="10.00" fill="#000000">::GetMostProbable</text>
</a>
</g>
</g>
<!-- Node83&#45;&gt;Node85 -->
<g id="edge7" class="edge">
<title>Node83&#45;&gt;Node85</title>
<path fill="none" stroke="#191970" d="M517.1499,-64.5C545.8274,-64.5 591.8179,-64.5 630.6251,-64.5"/>
<polygon fill="#191970" stroke="#191970" points="630.8391,-68.0001 640.8391,-64.5 630.8391,-61.0001 630.8391,-68.0001"/>
</g>
<!-- Node86 -->
<g id="node9" class="node">
<title>Node86</title>
<g id="a_node9"><a xlink:href="classTriangularFuzzyNumber.html#a0133fef04fbb1a8e571d117c01c6af71" target="_top" xlink:title="Returns the largest possible value.">
<polygon fill="none" stroke="#000000" points="641,-.5 641,-30.5 761,-30.5 761,-.5 641,-.5"/>
<text text-anchor="start" x="649" y="-18.5" font-family="Helvetica,sans-Serif" font-size="10.00" fill="#000000">TriangularFuzzyNumber</text>
<text text-anchor="middle" x="701" y="-7.5" font-family="Helvetica,sans-Serif" font-size="10.00" fill="#000000">::GetLargest</text>
</a>
</g>
</g>
<!-- Node83&#45;&gt;Node86 -->
<g id="edge8" class="edge">
<title>Node83&#45;&gt;Node86</title>
<path fill="none" stroke="#191970" d="M517.1231,-58.6759C534.362,-54.9981 557.0006,-50.09 577,-45.5 594.4143,-41.5033 613.1662,-37.0466 630.6836,-32.8166"/>
<polygon fill="#191970" stroke="#191970" points="631.9406,-36.1134 640.8355,-30.3575 630.2926,-29.3102 631.9406,-36.1134"/>
</g>
</g>
</svg>
        <g id="navigator" transform="translate(0 0)" fill="#404254">
                <rect fill="#f2f5e9" fill-opacity="0.5" stroke="#606060" stroke-width=".5" x="0" y="0" width="60" height="60"/>
                <use id="zoomplus" xlink:href="#zoomPlus" x="17" y="9" onmousedown="handleZoom(evt,'in')"/>
                <use id="zoomminus" xlink:href="#zoomMin" x="42" y="9" onmousedown="handleZoom(evt,'out')"/>
                <use id="reset" xlink:href="#resetDef" x="30" y="36" onmousedown="handleReset()"/>
                <g id="arrowUp" xlink:href="#dirArrow" transform="translate(30 24)" onmousedown="handlePan(0,-1)">
                  <use xlink:href="#rim" fill="#404040">
                        <set attributeName="fill" to="#808080" begin="arrowUp.mouseover" end="arrowUp.mouseout"/>
                  </use>
                  <path fill="none" stroke="white" stroke-width="1.5" d="M0,-3.0v7 M-2.5,-0.5L0,-3.0L2.5,-0.5"/>
                </g>
                <g id="arrowRight" xlink:href="#dirArrow" transform="rotate(90) translate(36 -43)" onmousedown="handlePan(1,0)">
                  <use xlink:href="#rim" fill="#404040">
                        <set attributeName="fill" to="#808080" begin="arrowRight.mouseover" end="arrowRight.mouseout"/>
                  </use>
                  <path fill="none" stroke="white" stroke-width="1.5" d="M0,-3.0v7 M-2.5,-0.5L0,-3.0L2.5,-0.5"/>
                </g>
                <g id="arrowDown" xlink:href="#dirArrow" transform="rotate(180) translate(-30 -48)" onmousedown="handlePan(0,1)">
                  <use xlink:href="#rim" fill="#404040">
                        <set attributeName="fill" to="#808080" begin="arrowDown.mouseover" end="arrowDown.mouseout"/>
                  </use>
                  <path fill="none" stroke="white" stroke-width="1.5" d="M0,-3.0v7 M-2.5,-0.5L0,-3.0L2.5,-0.5"/>
                </g>
                <g id="arrowLeft" xlink:href="#dirArrow" transform="rotate(270) translate(-36 17)" onmousedown="handlePan(-1,0)">
                  <use xlink:href="#rim" fill="#404040">
                        <set attributeName="fill" to="#808080" begin="arrowLeft.mouseover" end="arrowLeft.mouseout"/>
                  </use>
                  <path fill="none" stroke="white" stroke-width="1.5" d="M0,-3.0v7 M-2.5,-0.5L0,-3.0L2.5,-0.5"/>
                </g>
        </g>
        <svg viewBox="0 0 15 15" width="100%" height="30px" preserveAspectRatio="xMaxYMin meet">
         <g id="arrow_out" transform="scale(0.3 0.3)">
          <a xlink:href="classJSPTotalWeightedTardinessMinimizationSolution_a1b300ceccf47826ff8dec8167ee92de1_cgraph_org.svg" target="_base">
           <rect id="button" ry="5" rx="5" y="6" x="6" height="38" width="38"
                fill="#f2f5e9" fill-opacity="0.5" stroke="#606060" stroke-width="1.0"/>
           <path id="arrow"
             d="M 11.500037,31.436501 C 11.940474,20.09759 22.043105,11.32322 32.158766,21.979434 L 37.068811,17.246167 C 37.068811,17.246167 37.088388,32 37.088388,32 L 22.160133,31.978069 C 22.160133,31.978069 26.997745,27.140456 26.997745,27.140456 C 18.528582,18.264221 13.291696,25.230495 11.500037,31.436501 z"
             style="fill:#404040;"/>
          </a>
         </g>
        </svg>
</svg>
