<?xml version="1.0" encoding="UTF-8" standalone="no"?>
<!DOCTYPE svg PUBLIC "-//W3C//DTD SVG 1.1//EN"
 "http://www.w3.org/Graphics/SVG/1.1/DTD/svg11.dtd">
<!-- Generated by graphviz version 2.40.1 (20161225.0304)
 -->
<!-- Title: JSPTotalWeightedTardinessMinimizationSolution::ToString Pages: 1 -->
<!--zoomable 280 -->
<svg id="main" version="1.1" xmlns="http://www.w3.org/2000/svg" xmlns:xlink="http://www.w3.org/1999/xlink" xml:space="preserve" onload="init(evt)">
<style type="text/css"><![CDATA[
.edge:hover path { stroke: red; }
.edge:hover polygon { stroke: red; fill: red; }
]]></style>
<script type="text/javascript"><![CDATA[
var edges = document.getElementsByTagName('g');
if (edges && edges.length) {
  for (var i=0;i<edges.length;i++) {
    if (edges[i].id.substr(0,4)=='edge') {
      edges[i].setAttribute('class','edge');
    }
  }
}
]]></script>
        <defs>
                <circle id="rim" cx="0" cy="0" r="7"/>
                <circle id="rim2" cx="0" cy="0" r="3.5"/>
                <g id="zoomPlus">
                        <use xlink:href="#rim" fill="#404040">
                                <set attributeName="fill" to="#808080" begin="zoomplus.mouseover" end="zoomplus.mouseout"/>
                        </use>
                        <path d="M-4,0h8M0,-4v8" fill="none" stroke="white" stroke-width="1.5" pointer-events="none"/>
                </g>
                <g id="zoomMin">
                        <use xlink:href="#rim" fill="#404040">
                                <set attributeName="fill" to="#808080" begin="zoomminus.mouseover" end="zoomminus.mouseout"/>
                        </use>
                        <path d="M-4,0h8" fill="none" stroke="white" stroke-width="1.5" pointer-events="none"/>
                </g>
                <g id="dirArrow">
                        <path fill="none" stroke="white" stroke-width="1.5" d="M0,-3.0v7 M-2.5,-0.5L0,-3.0L2.5,-0.5"/>
                </g>
               <g id="resetDef">
                       <use xlink:href="#rim2" fill="#404040">
                               <set attributeName="fill" to="#808080" begin="reset.mouseover" end="reset.mouseout"/>
                       </use>
               </g>
        </defs>

<script type="text/javascript">
var viewWidth = 974;
var viewHeight = 280;
var sectionId = 'dynsection-19';
</script>
<script xlink:href="svgpan.js"/>
<svg id="graph" class="graph">
<g id="viewport">
<title>JSPTotalWeightedTardinessMinimizationSolution::ToString</title>
<!-- Node148 -->
<g id="node1" class="node">
<title>Node148</title>
<g id="a_node1"><a xlink:title="Returns a string representing the solution.">
<polygon fill="#bfbfbf" stroke="#000000" points="0,-166.5 0,-196.5 149,-196.5 149,-166.5 0,-166.5"/>
<text text-anchor="start" x="8" y="-184.5" font-family="Helvetica,sans-Serif" font-size="10.00" fill="#000000">JSPTotalWeightedTardiness</text>
<text text-anchor="middle" x="74.5" y="-173.5" font-family="Helvetica,sans-Serif" font-size="10.00" fill="#000000">MinimizationSolution::ToString</text>
</a>
</g>
</g>
<!-- Node149 -->
<g id="node2" class="node">
<title>Node149</title>
<g id="a_node2"><a xlink:href="classJSPTotalWeightedTardinessMinimizationSolution.html#a6412d73e4e08f9e3c9f103fc1ceb1d34" target="_top" xlink:title="Returns the total weighted tardiness.">
<polygon fill="none" stroke="#000000" points="185,-137 185,-178 334,-178 334,-137 185,-137"/>
<text text-anchor="start" x="193" y="-166" font-family="Helvetica,sans-Serif" font-size="10.00" fill="#000000">JSPTotalWeightedTardiness</text>
<text text-anchor="start" x="193" y="-155" font-family="Helvetica,sans-Serif" font-size="10.00" fill="#000000">MinimizationSolution::GetTotal</text>
<text text-anchor="middle" x="259.5" y="-144" font-family="Helvetica,sans-Serif" font-size="10.00" fill="#000000">WeightedTardiness</text>
</a>
</g>
</g>
<!-- Node148&#45;&gt;Node149 -->
<g id="edge1" class="edge">
<title>Node148&#45;&gt;Node149</title>
<path fill="none" stroke="#191970" d="M149.2133,-171.8075C157.6464,-170.7134 166.2845,-169.5928 174.8326,-168.4839"/>
<polygon fill="#191970" stroke="#191970" points="175.3419,-171.9472 184.8085,-167.1897 174.4413,-165.0054 175.3419,-171.9472"/>
</g>
<!-- Node159 -->
<g id="node12" class="node">
<title>Node159</title>
<g id="a_node12"><a xlink:href="classJSPTotalWeightedTardinessMinimizationSolution.html#ae11fdc7005cb0b4354cce60f6b4cc242" target="_top" xlink:title="Returns a string with the solution.">
<polygon fill="none" stroke="#000000" points="382.5,-192 382.5,-233 530.5,-233 530.5,-192 382.5,-192"/>
<text text-anchor="start" x="390.5" y="-221" font-family="Helvetica,sans-Serif" font-size="10.00" fill="#000000">JSPTotalWeightedTardiness</text>
<text text-anchor="start" x="390.5" y="-210" font-family="Helvetica,sans-Serif" font-size="10.00" fill="#000000">MinimizationSolution::Solution</text>
<text text-anchor="middle" x="456.5" y="-199" font-family="Helvetica,sans-Serif" font-size="10.00" fill="#000000">Sequence</text>
</a>
</g>
</g>
<!-- Node148&#45;&gt;Node159 -->
<g id="edge12" class="edge">
<title>Node148&#45;&gt;Node159</title>
<path fill="none" stroke="#191970" d="M149.0603,-187.5507C213.1863,-192.7546 305.6288,-200.2565 372.3829,-205.6737"/>
<polygon fill="#191970" stroke="#191970" points="372.2026,-209.1705 382.4529,-206.4909 372.7688,-202.1935 372.2026,-209.1705"/>
</g>
<!-- Node150 -->
<g id="node3" class="node">
<title>Node150</title>
<g id="a_node3"><a xlink:href="classJSPTotalWeightedTardinessMinimizationSolution.html#add102398703fa0d4ab3f817660c56de2" target="_top" xlink:title="Updates the head and tail of all the tasks that have been affected by modifications since the last ca...">
<polygon fill="none" stroke="#000000" points="370,-132 370,-173 543,-173 543,-132 370,-132"/>
<text text-anchor="start" x="378" y="-161" font-family="Helvetica,sans-Serif" font-size="10.00" fill="#000000">JSPTotalWeightedTardiness</text>
<text text-anchor="start" x="378" y="-150" font-family="Helvetica,sans-Serif" font-size="10.00" fill="#000000">MinimizationSolution::UpdateHeads</text>
<text text-anchor="middle" x="456.5" y="-139" font-family="Helvetica,sans-Serif" font-size="10.00" fill="#000000">AndTails</text>
</a>
</g>
</g>
<!-- Node149&#45;&gt;Node150 -->
<g id="edge2" class="edge">
<title>Node149&#45;&gt;Node150</title>
<path fill="none" stroke="#191970" d="M334.2582,-155.6026C342.6292,-155.3901 351.2435,-155.1715 359.8391,-154.9533"/>
<polygon fill="#191970" stroke="#191970" points="359.9974,-158.4505 369.9054,-154.6978 359.8198,-151.4528 359.9974,-158.4505"/>
</g>
<!-- Node151 -->
<g id="node4" class="node">
<title>Node151</title>
<g id="a_node4"><a xlink:href="classJSPTotalWeightedTardinessMinimizationSolution.html#ab231b628d8113f4987804c9fcbd8905b" target="_top" xlink:title="Inserts in a container all the tasks in topological order.">
<polygon fill="none" stroke="#000000" points="589,-181 589,-222 744,-222 744,-181 589,-181"/>
<text text-anchor="start" x="597" y="-210" font-family="Helvetica,sans-Serif" font-size="10.00" fill="#000000">JSPTotalWeightedTardiness</text>
<text text-anchor="start" x="597" y="-199" font-family="Helvetica,sans-Serif" font-size="10.00" fill="#000000">MinimizationSolution::GetTasks</text>
<text text-anchor="middle" x="666.5" y="-188" font-family="Helvetica,sans-Serif" font-size="10.00" fill="#000000">TopologicalOrder</text>
</a>
</g>
</g>
<!-- Node150&#45;&gt;Node151 -->
<g id="edge3" class="edge">
<title>Node150&#45;&gt;Node151</title>
<path fill="none" stroke="#191970" d="M543.1275,-172.7131C554.9553,-175.4729 567.1041,-178.3076 578.9482,-181.0713"/>
<polygon fill="#191970" stroke="#191970" points="578.2781,-184.5088 588.8119,-183.3728 579.8688,-177.692 578.2781,-184.5088"/>
</g>
<!-- Node152 -->
<g id="node5" class="node">
<title>Node152</title>
<g id="a_node5"><a xlink:href="classJSPTotalWeightedTardinessMinimizationSolution.html#a41c4bea1c8348de5dd0b18255cd14c96" target="_top" xlink:title="Returns a pair with the tasks that are scheduled after the specified task. The first component is the...">
<polygon fill="none" stroke="#000000" points="790,-167.5 790,-197.5 966,-197.5 966,-167.5 790,-167.5"/>
<text text-anchor="start" x="798" y="-185.5" font-family="Helvetica,sans-Serif" font-size="10.00" fill="#000000">JSPTotalWeightedTardiness</text>
<text text-anchor="middle" x="878" y="-174.5" font-family="Helvetica,sans-Serif" font-size="10.00" fill="#000000">MinimizationSolution::GetNextTasks</text>
</a>
</g>
</g>
<!-- Node150&#45;&gt;Node152 -->
<g id="edge11" class="edge">
<title>Node150&#45;&gt;Node152</title>
<path fill="none" stroke="#191970" d="M543.1094,-157.4653C602.4852,-161.0082 683.0436,-166.0877 754,-171.5 762.364,-172.138 771.0421,-172.8353 779.7468,-173.5594"/>
<polygon fill="#191970" stroke="#191970" points="779.7018,-177.068 789.9604,-174.4198 780.2895,-170.0927 779.7018,-177.068"/>
</g>
<!-- Node153 -->
<g id="node6" class="node">
<title>Node153</title>
<g id="a_node6"><a xlink:href="classJSPTotalWeightedTardinessMinimizationSolution.html#ae35f63c78d6899bdaa4ccc044891fef6" target="_top" xlink:title="Returns a pair with the tasks that are scheduled before the specified task. The first component is th...">
<polygon fill="none" stroke="#000000" points="579,-93.5 579,-123.5 754,-123.5 754,-93.5 579,-93.5"/>
<text text-anchor="start" x="587" y="-111.5" font-family="Helvetica,sans-Serif" font-size="10.00" fill="#000000">JSPTotalWeightedTardiness</text>
<text text-anchor="middle" x="666.5" y="-100.5" font-family="Helvetica,sans-Serif" font-size="10.00" fill="#000000">MinimizationSolution::GetPrevTasks</text>
</a>
</g>
</g>
<!-- Node150&#45;&gt;Node153 -->
<g id="edge5" class="edge">
<title>Node150&#45;&gt;Node153</title>
<path fill="none" stroke="#191970" d="M543.1275,-134.3495C556.9466,-131.454 571.2039,-128.4668 584.9015,-125.5968"/>
<polygon fill="#191970" stroke="#191970" points="585.6925,-129.0072 594.7622,-123.5308 584.257,-122.1559 585.6925,-129.0072"/>
</g>
<!-- Node154 -->
<g id="node7" class="node">
<title>Node154</title>
<g id="a_node7"><a xlink:href="namespacestd.html#aabf08e25820a0127a265bb20575664b9" target="_top" xlink:title=" ">
<polygon fill="none" stroke="#000000" points="639,-55 639,-74 694,-74 694,-55 639,-55"/>
<text text-anchor="middle" x="666.5" y="-62" font-family="Helvetica,sans-Serif" font-size="10.00" fill="#000000">std::max</text>
</a>
</g>
</g>
<!-- Node150&#45;&gt;Node154 -->
<g id="edge6" class="edge">
<title>Node150&#45;&gt;Node154</title>
<path fill="none" stroke="#191970" d="M487.7937,-131.8779C511.8594,-116.8381 546.4032,-96.9833 579,-84.5 594.8766,-78.4199 613.1131,-73.8896 628.8144,-70.6925"/>
<polygon fill="#191970" stroke="#191970" points="629.5607,-74.1132 638.716,-68.7812 628.2339,-67.2401 629.5607,-74.1132"/>
</g>
<!-- Node158 -->
<g id="node11" class="node">
<title>Node158</title>
<g id="a_node11"><a xlink:href="classJSPTotalWeightedTardinessMinimizationSolution.html#a223b298444c077682038c4716d1f032f" target="_top" xlink:title="Returns the problem that the solution solves.">
<polygon fill="none" stroke="#000000" points="584.5,-241.5 584.5,-271.5 748.5,-271.5 748.5,-241.5 584.5,-241.5"/>
<text text-anchor="start" x="592.5" y="-259.5" font-family="Helvetica,sans-Serif" font-size="10.00" fill="#000000">JSPTotalWeightedTardiness</text>
<text text-anchor="middle" x="666.5" y="-248.5" font-family="Helvetica,sans-Serif" font-size="10.00" fill="#000000">MinimizationSolution::GetProblem</text>
</a>
</g>
</g>
<!-- Node150&#45;&gt;Node158 -->
<g id="edge10" class="edge">
<title>Node150&#45;&gt;Node158</title>
<path fill="none" stroke="#191970" d="M527.7104,-173.1369C533.0953,-175.9006 538.267,-179.0091 543,-182.5 564.7478,-198.5407 556.8151,-216.0694 579,-231.5 581.8757,-233.5002 584.9096,-235.3414 588.0528,-237.0362"/>
<polygon fill="#191970" stroke="#191970" points="586.6325,-240.2371 597.1594,-241.4354 589.6774,-233.934 586.6325,-240.2371"/>
</g>
<!-- Node151&#45;&gt;Node152 -->
<g id="edge4" class="edge">
<title>Node151&#45;&gt;Node152</title>
<path fill="none" stroke="#191970" d="M744.0538,-194.533C755.6591,-193.4904 767.7531,-192.404 779.7189,-191.329"/>
<polygon fill="#191970" stroke="#191970" points="780.0798,-194.8108 789.7265,-190.43 779.4534,-187.8389 780.0798,-194.8108"/>
</g>
<!-- Node155 -->
<g id="node8" class="node">
<title>Node155</title>
<g id="a_node8"><a xlink:href="classTriangularFuzzyNumber.html#afe61a993d8d969f858845dbb6b5eb7a0" target="_top" xlink:title="Returns the smallest possible value.">
<polygon fill="none" stroke="#000000" points="818,-98.5 818,-128.5 938,-128.5 938,-98.5 818,-98.5"/>
<text text-anchor="start" x="826" y="-116.5" font-family="Helvetica,sans-Serif" font-size="10.00" fill="#000000">TriangularFuzzyNumber</text>
<text text-anchor="middle" x="878" y="-105.5" font-family="Helvetica,sans-Serif" font-size="10.00" fill="#000000">::GetSmallest</text>
</a>
</g>
</g>
<!-- Node154&#45;&gt;Node155 -->
<g id="edge7" class="edge">
<title>Node154&#45;&gt;Node155</title>
<path fill="none" stroke="#191970" d="M694.0942,-70.7699C711.3222,-74.6937 733.9595,-79.8662 754,-84.5 771.3762,-88.5177 790.114,-92.8829 807.63,-96.9777"/>
<polygon fill="#191970" stroke="#191970" points="807.248,-100.4827 817.7824,-99.3527 808.8426,-93.6668 807.248,-100.4827"/>
</g>
<!-- Node156 -->
<g id="node9" class="node">
<title>Node156</title>
<g id="a_node9"><a xlink:href="classTriangularFuzzyNumber.html#ac79e432898eb12448e54d085295a09f9" target="_top" xlink:title="Returns the most probable value.">
<polygon fill="none" stroke="#000000" points="818,-49.5 818,-79.5 938,-79.5 938,-49.5 818,-49.5"/>
<text text-anchor="start" x="826" y="-67.5" font-family="Helvetica,sans-Serif" font-size="10.00" fill="#000000">TriangularFuzzyNumber</text>
<text text-anchor="middle" x="878" y="-56.5" font-family="Helvetica,sans-Serif" font-size="10.00" fill="#000000">::GetMostProbable</text>
</a>
</g>
</g>
<!-- Node154&#45;&gt;Node156 -->
<g id="edge8" class="edge">
<title>Node154&#45;&gt;Node156</title>
<path fill="none" stroke="#191970" d="M694.1499,-64.5C722.8274,-64.5 768.8179,-64.5 807.6251,-64.5"/>
<polygon fill="#191970" stroke="#191970" points="807.8391,-68.0001 817.8391,-64.5 807.8391,-61.0001 807.8391,-68.0001"/>
</g>
<!-- Node157 -->
<g id="node10" class="node">
<title>Node157</title>
<g id="a_node10"><a xlink:href="classTriangularFuzzyNumber.html#a0133fef04fbb1a8e571d117c01c6af71" target="_top" xlink:title="Returns the largest possible value.">
<polygon fill="none" stroke="#000000" points="818,-.5 818,-30.5 938,-30.5 938,-.5 818,-.5"/>
<text text-anchor="start" x="826" y="-18.5" font-family="Helvetica,sans-Serif" font-size="10.00" fill="#000000">TriangularFuzzyNumber</text>
<text text-anchor="middle" x="878" y="-7.5" font-family="Helvetica,sans-Serif" font-size="10.00" fill="#000000">::GetLargest</text>
</a>
</g>
</g>
<!-- Node154&#45;&gt;Node157 -->
<g id="edge9" class="edge">
<title>Node154&#45;&gt;Node157</title>
<path fill="none" stroke="#191970" d="M694.1499,-58.0941C722.8274,-51.4502 768.8179,-40.7951 807.6251,-31.8044"/>
<polygon fill="#191970" stroke="#191970" points="808.8871,-35.1048 817.8391,-29.438 807.3072,-28.2854 808.8871,-35.1048"/>
</g>
<!-- Node159&#45;&gt;Node151 -->
<g id="edge13" class="edge">
<title>Node159&#45;&gt;Node151</title>
<path fill="none" stroke="#191970" d="M530.5381,-208.6218C546.037,-207.81 562.5243,-206.9463 578.4747,-206.1108"/>
<polygon fill="#191970" stroke="#191970" points="579.0599,-209.5851 588.8631,-205.5667 578.6937,-202.5947 579.0599,-209.5851"/>
</g>
<!-- Node159&#45;&gt;Node158 -->
<g id="edge14" class="edge">
<title>Node159&#45;&gt;Node158</title>
<path fill="none" stroke="#191970" d="M530.5381,-228.0128C548.1736,-231.7078 567.0888,-235.671 585.0368,-239.4315"/>
<polygon fill="#191970" stroke="#191970" points="584.3888,-242.8717 594.894,-241.4968 585.8243,-236.0204 584.3888,-242.8717"/>
</g>
</g>
</svg>
        <g id="navigator" transform="translate(0 0)" fill="#404254">
                <rect fill="#f2f5e9" fill-opacity="0.5" stroke="#606060" stroke-width=".5" x="0" y="0" width="60" height="60"/>
                <use id="zoomplus" xlink:href="#zoomPlus" x="17" y="9" onmousedown="handleZoom(evt,'in')"/>
                <use id="zoomminus" xlink:href="#zoomMin" x="42" y="9" onmousedown="handleZoom(evt,'out')"/>
                <use id="reset" xlink:href="#resetDef" x="30" y="36" onmousedown="handleReset()"/>
                <g id="arrowUp" xlink:href="#dirArrow" transform="translate(30 24)" onmousedown="handlePan(0,-1)">
                  <use xlink:href="#rim" fill="#404040">
                        <set attributeName="fill" to="#808080" begin="arrowUp.mouseover" end="arrowUp.mouseout"/>
                  </use>
                  <path fill="none" stroke="white" stroke-width="1.5" d="M0,-3.0v7 M-2.5,-0.5L0,-3.0L2.5,-0.5"/>
                </g>
                <g id="arrowRight" xlink:href="#dirArrow" transform="rotate(90) translate(36 -43)" onmousedown="handlePan(1,0)">
                  <use xlink:href="#rim" fill="#404040">
                        <set attributeName="fill" to="#808080" begin="arrowRight.mouseover" end="arrowRight.mouseout"/>
                  </use>
                  <path fill="none" stroke="white" stroke-width="1.5" d="M0,-3.0v7 M-2.5,-0.5L0,-3.0L2.5,-0.5"/>
                </g>
                <g id="arrowDown" xlink:href="#dirArrow" transform="rotate(180) translate(-30 -48)" onmousedown="handlePan(0,1)">
                  <use xlink:href="#rim" fill="#404040">
                        <set attributeName="fill" to="#808080" begin="arrowDown.mouseover" end="arrowDown.mouseout"/>
                  </use>
                  <path fill="none" stroke="white" stroke-width="1.5" d="M0,-3.0v7 M-2.5,-0.5L0,-3.0L2.5,-0.5"/>
                </g>
                <g id="arrowLeft" xlink:href="#dirArrow" transform="rotate(270) translate(-36 17)" onmousedown="handlePan(-1,0)">
                  <use xlink:href="#rim" fill="#404040">
                        <set attributeName="fill" to="#808080" begin="arrowLeft.mouseover" end="arrowLeft.mouseout"/>
                  </use>
                  <path fill="none" stroke="white" stroke-width="1.5" d="M0,-3.0v7 M-2.5,-0.5L0,-3.0L2.5,-0.5"/>
                </g>
        </g>
        <svg viewBox="0 0 15 15" width="100%" height="30px" preserveAspectRatio="xMaxYMin meet">
         <g id="arrow_out" transform="scale(0.3 0.3)">
          <a xlink:href="classJSPTotalWeightedTardinessMinimizationSolution_a051e7f37aa3188f821a8366483d7ce64_cgraph_org.svg" target="_base">
           <rect id="button" ry="5" rx="5" y="6" x="6" height="38" width="38"
                fill="#f2f5e9" fill-opacity="0.5" stroke="#606060" stroke-width="1.0"/>
           <path id="arrow"
             d="M 11.500037,31.436501 C 11.940474,20.09759 22.043105,11.32322 32.158766,21.979434 L 37.068811,17.246167 C 37.068811,17.246167 37.088388,32 37.088388,32 L 22.160133,31.978069 C 22.160133,31.978069 26.997745,27.140456 26.997745,27.140456 C 18.528582,18.264221 13.291696,25.230495 11.500037,31.436501 z"
             style="fill:#404040;"/>
          </a>
         </g>
        </svg>
</svg>
