<?xml version="1.0" encoding="UTF-8" standalone="no"?>
<!DOCTYPE svg PUBLIC "-//W3C//DTD SVG 1.1//EN"
 "http://www.w3.org/Graphics/SVG/1.1/DTD/svg11.dtd">
<!-- Generated by graphviz version 2.40.1 (20161225.0304)
 -->
<!-- Title: TabuSearchFixedLength::FindSolution Pages: 1 -->
<svg width="386pt" height="252pt"
 viewBox="0.00 0.00 386.00 252.00" xmlns="http://www.w3.org/2000/svg" xmlns:xlink="http://www.w3.org/1999/xlink">
<g id="graph0" class="graph" transform="scale(1 1) rotate(0) translate(4 248)">
<title>TabuSearchFixedLength::FindSolution</title>
<!-- Node0 -->
<g id="node1" class="node">
<title>Node0</title>
<g id="a_node1"><a xlink:title="Finds a solution to a problem using a tabu search metaheuristic with a fixed length tabu list.">
<polygon fill="#bfbfbf" stroke="#000000" points="0,-112.5 0,-142.5 122,-142.5 122,-112.5 0,-112.5"/>
<text text-anchor="start" x="8" y="-130.5" font-family="Helvetica,sans-Serif" font-size="10.00" fill="#000000">TabuSearchFixedLength</text>
<text text-anchor="middle" x="61" y="-119.5" font-family="Helvetica,sans-Serif" font-size="10.00" fill="#000000">::FindSolution</text>
</a>
</g>
</g>
<!-- Node1 -->
<g id="node2" class="node">
<title>Node1</title>
<g id="a_node2"><a xlink:href="classLocalSearchLogger.html#a21d895d4ddc94e2664e1f0d8bcd8fd95" target="_top" xlink:title="Sets the initial solution.">
<polygon fill="none" stroke="#000000" points="158.5,-213.5 158.5,-243.5 264.5,-243.5 264.5,-213.5 158.5,-213.5"/>
<text text-anchor="start" x="166.5" y="-231.5" font-family="Helvetica,sans-Serif" font-size="10.00" fill="#000000">LocalSearchLogger::</text>
<text text-anchor="middle" x="211.5" y="-220.5" font-family="Helvetica,sans-Serif" font-size="10.00" fill="#000000">SetInitialSolution</text>
</a>
</g>
</g>
<!-- Node0&#45;&gt;Node1 -->
<g id="edge1" class="edge">
<title>Node0&#45;&gt;Node1</title>
<path fill="none" stroke="#191970" d="M77.9956,-142.776C96.7039,-159.1099 128.1046,-185.1352 158,-203.5 160.9728,-205.3262 164.1007,-207.1087 167.2899,-208.8268"/>
<polygon fill="#191970" stroke="#191970" points="165.867,-212.0305 176.3621,-213.4811 169.0623,-205.8023 165.867,-212.0305"/>
</g>
<!-- Node2 -->
<g id="node3" class="node">
<title>Node2</title>
<g id="a_node3"><a xlink:href="neighborhoods_8hpp.html#ac99360b58624982b5a4477075904dfc8" target="_top" xlink:title="Inserts in a container all the neighbors of a solution.">
<polygon fill="none" stroke="#000000" points="173,-175 173,-194 250,-194 250,-175 173,-175"/>
<text text-anchor="middle" x="211.5" y="-182" font-family="Helvetica,sans-Serif" font-size="10.00" fill="#000000">GetNeighbors</text>
</a>
</g>
</g>
<!-- Node0&#45;&gt;Node2 -->
<g id="edge2" class="edge">
<title>Node0&#45;&gt;Node2</title>
<path fill="none" stroke="#191970" d="M98.6654,-142.5803C116.5859,-149.6718 138.3449,-158.162 158,-165.5 163.2518,-167.4607 168.8108,-169.488 174.2812,-171.4555"/>
<polygon fill="#191970" stroke="#191970" points="173.352,-174.8401 183.9467,-174.9053 175.7051,-168.2474 173.352,-174.8401"/>
</g>
<!-- Node3 -->
<g id="node4" class="node">
<title>Node3</title>
<g id="a_node4"><a xlink:href="classTabuList.html#a676b3872d4fd499fab11750bf71c5232" target="_top" xlink:title="Pushes the element to the end of the tabu list removing the element at the front if the tabu list is ...">
<polygon fill="none" stroke="#000000" points="158,-137 158,-156 265,-156 265,-137 158,-137"/>
<text text-anchor="middle" x="211.5" y="-144" font-family="Helvetica,sans-Serif" font-size="10.00" fill="#000000">TabuList::ForcePush</text>
</a>
</g>
</g>
<!-- Node0&#45;&gt;Node3 -->
<g id="edge3" class="edge">
<title>Node0&#45;&gt;Node3</title>
<path fill="none" stroke="#191970" d="M122.2141,-135.228C130.5454,-136.2798 139.1147,-137.3617 147.4937,-138.4195"/>
<polygon fill="#191970" stroke="#191970" points="147.2315,-141.9141 157.5911,-139.6942 148.1083,-134.9692 147.2315,-141.9141"/>
</g>
<!-- Node5 -->
<g id="node6" class="node">
<title>Node5</title>
<g id="a_node6"><a xlink:href="classTabuList.html#a8f65dd6528a10ca1037455f64d3ed9b2" target="_top" xlink:title="Checks if the element is in the tabu list.">
<polygon fill="none" stroke="#000000" points="162.5,-99 162.5,-118 260.5,-118 260.5,-99 162.5,-99"/>
<text text-anchor="middle" x="211.5" y="-106" font-family="Helvetica,sans-Serif" font-size="10.00" fill="#000000">TabuList::Contains</text>
</a>
</g>
</g>
<!-- Node0&#45;&gt;Node5 -->
<g id="edge5" class="edge">
<title>Node0&#45;&gt;Node5</title>
<path fill="none" stroke="#191970" d="M122.2141,-119.772C132.1196,-118.5214 142.3616,-117.2284 152.2201,-115.9838"/>
<polygon fill="#191970" stroke="#191970" points="152.842,-119.4332 162.3248,-114.7082 151.9652,-112.4883 152.842,-119.4332"/>
</g>
<!-- Node6 -->
<g id="node7" class="node">
<title>Node6</title>
<g id="a_node7"><a xlink:href="classLocalSearchLogger.html#a00cf6f5c674a5f72c5bf01c4662a283d" target="_top" xlink:title="Adds a log.">
<polygon fill="none" stroke="#000000" points="158.5,-49.5 158.5,-79.5 264.5,-79.5 264.5,-49.5 158.5,-49.5"/>
<text text-anchor="start" x="166.5" y="-67.5" font-family="Helvetica,sans-Serif" font-size="10.00" fill="#000000">LocalSearchLogger::</text>
<text text-anchor="middle" x="211.5" y="-56.5" font-family="Helvetica,sans-Serif" font-size="10.00" fill="#000000">AddLog</text>
</a>
</g>
</g>
<!-- Node0&#45;&gt;Node6 -->
<g id="edge6" class="edge">
<title>Node0&#45;&gt;Node6</title>
<path fill="none" stroke="#191970" d="M97.0485,-112.4099C117.7286,-103.7531 143.889,-92.8023 165.9775,-83.5559"/>
<polygon fill="#191970" stroke="#191970" points="167.6122,-86.666 175.4851,-79.576 164.9092,-80.2089 167.6122,-86.666"/>
</g>
<!-- Node7 -->
<g id="node8" class="node">
<title>Node7</title>
<g id="a_node8"><a xlink:href="classLocalSearchLogger.html#a19dca66de1099beddc9f962f21a81c00" target="_top" xlink:title="Sets the best solution found by the algorithm.">
<polygon fill="none" stroke="#000000" points="158.5,-.5 158.5,-30.5 264.5,-30.5 264.5,-.5 158.5,-.5"/>
<text text-anchor="start" x="166.5" y="-18.5" font-family="Helvetica,sans-Serif" font-size="10.00" fill="#000000">LocalSearchLogger::</text>
<text text-anchor="middle" x="211.5" y="-7.5" font-family="Helvetica,sans-Serif" font-size="10.00" fill="#000000">SetBestSolution</text>
</a>
</g>
</g>
<!-- Node0&#45;&gt;Node7 -->
<g id="edge7" class="edge">
<title>Node0&#45;&gt;Node7</title>
<path fill="none" stroke="#191970" d="M74.9934,-112.4768C92.9123,-93.8543 125.5423,-61.957 158,-40.5 160.694,-38.7191 163.535,-36.9979 166.4462,-35.3487"/>
<polygon fill="#191970" stroke="#191970" points="168.1296,-38.4177 175.3127,-30.6296 164.8407,-32.2384 168.1296,-38.4177"/>
</g>
<!-- Node4 -->
<g id="node5" class="node">
<title>Node4</title>
<g id="a_node5"><a xlink:href="classTabuList.html#a5cda682bba8562695d6e8859f879f6be" target="_top" xlink:title="Removes the element at the front of the tabu list.">
<polygon fill="none" stroke="#000000" points="301,-137 301,-156 378,-156 378,-137 301,-137"/>
<text text-anchor="middle" x="339.5" y="-144" font-family="Helvetica,sans-Serif" font-size="10.00" fill="#000000">TabuList::Pop</text>
</a>
</g>
</g>
<!-- Node3&#45;&gt;Node4 -->
<g id="edge4" class="edge">
<title>Node3&#45;&gt;Node4</title>
<path fill="none" stroke="#191970" d="M265.0419,-146.5C273.6137,-146.5 282.4429,-146.5 290.8916,-146.5"/>
<polygon fill="#191970" stroke="#191970" points="290.9656,-150.0001 300.9656,-146.5 290.9656,-143.0001 290.9656,-150.0001"/>
</g>
</g>
</svg>
