<?xml version="1.0" encoding="UTF-8" standalone="no"?>
<!DOCTYPE svg PUBLIC "-//W3C//DTD SVG 1.1//EN"
 "http://www.w3.org/Graphics/SVG/1.1/DTD/svg11.dtd">
<!-- Generated by graphviz version 2.40.1 (20161225.0304)
 -->
<!-- Title: JSP&lt; Task, Job, Machine &gt; Pages: 1 -->
<svg width="756pt" height="424pt"
 viewBox="0.00 0.00 755.50 424.00" xmlns="http://www.w3.org/2000/svg" xmlns:xlink="http://www.w3.org/1999/xlink">
<g id="graph0" class="graph" transform="scale(1 1) rotate(0) translate(4 420)">
<title>JSP&lt; Task, Job, Machine &gt;</title>
<!-- Node1 -->
<g id="node1" class="node">
<title>Node1</title>
<g id="a_node1"><a xlink:title="JSP formulation.">
<polygon fill="#bfbfbf" stroke="#000000" points="302,-.5 302,-255.5 466,-255.5 466,-.5 302,-.5"/>
<text text-anchor="middle" x="384" y="-243.5" font-family="Helvetica,sans-Serif" font-size="10.00" fill="#000000">JSP&lt; Task, Job, Machine &gt;</text>
<polyline fill="none" stroke="#000000" points="302,-236.5 466,-236.5 "/>
<text text-anchor="middle" x="384" y="-224.5" font-family="Helvetica,sans-Serif" font-size="10.00" fill="#000000"> </text>
<polyline fill="none" stroke="#000000" points="302,-217.5 466,-217.5 "/>
<text text-anchor="start" x="310" y="-205.5" font-family="Helvetica,sans-Serif" font-size="10.00" fill="#000000">+ AddTask()</text>
<text text-anchor="start" x="310" y="-194.5" font-family="Helvetica,sans-Serif" font-size="10.00" fill="#000000">+ AddJob()</text>
<text text-anchor="start" x="310" y="-183.5" font-family="Helvetica,sans-Serif" font-size="10.00" fill="#000000">+ AddMachine()</text>
<text text-anchor="start" x="310" y="-172.5" font-family="Helvetica,sans-Serif" font-size="10.00" fill="#000000">+ GetTasks()</text>
<text text-anchor="start" x="310" y="-161.5" font-family="Helvetica,sans-Serif" font-size="10.00" fill="#000000">+ GetJobs()</text>
<text text-anchor="start" x="310" y="-150.5" font-family="Helvetica,sans-Serif" font-size="10.00" fill="#000000">+ GetMachines()</text>
<text text-anchor="start" x="310" y="-139.5" font-family="Helvetica,sans-Serif" font-size="10.00" fill="#000000">+ GetTask()</text>
<text text-anchor="start" x="310" y="-128.5" font-family="Helvetica,sans-Serif" font-size="10.00" fill="#000000">+ GetTask()</text>
<text text-anchor="start" x="310" y="-117.5" font-family="Helvetica,sans-Serif" font-size="10.00" fill="#000000">+ GetJob()</text>
<text text-anchor="start" x="310" y="-106.5" font-family="Helvetica,sans-Serif" font-size="10.00" fill="#000000">+ GetMachine()</text>
<text text-anchor="start" x="310" y="-95.5" font-family="Helvetica,sans-Serif" font-size="10.00" fill="#000000">+ GetJobTasks()</text>
<text text-anchor="start" x="310" y="-84.5" font-family="Helvetica,sans-Serif" font-size="10.00" fill="#000000">+ GetMachineTasks()</text>
<text text-anchor="start" x="310" y="-73.5" font-family="Helvetica,sans-Serif" font-size="10.00" fill="#000000">+ GetNumberOfTasks()</text>
<text text-anchor="start" x="310" y="-62.5" font-family="Helvetica,sans-Serif" font-size="10.00" fill="#000000">+ GetNumberOfJobs()</text>
<text text-anchor="start" x="310" y="-51.5" font-family="Helvetica,sans-Serif" font-size="10.00" fill="#000000">+ GetNumberOfMachines()</text>
<text text-anchor="start" x="310" y="-40.5" font-family="Helvetica,sans-Serif" font-size="10.00" fill="#000000">+ GetNumberOfTasksInJob()</text>
<text text-anchor="start" x="310" y="-29.5" font-family="Helvetica,sans-Serif" font-size="10.00" fill="#000000">+ GetNumberOfTasksInMachine()</text>
<text text-anchor="start" x="310" y="-18.5" font-family="Helvetica,sans-Serif" font-size="10.00" fill="#000000">+ GetInitialTasks()</text>
<text text-anchor="start" x="310" y="-7.5" font-family="Helvetica,sans-Serif" font-size="10.00" fill="#000000">+ GetFinalTasks()</text>
</a>
</g>
</g>
<!-- Node2 -->
<g id="node2" class="node">
<title>Node2</title>
<g id="a_node2"><a xlink:title=" ">
<polygon fill="none" stroke="#bfbfbf" points="0,-303.5 0,-415.5 146,-415.5 146,-303.5 0,-303.5"/>
<text text-anchor="start" x="8" y="-403.5" font-family="Helvetica,sans-Serif" font-size="10.00" fill="#000000">unordered_map&lt; unsigned</text>
<text text-anchor="start" x="8" y="-392.5" font-family="Helvetica,sans-Serif" font-size="10.00" fill="#000000"> int, std::unordered_set</text>
<text text-anchor="start" x="8" y="-381.5" font-family="Helvetica,sans-Serif" font-size="10.00" fill="#000000">&lt; std::reference_wrapper</text>
<text text-anchor="start" x="8" y="-370.5" font-family="Helvetica,sans-Serif" font-size="10.00" fill="#000000">&lt; const TaskType &gt;, std::</text>
<text text-anchor="start" x="8" y="-359.5" font-family="Helvetica,sans-Serif" font-size="10.00" fill="#000000">hash&lt; TaskType &gt;, std::equal</text>
<text text-anchor="middle" x="73" y="-348.5" font-family="Helvetica,sans-Serif" font-size="10.00" fill="#000000">_to&lt; TaskType &gt; &gt; &gt;</text>
<polyline fill="none" stroke="#bfbfbf" points="0,-341.5 146,-341.5 "/>
<text text-anchor="middle" x="73" y="-329.5" font-family="Helvetica,sans-Serif" font-size="10.00" fill="#000000"> </text>
<polyline fill="none" stroke="#bfbfbf" points="0,-322.5 146,-322.5 "/>
<text text-anchor="middle" x="73" y="-310.5" font-family="Helvetica,sans-Serif" font-size="10.00" fill="#000000"> </text>
</a>
</g>
</g>
<!-- Node2&#45;&gt;Node1 -->
<g id="edge1" class="edge">
<title>Node2&#45;&gt;Node1</title>
<path fill="none" stroke="#404040" d="M146.3088,-304.9309C189.8992,-272.4834 245.5819,-231.0347 292.0938,-196.4125"/>
<polygon fill="none" stroke="#404040" points="292.2461,-196.2991 294.6706,-189.5078 301.8721,-189.1338 299.4475,-195.9251 292.2461,-196.2991"/>
<text text-anchor="middle" x="219.5" y="-277" font-family="Helvetica,sans-Serif" font-size="10.00" fill="#000000"> &#45;machine_tasks</text>
</g>
<!-- Node3 -->
<g id="node3" class="node">
<title>Node3</title>
<g id="a_node3"><a xlink:title=" ">
<polygon fill="none" stroke="#bfbfbf" points="164,-314.5 164,-404.5 300,-404.5 300,-314.5 164,-314.5"/>
<text text-anchor="start" x="172" y="-392.5" font-family="Helvetica,sans-Serif" font-size="10.00" fill="#000000">unordered_map&lt; unsigned</text>
<text text-anchor="start" x="172" y="-381.5" font-family="Helvetica,sans-Serif" font-size="10.00" fill="#000000"> int, std::deque&lt; std</text>
<text text-anchor="start" x="172" y="-370.5" font-family="Helvetica,sans-Serif" font-size="10.00" fill="#000000">::reference_wrapper&lt; const</text>
<text text-anchor="middle" x="232" y="-359.5" font-family="Helvetica,sans-Serif" font-size="10.00" fill="#000000"> TaskType &gt; &gt; &gt;</text>
<polyline fill="none" stroke="#bfbfbf" points="164,-352.5 300,-352.5 "/>
<text text-anchor="middle" x="232" y="-340.5" font-family="Helvetica,sans-Serif" font-size="10.00" fill="#000000"> </text>
<polyline fill="none" stroke="#bfbfbf" points="164,-333.5 300,-333.5 "/>
<text text-anchor="middle" x="232" y="-321.5" font-family="Helvetica,sans-Serif" font-size="10.00" fill="#000000"> </text>
</a>
</g>
</g>
<!-- Node3&#45;&gt;Node1 -->
<g id="edge2" class="edge">
<title>Node3&#45;&gt;Node1</title>
<path fill="none" stroke="#404040" d="M261.668,-314.3149C271.5819,-299.2157 283.1968,-281.526 295.2522,-263.1653"/>
<polygon fill="none" stroke="#404040" points="295.4006,-262.9391 295.3501,-255.7282 301.9869,-252.9081 302.0375,-260.119 295.4006,-262.9391"/>
<text text-anchor="middle" x="310.5" y="-277" font-family="Helvetica,sans-Serif" font-size="10.00" fill="#000000"> &#45;job_tasks</text>
</g>
<!-- Node4 -->
<g id="node4" class="node">
<title>Node4</title>
<g id="a_node4"><a xlink:title=" ">
<polygon fill="none" stroke="#bfbfbf" points="318.5,-325.5 318.5,-393.5 449.5,-393.5 449.5,-325.5 318.5,-325.5"/>
<text text-anchor="start" x="326.5" y="-381.5" font-family="Helvetica,sans-Serif" font-size="10.00" fill="#000000">unordered_map&lt; unsigned</text>
<text text-anchor="middle" x="384" y="-370.5" font-family="Helvetica,sans-Serif" font-size="10.00" fill="#000000"> int, MachineType &gt;</text>
<polyline fill="none" stroke="#bfbfbf" points="318.5,-363.5 449.5,-363.5 "/>
<text text-anchor="middle" x="384" y="-351.5" font-family="Helvetica,sans-Serif" font-size="10.00" fill="#000000"> </text>
<polyline fill="none" stroke="#bfbfbf" points="318.5,-344.5 449.5,-344.5 "/>
<text text-anchor="middle" x="384" y="-332.5" font-family="Helvetica,sans-Serif" font-size="10.00" fill="#000000"> </text>
</a>
</g>
</g>
<!-- Node4&#45;&gt;Node1 -->
<g id="edge3" class="edge">
<title>Node4&#45;&gt;Node1</title>
<path fill="none" stroke="#404040" d="M384,-325.3414C384,-309.3913 384,-289.2358 384,-267.9366"/>
<polygon fill="none" stroke="#404040" points="384.0001,-267.6479 380,-261.6479 384,-255.6479 388,-261.6478 384.0001,-267.6479"/>
<text text-anchor="middle" x="408.5" y="-277" font-family="Helvetica,sans-Serif" font-size="10.00" fill="#000000"> &#45;machines</text>
</g>
<!-- Node5 -->
<g id="node5" class="node">
<title>Node5</title>
<g id="a_node5"><a xlink:title=" ">
<polygon fill="none" stroke="#bfbfbf" points="467.5,-325.5 467.5,-393.5 598.5,-393.5 598.5,-325.5 467.5,-325.5"/>
<text text-anchor="start" x="475.5" y="-381.5" font-family="Helvetica,sans-Serif" font-size="10.00" fill="#000000">unordered_map&lt; unsigned</text>
<text text-anchor="middle" x="533" y="-370.5" font-family="Helvetica,sans-Serif" font-size="10.00" fill="#000000"> int, JobType &gt;</text>
<polyline fill="none" stroke="#bfbfbf" points="467.5,-363.5 598.5,-363.5 "/>
<text text-anchor="middle" x="533" y="-351.5" font-family="Helvetica,sans-Serif" font-size="10.00" fill="#000000"> </text>
<polyline fill="none" stroke="#bfbfbf" points="467.5,-344.5 598.5,-344.5 "/>
<text text-anchor="middle" x="533" y="-332.5" font-family="Helvetica,sans-Serif" font-size="10.00" fill="#000000"> </text>
</a>
</g>
</g>
<!-- Node5&#45;&gt;Node1 -->
<g id="edge4" class="edge">
<title>Node5&#45;&gt;Node1</title>
<path fill="none" stroke="#404040" d="M511.0145,-325.3414C500.4144,-308.872 486.9283,-287.9189 472.7259,-265.8526"/>
<polygon fill="none" stroke="#404040" points="472.6525,-265.7385 466.0416,-262.8581 466.1578,-255.6479 472.7687,-258.5283 472.6525,-265.7385"/>
<text text-anchor="middle" x="496.5" y="-277" font-family="Helvetica,sans-Serif" font-size="10.00" fill="#000000"> &#45;jobs</text>
</g>
<!-- Node6 -->
<g id="node6" class="node">
<title>Node6</title>
<g id="a_node6"><a xlink:title=" ">
<polygon fill="none" stroke="#bfbfbf" points="616.5,-325.5 616.5,-393.5 747.5,-393.5 747.5,-325.5 616.5,-325.5"/>
<text text-anchor="start" x="624.5" y="-381.5" font-family="Helvetica,sans-Serif" font-size="10.00" fill="#000000">unordered_map&lt; unsigned</text>
<text text-anchor="middle" x="682" y="-370.5" font-family="Helvetica,sans-Serif" font-size="10.00" fill="#000000"> int, TaskType &gt;</text>
<polyline fill="none" stroke="#bfbfbf" points="616.5,-363.5 747.5,-363.5 "/>
<text text-anchor="middle" x="682" y="-351.5" font-family="Helvetica,sans-Serif" font-size="10.00" fill="#000000"> </text>
<polyline fill="none" stroke="#bfbfbf" points="616.5,-344.5 747.5,-344.5 "/>
<text text-anchor="middle" x="682" y="-332.5" font-family="Helvetica,sans-Serif" font-size="10.00" fill="#000000"> </text>
</a>
</g>
</g>
<!-- Node6&#45;&gt;Node1 -->
<g id="edge5" class="edge">
<title>Node6&#45;&gt;Node1</title>
<path fill="none" stroke="#404040" d="M638.0291,-325.3414C595.4933,-292.2977 529.7228,-241.2041 475.7628,-199.2855"/>
<polygon fill="none" stroke="#404040" points="475.6551,-199.2019 468.4629,-198.6798 466.1785,-191.84 473.3708,-192.3621 475.6551,-199.2019"/>
<text text-anchor="middle" x="600.5" y="-277" font-family="Helvetica,sans-Serif" font-size="10.00" fill="#000000"> &#45;tasks</text>
</g>
</g>
</svg>
