<?xml version="1.0" encoding="UTF-8" standalone="no"?>
<!DOCTYPE svg PUBLIC "-//W3C//DTD SVG 1.1//EN"
 "http://www.w3.org/Graphics/SVG/1.1/DTD/svg11.dtd">
<!-- Generated by graphviz version 2.40.1 (20161225.0304)
 -->
<!-- Title: JSPTotalWeightedTardinessMinimizationSolution::GetQuality Pages: 1 -->
<svg width="799pt" height="280pt"
 viewBox="0.00 0.00 799.00 279.50" xmlns="http://www.w3.org/2000/svg" xmlns:xlink="http://www.w3.org/1999/xlink">
<g id="graph0" class="graph" transform="scale(1 1) rotate(0) translate(4 275.5)">
<title>JSPTotalWeightedTardinessMinimizationSolution::GetQuality</title>
<!-- Node43 -->
<g id="node1" class="node">
<title>Node43</title>
<g id="a_node1"><a xlink:title="Returns the quality of the solution.">
<polygon fill="#bfbfbf" stroke="#000000" points="0,-95.5 0,-125.5 159,-125.5 159,-95.5 0,-95.5"/>
<text text-anchor="start" x="8" y="-113.5" font-family="Helvetica,sans-Serif" font-size="10.00" fill="#000000">JSPTotalWeightedTardiness</text>
<text text-anchor="middle" x="79.5" y="-102.5" font-family="Helvetica,sans-Serif" font-size="10.00" fill="#000000">MinimizationSolution::GetQuality</text>
</a>
</g>
</g>
<!-- Node44 -->
<g id="node2" class="node">
<title>Node44</title>
<g id="a_node2"><a xlink:href="classJSPTotalWeightedTardinessMinimizationSolution.html#add102398703fa0d4ab3f817660c56de2" target="_top" xlink:title="Updates the head and tail of all the tasks that have been affected by modifications since the last ca...">
<polygon fill="none" stroke="#000000" points="195,-126 195,-167 368,-167 368,-126 195,-126"/>
<text text-anchor="start" x="203" y="-155" font-family="Helvetica,sans-Serif" font-size="10.00" fill="#000000">JSPTotalWeightedTardiness</text>
<text text-anchor="start" x="203" y="-144" font-family="Helvetica,sans-Serif" font-size="10.00" fill="#000000">MinimizationSolution::UpdateHeads</text>
<text text-anchor="middle" x="281.5" y="-133" font-family="Helvetica,sans-Serif" font-size="10.00" fill="#000000">AndTails</text>
</a>
</g>
</g>
<!-- Node43&#45;&gt;Node44 -->
<g id="edge1" class="edge">
<title>Node43&#45;&gt;Node44</title>
<path fill="none" stroke="#191970" d="M159.0458,-124.6765C167.4572,-126.1755 176.0768,-127.7117 184.6564,-129.2407"/>
<polygon fill="#191970" stroke="#191970" points="184.2357,-132.7208 194.6947,-131.0298 185.464,-125.8294 184.2357,-132.7208"/>
</g>
<!-- Node48 -->
<g id="node6" class="node">
<title>Node48</title>
<g id="a_node6"><a xlink:href="namespacestd.html#aabf08e25820a0127a265bb20575664b9" target="_top" xlink:title=" ">
<polygon fill="none" stroke="#000000" points="464,-55 464,-74 519,-74 519,-55 464,-55"/>
<text text-anchor="middle" x="491.5" y="-62" font-family="Helvetica,sans-Serif" font-size="10.00" fill="#000000">std::max</text>
</a>
</g>
</g>
<!-- Node43&#45;&gt;Node48 -->
<g id="edge11" class="edge">
<title>Node43&#45;&gt;Node48</title>
<path fill="none" stroke="#191970" d="M159.4263,-101.5762C248.0539,-91.6809 387.2693,-76.1374 453.7343,-68.7166"/>
<polygon fill="#191970" stroke="#191970" points="454.2082,-72.1855 463.758,-67.5974 453.4314,-65.2287 454.2082,-72.1855"/>
</g>
<!-- Node45 -->
<g id="node3" class="node">
<title>Node45</title>
<g id="a_node3"><a xlink:href="classJSPTotalWeightedTardinessMinimizationSolution.html#ab231b628d8113f4987804c9fcbd8905b" target="_top" xlink:title="Inserts in a container all the tasks in topological order.">
<polygon fill="none" stroke="#000000" points="414,-230 414,-271 569,-271 569,-230 414,-230"/>
<text text-anchor="start" x="422" y="-259" font-family="Helvetica,sans-Serif" font-size="10.00" fill="#000000">JSPTotalWeightedTardiness</text>
<text text-anchor="start" x="422" y="-248" font-family="Helvetica,sans-Serif" font-size="10.00" fill="#000000">MinimizationSolution::GetTasks</text>
<text text-anchor="middle" x="491.5" y="-237" font-family="Helvetica,sans-Serif" font-size="10.00" fill="#000000">TopologicalOrder</text>
</a>
</g>
</g>
<!-- Node44&#45;&gt;Node45 -->
<g id="edge2" class="edge">
<title>Node44&#45;&gt;Node45</title>
<path fill="none" stroke="#191970" d="M315.1785,-167.0688C339.4339,-181.4846 373.181,-200.7365 404,-215.5 411.5299,-219.1071 419.5348,-222.6669 427.526,-226.055"/>
<polygon fill="#191970" stroke="#191970" points="426.2943,-229.3334 436.8714,-229.9459 428.9849,-222.8711 426.2943,-229.3334"/>
</g>
<!-- Node46 -->
<g id="node4" class="node">
<title>Node46</title>
<g id="a_node4"><a xlink:href="classJSPTotalWeightedTardinessMinimizationSolution.html#a41c4bea1c8348de5dd0b18255cd14c96" target="_top" xlink:title="Returns a pair with the tasks that are scheduled after the specified task. The first component is the...">
<polygon fill="none" stroke="#000000" points="615,-210.5 615,-240.5 791,-240.5 791,-210.5 615,-210.5"/>
<text text-anchor="start" x="623" y="-228.5" font-family="Helvetica,sans-Serif" font-size="10.00" fill="#000000">JSPTotalWeightedTardiness</text>
<text text-anchor="middle" x="703" y="-217.5" font-family="Helvetica,sans-Serif" font-size="10.00" fill="#000000">MinimizationSolution::GetNextTasks</text>
</a>
</g>
</g>
<!-- Node44&#45;&gt;Node46 -->
<g id="edge10" class="edge">
<title>Node44&#45;&gt;Node46</title>
<path fill="none" stroke="#191970" d="M347.2144,-167.0041C365.4787,-172.2293 385.4049,-177.4937 404,-181.5 470.4269,-195.8115 546.1659,-206.9036 604.7949,-214.371"/>
<polygon fill="#191970" stroke="#191970" points="604.4342,-217.8531 614.7932,-215.6305 605.3091,-210.908 604.4342,-217.8531"/>
</g>
<!-- Node47 -->
<g id="node5" class="node">
<title>Node47</title>
<g id="a_node5"><a xlink:href="classJSPTotalWeightedTardinessMinimizationSolution.html#ae35f63c78d6899bdaa4ccc044891fef6" target="_top" xlink:title="Returns a pair with the tasks that are scheduled before the specified task. The first component is th...">
<polygon fill="none" stroke="#000000" points="404,-142.5 404,-172.5 579,-172.5 579,-142.5 404,-142.5"/>
<text text-anchor="start" x="412" y="-160.5" font-family="Helvetica,sans-Serif" font-size="10.00" fill="#000000">JSPTotalWeightedTardiness</text>
<text text-anchor="middle" x="491.5" y="-149.5" font-family="Helvetica,sans-Serif" font-size="10.00" fill="#000000">MinimizationSolution::GetPrevTasks</text>
</a>
</g>
</g>
<!-- Node44&#45;&gt;Node47 -->
<g id="edge4" class="edge">
<title>Node44&#45;&gt;Node47</title>
<path fill="none" stroke="#191970" d="M368.1275,-151.0376C376.5729,-151.48 385.182,-151.931 393.7269,-152.3786"/>
<polygon fill="#191970" stroke="#191970" points="393.5454,-155.8738 403.7149,-152.9017 393.9117,-148.8833 393.5454,-155.8738"/>
</g>
<!-- Node44&#45;&gt;Node48 -->
<g id="edge5" class="edge">
<title>Node44&#45;&gt;Node48</title>
<path fill="none" stroke="#191970" d="M320.217,-125.9463C352.7638,-108.7756 395.3334,-86.6088 404,-83.5 419.9638,-77.7736 438.2132,-73.4771 453.9006,-70.432"/>
<polygon fill="#191970" stroke="#191970" points="454.5898,-73.864 463.7897,-68.6091 453.3208,-66.9799 454.5898,-73.864"/>
</g>
<!-- Node52 -->
<g id="node10" class="node">
<title>Node52</title>
<g id="a_node10"><a xlink:href="classJSPTotalWeightedTardinessMinimizationSolution.html#a223b298444c077682038c4716d1f032f" target="_top" xlink:title="Returns the problem that the solution solves.">
<polygon fill="none" stroke="#000000" points="409.5,-93.5 409.5,-123.5 573.5,-123.5 573.5,-93.5 409.5,-93.5"/>
<text text-anchor="start" x="417.5" y="-111.5" font-family="Helvetica,sans-Serif" font-size="10.00" fill="#000000">JSPTotalWeightedTardiness</text>
<text text-anchor="middle" x="491.5" y="-100.5" font-family="Helvetica,sans-Serif" font-size="10.00" fill="#000000">MinimizationSolution::GetProblem</text>
</a>
</g>
</g>
<!-- Node44&#45;&gt;Node52 -->
<g id="edge9" class="edge">
<title>Node44&#45;&gt;Node52</title>
<path fill="none" stroke="#191970" d="M368.1275,-130.8246C378.4874,-128.9499 389.0936,-127.0307 399.5256,-125.143"/>
<polygon fill="#191970" stroke="#191970" points="400.2434,-128.57 409.4604,-123.3453 398.9969,-121.6819 400.2434,-128.57"/>
</g>
<!-- Node45&#45;&gt;Node46 -->
<g id="edge3" class="edge">
<title>Node45&#45;&gt;Node46</title>
<path fill="none" stroke="#191970" d="M569.0538,-241.3329C580.6591,-239.9611 592.7531,-238.5316 604.7189,-237.1172"/>
<polygon fill="#191970" stroke="#191970" points="605.2065,-240.584 614.7265,-235.9342 604.3848,-233.6324 605.2065,-240.584"/>
</g>
<!-- Node49 -->
<g id="node7" class="node">
<title>Node49</title>
<g id="a_node7"><a xlink:href="classTriangularFuzzyNumber.html#afe61a993d8d969f858845dbb6b5eb7a0" target="_top" xlink:title="Returns the smallest possible value.">
<polygon fill="none" stroke="#000000" points="643,-98.5 643,-128.5 763,-128.5 763,-98.5 643,-98.5"/>
<text text-anchor="start" x="651" y="-116.5" font-family="Helvetica,sans-Serif" font-size="10.00" fill="#000000">TriangularFuzzyNumber</text>
<text text-anchor="middle" x="703" y="-105.5" font-family="Helvetica,sans-Serif" font-size="10.00" fill="#000000">::GetSmallest</text>
</a>
</g>
</g>
<!-- Node48&#45;&gt;Node49 -->
<g id="edge6" class="edge">
<title>Node48&#45;&gt;Node49</title>
<path fill="none" stroke="#191970" d="M519.1231,-70.3241C536.362,-74.0019 559.0006,-78.91 579,-83.5 596.4143,-87.4967 615.1662,-91.9534 632.6836,-96.1834"/>
<polygon fill="#191970" stroke="#191970" points="632.2926,-99.6898 642.8355,-98.6425 633.9406,-92.8866 632.2926,-99.6898"/>
</g>
<!-- Node50 -->
<g id="node8" class="node">
<title>Node50</title>
<g id="a_node8"><a xlink:href="classTriangularFuzzyNumber.html#ac79e432898eb12448e54d085295a09f9" target="_top" xlink:title="Returns the most probable value.">
<polygon fill="none" stroke="#000000" points="643,-49.5 643,-79.5 763,-79.5 763,-49.5 643,-49.5"/>
<text text-anchor="start" x="651" y="-67.5" font-family="Helvetica,sans-Serif" font-size="10.00" fill="#000000">TriangularFuzzyNumber</text>
<text text-anchor="middle" x="703" y="-56.5" font-family="Helvetica,sans-Serif" font-size="10.00" fill="#000000">::GetMostProbable</text>
</a>
</g>
</g>
<!-- Node48&#45;&gt;Node50 -->
<g id="edge7" class="edge">
<title>Node48&#45;&gt;Node50</title>
<path fill="none" stroke="#191970" d="M519.1499,-64.5C547.8274,-64.5 593.8179,-64.5 632.6251,-64.5"/>
<polygon fill="#191970" stroke="#191970" points="632.8391,-68.0001 642.8391,-64.5 632.8391,-61.0001 632.8391,-68.0001"/>
</g>
<!-- Node51 -->
<g id="node9" class="node">
<title>Node51</title>
<g id="a_node9"><a xlink:href="classTriangularFuzzyNumber.html#a0133fef04fbb1a8e571d117c01c6af71" target="_top" xlink:title="Returns the largest possible value.">
<polygon fill="none" stroke="#000000" points="643,-.5 643,-30.5 763,-30.5 763,-.5 643,-.5"/>
<text text-anchor="start" x="651" y="-18.5" font-family="Helvetica,sans-Serif" font-size="10.00" fill="#000000">TriangularFuzzyNumber</text>
<text text-anchor="middle" x="703" y="-7.5" font-family="Helvetica,sans-Serif" font-size="10.00" fill="#000000">::GetLargest</text>
</a>
</g>
</g>
<!-- Node48&#45;&gt;Node51 -->
<g id="edge8" class="edge">
<title>Node48&#45;&gt;Node51</title>
<path fill="none" stroke="#191970" d="M519.1499,-58.0941C547.8274,-51.4502 593.8179,-40.7951 632.6251,-31.8044"/>
<polygon fill="#191970" stroke="#191970" points="633.8871,-35.1048 642.8391,-29.438 632.3072,-28.2854 633.8871,-35.1048"/>
</g>
</g>
</svg>
