<?xml version="1.0" encoding="UTF-8" standalone="no"?>
<!DOCTYPE svg PUBLIC "-//W3C//DTD SVG 1.1//EN"
 "http://www.w3.org/Graphics/SVG/1.1/DTD/svg11.dtd">
<!-- Generated by graphviz version 2.40.1 (20161225.0304)
 -->
<!-- Title: JSPMakespanMinimizationSolution::ToString Pages: 1 -->
<!--zoomable 269 -->
<svg id="main" version="1.1" xmlns="http://www.w3.org/2000/svg" xmlns:xlink="http://www.w3.org/1999/xlink" xml:space="preserve" onload="init(evt)">
<style type="text/css"><![CDATA[
.edge:hover path { stroke: red; }
.edge:hover polygon { stroke: red; fill: red; }
]]></style>
<script type="text/javascript"><![CDATA[
var edges = document.getElementsByTagName('g');
if (edges && edges.length) {
  for (var i=0;i<edges.length;i++) {
    if (edges[i].id.substr(0,4)=='edge') {
      edges[i].setAttribute('class','edge');
    }
  }
}
]]></script>
        <defs>
                <circle id="rim" cx="0" cy="0" r="7"/>
                <circle id="rim2" cx="0" cy="0" r="3.5"/>
                <g id="zoomPlus">
                        <use xlink:href="#rim" fill="#404040">
                                <set attributeName="fill" to="#808080" begin="zoomplus.mouseover" end="zoomplus.mouseout"/>
                        </use>
                        <path d="M-4,0h8M0,-4v8" fill="none" stroke="white" stroke-width="1.5" pointer-events="none"/>
                </g>
                <g id="zoomMin">
                        <use xlink:href="#rim" fill="#404040">
                                <set attributeName="fill" to="#808080" begin="zoomminus.mouseover" end="zoomminus.mouseout"/>
                        </use>
                        <path d="M-4,0h8" fill="none" stroke="white" stroke-width="1.5" pointer-events="none"/>
                </g>
                <g id="dirArrow">
                        <path fill="none" stroke="white" stroke-width="1.5" d="M0,-3.0v7 M-2.5,-0.5L0,-3.0L2.5,-0.5"/>
                </g>
               <g id="resetDef">
                       <use xlink:href="#rim2" fill="#404040">
                               <set attributeName="fill" to="#808080" begin="reset.mouseover" end="reset.mouseout"/>
                       </use>
               </g>
        </defs>

<script type="text/javascript">
var viewWidth = 1002;
var viewHeight = 269;
var sectionId = 'dynsection-19';
</script>
<script xlink:href="svgpan.js"/>
<svg id="graph" class="graph">
<g id="viewport">
<title>JSPMakespanMinimizationSolution::ToString</title>
<!-- Node162 -->
<g id="node1" class="node">
<title>Node162</title>
<g id="a_node1"><a xlink:title="Returns a string representing the solution.">
<polygon fill="#bfbfbf" stroke="#000000" points="0,-161.5 0,-191.5 170,-191.5 170,-161.5 0,-161.5"/>
<text text-anchor="start" x="8" y="-179.5" font-family="Helvetica,sans-Serif" font-size="10.00" fill="#000000">JSPMakespanMinimizationSolution</text>
<text text-anchor="middle" x="85" y="-168.5" font-family="Helvetica,sans-Serif" font-size="10.00" fill="#000000">::ToString</text>
</a>
</g>
</g>
<!-- Node163 -->
<g id="node2" class="node">
<title>Node163</title>
<g id="a_node2"><a xlink:href="classJSPMakespanMinimizationSolution.html#a861537511167cc4c1b4a3578c0645cc9" target="_top" xlink:title="Returns the makespan.">
<polygon fill="none" stroke="#000000" points="206,-139.5 206,-169.5 376,-169.5 376,-139.5 206,-139.5"/>
<text text-anchor="start" x="214" y="-157.5" font-family="Helvetica,sans-Serif" font-size="10.00" fill="#000000">JSPMakespanMinimizationSolution</text>
<text text-anchor="middle" x="291" y="-146.5" font-family="Helvetica,sans-Serif" font-size="10.00" fill="#000000">::GetMakespan</text>
</a>
</g>
</g>
<!-- Node162&#45;&gt;Node163 -->
<g id="edge1" class="edge">
<title>Node162&#45;&gt;Node163</title>
<path fill="none" stroke="#191970" d="M170.2751,-167.393C178.7081,-166.4923 187.3045,-165.5743 195.829,-164.6639"/>
<polygon fill="#191970" stroke="#191970" points="196.2171,-168.1424 205.7889,-163.6002 195.4737,-161.182 196.2171,-168.1424"/>
</g>
<!-- Node173 -->
<g id="node12" class="node">
<title>Node173</title>
<g id="a_node12"><a xlink:href="classJSPMakespanMinimizationSolution.html#a67a17b1336b4bb2c751ff59799c20d38" target="_top" xlink:title="Returns a string with the solution.">
<polygon fill="none" stroke="#000000" points="412,-186.5 412,-216.5 582,-216.5 582,-186.5 412,-186.5"/>
<text text-anchor="start" x="420" y="-204.5" font-family="Helvetica,sans-Serif" font-size="10.00" fill="#000000">JSPMakespanMinimizationSolution</text>
<text text-anchor="middle" x="497" y="-193.5" font-family="Helvetica,sans-Serif" font-size="10.00" fill="#000000">::SolutionSequence</text>
</a>
</g>
</g>
<!-- Node162&#45;&gt;Node173 -->
<g id="edge12" class="edge">
<title>Node162&#45;&gt;Node173</title>
<path fill="none" stroke="#191970" d="M170.3667,-181.68C237.7615,-185.7695 331.754,-191.4729 401.6163,-195.7122"/>
<polygon fill="#191970" stroke="#191970" points="401.549,-199.2144 411.7427,-196.3266 401.9731,-192.2273 401.549,-199.2144"/>
</g>
<!-- Node164 -->
<g id="node3" class="node">
<title>Node164</title>
<g id="a_node3"><a xlink:href="classJSPMakespanMinimizationSolution.html#a7675bd800df0dcafd2579563b0745ce8" target="_top" xlink:title="Updates the head and tail of all the tasks that have been affected by modifications since the last ca...">
<polygon fill="none" stroke="#000000" points="412,-137.5 412,-167.5 582,-167.5 582,-137.5 412,-137.5"/>
<text text-anchor="start" x="420" y="-155.5" font-family="Helvetica,sans-Serif" font-size="10.00" fill="#000000">JSPMakespanMinimizationSolution</text>
<text text-anchor="middle" x="497" y="-144.5" font-family="Helvetica,sans-Serif" font-size="10.00" fill="#000000">::UpdateHeadsAndTails</text>
</a>
</g>
</g>
<!-- Node163&#45;&gt;Node164 -->
<g id="edge2" class="edge">
<title>Node163&#45;&gt;Node164</title>
<path fill="none" stroke="#191970" d="M376.2751,-153.6721C384.6164,-153.5911 393.1176,-153.5086 401.551,-153.4267"/>
<polygon fill="#191970" stroke="#191970" points="401.8234,-156.9243 411.7889,-153.3273 401.7553,-149.9246 401.8234,-156.9243"/>
</g>
<!-- Node165 -->
<g id="node4" class="node">
<title>Node165</title>
<g id="a_node4"><a xlink:href="classJSPMakespanMinimizationSolution.html#a4b5965dd69809fb79768a5f4c462920b" target="_top" xlink:title="Inserts in a container all the tasks in topological order.">
<polygon fill="none" stroke="#000000" points="618,-181.5 618,-211.5 788,-211.5 788,-181.5 618,-181.5"/>
<text text-anchor="start" x="626" y="-199.5" font-family="Helvetica,sans-Serif" font-size="10.00" fill="#000000">JSPMakespanMinimizationSolution</text>
<text text-anchor="middle" x="703" y="-188.5" font-family="Helvetica,sans-Serif" font-size="10.00" fill="#000000">::GetTasksTopologicalOrder</text>
</a>
</g>
</g>
<!-- Node164&#45;&gt;Node165 -->
<g id="edge3" class="edge">
<title>Node164&#45;&gt;Node165</title>
<path fill="none" stroke="#191970" d="M567.3174,-167.5192C585.1176,-171.3212 604.3707,-175.4336 622.6263,-179.3328"/>
<polygon fill="#191970" stroke="#191970" points="622.1395,-182.8077 632.65,-181.4738 623.6017,-175.9621 622.1395,-182.8077"/>
</g>
<!-- Node166 -->
<g id="node5" class="node">
<title>Node166</title>
<g id="a_node5"><a xlink:href="classJSPMakespanMinimizationSolution.html#a07f32775230bfb3a2ccd4f44f7bffb6a" target="_top" xlink:title="Returns a pair with the tasks that are scheduled after the specified task. The first component is the...">
<polygon fill="none" stroke="#000000" points="824,-164.5 824,-194.5 994,-194.5 994,-164.5 824,-164.5"/>
<text text-anchor="start" x="832" y="-182.5" font-family="Helvetica,sans-Serif" font-size="10.00" fill="#000000">JSPMakespanMinimizationSolution</text>
<text text-anchor="middle" x="909" y="-171.5" font-family="Helvetica,sans-Serif" font-size="10.00" fill="#000000">::GetNextTasks</text>
</a>
</g>
</g>
<!-- Node164&#45;&gt;Node166 -->
<g id="edge10" class="edge">
<title>Node164&#45;&gt;Node166</title>
<path fill="none" stroke="#191970" d="M582.3667,-158.0944C649.7615,-162.5111 743.754,-168.6708 813.6163,-173.2491"/>
<polygon fill="#191970" stroke="#191970" points="813.5352,-176.7512 823.7427,-173.9127 813.993,-169.7662 813.5352,-176.7512"/>
</g>
<!-- Node167 -->
<g id="node6" class="node">
<title>Node167</title>
<g id="a_node6"><a xlink:href="classJSPMakespanMinimizationSolution.html#acb6b836e6ccea549562ec0e2ae0e2d7b" target="_top" xlink:title="Returns a pair with the tasks that are scheduled before the specified task. The first component is th...">
<polygon fill="none" stroke="#000000" points="618,-93.5 618,-123.5 788,-123.5 788,-93.5 618,-93.5"/>
<text text-anchor="start" x="626" y="-111.5" font-family="Helvetica,sans-Serif" font-size="10.00" fill="#000000">JSPMakespanMinimizationSolution</text>
<text text-anchor="middle" x="703" y="-100.5" font-family="Helvetica,sans-Serif" font-size="10.00" fill="#000000">::GetPrevTasks</text>
</a>
</g>
</g>
<!-- Node164&#45;&gt;Node167 -->
<g id="edge5" class="edge">
<title>Node164&#45;&gt;Node167</title>
<path fill="none" stroke="#191970" d="M567.3174,-137.4808C585.1176,-133.6788 604.3707,-129.5664 622.6263,-125.6672"/>
<polygon fill="#191970" stroke="#191970" points="623.6017,-129.0379 632.65,-123.5262 622.1395,-122.1923 623.6017,-129.0379"/>
</g>
<!-- Node168 -->
<g id="node7" class="node">
<title>Node168</title>
<g id="a_node7"><a xlink:href="namespacestd.html#aabf08e25820a0127a265bb20575664b9" target="_top" xlink:title=" ">
<polygon fill="none" stroke="#000000" points="675.5,-55 675.5,-74 730.5,-74 730.5,-55 675.5,-55"/>
<text text-anchor="middle" x="703" y="-62" font-family="Helvetica,sans-Serif" font-size="10.00" fill="#000000">std::max</text>
</a>
</g>
</g>
<!-- Node164&#45;&gt;Node168 -->
<g id="edge6" class="edge">
<title>Node164&#45;&gt;Node168</title>
<path fill="none" stroke="#191970" d="M519.2491,-137.4608C542.8336,-122.1387 581.6265,-98.6726 618,-84.5 633.0349,-78.6418 650.2612,-74.1976 665.2577,-71.0043"/>
<polygon fill="#191970" stroke="#191970" points="666.1196,-74.401 675.2293,-68.9914 664.7344,-67.5394 666.1196,-74.401"/>
</g>
<!-- Node172 -->
<g id="node11" class="node">
<title>Node172</title>
<g id="a_node11"><a xlink:href="classJSPMakespanMinimizationSolution.html#a6a196bbd5a7a0a1bbeb6ab46721a5027" target="_top" xlink:title="Returns the problem that the solution solves.">
<polygon fill="none" stroke="#000000" points="618,-230.5 618,-260.5 788,-260.5 788,-230.5 618,-230.5"/>
<text text-anchor="start" x="626" y="-248.5" font-family="Helvetica,sans-Serif" font-size="10.00" fill="#000000">JSPMakespanMinimizationSolution</text>
<text text-anchor="middle" x="703" y="-237.5" font-family="Helvetica,sans-Serif" font-size="10.00" fill="#000000">::GetProblem</text>
</a>
</g>
</g>
<!-- Node164&#45;&gt;Node172 -->
<g id="edge11" class="edge">
<title>Node164&#45;&gt;Node172</title>
<path fill="none" stroke="#191970" d="M563.2874,-167.6578C569.8642,-170.4214 576.2313,-173.6745 582,-177.5 603.0576,-191.4642 596.8669,-207.6504 618,-221.5 620.4648,-223.1153 623.0386,-224.6234 625.6912,-226.0312"/>
<polygon fill="#191970" stroke="#191970" points="624.4349,-229.3093 634.9691,-230.4415 627.4402,-222.9872 624.4349,-229.3093"/>
</g>
<!-- Node165&#45;&gt;Node166 -->
<g id="edge4" class="edge">
<title>Node165&#45;&gt;Node166</title>
<path fill="none" stroke="#191970" d="M788.2751,-189.4627C796.6164,-188.7744 805.1176,-188.0728 813.551,-187.3769"/>
<polygon fill="#191970" stroke="#191970" points="814.1106,-190.8427 823.7889,-186.532 813.5349,-183.8664 814.1106,-190.8427"/>
</g>
<!-- Node169 -->
<g id="node8" class="node">
<title>Node169</title>
<g id="a_node8"><a xlink:href="classTriangularFuzzyNumber.html#afe61a993d8d969f858845dbb6b5eb7a0" target="_top" xlink:title="Returns the smallest possible value.">
<polygon fill="none" stroke="#000000" points="849,-98.5 849,-128.5 969,-128.5 969,-98.5 849,-98.5"/>
<text text-anchor="start" x="857" y="-116.5" font-family="Helvetica,sans-Serif" font-size="10.00" fill="#000000">TriangularFuzzyNumber</text>
<text text-anchor="middle" x="909" y="-105.5" font-family="Helvetica,sans-Serif" font-size="10.00" fill="#000000">::GetSmallest</text>
</a>
</g>
</g>
<!-- Node168&#45;&gt;Node169 -->
<g id="edge7" class="edge">
<title>Node168&#45;&gt;Node169</title>
<path fill="none" stroke="#191970" d="M730.5689,-70.9563C747.2057,-74.8601 768.8254,-79.9464 788,-84.5 804.3607,-88.3853 821.9595,-92.5892 838.5308,-96.5587"/>
<polygon fill="#191970" stroke="#191970" points="838.1554,-100.0677 848.6958,-98.995 839.787,-93.2605 838.1554,-100.0677"/>
</g>
<!-- Node170 -->
<g id="node9" class="node">
<title>Node170</title>
<g id="a_node9"><a xlink:href="classTriangularFuzzyNumber.html#ac79e432898eb12448e54d085295a09f9" target="_top" xlink:title="Returns the most probable value.">
<polygon fill="none" stroke="#000000" points="849,-49.5 849,-79.5 969,-79.5 969,-49.5 849,-49.5"/>
<text text-anchor="start" x="857" y="-67.5" font-family="Helvetica,sans-Serif" font-size="10.00" fill="#000000">TriangularFuzzyNumber</text>
<text text-anchor="middle" x="909" y="-56.5" font-family="Helvetica,sans-Serif" font-size="10.00" fill="#000000">::GetMostProbable</text>
</a>
</g>
</g>
<!-- Node168&#45;&gt;Node170 -->
<g id="edge8" class="edge">
<title>Node168&#45;&gt;Node170</title>
<path fill="none" stroke="#191970" d="M730.7821,-64.5C758.2875,-64.5 801.5281,-64.5 838.5281,-64.5"/>
<polygon fill="#191970" stroke="#191970" points="838.7802,-68.0001 848.7802,-64.5 838.7801,-61.0001 838.7802,-68.0001"/>
</g>
<!-- Node171 -->
<g id="node10" class="node">
<title>Node171</title>
<g id="a_node10"><a xlink:href="classTriangularFuzzyNumber.html#a0133fef04fbb1a8e571d117c01c6af71" target="_top" xlink:title="Returns the largest possible value.">
<polygon fill="none" stroke="#000000" points="849,-.5 849,-30.5 969,-30.5 969,-.5 849,-.5"/>
<text text-anchor="start" x="857" y="-18.5" font-family="Helvetica,sans-Serif" font-size="10.00" fill="#000000">TriangularFuzzyNumber</text>
<text text-anchor="middle" x="909" y="-7.5" font-family="Helvetica,sans-Serif" font-size="10.00" fill="#000000">::GetLargest</text>
</a>
</g>
</g>
<!-- Node168&#45;&gt;Node171 -->
<g id="edge9" class="edge">
<title>Node168&#45;&gt;Node171</title>
<path fill="none" stroke="#191970" d="M730.7821,-57.8916C758.405,-51.3211 801.898,-40.9757 839.0021,-32.15"/>
<polygon fill="#191970" stroke="#191970" points="839.8616,-35.5433 848.7802,-29.8241 838.2417,-28.7333 839.8616,-35.5433"/>
</g>
<!-- Node173&#45;&gt;Node165 -->
<g id="edge13" class="edge">
<title>Node173&#45;&gt;Node165</title>
<path fill="none" stroke="#191970" d="M582.2751,-199.4302C590.6164,-199.2278 599.1176,-199.0214 607.551,-198.8167"/>
<polygon fill="#191970" stroke="#191970" points="607.8768,-202.3099 617.7889,-198.5682 607.7069,-195.312 607.8768,-202.3099"/>
</g>
<!-- Node173&#45;&gt;Node172 -->
<g id="edge14" class="edge">
<title>Node173&#45;&gt;Node172</title>
<path fill="none" stroke="#191970" d="M567.3174,-216.5192C585.1176,-220.3212 604.3707,-224.4336 622.6263,-228.3328"/>
<polygon fill="#191970" stroke="#191970" points="622.1395,-231.8077 632.65,-230.4738 623.6017,-224.9621 622.1395,-231.8077"/>
</g>
</g>
</svg>
        <g id="navigator" transform="translate(0 0)" fill="#404254">
                <rect fill="#f2f5e9" fill-opacity="0.5" stroke="#606060" stroke-width=".5" x="0" y="0" width="60" height="60"/>
                <use id="zoomplus" xlink:href="#zoomPlus" x="17" y="9" onmousedown="handleZoom(evt,'in')"/>
                <use id="zoomminus" xlink:href="#zoomMin" x="42" y="9" onmousedown="handleZoom(evt,'out')"/>
                <use id="reset" xlink:href="#resetDef" x="30" y="36" onmousedown="handleReset()"/>
                <g id="arrowUp" xlink:href="#dirArrow" transform="translate(30 24)" onmousedown="handlePan(0,-1)">
                  <use xlink:href="#rim" fill="#404040">
                        <set attributeName="fill" to="#808080" begin="arrowUp.mouseover" end="arrowUp.mouseout"/>
                  </use>
                  <path fill="none" stroke="white" stroke-width="1.5" d="M0,-3.0v7 M-2.5,-0.5L0,-3.0L2.5,-0.5"/>
                </g>
                <g id="arrowRight" xlink:href="#dirArrow" transform="rotate(90) translate(36 -43)" onmousedown="handlePan(1,0)">
                  <use xlink:href="#rim" fill="#404040">
                        <set attributeName="fill" to="#808080" begin="arrowRight.mouseover" end="arrowRight.mouseout"/>
                  </use>
                  <path fill="none" stroke="white" stroke-width="1.5" d="M0,-3.0v7 M-2.5,-0.5L0,-3.0L2.5,-0.5"/>
                </g>
                <g id="arrowDown" xlink:href="#dirArrow" transform="rotate(180) translate(-30 -48)" onmousedown="handlePan(0,1)">
                  <use xlink:href="#rim" fill="#404040">
                        <set attributeName="fill" to="#808080" begin="arrowDown.mouseover" end="arrowDown.mouseout"/>
                  </use>
                  <path fill="none" stroke="white" stroke-width="1.5" d="M0,-3.0v7 M-2.5,-0.5L0,-3.0L2.5,-0.5"/>
                </g>
                <g id="arrowLeft" xlink:href="#dirArrow" transform="rotate(270) translate(-36 17)" onmousedown="handlePan(-1,0)">
                  <use xlink:href="#rim" fill="#404040">
                        <set attributeName="fill" to="#808080" begin="arrowLeft.mouseover" end="arrowLeft.mouseout"/>
                  </use>
                  <path fill="none" stroke="white" stroke-width="1.5" d="M0,-3.0v7 M-2.5,-0.5L0,-3.0L2.5,-0.5"/>
                </g>
        </g>
        <svg viewBox="0 0 15 15" width="100%" height="30px" preserveAspectRatio="xMaxYMin meet">
         <g id="arrow_out" transform="scale(0.3 0.3)">
          <a xlink:href="classJSPMakespanMinimizationSolution_a6ca8531598f86cf7abe11562c9c62645_cgraph_org.svg" target="_base">
           <rect id="button" ry="5" rx="5" y="6" x="6" height="38" width="38"
                fill="#f2f5e9" fill-opacity="0.5" stroke="#606060" stroke-width="1.0"/>
           <path id="arrow"
             d="M 11.500037,31.436501 C 11.940474,20.09759 22.043105,11.32322 32.158766,21.979434 L 37.068811,17.246167 C 37.068811,17.246167 37.088388,32 37.088388,32 L 22.160133,31.978069 C 22.160133,31.978069 26.997745,27.140456 26.997745,27.140456 C 18.528582,18.264221 13.291696,25.230495 11.500037,31.436501 z"
             style="fill:#404040;"/>
          </a>
         </g>
        </svg>
</svg>
