<?xml version="1.0" encoding="UTF-8" standalone="no"?>
<!DOCTYPE svg PUBLIC "-//W3C//DTD SVG 1.1//EN"
 "http://www.w3.org/Graphics/SVG/1.1/DTD/svg11.dtd">
<!-- Generated by graphviz version 2.40.1 (20161225.0304)
 -->
<!-- Title: JSPMakespanMinimizationSolution::operator&lt; Pages: 1 -->
<svg width="1208pt" height="220pt"
 viewBox="0.00 0.00 1208.00 220.00" xmlns="http://www.w3.org/2000/svg" xmlns:xlink="http://www.w3.org/1999/xlink">
<g id="graph0" class="graph" transform="scale(1 1) rotate(0) translate(4 216)">
<title>JSPMakespanMinimizationSolution::operator&lt;</title>
<!-- Node98 -->
<g id="node1" class="node">
<title>Node98</title>
<g id="a_node1"><a xlink:title=" ">
<polygon fill="#bfbfbf" stroke="#000000" points="0,-93.5 0,-123.5 170,-123.5 170,-93.5 0,-93.5"/>
<text text-anchor="start" x="8" y="-111.5" font-family="Helvetica,sans-Serif" font-size="10.00" fill="#000000">JSPMakespanMinimizationSolution</text>
<text text-anchor="middle" x="85" y="-100.5" font-family="Helvetica,sans-Serif" font-size="10.00" fill="#000000">::operator&lt;</text>
</a>
</g>
</g>
<!-- Node99 -->
<g id="node2" class="node">
<title>Node99</title>
<g id="a_node2"><a xlink:href="classJSPMakespanMinimizationSolution.html#a4b8356587e2bb63dc4969b775b6701d9" target="_top" xlink:title="Returns the quality of the solution.">
<polygon fill="none" stroke="#000000" points="206,-93.5 206,-123.5 376,-123.5 376,-93.5 206,-93.5"/>
<text text-anchor="start" x="214" y="-111.5" font-family="Helvetica,sans-Serif" font-size="10.00" fill="#000000">JSPMakespanMinimizationSolution</text>
<text text-anchor="middle" x="291" y="-100.5" font-family="Helvetica,sans-Serif" font-size="10.00" fill="#000000">::GetQuality</text>
</a>
</g>
</g>
<!-- Node98&#45;&gt;Node99 -->
<g id="edge1" class="edge">
<title>Node98&#45;&gt;Node99</title>
<path fill="none" stroke="#191970" d="M170.2751,-108.5C178.6164,-108.5 187.1176,-108.5 195.551,-108.5"/>
<polygon fill="#191970" stroke="#191970" points="195.7889,-112.0001 205.7889,-108.5 195.7888,-105.0001 195.7889,-112.0001"/>
</g>
<!-- Node100 -->
<g id="node3" class="node">
<title>Node100</title>
<g id="a_node3"><a xlink:href="classJSPMakespanMinimizationSolution.html#a861537511167cc4c1b4a3578c0645cc9" target="_top" xlink:title="Returns the makespan.">
<polygon fill="none" stroke="#000000" points="412,-93.5 412,-123.5 582,-123.5 582,-93.5 412,-93.5"/>
<text text-anchor="start" x="420" y="-111.5" font-family="Helvetica,sans-Serif" font-size="10.00" fill="#000000">JSPMakespanMinimizationSolution</text>
<text text-anchor="middle" x="497" y="-100.5" font-family="Helvetica,sans-Serif" font-size="10.00" fill="#000000">::GetMakespan</text>
</a>
</g>
</g>
<!-- Node99&#45;&gt;Node100 -->
<g id="edge2" class="edge">
<title>Node99&#45;&gt;Node100</title>
<path fill="none" stroke="#191970" d="M376.2751,-108.5C384.6164,-108.5 393.1176,-108.5 401.551,-108.5"/>
<polygon fill="#191970" stroke="#191970" points="401.7889,-112.0001 411.7889,-108.5 401.7888,-105.0001 401.7889,-112.0001"/>
</g>
<!-- Node101 -->
<g id="node4" class="node">
<title>Node101</title>
<g id="a_node4"><a xlink:href="classJSPMakespanMinimizationSolution.html#a7675bd800df0dcafd2579563b0745ce8" target="_top" xlink:title="Updates the head and tail of all the tasks that have been affected by modifications since the last ca...">
<polygon fill="none" stroke="#000000" points="618,-93.5 618,-123.5 788,-123.5 788,-93.5 618,-93.5"/>
<text text-anchor="start" x="626" y="-111.5" font-family="Helvetica,sans-Serif" font-size="10.00" fill="#000000">JSPMakespanMinimizationSolution</text>
<text text-anchor="middle" x="703" y="-100.5" font-family="Helvetica,sans-Serif" font-size="10.00" fill="#000000">::UpdateHeadsAndTails</text>
</a>
</g>
</g>
<!-- Node100&#45;&gt;Node101 -->
<g id="edge3" class="edge">
<title>Node100&#45;&gt;Node101</title>
<path fill="none" stroke="#191970" d="M582.2751,-108.5C590.6164,-108.5 599.1176,-108.5 607.551,-108.5"/>
<polygon fill="#191970" stroke="#191970" points="607.7889,-112.0001 617.7889,-108.5 607.7888,-105.0001 607.7889,-112.0001"/>
</g>
<!-- Node102 -->
<g id="node5" class="node">
<title>Node102</title>
<g id="a_node5"><a xlink:href="classJSPMakespanMinimizationSolution.html#a4b5965dd69809fb79768a5f4c462920b" target="_top" xlink:title="Inserts in a container all the tasks in topological order.">
<polygon fill="none" stroke="#000000" points="824,-181.5 824,-211.5 994,-211.5 994,-181.5 824,-181.5"/>
<text text-anchor="start" x="832" y="-199.5" font-family="Helvetica,sans-Serif" font-size="10.00" fill="#000000">JSPMakespanMinimizationSolution</text>
<text text-anchor="middle" x="909" y="-188.5" font-family="Helvetica,sans-Serif" font-size="10.00" fill="#000000">::GetTasksTopologicalOrder</text>
</a>
</g>
</g>
<!-- Node101&#45;&gt;Node102 -->
<g id="edge4" class="edge">
<title>Node101&#45;&gt;Node102</title>
<path fill="none" stroke="#191970" d="M732.4313,-123.7063C756.6872,-135.9706 792.1527,-153.2921 824,-166.5 833.5303,-170.4525 843.7895,-174.3589 853.77,-177.9808"/>
<polygon fill="#191970" stroke="#191970" points="852.626,-181.2888 863.2206,-181.3585 854.9819,-174.6971 852.626,-181.2888"/>
</g>
<!-- Node103 -->
<g id="node6" class="node">
<title>Node103</title>
<g id="a_node6"><a xlink:href="classJSPMakespanMinimizationSolution.html#a07f32775230bfb3a2ccd4f44f7bffb6a" target="_top" xlink:title="Returns a pair with the tasks that are scheduled after the specified task. The first component is the...">
<polygon fill="none" stroke="#000000" points="1030,-164.5 1030,-194.5 1200,-194.5 1200,-164.5 1030,-164.5"/>
<text text-anchor="start" x="1038" y="-182.5" font-family="Helvetica,sans-Serif" font-size="10.00" fill="#000000">JSPMakespanMinimizationSolution</text>
<text text-anchor="middle" x="1115" y="-171.5" font-family="Helvetica,sans-Serif" font-size="10.00" fill="#000000">::GetNextTasks</text>
</a>
</g>
</g>
<!-- Node101&#45;&gt;Node103 -->
<g id="edge11" class="edge">
<title>Node101&#45;&gt;Node103</title>
<path fill="none" stroke="#191970" d="M772.9532,-123.5354C789.6503,-126.9628 807.4341,-130.481 824,-133.5 889.1516,-145.3732 962.8378,-157.003 1019.7599,-165.5985"/>
<polygon fill="#191970" stroke="#191970" points="1019.4166,-169.0862 1029.8262,-167.1134 1020.4584,-162.1642 1019.4166,-169.0862"/>
</g>
<!-- Node104 -->
<g id="node7" class="node">
<title>Node104</title>
<g id="a_node7"><a xlink:href="classJSPMakespanMinimizationSolution.html#acb6b836e6ccea549562ec0e2ae0e2d7b" target="_top" xlink:title="Returns a pair with the tasks that are scheduled before the specified task. The first component is th...">
<polygon fill="none" stroke="#000000" points="824,-93.5 824,-123.5 994,-123.5 994,-93.5 824,-93.5"/>
<text text-anchor="start" x="832" y="-111.5" font-family="Helvetica,sans-Serif" font-size="10.00" fill="#000000">JSPMakespanMinimizationSolution</text>
<text text-anchor="middle" x="909" y="-100.5" font-family="Helvetica,sans-Serif" font-size="10.00" fill="#000000">::GetPrevTasks</text>
</a>
</g>
</g>
<!-- Node101&#45;&gt;Node104 -->
<g id="edge6" class="edge">
<title>Node101&#45;&gt;Node104</title>
<path fill="none" stroke="#191970" d="M788.2751,-108.5C796.6164,-108.5 805.1176,-108.5 813.551,-108.5"/>
<polygon fill="#191970" stroke="#191970" points="813.7889,-112.0001 823.7889,-108.5 813.7888,-105.0001 813.7889,-112.0001"/>
</g>
<!-- Node105 -->
<g id="node8" class="node">
<title>Node105</title>
<g id="a_node8"><a xlink:href="namespacestd.html#aabf08e25820a0127a265bb20575664b9" target="_top" xlink:title=" ">
<polygon fill="none" stroke="#000000" points="881.5,-55 881.5,-74 936.5,-74 936.5,-55 881.5,-55"/>
<text text-anchor="middle" x="909" y="-62" font-family="Helvetica,sans-Serif" font-size="10.00" fill="#000000">std::max</text>
</a>
</g>
</g>
<!-- Node101&#45;&gt;Node105 -->
<g id="edge7" class="edge">
<title>Node101&#45;&gt;Node105</title>
<path fill="none" stroke="#191970" d="M773.3174,-93.4808C806.1834,-86.4608 844.0023,-78.383 871.35,-72.5417"/>
<polygon fill="#191970" stroke="#191970" points="872.2382,-75.9311 881.2865,-70.4194 870.7759,-69.0855 872.2382,-75.9311"/>
</g>
<!-- Node109 -->
<g id="node12" class="node">
<title>Node109</title>
<g id="a_node12"><a xlink:href="classJSPMakespanMinimizationSolution.html#a6a196bbd5a7a0a1bbeb6ab46721a5027" target="_top" xlink:title="Returns the problem that the solution solves.">
<polygon fill="none" stroke="#000000" points="824,-5.5 824,-35.5 994,-35.5 994,-5.5 824,-5.5"/>
<text text-anchor="start" x="832" y="-23.5" font-family="Helvetica,sans-Serif" font-size="10.00" fill="#000000">JSPMakespanMinimizationSolution</text>
<text text-anchor="middle" x="909" y="-12.5" font-family="Helvetica,sans-Serif" font-size="10.00" fill="#000000">::GetProblem</text>
</a>
</g>
</g>
<!-- Node101&#45;&gt;Node109 -->
<g id="edge12" class="edge">
<title>Node101&#45;&gt;Node109</title>
<path fill="none" stroke="#191970" d="M728.2779,-93.4922C752.2953,-79.6823 789.7308,-59.3087 824,-45.5 829.8986,-43.1232 836.109,-40.862 842.3765,-38.7411"/>
<polygon fill="#191970" stroke="#191970" points="843.813,-41.9542 852.236,-35.5273 841.6436,-35.2988 843.813,-41.9542"/>
</g>
<!-- Node102&#45;&gt;Node103 -->
<g id="edge5" class="edge">
<title>Node102&#45;&gt;Node103</title>
<path fill="none" stroke="#191970" d="M994.2751,-189.4627C1002.6164,-188.7744 1011.1176,-188.0728 1019.551,-187.3769"/>
<polygon fill="#191970" stroke="#191970" points="1020.1106,-190.8427 1029.7889,-186.532 1019.5349,-183.8664 1020.1106,-190.8427"/>
</g>
<!-- Node106 -->
<g id="node9" class="node">
<title>Node106</title>
<g id="a_node9"><a xlink:href="classTriangularFuzzyNumber.html#afe61a993d8d969f858845dbb6b5eb7a0" target="_top" xlink:title="Returns the smallest possible value.">
<polygon fill="none" stroke="#000000" points="1055,-98.5 1055,-128.5 1175,-128.5 1175,-98.5 1055,-98.5"/>
<text text-anchor="start" x="1063" y="-116.5" font-family="Helvetica,sans-Serif" font-size="10.00" fill="#000000">TriangularFuzzyNumber</text>
<text text-anchor="middle" x="1115" y="-105.5" font-family="Helvetica,sans-Serif" font-size="10.00" fill="#000000">::GetSmallest</text>
</a>
</g>
</g>
<!-- Node105&#45;&gt;Node106 -->
<g id="edge8" class="edge">
<title>Node105&#45;&gt;Node106</title>
<path fill="none" stroke="#191970" d="M936.5689,-70.9563C953.2057,-74.8601 974.8254,-79.9464 994,-84.5 1010.3607,-88.3853 1027.9595,-92.5892 1044.5308,-96.5587"/>
<polygon fill="#191970" stroke="#191970" points="1044.1554,-100.0677 1054.6958,-98.995 1045.787,-93.2605 1044.1554,-100.0677"/>
</g>
<!-- Node107 -->
<g id="node10" class="node">
<title>Node107</title>
<g id="a_node10"><a xlink:href="classTriangularFuzzyNumber.html#ac79e432898eb12448e54d085295a09f9" target="_top" xlink:title="Returns the most probable value.">
<polygon fill="none" stroke="#000000" points="1055,-49.5 1055,-79.5 1175,-79.5 1175,-49.5 1055,-49.5"/>
<text text-anchor="start" x="1063" y="-67.5" font-family="Helvetica,sans-Serif" font-size="10.00" fill="#000000">TriangularFuzzyNumber</text>
<text text-anchor="middle" x="1115" y="-56.5" font-family="Helvetica,sans-Serif" font-size="10.00" fill="#000000">::GetMostProbable</text>
</a>
</g>
</g>
<!-- Node105&#45;&gt;Node107 -->
<g id="edge9" class="edge">
<title>Node105&#45;&gt;Node107</title>
<path fill="none" stroke="#191970" d="M936.7821,-64.5C964.2875,-64.5 1007.5281,-64.5 1044.5281,-64.5"/>
<polygon fill="#191970" stroke="#191970" points="1044.7802,-68.0001 1054.7802,-64.5 1044.7801,-61.0001 1044.7802,-68.0001"/>
</g>
<!-- Node108 -->
<g id="node11" class="node">
<title>Node108</title>
<g id="a_node11"><a xlink:href="classTriangularFuzzyNumber.html#a0133fef04fbb1a8e571d117c01c6af71" target="_top" xlink:title="Returns the largest possible value.">
<polygon fill="none" stroke="#000000" points="1055,-.5 1055,-30.5 1175,-30.5 1175,-.5 1055,-.5"/>
<text text-anchor="start" x="1063" y="-18.5" font-family="Helvetica,sans-Serif" font-size="10.00" fill="#000000">TriangularFuzzyNumber</text>
<text text-anchor="middle" x="1115" y="-7.5" font-family="Helvetica,sans-Serif" font-size="10.00" fill="#000000">::GetLargest</text>
</a>
</g>
</g>
<!-- Node105&#45;&gt;Node108 -->
<g id="edge10" class="edge">
<title>Node105&#45;&gt;Node108</title>
<path fill="none" stroke="#191970" d="M936.599,-58.5C953.2465,-54.8388 974.8668,-50.0097 994,-45.5 1010.7292,-41.557 1028.7231,-37.1733 1045.5873,-33.0019"/>
<polygon fill="#191970" stroke="#191970" points="1046.5051,-36.3804 1055.368,-30.5753 1044.8195,-29.5864 1046.5051,-36.3804"/>
</g>
</g>
</svg>
