<?xml version="1.0" encoding="UTF-8" standalone="no"?>
<!DOCTYPE svg PUBLIC "-//W3C//DTD SVG 1.1//EN"
 "http://www.w3.org/Graphics/SVG/1.1/DTD/svg11.dtd">
<!-- Generated by graphviz version 2.40.1 (20161225.0304)
 -->
<!-- Title: TabuList&lt; T &gt; Pages: 1 -->
<svg width="277pt" height="259pt"
 viewBox="0.00 0.00 277.00 259.00" xmlns="http://www.w3.org/2000/svg" xmlns:xlink="http://www.w3.org/1999/xlink">
<g id="graph0" class="graph" transform="scale(1 1) rotate(0) translate(4 255)">
<title>TabuList&lt; T &gt;</title>
<!-- Node1 -->
<g id="node1" class="node">
<title>Node1</title>
<g id="a_node1"><a xlink:title="Tabu List.">
<polygon fill="#bfbfbf" stroke="#000000" points="122.5,-.5 122.5,-145.5 226.5,-145.5 226.5,-.5 122.5,-.5"/>
<text text-anchor="middle" x="174.5" y="-133.5" font-family="Helvetica,sans-Serif" font-size="10.00" fill="#000000">TabuList&lt; T &gt;</text>
<polyline fill="none" stroke="#000000" points="122.5,-126.5 226.5,-126.5 "/>
<text text-anchor="middle" x="174.5" y="-114.5" font-family="Helvetica,sans-Serif" font-size="10.00" fill="#000000"> </text>
<polyline fill="none" stroke="#000000" points="122.5,-107.5 226.5,-107.5 "/>
<text text-anchor="start" x="130.5" y="-95.5" font-family="Helvetica,sans-Serif" font-size="10.00" fill="#000000">+ TabuList()</text>
<text text-anchor="start" x="130.5" y="-84.5" font-family="Helvetica,sans-Serif" font-size="10.00" fill="#000000">+ Push()</text>
<text text-anchor="start" x="130.5" y="-73.5" font-family="Helvetica,sans-Serif" font-size="10.00" fill="#000000">+ Pop()</text>
<text text-anchor="start" x="130.5" y="-62.5" font-family="Helvetica,sans-Serif" font-size="10.00" fill="#000000">+ ForcePush()</text>
<text text-anchor="start" x="130.5" y="-51.5" font-family="Helvetica,sans-Serif" font-size="10.00" fill="#000000">+ Contains()</text>
<text text-anchor="start" x="130.5" y="-40.5" font-family="Helvetica,sans-Serif" font-size="10.00" fill="#000000">+ ChangeCapacity()</text>
<text text-anchor="start" x="130.5" y="-29.5" font-family="Helvetica,sans-Serif" font-size="10.00" fill="#000000">+ Clear()</text>
<text text-anchor="start" x="130.5" y="-18.5" font-family="Helvetica,sans-Serif" font-size="10.00" fill="#000000">+ Capacity()</text>
<text text-anchor="start" x="130.5" y="-7.5" font-family="Helvetica,sans-Serif" font-size="10.00" fill="#000000">+ CurrentSize()</text>
</a>
</g>
</g>
<!-- Node2 -->
<g id="node2" class="node">
<title>Node2</title>
<g id="a_node2"><a xlink:title=" ">
<polygon fill="none" stroke="#bfbfbf" points="0,-193.5 0,-250.5 123,-250.5 123,-193.5 0,-193.5"/>
<text text-anchor="middle" x="61.5" y="-238.5" font-family="Helvetica,sans-Serif" font-size="10.00" fill="#000000">unordered_multiset&lt; T &gt;</text>
<polyline fill="none" stroke="#bfbfbf" points="0,-231.5 123,-231.5 "/>
<text text-anchor="middle" x="61.5" y="-219.5" font-family="Helvetica,sans-Serif" font-size="10.00" fill="#000000"> </text>
<polyline fill="none" stroke="#bfbfbf" points="0,-212.5 123,-212.5 "/>
<text text-anchor="middle" x="61.5" y="-200.5" font-family="Helvetica,sans-Serif" font-size="10.00" fill="#000000"> </text>
</a>
</g>
</g>
<!-- Node2&#45;&gt;Node1 -->
<g id="edge1" class="edge">
<title>Node2&#45;&gt;Node1</title>
<path fill="none" stroke="#404040" d="M83.2875,-193.2713C92.4416,-181.2009 103.5806,-166.5132 114.8863,-151.6057"/>
<polygon fill="none" stroke="#404040" points="115.0694,-151.3642 115.5079,-144.1665 122.3206,-141.8029 121.8821,-149.0006 115.0694,-151.3642"/>
<text text-anchor="middle" x="128.5" y="-167" font-family="Helvetica,sans-Serif" font-size="10.00" fill="#000000"> &#45;elements</text>
</g>
<!-- Node3 -->
<g id="node3" class="node">
<title>Node3</title>
<g id="a_node3"><a xlink:title=" ">
<polygon fill="none" stroke="#bfbfbf" points="141,-193.5 141,-250.5 208,-250.5 208,-193.5 141,-193.5"/>
<text text-anchor="middle" x="174.5" y="-238.5" font-family="Helvetica,sans-Serif" font-size="10.00" fill="#000000">deque&lt; T &gt;</text>
<polyline fill="none" stroke="#bfbfbf" points="141,-231.5 208,-231.5 "/>
<text text-anchor="middle" x="174.5" y="-219.5" font-family="Helvetica,sans-Serif" font-size="10.00" fill="#000000"> </text>
<polyline fill="none" stroke="#bfbfbf" points="141,-212.5 208,-212.5 "/>
<text text-anchor="middle" x="174.5" y="-200.5" font-family="Helvetica,sans-Serif" font-size="10.00" fill="#000000"> </text>
</a>
</g>
</g>
<!-- Node3&#45;&gt;Node1 -->
<g id="edge2" class="edge">
<title>Node3&#45;&gt;Node1</title>
<path fill="none" stroke="#404040" d="M174.5,-193.2713C174.5,-182.8895 174.5,-170.5716 174.5,-157.843"/>
<polygon fill="none" stroke="#404040" points="174.5001,-157.5631 170.5,-151.5632 174.5,-145.5631 178.5,-151.5631 174.5001,-157.5631"/>
<text text-anchor="middle" x="191" y="-167" font-family="Helvetica,sans-Serif" font-size="10.00" fill="#000000"> &#45;queue</text>
</g>
<!-- Node4 -->
<g id="node4" class="node">
<title>Node4</title>
<g id="a_node4"><a xlink:title=" ">
<polygon fill="none" stroke="#bfbfbf" points="226,-193.5 226,-250.5 269,-250.5 269,-193.5 226,-193.5"/>
<text text-anchor="middle" x="247.5" y="-238.5" font-family="Helvetica,sans-Serif" font-size="10.00" fill="#000000">size_t</text>
<polyline fill="none" stroke="#bfbfbf" points="226,-231.5 269,-231.5 "/>
<text text-anchor="middle" x="247.5" y="-219.5" font-family="Helvetica,sans-Serif" font-size="10.00" fill="#000000"> </text>
<polyline fill="none" stroke="#bfbfbf" points="226,-212.5 269,-212.5 "/>
<text text-anchor="middle" x="247.5" y="-200.5" font-family="Helvetica,sans-Serif" font-size="10.00" fill="#000000"> </text>
</a>
</g>
</g>
<!-- Node4&#45;&gt;Node1 -->
<g id="edge3" class="edge">
<title>Node4&#45;&gt;Node1</title>
<path fill="none" stroke="#404040" d="M233.4249,-193.2713C228.1812,-182.5684 221.9294,-169.8079 215.4882,-156.6608"/>
<polygon fill="none" stroke="#404040" points="215.3307,-156.3393 209.0988,-152.7111 210.0511,-145.5631 216.2829,-149.1913 215.3307,-156.3393"/>
<text text-anchor="middle" x="245" y="-167" font-family="Helvetica,sans-Serif" font-size="10.00" fill="#000000"> &#45;capacity</text>
</g>
</g>
</svg>
