<?xml version="1.0" encoding="UTF-8" standalone="no"?>
<!DOCTYPE svg PUBLIC "-//W3C//DTD SVG 1.1//EN"
 "http://www.w3.org/Graphics/SVG/1.1/DTD/svg11.dtd">
<!-- Generated by graphviz version 2.40.1 (20161225.0304)
 -->
<!-- Title: GOX::Cross Pages: 1 -->
<svg width="308pt" height="28pt"
 viewBox="0.00 0.00 308.00 28.00" xmlns="http://www.w3.org/2000/svg" xmlns:xlink="http://www.w3.org/1999/xlink">
<g id="graph0" class="graph" transform="scale(1 1) rotate(0) translate(4 24)">
<title>GOX::Cross</title>
<!-- Node0 -->
<g id="node1" class="node">
<title>Node0</title>
<g id="a_node1"><a xlink:title="Inserts in a container the genes of the two offsprings resulting of crossing the specified parent chr...">
<polygon fill="#bfbfbf" stroke="#000000" points="0,-.5 0,-19.5 70,-19.5 70,-.5 0,-.5"/>
<text text-anchor="middle" x="35" y="-7.5" font-family="Helvetica,sans-Serif" font-size="10.00" fill="#000000">GOX::Cross</text>
</a>
</g>
</g>
<!-- Node1 -->
<g id="node2" class="node">
<title>Node1</title>
<g id="a_node2"><a xlink:href="classGOX.html#ab70ecd48b47ed3e6eb2542f8cb936ac5" target="_top" xlink:title="Implants some genes of a chromosome into another chromosome to generate a new chromosome that combine...">
<polygon fill="none" stroke="#000000" points="106,-.5 106,-19.5 182,-19.5 182,-.5 106,-.5"/>
<text text-anchor="middle" x="144" y="-7.5" font-family="Helvetica,sans-Serif" font-size="10.00" fill="#000000">GOX::Implant</text>
</a>
</g>
</g>
<!-- Node0&#45;&gt;Node1 -->
<g id="edge1" class="edge">
<title>Node0&#45;&gt;Node1</title>
<path fill="none" stroke="#191970" d="M70.0883,-10C78.3188,-10 87.2288,-10 95.918,-10"/>
<polygon fill="#191970" stroke="#191970" points="95.9632,-13.5001 105.9632,-10 95.9631,-6.5001 95.9632,-13.5001"/>
</g>
<!-- Node2 -->
<g id="node3" class="node">
<title>Node2</title>
<g id="a_node3"><a xlink:href="container__utils_8hpp.html#a5d09d801c406be3b34bcb828910b04ce" target="_top" xlink:title="A mix of std::copy_if and std::transform.">
<polygon fill="none" stroke="#000000" points="218,-.5 218,-19.5 300,-19.5 300,-.5 218,-.5"/>
<text text-anchor="middle" x="259" y="-7.5" font-family="Helvetica,sans-Serif" font-size="10.00" fill="#000000">filter_transform</text>
</a>
</g>
</g>
<!-- Node1&#45;&gt;Node2 -->
<g id="edge2" class="edge">
<title>Node1&#45;&gt;Node2</title>
<path fill="none" stroke="#191970" d="M182.2933,-10C190.376,-10 199.0307,-10 207.5091,-10"/>
<polygon fill="#191970" stroke="#191970" points="207.7134,-13.5001 217.7133,-10 207.7133,-6.5001 207.7134,-13.5001"/>
</g>
</g>
</svg>
