<?xml version="1.0" encoding="UTF-8" standalone="no"?>
<!DOCTYPE svg PUBLIC "-//W3C//DTD SVG 1.1//EN"
 "http://www.w3.org/Graphics/SVG/1.1/DTD/svg11.dtd">
<!-- Generated by graphviz version 2.40.1 (20161225.0304)
 -->
<!-- Title: EvolutionaryAlgorithm::FindSolution Pages: 1 -->
<svg width="297pt" height="88pt"
 viewBox="0.00 0.00 297.00 88.00" xmlns="http://www.w3.org/2000/svg" xmlns:xlink="http://www.w3.org/1999/xlink">
<g id="graph0" class="graph" transform="scale(1 1) rotate(0) translate(4 84)">
<title>EvolutionaryAlgorithm::FindSolution</title>
<!-- Node0 -->
<g id="node1" class="node">
<title>Node0</title>
<g id="a_node1"><a xlink:title="Finds a solution to a problem using a evolutionary algorithm metaheuristic.">
<polygon fill="#bfbfbf" stroke="#000000" points="0,-24.5 0,-54.5 112,-54.5 112,-24.5 0,-24.5"/>
<text text-anchor="start" x="8" y="-42.5" font-family="Helvetica,sans-Serif" font-size="10.00" fill="#000000">EvolutionaryAlgorithm</text>
<text text-anchor="middle" x="56" y="-31.5" font-family="Helvetica,sans-Serif" font-size="10.00" fill="#000000">::FindSolution</text>
</a>
</g>
</g>
<!-- Node1 -->
<g id="node2" class="node">
<title>Node1</title>
<g id="a_node2"><a xlink:href="classEvolutionaryAlgorithmLogger.html#ae822a61759d79afe34fee23f481e54c7" target="_top" xlink:title="Adds a log.">
<polygon fill="none" stroke="#000000" points="148,-49.5 148,-79.5 289,-79.5 289,-49.5 148,-49.5"/>
<text text-anchor="start" x="156" y="-67.5" font-family="Helvetica,sans-Serif" font-size="10.00" fill="#000000">EvolutionaryAlgorithmLogger</text>
<text text-anchor="middle" x="218.5" y="-56.5" font-family="Helvetica,sans-Serif" font-size="10.00" fill="#000000">::AddLog</text>
</a>
</g>
</g>
<!-- Node0&#45;&gt;Node1 -->
<g id="edge1" class="edge">
<title>Node0&#45;&gt;Node1</title>
<path fill="none" stroke="#191970" d="M112.3786,-48.1736C120.6143,-49.4407 129.2274,-50.7658 137.8318,-52.0895"/>
<polygon fill="#191970" stroke="#191970" points="137.4895,-55.578 147.9055,-53.6393 138.554,-48.6593 137.4895,-55.578"/>
</g>
<!-- Node2 -->
<g id="node3" class="node">
<title>Node2</title>
<g id="a_node3"><a xlink:href="classEvolutionaryAlgorithmLogger.html#ad95f3ff09d1a88ce9e21ca0ccc2b2baf" target="_top" xlink:title="Sets the best solution found by the algorithm.">
<polygon fill="none" stroke="#000000" points="148,-.5 148,-30.5 289,-30.5 289,-.5 148,-.5"/>
<text text-anchor="start" x="156" y="-18.5" font-family="Helvetica,sans-Serif" font-size="10.00" fill="#000000">EvolutionaryAlgorithmLogger</text>
<text text-anchor="middle" x="218.5" y="-7.5" font-family="Helvetica,sans-Serif" font-size="10.00" fill="#000000">::SetBestSolution</text>
</a>
</g>
</g>
<!-- Node0&#45;&gt;Node2 -->
<g id="edge2" class="edge">
<title>Node0&#45;&gt;Node2</title>
<path fill="none" stroke="#191970" d="M112.3786,-31.1733C120.6143,-29.957 129.2274,-28.6849 137.8318,-27.4141"/>
<polygon fill="#191970" stroke="#191970" points="138.5242,-30.8499 147.9055,-25.9263 137.5014,-23.925 138.5242,-30.8499"/>
</g>
</g>
</svg>
