<?xml version="1.0" encoding="UTF-8" standalone="no"?>
<!DOCTYPE svg PUBLIC "-//W3C//DTD SVG 1.1//EN"
 "http://www.w3.org/Graphics/SVG/1.1/DTD/svg11.dtd">
<!-- Generated by graphviz version 2.40.1 (20161225.0304)
 -->
<!-- Title: LocalSearchLogger&lt; Solution &gt; Pages: 1 -->
<svg width="399pt" height="281pt"
 viewBox="0.00 0.00 398.50 281.00" xmlns="http://www.w3.org/2000/svg" xmlns:xlink="http://www.w3.org/1999/xlink">
<g id="graph0" class="graph" transform="scale(1 1) rotate(0) translate(4 277)">
<title>LocalSearchLogger&lt; Solution &gt;</title>
<!-- Node1 -->
<g id="node1" class="node">
<title>Node1</title>
<g id="a_node1"><a xlink:title="Logger to trace the evolution of a local search algorithm.">
<polygon fill="#bfbfbf" stroke="#000000" points="207.5,-.5 207.5,-145.5 322.5,-145.5 322.5,-.5 207.5,-.5"/>
<text text-anchor="start" x="215.5" y="-133.5" font-family="Helvetica,sans-Serif" font-size="10.00" fill="#000000">LocalSearchLogger&lt;</text>
<text text-anchor="middle" x="265" y="-122.5" font-family="Helvetica,sans-Serif" font-size="10.00" fill="#000000"> Solution &gt;</text>
<polyline fill="none" stroke="#000000" points="207.5,-115.5 322.5,-115.5 "/>
<text text-anchor="middle" x="265" y="-103.5" font-family="Helvetica,sans-Serif" font-size="10.00" fill="#000000"> </text>
<polyline fill="none" stroke="#000000" points="207.5,-96.5 322.5,-96.5 "/>
<text text-anchor="start" x="215.5" y="-84.5" font-family="Helvetica,sans-Serif" font-size="10.00" fill="#000000">+ LocalSearchLogger()</text>
<text text-anchor="start" x="215.5" y="-73.5" font-family="Helvetica,sans-Serif" font-size="10.00" fill="#000000">+ SetInitialSolution()</text>
<text text-anchor="start" x="215.5" y="-62.5" font-family="Helvetica,sans-Serif" font-size="10.00" fill="#000000">+ GetInitialSolution()</text>
<text text-anchor="start" x="215.5" y="-51.5" font-family="Helvetica,sans-Serif" font-size="10.00" fill="#000000">+ SetBestSolution()</text>
<text text-anchor="start" x="215.5" y="-40.5" font-family="Helvetica,sans-Serif" font-size="10.00" fill="#000000">+ GetBestSolution()</text>
<text text-anchor="start" x="215.5" y="-29.5" font-family="Helvetica,sans-Serif" font-size="10.00" fill="#000000">+ AddLog()</text>
<text text-anchor="start" x="215.5" y="-18.5" font-family="Helvetica,sans-Serif" font-size="10.00" fill="#000000">+ GetHistory()</text>
<text text-anchor="start" x="215.5" y="-7.5" font-family="Helvetica,sans-Serif" font-size="10.00" fill="#000000">+ operator bool()</text>
</a>
</g>
</g>
<!-- Node2 -->
<g id="node2" class="node">
<title>Node2</title>
<g id="a_node2"><a xlink:title=" ">
<polygon fill="none" stroke="#bfbfbf" points="0,-204.5 0,-272.5 136,-272.5 136,-204.5 0,-204.5"/>
<text text-anchor="start" x="8" y="-260.5" font-family="Helvetica,sans-Serif" font-size="10.00" fill="#000000">vector&lt; LocalSearchLogger</text>
<text text-anchor="middle" x="68" y="-249.5" font-family="Helvetica,sans-Serif" font-size="10.00" fill="#000000">::Log &gt;</text>
<polyline fill="none" stroke="#bfbfbf" points="0,-242.5 136,-242.5 "/>
<text text-anchor="middle" x="68" y="-230.5" font-family="Helvetica,sans-Serif" font-size="10.00" fill="#000000"> </text>
<polyline fill="none" stroke="#bfbfbf" points="0,-223.5 136,-223.5 "/>
<text text-anchor="middle" x="68" y="-211.5" font-family="Helvetica,sans-Serif" font-size="10.00" fill="#000000"> </text>
</a>
</g>
</g>
<!-- Node2&#45;&gt;Node1 -->
<g id="edge1" class="edge">
<title>Node2&#45;&gt;Node1</title>
<path fill="none" stroke="#404040" d="M108.8185,-204.2083C134.5472,-182.5936 168.3828,-154.1683 197.9805,-129.3032"/>
<polygon fill="none" stroke="#404040" points="198.2376,-129.0872 200.2587,-122.1651 207.4256,-121.3683 205.4046,-128.2904 198.2376,-129.0872"/>
<text text-anchor="middle" x="173" y="-172.5" font-family="Helvetica,sans-Serif" font-size="10.00" fill="#000000"> &#45;history</text>
</g>
<!-- Node3 -->
<g id="node3" class="node">
<title>Node3</title>
<g id="a_node3"><a xlink:title=" ">
<polygon fill="none" stroke="#bfbfbf" points="154,-210 154,-267 278,-267 278,-210 154,-210"/>
<text text-anchor="middle" x="216" y="-255" font-family="Helvetica,sans-Serif" font-size="10.00" fill="#000000">optional&lt; SolutionType &gt;</text>
<polyline fill="none" stroke="#bfbfbf" points="154,-248 278,-248 "/>
<text text-anchor="middle" x="216" y="-236" font-family="Helvetica,sans-Serif" font-size="10.00" fill="#000000"> </text>
<polyline fill="none" stroke="#bfbfbf" points="154,-229 278,-229 "/>
<text text-anchor="middle" x="216" y="-217" font-family="Helvetica,sans-Serif" font-size="10.00" fill="#000000"> </text>
</a>
</g>
</g>
<!-- Node3&#45;&gt;Node1 -->
<g id="edge2" class="edge">
<title>Node3&#45;&gt;Node1</title>
<path fill="none" stroke="#404040" d="M216.9612,-209.8075C217.9637,-195.7993 219.9776,-178.8135 224,-164 224.6215,-161.7111 225.2938,-159.4068 226.0096,-157.0953"/>
<polygon fill="none" stroke="#404040" points="226.0803,-156.8857 224.2093,-149.9215 229.9181,-145.5159 231.7891,-152.4801 226.0803,-156.8857"/>
<text text-anchor="middle" x="258" y="-178" font-family="Helvetica,sans-Serif" font-size="10.00" fill="#000000"> &#45;initial_solution</text>
<text text-anchor="middle" x="258" y="-167" font-family="Helvetica,sans-Serif" font-size="10.00" fill="#000000">&#45;best_solution</text>
</g>
<!-- Node4 -->
<g id="node4" class="node">
<title>Node4</title>
<g id="a_node4"><a xlink:title=" ">
<polygon fill="none" stroke="#bfbfbf" points="296.5,-210 296.5,-267 331.5,-267 331.5,-210 296.5,-210"/>
<text text-anchor="middle" x="314" y="-255" font-family="Helvetica,sans-Serif" font-size="10.00" fill="#000000">bool</text>
<polyline fill="none" stroke="#bfbfbf" points="296.5,-248 331.5,-248 "/>
<text text-anchor="middle" x="314" y="-236" font-family="Helvetica,sans-Serif" font-size="10.00" fill="#000000"> </text>
<polyline fill="none" stroke="#bfbfbf" points="296.5,-229 331.5,-229 "/>
<text text-anchor="middle" x="314" y="-217" font-family="Helvetica,sans-Serif" font-size="10.00" fill="#000000"> </text>
</a>
</g>
</g>
<!-- Node4&#45;&gt;Node1 -->
<g id="edge3" class="edge">
<title>Node4&#45;&gt;Node1</title>
<path fill="none" stroke="#404040" d="M305.5465,-209.8417C301.4587,-195.9915 296.4785,-179.1299 292,-164 291.3335,-161.7483 290.6575,-159.4653 289.9752,-157.1614"/>
<polygon fill="none" stroke="#404040" points="289.9342,-157.0228 284.3945,-152.4063 286.5252,-145.5172 292.0649,-150.1337 289.9342,-157.0228"/>
<text text-anchor="middle" x="314.5" y="-172.5" font-family="Helvetica,sans-Serif" font-size="10.00" fill="#000000"> &#45;active</text>
</g>
<!-- Node5 -->
<g id="node5" class="node">
<title>Node5</title>
<g id="a_node5"><a xlink:title=" ">
<polygon fill="none" stroke="#bfbfbf" points="349.5,-210 349.5,-267 390.5,-267 390.5,-210 349.5,-210"/>
<text text-anchor="middle" x="370" y="-255" font-family="Helvetica,sans-Serif" font-size="10.00" fill="#000000">string</text>
<polyline fill="none" stroke="#bfbfbf" points="349.5,-248 390.5,-248 "/>
<text text-anchor="middle" x="370" y="-236" font-family="Helvetica,sans-Serif" font-size="10.00" fill="#000000"> </text>
<polyline fill="none" stroke="#bfbfbf" points="349.5,-229 390.5,-229 "/>
<text text-anchor="middle" x="370" y="-217" font-family="Helvetica,sans-Serif" font-size="10.00" fill="#000000"> </text>
</a>
</g>
</g>
<!-- Node5&#45;&gt;Node1 -->
<g id="edge4" class="edge">
<title>Node5&#45;&gt;Node1</title>
<path fill="none" stroke="#404040" d="M358.2623,-209.8032C352.0366,-195.6391 343.8515,-178.5202 335,-164 333.2006,-161.0482 331.3238,-158.0788 329.3882,-155.1075"/>
<polygon fill="none" stroke="#404040" points="329.3029,-154.9806 322.6359,-152.2327 322.6082,-145.0216 329.2752,-147.7696 329.3029,-154.9806"/>
<text text-anchor="middle" x="353" y="-172.5" font-family="Helvetica,sans-Serif" font-size="10.00" fill="#000000"> &#45;id</text>
</g>
</g>
</svg>
