<?xml version="1.0" encoding="UTF-8" standalone="no"?>
<!DOCTYPE svg PUBLIC "-//W3C//DTD SVG 1.1//EN"
 "http://www.w3.org/Graphics/SVG/1.1/DTD/svg11.dtd">
<!-- Generated by graphviz version 2.40.1 (20161225.0304)
 -->
<!-- Title: JSPMakespanMinimizationSolution::GetTail Pages: 1 -->
<svg width="796pt" height="220pt"
 viewBox="0.00 0.00 796.00 220.00" xmlns="http://www.w3.org/2000/svg" xmlns:xlink="http://www.w3.org/1999/xlink">
<g id="graph0" class="graph" transform="scale(1 1) rotate(0) translate(4 216)">
<title>JSPMakespanMinimizationSolution::GetTail</title>
<!-- Node73 -->
<g id="node1" class="node">
<title>Node73</title>
<g id="a_node1"><a xlink:title="Returns the tail of the specified task.">
<polygon fill="#bfbfbf" stroke="#000000" points="0,-93.5 0,-123.5 170,-123.5 170,-93.5 0,-93.5"/>
<text text-anchor="start" x="8" y="-111.5" font-family="Helvetica,sans-Serif" font-size="10.00" fill="#000000">JSPMakespanMinimizationSolution</text>
<text text-anchor="middle" x="85" y="-100.5" font-family="Helvetica,sans-Serif" font-size="10.00" fill="#000000">::GetTail</text>
</a>
</g>
</g>
<!-- Node74 -->
<g id="node2" class="node">
<title>Node74</title>
<g id="a_node2"><a xlink:href="classJSPMakespanMinimizationSolution.html#a7675bd800df0dcafd2579563b0745ce8" target="_top" xlink:title="Updates the head and tail of all the tasks that have been affected by modifications since the last ca...">
<polygon fill="none" stroke="#000000" points="206,-93.5 206,-123.5 376,-123.5 376,-93.5 206,-93.5"/>
<text text-anchor="start" x="214" y="-111.5" font-family="Helvetica,sans-Serif" font-size="10.00" fill="#000000">JSPMakespanMinimizationSolution</text>
<text text-anchor="middle" x="291" y="-100.5" font-family="Helvetica,sans-Serif" font-size="10.00" fill="#000000">::UpdateHeadsAndTails</text>
</a>
</g>
</g>
<!-- Node73&#45;&gt;Node74 -->
<g id="edge1" class="edge">
<title>Node73&#45;&gt;Node74</title>
<path fill="none" stroke="#191970" d="M170.2751,-108.5C178.6164,-108.5 187.1176,-108.5 195.551,-108.5"/>
<polygon fill="#191970" stroke="#191970" points="195.7889,-112.0001 205.7889,-108.5 195.7888,-105.0001 195.7889,-112.0001"/>
</g>
<!-- Node75 -->
<g id="node3" class="node">
<title>Node75</title>
<g id="a_node3"><a xlink:href="classJSPMakespanMinimizationSolution.html#a4b5965dd69809fb79768a5f4c462920b" target="_top" xlink:title="Inserts in a container all the tasks in topological order.">
<polygon fill="none" stroke="#000000" points="412,-181.5 412,-211.5 582,-211.5 582,-181.5 412,-181.5"/>
<text text-anchor="start" x="420" y="-199.5" font-family="Helvetica,sans-Serif" font-size="10.00" fill="#000000">JSPMakespanMinimizationSolution</text>
<text text-anchor="middle" x="497" y="-188.5" font-family="Helvetica,sans-Serif" font-size="10.00" fill="#000000">::GetTasksTopologicalOrder</text>
</a>
</g>
</g>
<!-- Node74&#45;&gt;Node75 -->
<g id="edge2" class="edge">
<title>Node74&#45;&gt;Node75</title>
<path fill="none" stroke="#191970" d="M320.4313,-123.7063C344.6872,-135.9706 380.1527,-153.2921 412,-166.5 421.5303,-170.4525 431.7895,-174.3589 441.77,-177.9808"/>
<polygon fill="#191970" stroke="#191970" points="440.626,-181.2888 451.2206,-181.3585 442.9819,-174.6971 440.626,-181.2888"/>
</g>
<!-- Node76 -->
<g id="node4" class="node">
<title>Node76</title>
<g id="a_node4"><a xlink:href="classJSPMakespanMinimizationSolution.html#a07f32775230bfb3a2ccd4f44f7bffb6a" target="_top" xlink:title="Returns a pair with the tasks that are scheduled after the specified task. The first component is the...">
<polygon fill="none" stroke="#000000" points="618,-164.5 618,-194.5 788,-194.5 788,-164.5 618,-164.5"/>
<text text-anchor="start" x="626" y="-182.5" font-family="Helvetica,sans-Serif" font-size="10.00" fill="#000000">JSPMakespanMinimizationSolution</text>
<text text-anchor="middle" x="703" y="-171.5" font-family="Helvetica,sans-Serif" font-size="10.00" fill="#000000">::GetNextTasks</text>
</a>
</g>
</g>
<!-- Node74&#45;&gt;Node76 -->
<g id="edge9" class="edge">
<title>Node74&#45;&gt;Node76</title>
<path fill="none" stroke="#191970" d="M360.9532,-123.5354C377.6503,-126.9628 395.4341,-130.481 412,-133.5 477.1516,-145.3732 550.8378,-157.003 607.7599,-165.5985"/>
<polygon fill="#191970" stroke="#191970" points="607.4166,-169.0862 617.8262,-167.1134 608.4584,-162.1642 607.4166,-169.0862"/>
</g>
<!-- Node77 -->
<g id="node5" class="node">
<title>Node77</title>
<g id="a_node5"><a xlink:href="classJSPMakespanMinimizationSolution.html#acb6b836e6ccea549562ec0e2ae0e2d7b" target="_top" xlink:title="Returns a pair with the tasks that are scheduled before the specified task. The first component is th...">
<polygon fill="none" stroke="#000000" points="412,-93.5 412,-123.5 582,-123.5 582,-93.5 412,-93.5"/>
<text text-anchor="start" x="420" y="-111.5" font-family="Helvetica,sans-Serif" font-size="10.00" fill="#000000">JSPMakespanMinimizationSolution</text>
<text text-anchor="middle" x="497" y="-100.5" font-family="Helvetica,sans-Serif" font-size="10.00" fill="#000000">::GetPrevTasks</text>
</a>
</g>
</g>
<!-- Node74&#45;&gt;Node77 -->
<g id="edge4" class="edge">
<title>Node74&#45;&gt;Node77</title>
<path fill="none" stroke="#191970" d="M376.2751,-108.5C384.6164,-108.5 393.1176,-108.5 401.551,-108.5"/>
<polygon fill="#191970" stroke="#191970" points="401.7889,-112.0001 411.7889,-108.5 401.7888,-105.0001 401.7889,-112.0001"/>
</g>
<!-- Node78 -->
<g id="node6" class="node">
<title>Node78</title>
<g id="a_node6"><a xlink:href="namespacestd.html#aabf08e25820a0127a265bb20575664b9" target="_top" xlink:title=" ">
<polygon fill="none" stroke="#000000" points="469.5,-55 469.5,-74 524.5,-74 524.5,-55 469.5,-55"/>
<text text-anchor="middle" x="497" y="-62" font-family="Helvetica,sans-Serif" font-size="10.00" fill="#000000">std::max</text>
</a>
</g>
</g>
<!-- Node74&#45;&gt;Node78 -->
<g id="edge5" class="edge">
<title>Node74&#45;&gt;Node78</title>
<path fill="none" stroke="#191970" d="M361.3174,-93.4808C394.1834,-86.4608 432.0023,-78.383 459.35,-72.5417"/>
<polygon fill="#191970" stroke="#191970" points="460.2382,-75.9311 469.2865,-70.4194 458.7759,-69.0855 460.2382,-75.9311"/>
</g>
<!-- Node82 -->
<g id="node10" class="node">
<title>Node82</title>
<g id="a_node10"><a xlink:href="classJSPMakespanMinimizationSolution.html#a6a196bbd5a7a0a1bbeb6ab46721a5027" target="_top" xlink:title="Returns the problem that the solution solves.">
<polygon fill="none" stroke="#000000" points="412,-5.5 412,-35.5 582,-35.5 582,-5.5 412,-5.5"/>
<text text-anchor="start" x="420" y="-23.5" font-family="Helvetica,sans-Serif" font-size="10.00" fill="#000000">JSPMakespanMinimizationSolution</text>
<text text-anchor="middle" x="497" y="-12.5" font-family="Helvetica,sans-Serif" font-size="10.00" fill="#000000">::GetProblem</text>
</a>
</g>
</g>
<!-- Node74&#45;&gt;Node82 -->
<g id="edge10" class="edge">
<title>Node74&#45;&gt;Node82</title>
<path fill="none" stroke="#191970" d="M316.2779,-93.4922C340.2953,-79.6823 377.7308,-59.3087 412,-45.5 417.8986,-43.1232 424.109,-40.862 430.3765,-38.7411"/>
<polygon fill="#191970" stroke="#191970" points="431.813,-41.9542 440.236,-35.5273 429.6436,-35.2988 431.813,-41.9542"/>
</g>
<!-- Node75&#45;&gt;Node76 -->
<g id="edge3" class="edge">
<title>Node75&#45;&gt;Node76</title>
<path fill="none" stroke="#191970" d="M582.2751,-189.4627C590.6164,-188.7744 599.1176,-188.0728 607.551,-187.3769"/>
<polygon fill="#191970" stroke="#191970" points="608.1106,-190.8427 617.7889,-186.532 607.5349,-183.8664 608.1106,-190.8427"/>
</g>
<!-- Node79 -->
<g id="node7" class="node">
<title>Node79</title>
<g id="a_node7"><a xlink:href="classTriangularFuzzyNumber.html#afe61a993d8d969f858845dbb6b5eb7a0" target="_top" xlink:title="Returns the smallest possible value.">
<polygon fill="none" stroke="#000000" points="643,-98.5 643,-128.5 763,-128.5 763,-98.5 643,-98.5"/>
<text text-anchor="start" x="651" y="-116.5" font-family="Helvetica,sans-Serif" font-size="10.00" fill="#000000">TriangularFuzzyNumber</text>
<text text-anchor="middle" x="703" y="-105.5" font-family="Helvetica,sans-Serif" font-size="10.00" fill="#000000">::GetSmallest</text>
</a>
</g>
</g>
<!-- Node78&#45;&gt;Node79 -->
<g id="edge6" class="edge">
<title>Node78&#45;&gt;Node79</title>
<path fill="none" stroke="#191970" d="M524.5689,-70.9563C541.2057,-74.8601 562.8254,-79.9464 582,-84.5 598.3607,-88.3853 615.9595,-92.5892 632.5308,-96.5587"/>
<polygon fill="#191970" stroke="#191970" points="632.1554,-100.0677 642.6958,-98.995 633.787,-93.2605 632.1554,-100.0677"/>
</g>
<!-- Node80 -->
<g id="node8" class="node">
<title>Node80</title>
<g id="a_node8"><a xlink:href="classTriangularFuzzyNumber.html#ac79e432898eb12448e54d085295a09f9" target="_top" xlink:title="Returns the most probable value.">
<polygon fill="none" stroke="#000000" points="643,-49.5 643,-79.5 763,-79.5 763,-49.5 643,-49.5"/>
<text text-anchor="start" x="651" y="-67.5" font-family="Helvetica,sans-Serif" font-size="10.00" fill="#000000">TriangularFuzzyNumber</text>
<text text-anchor="middle" x="703" y="-56.5" font-family="Helvetica,sans-Serif" font-size="10.00" fill="#000000">::GetMostProbable</text>
</a>
</g>
</g>
<!-- Node78&#45;&gt;Node80 -->
<g id="edge7" class="edge">
<title>Node78&#45;&gt;Node80</title>
<path fill="none" stroke="#191970" d="M524.7821,-64.5C552.2875,-64.5 595.5281,-64.5 632.5281,-64.5"/>
<polygon fill="#191970" stroke="#191970" points="632.7802,-68.0001 642.7802,-64.5 632.7801,-61.0001 632.7802,-68.0001"/>
</g>
<!-- Node81 -->
<g id="node9" class="node">
<title>Node81</title>
<g id="a_node9"><a xlink:href="classTriangularFuzzyNumber.html#a0133fef04fbb1a8e571d117c01c6af71" target="_top" xlink:title="Returns the largest possible value.">
<polygon fill="none" stroke="#000000" points="643,-.5 643,-30.5 763,-30.5 763,-.5 643,-.5"/>
<text text-anchor="start" x="651" y="-18.5" font-family="Helvetica,sans-Serif" font-size="10.00" fill="#000000">TriangularFuzzyNumber</text>
<text text-anchor="middle" x="703" y="-7.5" font-family="Helvetica,sans-Serif" font-size="10.00" fill="#000000">::GetLargest</text>
</a>
</g>
</g>
<!-- Node78&#45;&gt;Node81 -->
<g id="edge8" class="edge">
<title>Node78&#45;&gt;Node81</title>
<path fill="none" stroke="#191970" d="M524.599,-58.5C541.2465,-54.8388 562.8668,-50.0097 582,-45.5 598.7292,-41.557 616.7231,-37.1733 633.5873,-33.0019"/>
<polygon fill="#191970" stroke="#191970" points="634.5051,-36.3804 643.368,-30.5753 632.8195,-29.5864 634.5051,-36.3804"/>
</g>
</g>
</svg>
