<?xml version="1.0" encoding="UTF-8" standalone="no"?>
<!DOCTYPE svg PUBLIC "-//W3C//DTD SVG 1.1//EN"
 "http://www.w3.org/Graphics/SVG/1.1/DTD/svg11.dtd">
<!-- Generated by graphviz version 2.40.1 (20161225.0304)
 -->
<!-- Title: MemeticAlgorithm::FindSolution Pages: 1 -->
<svg width="340pt" height="137pt"
 viewBox="0.00 0.00 340.00 137.00" xmlns="http://www.w3.org/2000/svg" xmlns:xlink="http://www.w3.org/1999/xlink">
<g id="graph0" class="graph" transform="scale(1 1) rotate(0) translate(4 133)">
<title>MemeticAlgorithm::FindSolution</title>
<!-- Node0 -->
<g id="node1" class="node">
<title>Node0</title>
<g id="a_node1"><a xlink:title="Finds a solution to a problem using a memetic algorithm metaheuristic.">
<polygon fill="#bfbfbf" stroke="#000000" points="0,-55 0,-74 155,-74 155,-55 0,-55"/>
<text text-anchor="middle" x="77.5" y="-62" font-family="Helvetica,sans-Serif" font-size="10.00" fill="#000000">MemeticAlgorithm::FindSolution</text>
</a>
</g>
</g>
<!-- Node1 -->
<g id="node2" class="node">
<title>Node1</title>
<g id="a_node2"><a xlink:href="classEvolutionaryAlgorithmLogger.html#ae822a61759d79afe34fee23f481e54c7" target="_top" xlink:title="Adds a log.">
<polygon fill="none" stroke="#000000" points="191,-98.5 191,-128.5 332,-128.5 332,-98.5 191,-98.5"/>
<text text-anchor="start" x="199" y="-116.5" font-family="Helvetica,sans-Serif" font-size="10.00" fill="#000000">EvolutionaryAlgorithmLogger</text>
<text text-anchor="middle" x="261.5" y="-105.5" font-family="Helvetica,sans-Serif" font-size="10.00" fill="#000000">::AddLog</text>
</a>
</g>
</g>
<!-- Node0&#45;&gt;Node1 -->
<g id="edge1" class="edge">
<title>Node0&#45;&gt;Node1</title>
<path fill="none" stroke="#191970" d="M113.4139,-74.064C136.6071,-80.2405 167.4907,-88.4649 195.0514,-95.8045"/>
<polygon fill="#191970" stroke="#191970" points="194.4707,-99.2717 205.0347,-98.463 196.2721,-92.5075 194.4707,-99.2717"/>
</g>
<!-- Node2 -->
<g id="node3" class="node">
<title>Node2</title>
<g id="a_node3"><a xlink:href="classLocalSearchLogger.html#a00cf6f5c674a5f72c5bf01c4662a283d" target="_top" xlink:title="Adds a log.">
<polygon fill="none" stroke="#000000" points="208.5,-49.5 208.5,-79.5 314.5,-79.5 314.5,-49.5 208.5,-49.5"/>
<text text-anchor="start" x="216.5" y="-67.5" font-family="Helvetica,sans-Serif" font-size="10.00" fill="#000000">LocalSearchLogger::</text>
<text text-anchor="middle" x="261.5" y="-56.5" font-family="Helvetica,sans-Serif" font-size="10.00" fill="#000000">AddLog</text>
</a>
</g>
</g>
<!-- Node0&#45;&gt;Node2 -->
<g id="edge2" class="edge">
<title>Node0&#45;&gt;Node2</title>
<path fill="none" stroke="#191970" d="M155.2659,-64.5C169.4908,-64.5 184.1809,-64.5 197.9314,-64.5"/>
<polygon fill="#191970" stroke="#191970" points="198.24,-68.0001 208.24,-64.5 198.24,-61.0001 198.24,-68.0001"/>
</g>
<!-- Node3 -->
<g id="node4" class="node">
<title>Node3</title>
<g id="a_node4"><a xlink:href="classEvolutionaryAlgorithmLogger.html#ad95f3ff09d1a88ce9e21ca0ccc2b2baf" target="_top" xlink:title="Sets the best solution found by the algorithm.">
<polygon fill="none" stroke="#000000" points="191,-.5 191,-30.5 332,-30.5 332,-.5 191,-.5"/>
<text text-anchor="start" x="199" y="-18.5" font-family="Helvetica,sans-Serif" font-size="10.00" fill="#000000">EvolutionaryAlgorithmLogger</text>
<text text-anchor="middle" x="261.5" y="-7.5" font-family="Helvetica,sans-Serif" font-size="10.00" fill="#000000">::SetBestSolution</text>
</a>
</g>
</g>
<!-- Node0&#45;&gt;Node3 -->
<g id="edge3" class="edge">
<title>Node0&#45;&gt;Node3</title>
<path fill="none" stroke="#191970" d="M113.4139,-54.936C136.6071,-48.7595 167.4907,-40.5351 195.0514,-33.1955"/>
<polygon fill="#191970" stroke="#191970" points="196.2721,-36.4925 205.0347,-30.537 194.4707,-29.7283 196.2721,-36.4925"/>
</g>
</g>
</svg>
