<?xml version="1.0" encoding="UTF-8" standalone="no"?>
<!DOCTYPE svg PUBLIC "-//W3C//DTD SVG 1.1//EN"
 "http://www.w3.org/Graphics/SVG/1.1/DTD/svg11.dtd">
<!-- Generated by graphviz version 2.40.1 (20161225.0304)
 -->
<!-- Title: PermutationWithRepetition::EvaluateSolutionTotalWeightedTardiness Pages: 1 -->
<svg width="492pt" height="137pt"
 viewBox="0.00 0.00 492.00 137.00" xmlns="http://www.w3.org/2000/svg" xmlns:xlink="http://www.w3.org/1999/xlink">
<g id="graph0" class="graph" transform="scale(1 1) rotate(0) translate(4 133)">
<title>PermutationWithRepetition::EvaluateSolutionTotalWeightedTardiness</title>
<!-- Node11 -->
<g id="node1" class="node">
<title>Node11</title>
<g id="a_node1"><a xlink:title="Returns the total weighted tardiness of an encoded solution and updates the chromosome accordingly.">
<polygon fill="#bfbfbf" stroke="#000000" points="0,-66 0,-107 158,-107 158,-66 0,-66"/>
<text text-anchor="start" x="8" y="-95" font-family="Helvetica,sans-Serif" font-size="10.00" fill="#000000">PermutationWithRepetition</text>
<text text-anchor="start" x="8" y="-84" font-family="Helvetica,sans-Serif" font-size="10.00" fill="#000000">::EvaluateSolutionTotalWeighted</text>
<text text-anchor="middle" x="79" y="-73" font-family="Helvetica,sans-Serif" font-size="10.00" fill="#000000">Tardiness</text>
</a>
</g>
</g>
<!-- Node12 -->
<g id="node2" class="node">
<title>Node12</title>
<g id="a_node2"><a xlink:href="classPermutationWithRepetition.html#a01946e3ec6be5a4c8fadac70d6fe5b0a" target="_top" xlink:title="Inserts in a container the tasks and its priorities according to the genes in the encoded solution.">
<polygon fill="none" stroke="#000000" points="194,-93.5 194,-123.5 328,-123.5 328,-93.5 194,-93.5"/>
<text text-anchor="start" x="202" y="-111.5" font-family="Helvetica,sans-Serif" font-size="10.00" fill="#000000">PermutationWithRepetition</text>
<text text-anchor="middle" x="261" y="-100.5" font-family="Helvetica,sans-Serif" font-size="10.00" fill="#000000">::CalculatePriorities</text>
</a>
</g>
</g>
<!-- Node11&#45;&gt;Node12 -->
<g id="edge1" class="edge">
<title>Node11&#45;&gt;Node12</title>
<path fill="none" stroke="#191970" d="M158.0338,-96.0535C166.4907,-97.0758 175.088,-98.115 183.5265,-99.1351"/>
<polygon fill="#191970" stroke="#191970" points="183.373,-102.6419 193.7208,-100.3673 184.2131,-95.6925 183.373,-102.6419"/>
</g>
<!-- Node13 -->
<g id="node3" class="node">
<title>Node13</title>
<g id="a_node3"><a xlink:href="namespacestd.html#aabf08e25820a0127a265bb20575664b9" target="_top" xlink:title=" ">
<polygon fill="none" stroke="#000000" points="233.5,-55 233.5,-74 288.5,-74 288.5,-55 233.5,-55"/>
<text text-anchor="middle" x="261" y="-62" font-family="Helvetica,sans-Serif" font-size="10.00" fill="#000000">std::max</text>
</a>
</g>
</g>
<!-- Node11&#45;&gt;Node13 -->
<g id="edge2" class="edge">
<title>Node11&#45;&gt;Node13</title>
<path fill="none" stroke="#191970" d="M158.0338,-76.9465C180.6975,-74.2069 204.3689,-71.3455 223.2926,-69.058"/>
<polygon fill="#191970" stroke="#191970" points="223.7731,-72.5255 233.2808,-67.8507 222.933,-65.5761 223.7731,-72.5255"/>
</g>
<!-- Node14 -->
<g id="node4" class="node">
<title>Node14</title>
<g id="a_node4"><a xlink:href="classTriangularFuzzyNumber.html#afe61a993d8d969f858845dbb6b5eb7a0" target="_top" xlink:title="Returns the smallest possible value.">
<polygon fill="none" stroke="#000000" points="364,-98.5 364,-128.5 484,-128.5 484,-98.5 364,-98.5"/>
<text text-anchor="start" x="372" y="-116.5" font-family="Helvetica,sans-Serif" font-size="10.00" fill="#000000">TriangularFuzzyNumber</text>
<text text-anchor="middle" x="424" y="-105.5" font-family="Helvetica,sans-Serif" font-size="10.00" fill="#000000">::GetSmallest</text>
</a>
</g>
</g>
<!-- Node13&#45;&gt;Node14 -->
<g id="edge3" class="edge">
<title>Node13&#45;&gt;Node14</title>
<path fill="none" stroke="#191970" d="M288.7141,-72.7507C300.7847,-76.3499 315.0949,-80.6247 328,-84.5 339.7245,-88.0208 352.2506,-91.7953 364.2533,-95.4184"/>
<polygon fill="#191970" stroke="#191970" points="363.5986,-98.8768 374.1835,-98.4174 365.6225,-92.1757 363.5986,-98.8768"/>
</g>
<!-- Node15 -->
<g id="node5" class="node">
<title>Node15</title>
<g id="a_node5"><a xlink:href="classTriangularFuzzyNumber.html#ac79e432898eb12448e54d085295a09f9" target="_top" xlink:title="Returns the most probable value.">
<polygon fill="none" stroke="#000000" points="364,-49.5 364,-79.5 484,-79.5 484,-49.5 364,-49.5"/>
<text text-anchor="start" x="372" y="-67.5" font-family="Helvetica,sans-Serif" font-size="10.00" fill="#000000">TriangularFuzzyNumber</text>
<text text-anchor="middle" x="424" y="-56.5" font-family="Helvetica,sans-Serif" font-size="10.00" fill="#000000">::GetMostProbable</text>
</a>
</g>
</g>
<!-- Node13&#45;&gt;Node15 -->
<g id="edge4" class="edge">
<title>Node13&#45;&gt;Node15</title>
<path fill="none" stroke="#191970" d="M288.6507,-64.5C306.532,-64.5 330.6731,-64.5 353.6165,-64.5"/>
<polygon fill="#191970" stroke="#191970" points="353.6993,-68.0001 363.6992,-64.5 353.6992,-61.0001 353.6993,-68.0001"/>
</g>
<!-- Node16 -->
<g id="node6" class="node">
<title>Node16</title>
<g id="a_node6"><a xlink:href="classTriangularFuzzyNumber.html#a0133fef04fbb1a8e571d117c01c6af71" target="_top" xlink:title="Returns the largest possible value.">
<polygon fill="none" stroke="#000000" points="364,-.5 364,-30.5 484,-30.5 484,-.5 364,-.5"/>
<text text-anchor="start" x="372" y="-18.5" font-family="Helvetica,sans-Serif" font-size="10.00" fill="#000000">TriangularFuzzyNumber</text>
<text text-anchor="middle" x="424" y="-7.5" font-family="Helvetica,sans-Serif" font-size="10.00" fill="#000000">::GetLargest</text>
</a>
</g>
</g>
<!-- Node13&#45;&gt;Node16 -->
<g id="edge5" class="edge">
<title>Node13&#45;&gt;Node16</title>
<path fill="none" stroke="#191970" d="M288.6507,-56.1878C309.3495,-49.9655 338.4362,-41.2216 364.3433,-33.4336"/>
<polygon fill="#191970" stroke="#191970" points="365.5237,-36.7336 374.0927,-30.5028 363.5085,-30.0299 365.5237,-36.7336"/>
</g>
</g>
</svg>
