<?xml version="1.0" encoding="UTF-8" standalone="no"?>
<!DOCTYPE svg PUBLIC "-//W3C//DTD SVG 1.1//EN"
 "http://www.w3.org/Graphics/SVG/1.1/DTD/svg11.dtd">
<!-- Generated by graphviz version 2.40.1 (20161225.0304)
 -->
<!-- Title: GT::EvaluateSolution Pages: 1 -->
<svg width="363pt" height="137pt"
 viewBox="0.00 0.00 363.00 137.00" xmlns="http://www.w3.org/2000/svg" xmlns:xlink="http://www.w3.org/1999/xlink">
<g id="graph0" class="graph" transform="scale(1 1) rotate(0) translate(4 133)">
<title>GT::EvaluateSolution</title>
<!-- Node0 -->
<g id="node1" class="node">
<title>Node0</title>
<g id="a_node1"><a xlink:title="Inserts in a container the earliest starting times of the tasks according to the specified priorities...">
<polygon fill="#bfbfbf" stroke="#000000" points="0,-55 0,-74 108,-74 108,-55 0,-55"/>
<text text-anchor="middle" x="54" y="-62" font-family="Helvetica,sans-Serif" font-size="10.00" fill="#000000">GT::EvaluateSolution</text>
</a>
</g>
</g>
<!-- Node1 -->
<g id="node2" class="node">
<title>Node1</title>
<g id="a_node2"><a xlink:href="namespacestd.html#aabf08e25820a0127a265bb20575664b9" target="_top" xlink:title=" ">
<polygon fill="none" stroke="#000000" points="144,-55 144,-74 199,-74 199,-55 144,-55"/>
<text text-anchor="middle" x="171.5" y="-62" font-family="Helvetica,sans-Serif" font-size="10.00" fill="#000000">std::max</text>
</a>
</g>
</g>
<!-- Node0&#45;&gt;Node1 -->
<g id="edge1" class="edge">
<title>Node0&#45;&gt;Node1</title>
<path fill="none" stroke="#191970" d="M108.2787,-64.5C116.808,-64.5 125.4636,-64.5 133.521,-64.5"/>
<polygon fill="#191970" stroke="#191970" points="133.7077,-68.0001 143.7076,-64.5 133.7076,-61.0001 133.7077,-68.0001"/>
</g>
<!-- Node2 -->
<g id="node3" class="node">
<title>Node2</title>
<g id="a_node3"><a xlink:href="classTriangularFuzzyNumber.html#afe61a993d8d969f858845dbb6b5eb7a0" target="_top" xlink:title="Returns the smallest possible value.">
<polygon fill="none" stroke="#000000" points="235,-98.5 235,-128.5 355,-128.5 355,-98.5 235,-98.5"/>
<text text-anchor="start" x="243" y="-116.5" font-family="Helvetica,sans-Serif" font-size="10.00" fill="#000000">TriangularFuzzyNumber</text>
<text text-anchor="middle" x="295" y="-105.5" font-family="Helvetica,sans-Serif" font-size="10.00" fill="#000000">::GetSmallest</text>
</a>
</g>
</g>
<!-- Node1&#45;&gt;Node2 -->
<g id="edge2" class="edge">
<title>Node1&#45;&gt;Node2</title>
<path fill="none" stroke="#191970" d="M195.6052,-74.064C210.2939,-79.8919 229.5781,-87.5431 247.2481,-94.5539"/>
<polygon fill="#191970" stroke="#191970" points="246.2733,-97.9325 256.8592,-98.3672 248.8549,-91.4259 246.2733,-97.9325"/>
</g>
<!-- Node3 -->
<g id="node4" class="node">
<title>Node3</title>
<g id="a_node4"><a xlink:href="classTriangularFuzzyNumber.html#ac79e432898eb12448e54d085295a09f9" target="_top" xlink:title="Returns the most probable value.">
<polygon fill="none" stroke="#000000" points="235,-49.5 235,-79.5 355,-79.5 355,-49.5 235,-49.5"/>
<text text-anchor="start" x="243" y="-67.5" font-family="Helvetica,sans-Serif" font-size="10.00" fill="#000000">TriangularFuzzyNumber</text>
<text text-anchor="middle" x="295" y="-56.5" font-family="Helvetica,sans-Serif" font-size="10.00" fill="#000000">::GetMostProbable</text>
</a>
</g>
</g>
<!-- Node1&#45;&gt;Node3 -->
<g id="edge3" class="edge">
<title>Node1&#45;&gt;Node3</title>
<path fill="none" stroke="#191970" d="M199.2158,-64.5C206.9148,-64.5 215.6403,-64.5 224.6139,-64.5"/>
<polygon fill="#191970" stroke="#191970" points="224.8095,-68.0001 234.8095,-64.5 224.8094,-61.0001 224.8095,-68.0001"/>
</g>
<!-- Node4 -->
<g id="node5" class="node">
<title>Node4</title>
<g id="a_node5"><a xlink:href="classTriangularFuzzyNumber.html#a0133fef04fbb1a8e571d117c01c6af71" target="_top" xlink:title="Returns the largest possible value.">
<polygon fill="none" stroke="#000000" points="235,-.5 235,-30.5 355,-30.5 355,-.5 235,-.5"/>
<text text-anchor="start" x="243" y="-18.5" font-family="Helvetica,sans-Serif" font-size="10.00" fill="#000000">TriangularFuzzyNumber</text>
<text text-anchor="middle" x="295" y="-7.5" font-family="Helvetica,sans-Serif" font-size="10.00" fill="#000000">::GetLargest</text>
</a>
</g>
</g>
<!-- Node1&#45;&gt;Node4 -->
<g id="edge4" class="edge">
<title>Node1&#45;&gt;Node4</title>
<path fill="none" stroke="#191970" d="M195.6052,-54.936C210.2939,-49.1081 229.5781,-41.4569 247.2481,-34.4461"/>
<polygon fill="#191970" stroke="#191970" points="248.8549,-37.5741 256.8592,-30.6328 246.2733,-31.0675 248.8549,-37.5741"/>
</g>
</g>
</svg>
