<?xml version="1.0" encoding="UTF-8" standalone="no"?>
<!DOCTYPE svg PUBLIC "-//W3C//DTD SVG 1.1//EN"
 "http://www.w3.org/Graphics/SVG/1.1/DTD/svg11.dtd">
<!-- Generated by graphviz version 2.40.1 (20161225.0304)
 -->
<!-- Title: JSPMakespanMinimizationSolution::GetCriticalTasks Pages: 1 -->
<svg width="1002pt" height="220pt"
 viewBox="0.00 0.00 1002.00 220.00" xmlns="http://www.w3.org/2000/svg" xmlns:xlink="http://www.w3.org/1999/xlink">
<g id="graph0" class="graph" transform="scale(1 1) rotate(0) translate(4 216)">
<title>JSPMakespanMinimizationSolution::GetCriticalTasks</title>
<!-- Node19 -->
<g id="node1" class="node">
<title>Node19</title>
<g id="a_node1"><a xlink:title="Inserts in a container the tasks that are critical in this schedule.">
<polygon fill="#bfbfbf" stroke="#000000" points="0,-68.5 0,-98.5 170,-98.5 170,-68.5 0,-68.5"/>
<text text-anchor="start" x="8" y="-86.5" font-family="Helvetica,sans-Serif" font-size="10.00" fill="#000000">JSPMakespanMinimizationSolution</text>
<text text-anchor="middle" x="85" y="-75.5" font-family="Helvetica,sans-Serif" font-size="10.00" fill="#000000">::GetCriticalTasks</text>
</a>
</g>
</g>
<!-- Node20 -->
<g id="node2" class="node">
<title>Node20</title>
<g id="a_node2"><a xlink:href="classJSPMakespanMinimizationSolution.html#a861537511167cc4c1b4a3578c0645cc9" target="_top" xlink:title="Returns the makespan.">
<polygon fill="none" stroke="#000000" points="206,-93.5 206,-123.5 376,-123.5 376,-93.5 206,-93.5"/>
<text text-anchor="start" x="214" y="-111.5" font-family="Helvetica,sans-Serif" font-size="10.00" fill="#000000">JSPMakespanMinimizationSolution</text>
<text text-anchor="middle" x="291" y="-100.5" font-family="Helvetica,sans-Serif" font-size="10.00" fill="#000000">::GetMakespan</text>
</a>
</g>
</g>
<!-- Node19&#45;&gt;Node20 -->
<g id="edge1" class="edge">
<title>Node19&#45;&gt;Node20</title>
<path fill="none" stroke="#191970" d="M170.2751,-93.8489C178.7081,-94.8723 187.3045,-95.9156 195.829,-96.9501"/>
<polygon fill="#191970" stroke="#191970" points="195.44,-100.4285 205.7889,-98.1588 196.2834,-93.4795 195.44,-100.4285"/>
</g>
<!-- Node30 -->
<g id="node12" class="node">
<title>Node30</title>
<g id="a_node12"><a xlink:href="classJSPMakespanMinimizationSolution.html#ad5c76dbbbc29d95f24c088fc4742eb5e" target="_top" xlink:title="Checks if two numbers are equal.">
<polygon fill="none" stroke="#000000" points="206,-44.5 206,-74.5 376,-74.5 376,-44.5 206,-44.5"/>
<text text-anchor="start" x="214" y="-62.5" font-family="Helvetica,sans-Serif" font-size="10.00" fill="#000000">JSPMakespanMinimizationSolution</text>
<text text-anchor="middle" x="291" y="-51.5" font-family="Helvetica,sans-Serif" font-size="10.00" fill="#000000">::EqualTime</text>
</a>
</g>
</g>
<!-- Node19&#45;&gt;Node30 -->
<g id="edge12" class="edge">
<title>Node19&#45;&gt;Node30</title>
<path fill="none" stroke="#191970" d="M170.2751,-73.565C178.7081,-72.5826 187.3045,-71.581 195.829,-70.5879"/>
<polygon fill="#191970" stroke="#191970" points="196.2611,-74.0613 205.7889,-69.4275 195.451,-67.1083 196.2611,-74.0613"/>
</g>
<!-- Node21 -->
<g id="node3" class="node">
<title>Node21</title>
<g id="a_node3"><a xlink:href="classJSPMakespanMinimizationSolution.html#a7675bd800df0dcafd2579563b0745ce8" target="_top" xlink:title="Updates the head and tail of all the tasks that have been affected by modifications since the last ca...">
<polygon fill="none" stroke="#000000" points="412,-93.5 412,-123.5 582,-123.5 582,-93.5 412,-93.5"/>
<text text-anchor="start" x="420" y="-111.5" font-family="Helvetica,sans-Serif" font-size="10.00" fill="#000000">JSPMakespanMinimizationSolution</text>
<text text-anchor="middle" x="497" y="-100.5" font-family="Helvetica,sans-Serif" font-size="10.00" fill="#000000">::UpdateHeadsAndTails</text>
</a>
</g>
</g>
<!-- Node20&#45;&gt;Node21 -->
<g id="edge2" class="edge">
<title>Node20&#45;&gt;Node21</title>
<path fill="none" stroke="#191970" d="M376.2751,-108.5C384.6164,-108.5 393.1176,-108.5 401.551,-108.5"/>
<polygon fill="#191970" stroke="#191970" points="401.7889,-112.0001 411.7889,-108.5 401.7888,-105.0001 401.7889,-112.0001"/>
</g>
<!-- Node22 -->
<g id="node4" class="node">
<title>Node22</title>
<g id="a_node4"><a xlink:href="classJSPMakespanMinimizationSolution.html#a4b5965dd69809fb79768a5f4c462920b" target="_top" xlink:title="Inserts in a container all the tasks in topological order.">
<polygon fill="none" stroke="#000000" points="618,-181.5 618,-211.5 788,-211.5 788,-181.5 618,-181.5"/>
<text text-anchor="start" x="626" y="-199.5" font-family="Helvetica,sans-Serif" font-size="10.00" fill="#000000">JSPMakespanMinimizationSolution</text>
<text text-anchor="middle" x="703" y="-188.5" font-family="Helvetica,sans-Serif" font-size="10.00" fill="#000000">::GetTasksTopologicalOrder</text>
</a>
</g>
</g>
<!-- Node21&#45;&gt;Node22 -->
<g id="edge3" class="edge">
<title>Node21&#45;&gt;Node22</title>
<path fill="none" stroke="#191970" d="M526.4313,-123.7063C550.6872,-135.9706 586.1527,-153.2921 618,-166.5 627.5303,-170.4525 637.7895,-174.3589 647.77,-177.9808"/>
<polygon fill="#191970" stroke="#191970" points="646.626,-181.2888 657.2206,-181.3585 648.9819,-174.6971 646.626,-181.2888"/>
</g>
<!-- Node23 -->
<g id="node5" class="node">
<title>Node23</title>
<g id="a_node5"><a xlink:href="classJSPMakespanMinimizationSolution.html#a07f32775230bfb3a2ccd4f44f7bffb6a" target="_top" xlink:title="Returns a pair with the tasks that are scheduled after the specified task. The first component is the...">
<polygon fill="none" stroke="#000000" points="824,-164.5 824,-194.5 994,-194.5 994,-164.5 824,-164.5"/>
<text text-anchor="start" x="832" y="-182.5" font-family="Helvetica,sans-Serif" font-size="10.00" fill="#000000">JSPMakespanMinimizationSolution</text>
<text text-anchor="middle" x="909" y="-171.5" font-family="Helvetica,sans-Serif" font-size="10.00" fill="#000000">::GetNextTasks</text>
</a>
</g>
</g>
<!-- Node21&#45;&gt;Node23 -->
<g id="edge10" class="edge">
<title>Node21&#45;&gt;Node23</title>
<path fill="none" stroke="#191970" d="M566.9532,-123.5354C583.6503,-126.9628 601.4341,-130.481 618,-133.5 683.1516,-145.3732 756.8378,-157.003 813.7599,-165.5985"/>
<polygon fill="#191970" stroke="#191970" points="813.4166,-169.0862 823.8262,-167.1134 814.4584,-162.1642 813.4166,-169.0862"/>
</g>
<!-- Node24 -->
<g id="node6" class="node">
<title>Node24</title>
<g id="a_node6"><a xlink:href="classJSPMakespanMinimizationSolution.html#acb6b836e6ccea549562ec0e2ae0e2d7b" target="_top" xlink:title="Returns a pair with the tasks that are scheduled before the specified task. The first component is th...">
<polygon fill="none" stroke="#000000" points="618,-93.5 618,-123.5 788,-123.5 788,-93.5 618,-93.5"/>
<text text-anchor="start" x="626" y="-111.5" font-family="Helvetica,sans-Serif" font-size="10.00" fill="#000000">JSPMakespanMinimizationSolution</text>
<text text-anchor="middle" x="703" y="-100.5" font-family="Helvetica,sans-Serif" font-size="10.00" fill="#000000">::GetPrevTasks</text>
</a>
</g>
</g>
<!-- Node21&#45;&gt;Node24 -->
<g id="edge5" class="edge">
<title>Node21&#45;&gt;Node24</title>
<path fill="none" stroke="#191970" d="M582.2751,-108.5C590.6164,-108.5 599.1176,-108.5 607.551,-108.5"/>
<polygon fill="#191970" stroke="#191970" points="607.7889,-112.0001 617.7889,-108.5 607.7888,-105.0001 607.7889,-112.0001"/>
</g>
<!-- Node25 -->
<g id="node7" class="node">
<title>Node25</title>
<g id="a_node7"><a xlink:href="namespacestd.html#aabf08e25820a0127a265bb20575664b9" target="_top" xlink:title=" ">
<polygon fill="none" stroke="#000000" points="675.5,-55 675.5,-74 730.5,-74 730.5,-55 675.5,-55"/>
<text text-anchor="middle" x="703" y="-62" font-family="Helvetica,sans-Serif" font-size="10.00" fill="#000000">std::max</text>
</a>
</g>
</g>
<!-- Node21&#45;&gt;Node25 -->
<g id="edge6" class="edge">
<title>Node21&#45;&gt;Node25</title>
<path fill="none" stroke="#191970" d="M567.3174,-93.4808C600.1834,-86.4608 638.0023,-78.383 665.35,-72.5417"/>
<polygon fill="#191970" stroke="#191970" points="666.2382,-75.9311 675.2865,-70.4194 664.7759,-69.0855 666.2382,-75.9311"/>
</g>
<!-- Node29 -->
<g id="node11" class="node">
<title>Node29</title>
<g id="a_node11"><a xlink:href="classJSPMakespanMinimizationSolution.html#a6a196bbd5a7a0a1bbeb6ab46721a5027" target="_top" xlink:title="Returns the problem that the solution solves.">
<polygon fill="none" stroke="#000000" points="618,-5.5 618,-35.5 788,-35.5 788,-5.5 618,-5.5"/>
<text text-anchor="start" x="626" y="-23.5" font-family="Helvetica,sans-Serif" font-size="10.00" fill="#000000">JSPMakespanMinimizationSolution</text>
<text text-anchor="middle" x="703" y="-12.5" font-family="Helvetica,sans-Serif" font-size="10.00" fill="#000000">::GetProblem</text>
</a>
</g>
</g>
<!-- Node21&#45;&gt;Node29 -->
<g id="edge11" class="edge">
<title>Node21&#45;&gt;Node29</title>
<path fill="none" stroke="#191970" d="M522.2779,-93.4922C546.2953,-79.6823 583.7308,-59.3087 618,-45.5 623.8986,-43.1232 630.109,-40.862 636.3765,-38.7411"/>
<polygon fill="#191970" stroke="#191970" points="637.813,-41.9542 646.236,-35.5273 635.6436,-35.2988 637.813,-41.9542"/>
</g>
<!-- Node22&#45;&gt;Node23 -->
<g id="edge4" class="edge">
<title>Node22&#45;&gt;Node23</title>
<path fill="none" stroke="#191970" d="M788.2751,-189.4627C796.6164,-188.7744 805.1176,-188.0728 813.551,-187.3769"/>
<polygon fill="#191970" stroke="#191970" points="814.1106,-190.8427 823.7889,-186.532 813.5349,-183.8664 814.1106,-190.8427"/>
</g>
<!-- Node26 -->
<g id="node8" class="node">
<title>Node26</title>
<g id="a_node8"><a xlink:href="classTriangularFuzzyNumber.html#afe61a993d8d969f858845dbb6b5eb7a0" target="_top" xlink:title="Returns the smallest possible value.">
<polygon fill="none" stroke="#000000" points="849,-98.5 849,-128.5 969,-128.5 969,-98.5 849,-98.5"/>
<text text-anchor="start" x="857" y="-116.5" font-family="Helvetica,sans-Serif" font-size="10.00" fill="#000000">TriangularFuzzyNumber</text>
<text text-anchor="middle" x="909" y="-105.5" font-family="Helvetica,sans-Serif" font-size="10.00" fill="#000000">::GetSmallest</text>
</a>
</g>
</g>
<!-- Node25&#45;&gt;Node26 -->
<g id="edge7" class="edge">
<title>Node25&#45;&gt;Node26</title>
<path fill="none" stroke="#191970" d="M730.5689,-70.9563C747.2057,-74.8601 768.8254,-79.9464 788,-84.5 804.3607,-88.3853 821.9595,-92.5892 838.5308,-96.5587"/>
<polygon fill="#191970" stroke="#191970" points="838.1554,-100.0677 848.6958,-98.995 839.787,-93.2605 838.1554,-100.0677"/>
</g>
<!-- Node27 -->
<g id="node9" class="node">
<title>Node27</title>
<g id="a_node9"><a xlink:href="classTriangularFuzzyNumber.html#ac79e432898eb12448e54d085295a09f9" target="_top" xlink:title="Returns the most probable value.">
<polygon fill="none" stroke="#000000" points="849,-49.5 849,-79.5 969,-79.5 969,-49.5 849,-49.5"/>
<text text-anchor="start" x="857" y="-67.5" font-family="Helvetica,sans-Serif" font-size="10.00" fill="#000000">TriangularFuzzyNumber</text>
<text text-anchor="middle" x="909" y="-56.5" font-family="Helvetica,sans-Serif" font-size="10.00" fill="#000000">::GetMostProbable</text>
</a>
</g>
</g>
<!-- Node25&#45;&gt;Node27 -->
<g id="edge8" class="edge">
<title>Node25&#45;&gt;Node27</title>
<path fill="none" stroke="#191970" d="M730.7821,-64.5C758.2875,-64.5 801.5281,-64.5 838.5281,-64.5"/>
<polygon fill="#191970" stroke="#191970" points="838.7802,-68.0001 848.7802,-64.5 838.7801,-61.0001 838.7802,-68.0001"/>
</g>
<!-- Node28 -->
<g id="node10" class="node">
<title>Node28</title>
<g id="a_node10"><a xlink:href="classTriangularFuzzyNumber.html#a0133fef04fbb1a8e571d117c01c6af71" target="_top" xlink:title="Returns the largest possible value.">
<polygon fill="none" stroke="#000000" points="849,-.5 849,-30.5 969,-30.5 969,-.5 849,-.5"/>
<text text-anchor="start" x="857" y="-18.5" font-family="Helvetica,sans-Serif" font-size="10.00" fill="#000000">TriangularFuzzyNumber</text>
<text text-anchor="middle" x="909" y="-7.5" font-family="Helvetica,sans-Serif" font-size="10.00" fill="#000000">::GetLargest</text>
</a>
</g>
</g>
<!-- Node25&#45;&gt;Node28 -->
<g id="edge9" class="edge">
<title>Node25&#45;&gt;Node28</title>
<path fill="none" stroke="#191970" d="M730.599,-58.5C747.2465,-54.8388 768.8668,-50.0097 788,-45.5 804.7292,-41.557 822.7231,-37.1733 839.5873,-33.0019"/>
<polygon fill="#191970" stroke="#191970" points="840.5051,-36.3804 849.368,-30.5753 838.8195,-29.5864 840.5051,-36.3804"/>
</g>
</g>
</svg>
