<?xml version="1.0" encoding="UTF-8" standalone="no"?>
<!DOCTYPE svg PUBLIC "-//W3C//DTD SVG 1.1//EN"
 "http://www.w3.org/Graphics/SVG/1.1/DTD/svg11.dtd">
<!-- Generated by graphviz version 2.40.1 (20161225.0304)
 -->
<!-- Title: EvolutionaryAlgorithmLogger&lt; Solution &gt; Pages: 1 -->
<svg width="411pt" height="248pt"
 viewBox="0.00 0.00 410.50 248.00" xmlns="http://www.w3.org/2000/svg" xmlns:xlink="http://www.w3.org/1999/xlink">
<g id="graph0" class="graph" transform="scale(1 1) rotate(0) translate(4 244)">
<title>EvolutionaryAlgorithmLogger&lt; Solution &gt;</title>
<!-- Node1 -->
<g id="node1" class="node">
<title>Node1</title>
<g id="a_node1"><a xlink:title="Logger to trace the execution of an evolutionary algorithm.">
<polygon fill="#bfbfbf" stroke="#000000" points="199,-.5 199,-123.5 355,-123.5 355,-.5 199,-.5"/>
<text text-anchor="start" x="207" y="-111.5" font-family="Helvetica,sans-Serif" font-size="10.00" fill="#000000">EvolutionaryAlgorithmLogger</text>
<text text-anchor="middle" x="277" y="-100.5" font-family="Helvetica,sans-Serif" font-size="10.00" fill="#000000">&lt; Solution &gt;</text>
<polyline fill="none" stroke="#000000" points="199,-93.5 355,-93.5 "/>
<text text-anchor="middle" x="277" y="-81.5" font-family="Helvetica,sans-Serif" font-size="10.00" fill="#000000"> </text>
<polyline fill="none" stroke="#000000" points="199,-74.5 355,-74.5 "/>
<text text-anchor="start" x="207" y="-62.5" font-family="Helvetica,sans-Serif" font-size="10.00" fill="#000000">+ EvolutionaryAlgorithmLogger()</text>
<text text-anchor="start" x="207" y="-51.5" font-family="Helvetica,sans-Serif" font-size="10.00" fill="#000000">+ SetBestSolution()</text>
<text text-anchor="start" x="207" y="-40.5" font-family="Helvetica,sans-Serif" font-size="10.00" fill="#000000">+ GetBestSolution()</text>
<text text-anchor="start" x="207" y="-29.5" font-family="Helvetica,sans-Serif" font-size="10.00" fill="#000000">+ AddLog()</text>
<text text-anchor="start" x="207" y="-18.5" font-family="Helvetica,sans-Serif" font-size="10.00" fill="#000000">+ GetHistory()</text>
<text text-anchor="start" x="207" y="-7.5" font-family="Helvetica,sans-Serif" font-size="10.00" fill="#000000">+ operator bool()</text>
</a>
</g>
</g>
<!-- Node2 -->
<g id="node2" class="node">
<title>Node2</title>
<g id="a_node2"><a xlink:title=" ">
<polygon fill="none" stroke="#bfbfbf" points="0,-171.5 0,-239.5 148,-239.5 148,-171.5 0,-171.5"/>
<text text-anchor="start" x="8" y="-227.5" font-family="Helvetica,sans-Serif" font-size="10.00" fill="#000000">vector&lt; EvolutionaryAlgorithm</text>
<text text-anchor="middle" x="74" y="-216.5" font-family="Helvetica,sans-Serif" font-size="10.00" fill="#000000">Logger::Log &gt;</text>
<polyline fill="none" stroke="#bfbfbf" points="0,-209.5 148,-209.5 "/>
<text text-anchor="middle" x="74" y="-197.5" font-family="Helvetica,sans-Serif" font-size="10.00" fill="#000000"> </text>
<polyline fill="none" stroke="#bfbfbf" points="0,-190.5 148,-190.5 "/>
<text text-anchor="middle" x="74" y="-178.5" font-family="Helvetica,sans-Serif" font-size="10.00" fill="#000000"> </text>
</a>
</g>
</g>
<!-- Node2&#45;&gt;Node1 -->
<g id="edge1" class="edge">
<title>Node2&#45;&gt;Node1</title>
<path fill="none" stroke="#404040" d="M122.1082,-171.4925C142.0239,-157.4141 165.7736,-140.6256 188.6211,-124.4747"/>
<polygon fill="none" stroke="#404040" points="188.8907,-124.2842 191.4812,-117.5545 198.6896,-117.3574 196.0991,-124.0871 188.8907,-124.2842"/>
<text text-anchor="middle" x="182" y="-145" font-family="Helvetica,sans-Serif" font-size="10.00" fill="#000000"> &#45;history</text>
</g>
<!-- Node3 -->
<g id="node3" class="node">
<title>Node3</title>
<g id="a_node3"><a xlink:title=" ">
<polygon fill="none" stroke="#bfbfbf" points="166,-177 166,-234 290,-234 290,-177 166,-177"/>
<text text-anchor="middle" x="228" y="-222" font-family="Helvetica,sans-Serif" font-size="10.00" fill="#000000">optional&lt; SolutionType &gt;</text>
<polyline fill="none" stroke="#bfbfbf" points="166,-215 290,-215 "/>
<text text-anchor="middle" x="228" y="-203" font-family="Helvetica,sans-Serif" font-size="10.00" fill="#000000"> </text>
<polyline fill="none" stroke="#bfbfbf" points="166,-196 290,-196 "/>
<text text-anchor="middle" x="228" y="-184" font-family="Helvetica,sans-Serif" font-size="10.00" fill="#000000"> </text>
</a>
</g>
</g>
<!-- Node3&#45;&gt;Node1 -->
<g id="edge2" class="edge">
<title>Node3&#45;&gt;Node1</title>
<path fill="none" stroke="#404040" d="M231.849,-176.9942C233.742,-165.9173 236.4064,-153.2189 240,-142 240.7177,-139.7594 241.4826,-137.4994 242.2866,-135.2303"/>
<polygon fill="none" stroke="#404040" points="242.3432,-135.0805 240.7273,-128.0528 246.5929,-123.8582 248.2089,-130.8859 242.3432,-135.0805"/>
<text text-anchor="middle" x="272" y="-145" font-family="Helvetica,sans-Serif" font-size="10.00" fill="#000000"> &#45;best_solution</text>
</g>
<!-- Node4 -->
<g id="node4" class="node">
<title>Node4</title>
<g id="a_node4"><a xlink:title=" ">
<polygon fill="none" stroke="#bfbfbf" points="308.5,-177 308.5,-234 343.5,-234 343.5,-177 308.5,-177"/>
<text text-anchor="middle" x="326" y="-222" font-family="Helvetica,sans-Serif" font-size="10.00" fill="#000000">bool</text>
<polyline fill="none" stroke="#bfbfbf" points="308.5,-215 343.5,-215 "/>
<text text-anchor="middle" x="326" y="-203" font-family="Helvetica,sans-Serif" font-size="10.00" fill="#000000"> </text>
<polyline fill="none" stroke="#bfbfbf" points="308.5,-196 343.5,-196 "/>
<text text-anchor="middle" x="326" y="-184" font-family="Helvetica,sans-Serif" font-size="10.00" fill="#000000"> </text>
</a>
</g>
</g>
<!-- Node4&#45;&gt;Node1 -->
<g id="edge3" class="edge">
<title>Node4&#45;&gt;Node1</title>
<path fill="none" stroke="#404040" d="M316.2019,-176.8055C312.0809,-164.7369 307.0793,-150.0893 302.0469,-135.3515"/>
<polygon fill="none" stroke="#404040" points="301.8984,-134.9165 296.1741,-130.531 298.0206,-123.5603 303.7449,-127.9458 301.8984,-134.9165"/>
<text text-anchor="middle" x="323.5" y="-145" font-family="Helvetica,sans-Serif" font-size="10.00" fill="#000000"> &#45;active</text>
</g>
<!-- Node5 -->
<g id="node5" class="node">
<title>Node5</title>
<g id="a_node5"><a xlink:title=" ">
<polygon fill="none" stroke="#bfbfbf" points="361.5,-177 361.5,-234 402.5,-234 402.5,-177 361.5,-177"/>
<text text-anchor="middle" x="382" y="-222" font-family="Helvetica,sans-Serif" font-size="10.00" fill="#000000">string</text>
<polyline fill="none" stroke="#bfbfbf" points="361.5,-215 402.5,-215 "/>
<text text-anchor="middle" x="382" y="-203" font-family="Helvetica,sans-Serif" font-size="10.00" fill="#000000"> </text>
<polyline fill="none" stroke="#bfbfbf" points="361.5,-196 402.5,-196 "/>
<text text-anchor="middle" x="382" y="-184" font-family="Helvetica,sans-Serif" font-size="10.00" fill="#000000"> </text>
</a>
</g>
</g>
<!-- Node5&#45;&gt;Node1 -->
<g id="edge4" class="edge">
<title>Node5&#45;&gt;Node1</title>
<path fill="none" stroke="#404040" d="M366.0947,-176.7584C359.6162,-165.6508 351.8186,-152.993 344,-142 341.982,-139.1627 339.8894,-136.3005 337.7448,-133.4332"/>
<polygon fill="none" stroke="#404040" points="337.5817,-133.2203 330.7578,-130.8889 330.2853,-123.6933 337.1092,-126.0246 337.5817,-133.2203"/>
<text text-anchor="middle" x="357" y="-145" font-family="Helvetica,sans-Serif" font-size="10.00" fill="#000000"> &#45;id</text>
</g>
</g>
</svg>
