<?xml version="1.0" encoding="UTF-8" standalone="no"?>
<!DOCTYPE svg PUBLIC "-//W3C//DTD SVG 1.1//EN"
 "http://www.w3.org/Graphics/SVG/1.1/DTD/svg11.dtd">
<!-- Generated by graphviz version 2.40.1 (20161225.0304)
 -->
<!-- Title: utils/container_utils.hpp Pages: 1 -->
<svg width="668pt" height="106pt"
 viewBox="0.00 0.00 667.50 106.00" xmlns="http://www.w3.org/2000/svg" xmlns:xlink="http://www.w3.org/1999/xlink">
<g id="graph0" class="graph" transform="scale(1 1) rotate(0) translate(4 102)">
<title>utils/container_utils.hpp</title>
<!-- Node2 -->
<g id="node1" class="node">
<title>Node2</title>
<g id="a_node1"><a xlink:title="Contains utilities to work with the standard library containers.">
<polygon fill="#bfbfbf" stroke="#000000" points="262,-78.5 262,-97.5 381,-97.5 381,-78.5 262,-78.5"/>
<text text-anchor="middle" x="321.5" y="-85.5" font-family="Helvetica,sans-Serif" font-size="10.00" fill="#000000">utils/container_utils.hpp</text>
</a>
</g>
</g>
<!-- Node3 -->
<g id="node2" class="node">
<title>Node3</title>
<g id="a_node2"><a xlink:href="jsp__task_8hpp.html" target="_top" xlink:title="JSP Task.">
<polygon fill="none" stroke="#000000" points="0,-11.5 0,-30.5 131,-30.5 131,-11.5 0,-11.5"/>
<text text-anchor="middle" x="65.5" y="-18.5" font-family="Helvetica,sans-Serif" font-size="10.00" fill="#000000">problems/jsp/jsp_task.hpp</text>
</a>
</g>
</g>
<!-- Node2&#45;&gt;Node3 -->
<g id="edge1" class="edge">
<title>Node2&#45;&gt;Node3</title>
<path fill="none" stroke="#191970" d="M273.0576,-76.0259C236.5586,-66.9222 185.3106,-53.9658 140.5,-42 126.9136,-38.372 111.9882,-34.2259 99.054,-30.5815"/>
<polygon fill="#191970" stroke="#191970" points="272.394,-79.4675 282.9435,-78.4874 274.0854,-72.6749 272.394,-79.4675"/>
</g>
<!-- Node4 -->
<g id="node3" class="node">
<title>Node4</title>
<g id="a_node3"><a xlink:href="crossover__operators_8hpp.html" target="_top" xlink:title="Evolutionary Algorithm Crossover Operators.">
<polygon fill="none" stroke="#000000" points="149.5,-6 149.5,-36 321.5,-36 321.5,-6 149.5,-6"/>
<text text-anchor="start" x="157.5" y="-24" font-family="Helvetica,sans-Serif" font-size="10.00" fill="#000000">metaheuristics/evolutionary</text>
<text text-anchor="middle" x="235.5" y="-13" font-family="Helvetica,sans-Serif" font-size="10.00" fill="#000000">_algorithm/crossover_operators.hpp</text>
</a>
</g>
</g>
<!-- Node2&#45;&gt;Node4 -->
<g id="edge2" class="edge">
<title>Node2&#45;&gt;Node4</title>
<path fill="none" stroke="#191970" d="M301.1058,-72.1115C287.0775,-61.1825 268.5641,-46.7592 254.7817,-36.0218"/>
<polygon fill="#191970" stroke="#191970" points="299.1387,-75.0158 309.1783,-78.4005 303.4407,-69.4937 299.1387,-75.0158"/>
</g>
<!-- Node5 -->
<g id="node4" class="node">
<title>Node5</title>
<g id="a_node4"><a xlink:href="evolutionary__algorithm_8hpp.html" target="_top" xlink:title="Evolutionary Algorithm.">
<polygon fill="none" stroke="#000000" points="339.5,-.5 339.5,-41.5 475.5,-41.5 475.5,-.5 339.5,-.5"/>
<text text-anchor="start" x="347.5" y="-29.5" font-family="Helvetica,sans-Serif" font-size="10.00" fill="#000000">metaheuristics/evolutionary</text>
<text text-anchor="start" x="347.5" y="-18.5" font-family="Helvetica,sans-Serif" font-size="10.00" fill="#000000">_algorithm/evolutionary</text>
<text text-anchor="middle" x="407.5" y="-7.5" font-family="Helvetica,sans-Serif" font-size="10.00" fill="#000000">_algorithm.hpp</text>
</a>
</g>
</g>
<!-- Node2&#45;&gt;Node5 -->
<g id="edge3" class="edge">
<title>Node2&#45;&gt;Node5</title>
<path fill="none" stroke="#191970" d="M341.7232,-72.2447C353.4527,-63.1066 368.3608,-51.4922 381.0174,-41.6318"/>
<polygon fill="#191970" stroke="#191970" points="339.5593,-69.4937 333.8217,-78.4005 343.8613,-75.0158 339.5593,-69.4937"/>
</g>
<!-- Node6 -->
<g id="node5" class="node">
<title>Node6</title>
<g id="a_node5"><a xlink:href="memetic__algorithm_8hpp.html" target="_top" xlink:title="Memetic Algorithm.">
<polygon fill="none" stroke="#000000" points="493.5,-6 493.5,-36 659.5,-36 659.5,-6 493.5,-6"/>
<text text-anchor="start" x="501.5" y="-24" font-family="Helvetica,sans-Serif" font-size="10.00" fill="#000000">metaheuristics/evolutionary</text>
<text text-anchor="middle" x="576.5" y="-13" font-family="Helvetica,sans-Serif" font-size="10.00" fill="#000000">_algorithm/memetic_algorithm.hpp</text>
</a>
</g>
</g>
<!-- Node2&#45;&gt;Node6 -->
<g id="edge4" class="edge">
<title>Node2&#45;&gt;Node6</title>
<path fill="none" stroke="#191970" d="M367.5731,-75.8945C410.105,-64.7195 473.4228,-48.083 519.1998,-36.0553"/>
<polygon fill="#191970" stroke="#191970" points="366.5468,-72.5453 357.7645,-78.4717 368.3256,-79.3155 366.5468,-72.5453"/>
</g>
</g>
</svg>
