<?xml version="1.0" encoding="UTF-8" standalone="no"?>
<!DOCTYPE svg PUBLIC "-//W3C//DTD SVG 1.1//EN"
 "http://www.w3.org/Graphics/SVG/1.1/DTD/svg11.dtd">
<!-- Generated by graphviz version 2.40.1 (20161225.0304)
 -->
<!-- Title: metaheuristics/evolutionary_algorithm/crossover_operators.hpp Pages: 1 -->
<svg width="567pt" height="151pt"
 viewBox="0.00 0.00 566.50 151.00" xmlns="http://www.w3.org/2000/svg" xmlns:xlink="http://www.w3.org/1999/xlink">
<g id="graph0" class="graph" transform="scale(1 1) rotate(0) translate(4 147)">
<title>metaheuristics/evolutionary_algorithm/crossover_operators.hpp</title>
<!-- Node0 -->
<g id="node1" class="node">
<title>Node0</title>
<g id="a_node1"><a xlink:title="Evolutionary Algorithm Crossover Operators.">
<polygon fill="#bfbfbf" stroke="#000000" points="196,-112.5 196,-142.5 368,-142.5 368,-112.5 196,-112.5"/>
<text text-anchor="start" x="204" y="-130.5" font-family="Helvetica,sans-Serif" font-size="10.00" fill="#000000">metaheuristics/evolutionary</text>
<text text-anchor="middle" x="282" y="-119.5" font-family="Helvetica,sans-Serif" font-size="10.00" fill="#000000">_algorithm/crossover_operators.hpp</text>
</a>
</g>
</g>
<!-- Node1 -->
<g id="node2" class="node">
<title>Node1</title>
<g id="a_node2"><a xlink:title=" ">
<polygon fill="none" stroke="#bfbfbf" points="0,-56.5 0,-75.5 56,-75.5 56,-56.5 0,-56.5"/>
<text text-anchor="middle" x="28" y="-63.5" font-family="Helvetica,sans-Serif" font-size="10.00" fill="#000000">algorithm</text>
</a>
</g>
</g>
<!-- Node0&#45;&gt;Node1 -->
<g id="edge1" class="edge">
<title>Node0&#45;&gt;Node1</title>
<path fill="none" stroke="#191970" d="M216.3488,-112.4763C175.599,-103.0215 121.9205,-90.3345 65.9863,-76.201"/>
<polygon fill="#191970" stroke="#191970" points="66.8117,-72.7996 56.2581,-73.7339 65.0909,-79.5848 66.8117,-72.7996"/>
</g>
<!-- Node2 -->
<g id="node3" class="node">
<title>Node2</title>
<g id="a_node3"><a xlink:title=" ">
<polygon fill="none" stroke="#bfbfbf" points="74.5,-56.5 74.5,-75.5 123.5,-75.5 123.5,-56.5 74.5,-56.5"/>
<text text-anchor="middle" x="99" y="-63.5" font-family="Helvetica,sans-Serif" font-size="10.00" fill="#000000">random</text>
</a>
</g>
</g>
<!-- Node0&#45;&gt;Node2 -->
<g id="edge2" class="edge">
<title>Node0&#45;&gt;Node2</title>
<path fill="none" stroke="#191970" d="M237.2332,-112.4554C205.2401,-101.7036 162.8272,-87.4501 133.4579,-77.5801"/>
<polygon fill="#191970" stroke="#191970" points="134.246,-74.1527 123.652,-74.2847 132.016,-80.788 134.246,-74.1527"/>
</g>
<!-- Node3 -->
<g id="node4" class="node">
<title>Node3</title>
<g id="a_node4"><a xlink:title=" ">
<polygon fill="none" stroke="#bfbfbf" points="141.5,-56.5 141.5,-75.5 224.5,-75.5 224.5,-56.5 141.5,-56.5"/>
<text text-anchor="middle" x="183" y="-63.5" font-family="Helvetica,sans-Serif" font-size="10.00" fill="#000000">unordered_map</text>
</a>
</g>
</g>
<!-- Node0&#45;&gt;Node3 -->
<g id="edge3" class="edge">
<title>Node0&#45;&gt;Node3</title>
<path fill="none" stroke="#191970" d="M257.7819,-112.4554C242.4227,-102.9141 222.6243,-90.6151 207.2575,-81.0691"/>
<polygon fill="#191970" stroke="#191970" points="208.6828,-77.8341 198.3415,-75.5303 204.989,-83.7802 208.6828,-77.8341"/>
</g>
<!-- Node4 -->
<g id="node5" class="node">
<title>Node4</title>
<g id="a_node5"><a xlink:title=" ">
<polygon fill="none" stroke="#bfbfbf" points="243,-56.5 243,-75.5 321,-75.5 321,-56.5 243,-56.5"/>
<text text-anchor="middle" x="282" y="-63.5" font-family="Helvetica,sans-Serif" font-size="10.00" fill="#000000">unordered_set</text>
</a>
</g>
</g>
<!-- Node0&#45;&gt;Node4 -->
<g id="edge4" class="edge">
<title>Node0&#45;&gt;Node4</title>
<path fill="none" stroke="#191970" d="M282,-112.2977C282,-104.3834 282,-94.6043 282,-86.0759"/>
<polygon fill="#191970" stroke="#191970" points="285.5001,-85.8469 282,-75.8469 278.5001,-85.847 285.5001,-85.8469"/>
</g>
<!-- Node5 -->
<g id="node6" class="node">
<title>Node5</title>
<g id="a_node6"><a xlink:title=" ">
<polygon fill="none" stroke="#bfbfbf" points="404,-.5 404,-19.5 444,-19.5 444,-.5 404,-.5"/>
<text text-anchor="middle" x="424" y="-7.5" font-family="Helvetica,sans-Serif" font-size="10.00" fill="#000000">utility</text>
</a>
</g>
</g>
<!-- Node0&#45;&gt;Node5 -->
<g id="edge5" class="edge">
<title>Node0&#45;&gt;Node5</title>
<path fill="none" stroke="#191970" d="M300.094,-112.404C317.4795,-97.9117 344.5014,-75.4192 368,-56 379.9383,-46.1342 393.3432,-35.1207 404.0442,-26.3443"/>
<polygon fill="#191970" stroke="#191970" points="406.4518,-28.8963 411.9668,-19.85 402.0142,-23.4827 406.4518,-28.8963"/>
</g>
<!-- Node6 -->
<g id="node7" class="node">
<title>Node6</title>
<g id="a_node7"><a xlink:title=" ">
<polygon fill="none" stroke="#bfbfbf" points="377,-56.5 377,-75.5 421,-75.5 421,-56.5 377,-56.5"/>
<text text-anchor="middle" x="399" y="-63.5" font-family="Helvetica,sans-Serif" font-size="10.00" fill="#000000">vector</text>
</a>
</g>
</g>
<!-- Node0&#45;&gt;Node6 -->
<g id="edge6" class="edge">
<title>Node0&#45;&gt;Node6</title>
<path fill="none" stroke="#191970" d="M310.6214,-112.4554C329.287,-102.644 353.4999,-89.9167 371.8612,-80.2653"/>
<polygon fill="#191970" stroke="#191970" points="373.646,-83.2812 380.8692,-75.5303 370.389,-77.0851 373.646,-83.2812"/>
</g>
<!-- Node7 -->
<g id="node8" class="node">
<title>Node7</title>
<g id="a_node8"><a xlink:href="container__utils_8hpp.html" target="_top" xlink:title="Contains utilities to work with the standard library containers.">
<polygon fill="none" stroke="#000000" points="439.5,-56.5 439.5,-75.5 558.5,-75.5 558.5,-56.5 439.5,-56.5"/>
<text text-anchor="middle" x="499" y="-63.5" font-family="Helvetica,sans-Serif" font-size="10.00" fill="#000000">utils/container_utils.hpp</text>
</a>
</g>
</g>
<!-- Node0&#45;&gt;Node7 -->
<g id="edge7" class="edge">
<title>Node0&#45;&gt;Node7</title>
<path fill="none" stroke="#191970" d="M335.0842,-112.4554C372.0852,-101.9689 420.8396,-88.1515 455.5342,-78.3187"/>
<polygon fill="#191970" stroke="#191970" points="456.706,-81.6245 465.3727,-75.5303 454.7973,-74.8897 456.706,-81.6245"/>
</g>
<!-- Node7&#45;&gt;Node5 -->
<g id="edge8" class="edge">
<title>Node7&#45;&gt;Node5</title>
<path fill="none" stroke="#191970" d="M485.936,-56.2455C474.6438,-47.814 458.1155,-35.4729 444.9729,-25.6598"/>
<polygon fill="#191970" stroke="#191970" points="447.0211,-22.8211 436.9143,-19.6427 442.8331,-28.4301 447.0211,-22.8211"/>
</g>
</g>
</svg>
