<?xml version="1.0" encoding="UTF-8" standalone="no"?>
<!DOCTYPE svg PUBLIC "-//W3C//DTD SVG 1.1//EN"
 "http://www.w3.org/Graphics/SVG/1.1/DTD/svg11.dtd">
<!-- Generated by graphviz version 2.40.1 (20161225.0304)
 -->
<!-- Title: metaheuristics/utils/evolutionary_algorithm_logger.hpp Pages: 1 -->
<svg width="125pt" height="106pt"
 viewBox="0.00 0.00 125.00 106.00" xmlns="http://www.w3.org/2000/svg" xmlns:xlink="http://www.w3.org/1999/xlink">
<g id="graph0" class="graph" transform="scale(1 1) rotate(0) translate(4 102)">
<title>metaheuristics/utils/evolutionary_algorithm_logger.hpp</title>
<!-- Node0 -->
<g id="node1" class="node">
<title>Node0</title>
<g id="a_node1"><a xlink:title="Logger for evolutionary algorithms.">
<polygon fill="#bfbfbf" stroke="#000000" points="0,-56.5 0,-97.5 117,-97.5 117,-56.5 0,-56.5"/>
<text text-anchor="start" x="8" y="-85.5" font-family="Helvetica,sans-Serif" font-size="10.00" fill="#000000">metaheuristics/utils</text>
<text text-anchor="start" x="8" y="-74.5" font-family="Helvetica,sans-Serif" font-size="10.00" fill="#000000">/evolutionary_algorithm</text>
<text text-anchor="middle" x="58.5" y="-63.5" font-family="Helvetica,sans-Serif" font-size="10.00" fill="#000000">_logger.hpp</text>
</a>
</g>
</g>
<!-- Node1 -->
<g id="node2" class="node">
<title>Node1</title>
<g id="a_node2"><a xlink:title=" ">
<polygon fill="none" stroke="#bfbfbf" points="8,-.5 8,-19.5 49,-19.5 49,-.5 8,-.5"/>
<text text-anchor="middle" x="28.5" y="-7.5" font-family="Helvetica,sans-Serif" font-size="10.00" fill="#000000">string</text>
</a>
</g>
</g>
<!-- Node0&#45;&gt;Node1 -->
<g id="edge1" class="edge">
<title>Node0&#45;&gt;Node1</title>
<path fill="none" stroke="#191970" d="M49.1723,-56.168C45.3081,-47.5381 40.855,-37.5928 37.0737,-29.1479"/>
<polygon fill="#191970" stroke="#191970" points="40.1604,-27.477 32.8793,-19.7805 33.7716,-30.3377 40.1604,-27.477"/>
</g>
<!-- Node2 -->
<g id="node3" class="node">
<title>Node2</title>
<g id="a_node3"><a xlink:title=" ">
<polygon fill="none" stroke="#bfbfbf" points="67.5,-.5 67.5,-19.5 111.5,-19.5 111.5,-.5 67.5,-.5"/>
<text text-anchor="middle" x="89.5" y="-7.5" font-family="Helvetica,sans-Serif" font-size="10.00" fill="#000000">vector</text>
</a>
</g>
</g>
<!-- Node0&#45;&gt;Node2 -->
<g id="edge2" class="edge">
<title>Node0&#45;&gt;Node2</title>
<path fill="none" stroke="#191970" d="M68.1387,-56.168C72.1755,-47.4433 76.8344,-37.374 80.7691,-28.87"/>
<polygon fill="#191970" stroke="#191970" points="83.952,-30.3258 84.9747,-19.7805 77.599,-27.3864 83.952,-30.3258"/>
</g>
</g>
</svg>
