<?xml version="1.0" encoding="UTF-8" standalone="no"?>
<!DOCTYPE svg PUBLIC "-//W3C//DTD SVG 1.1//EN"
 "http://www.w3.org/Graphics/SVG/1.1/DTD/svg11.dtd">
<!-- Generated by graphviz version 2.40.1 (20161225.0304)
 -->
<!-- Title: metaheuristics/utils/evolutionary_algorithm_logger.hpp Pages: 1 -->
<svg width="328pt" height="128pt"
 viewBox="0.00 0.00 328.00 128.00" xmlns="http://www.w3.org/2000/svg" xmlns:xlink="http://www.w3.org/1999/xlink">
<g id="graph0" class="graph" transform="scale(1 1) rotate(0) translate(4 124)">
<title>metaheuristics/utils/evolutionary_algorithm_logger.hpp</title>
<!-- Node3 -->
<g id="node1" class="node">
<title>Node3</title>
<g id="a_node1"><a xlink:title="Logger for evolutionary algorithms.">
<polygon fill="#bfbfbf" stroke="#000000" points="93.5,-78.5 93.5,-119.5 210.5,-119.5 210.5,-78.5 93.5,-78.5"/>
<text text-anchor="start" x="101.5" y="-107.5" font-family="Helvetica,sans-Serif" font-size="10.00" fill="#000000">metaheuristics/utils</text>
<text text-anchor="start" x="101.5" y="-96.5" font-family="Helvetica,sans-Serif" font-size="10.00" fill="#000000">/evolutionary_algorithm</text>
<text text-anchor="middle" x="152" y="-85.5" font-family="Helvetica,sans-Serif" font-size="10.00" fill="#000000">_logger.hpp</text>
</a>
</g>
</g>
<!-- Node4 -->
<g id="node2" class="node">
<title>Node4</title>
<g id="a_node2"><a xlink:href="evolutionary__algorithm_8hpp.html" target="_top" xlink:title="Evolutionary Algorithm.">
<polygon fill="none" stroke="#000000" points="0,-.5 0,-41.5 136,-41.5 136,-.5 0,-.5"/>
<text text-anchor="start" x="8" y="-29.5" font-family="Helvetica,sans-Serif" font-size="10.00" fill="#000000">metaheuristics/evolutionary</text>
<text text-anchor="start" x="8" y="-18.5" font-family="Helvetica,sans-Serif" font-size="10.00" fill="#000000">_algorithm/evolutionary</text>
<text text-anchor="middle" x="68" y="-7.5" font-family="Helvetica,sans-Serif" font-size="10.00" fill="#000000">_algorithm.hpp</text>
</a>
</g>
</g>
<!-- Node3&#45;&gt;Node4 -->
<g id="edge1" class="edge">
<title>Node3&#45;&gt;Node4</title>
<path fill="none" stroke="#191970" d="M122.0928,-71.229C111.6103,-61.4953 100.0292,-50.7414 90.2813,-41.6898"/>
<polygon fill="#191970" stroke="#191970" points="119.78,-73.8577 129.4895,-78.0974 124.5432,-68.7281 119.78,-73.8577"/>
</g>
<!-- Node5 -->
<g id="node3" class="node">
<title>Node5</title>
<g id="a_node3"><a xlink:href="memetic__algorithm_8hpp.html" target="_top" xlink:title="Memetic Algorithm.">
<polygon fill="none" stroke="#000000" points="154,-6 154,-36 320,-36 320,-6 154,-6"/>
<text text-anchor="start" x="162" y="-24" font-family="Helvetica,sans-Serif" font-size="10.00" fill="#000000">metaheuristics/evolutionary</text>
<text text-anchor="middle" x="237" y="-13" font-family="Helvetica,sans-Serif" font-size="10.00" fill="#000000">_algorithm/memetic_algorithm.hpp</text>
</a>
</g>
</g>
<!-- Node3&#45;&gt;Node5 -->
<g id="edge2" class="edge">
<title>Node3&#45;&gt;Node5</title>
<path fill="none" stroke="#191970" d="M182.1694,-71.3152C195.1199,-59.4312 209.7427,-46.0126 220.6284,-36.0233"/>
<polygon fill="#191970" stroke="#191970" points="179.78,-68.7574 174.7784,-78.0974 184.5128,-73.915 179.78,-68.7574"/>
</g>
</g>
</svg>
