<?xml version="1.0" encoding="UTF-8" standalone="no"?>
<!DOCTYPE svg PUBLIC "-//W3C//DTD SVG 1.1//EN"
 "http://www.w3.org/Graphics/SVG/1.1/DTD/svg11.dtd">
<!-- Generated by graphviz version 2.40.1 (20161225.0304)
 -->
<!-- Title: Graphical Class Hierarchy Pages: 1 -->
<svg width="232pt" height="148pt"
 viewBox="0.00 0.00 232.00 148.00" xmlns="http://www.w3.org/2000/svg" xmlns:xlink="http://www.w3.org/1999/xlink">
<g id="graph0" class="graph" transform="scale(1 1) rotate(0) translate(4 144)">
<title>Graphical Class Hierarchy</title>
<!-- Node2 -->
<g id="node1" class="node">
<title>Node2</title>
<g id="a_node1"><a xlink:title=" ">
<polygon fill="none" stroke="#bfbfbf" points="0,-71.5 0,-90.5 57,-90.5 57,-71.5 0,-71.5"/>
<text text-anchor="middle" x="28.5" y="-78.5" font-family="Helvetica,sans-Serif" font-size="10.00" fill="#000000">true_type</text>
</a>
</g>
</g>
<!-- Node0 -->
<g id="node2" class="node">
<title>Node0</title>
<g id="a_node2"><a xlink:href="structis__same__template_3_01T_00_01T_01_4.html" target="_top" xlink:title=" ">
<polygon fill="none" stroke="#000000" points="93,-120.5 93,-139.5 224,-139.5 224,-120.5 93,-120.5"/>
<text text-anchor="middle" x="158.5" y="-127.5" font-family="Helvetica,sans-Serif" font-size="10.00" fill="#000000">is_same_template&lt; T, T &gt;</text>
</a>
</g>
</g>
<!-- Node2&#45;&gt;Node0 -->
<g id="edge1" class="edge">
<title>Node2&#45;&gt;Node0</title>
<path fill="none" stroke="#191970" d="M56.3706,-95.0999C67.5876,-100.4734 80.7475,-106.4043 93,-111 102.2015,-114.4513 112.3216,-117.6619 121.7974,-120.425"/>
<polygon fill="#191970" stroke="#191970" points="57.6071,-91.8088 47.085,-90.5688 54.5372,-98.0998 57.6071,-91.8088"/>
</g>
<!-- Node4 -->
<g id="node3" class="node">
<title>Node4</title>
<g id="a_node3"><a xlink:href="structis__specialization_3_01Template_3_01Args_8_8_8_01_4_00_01Template_01_4.html" target="_top" xlink:title=" ">
<polygon fill="none" stroke="#000000" points="105,-60.5 105,-101.5 212,-101.5 212,-60.5 105,-60.5"/>
<text text-anchor="start" x="113" y="-89.5" font-family="Helvetica,sans-Serif" font-size="10.00" fill="#000000">is_specialization&lt;</text>
<text text-anchor="start" x="113" y="-78.5" font-family="Helvetica,sans-Serif" font-size="10.00" fill="#000000"> Template&lt; Args... &gt;</text>
<text text-anchor="middle" x="158.5" y="-67.5" font-family="Helvetica,sans-Serif" font-size="10.00" fill="#000000">, Template &gt;</text>
</a>
</g>
</g>
<!-- Node2&#45;&gt;Node4 -->
<g id="edge2" class="edge">
<title>Node2&#45;&gt;Node4</title>
<path fill="none" stroke="#191970" d="M67.0466,-81C78.9195,-81 92.2122,-81 104.9058,-81"/>
<polygon fill="#191970" stroke="#191970" points="67.0291,-77.5001 57.0291,-81 67.029,-84.5001 67.0291,-77.5001"/>
</g>
<!-- Node5 -->
<g id="node4" class="node">
<title>Node5</title>
<g id="a_node4"><a xlink:href="structis__specialization__same__template_3_01T_3_01T1_01_4_00_01T_3_01T2_01_4_01_4.html" target="_top" xlink:title=" ">
<polygon fill="none" stroke="#000000" points="99.5,-.5 99.5,-41.5 217.5,-41.5 217.5,-.5 99.5,-.5"/>
<text text-anchor="start" x="107.5" y="-29.5" font-family="Helvetica,sans-Serif" font-size="10.00" fill="#000000">is_specialization_same</text>
<text text-anchor="start" x="107.5" y="-18.5" font-family="Helvetica,sans-Serif" font-size="10.00" fill="#000000">_template&lt; T&lt; T1 &gt;, T</text>
<text text-anchor="middle" x="158.5" y="-7.5" font-family="Helvetica,sans-Serif" font-size="10.00" fill="#000000">&lt; T2 &gt; &gt;</text>
</a>
</g>
</g>
<!-- Node2&#45;&gt;Node5 -->
<g id="edge3" class="edge">
<title>Node2&#45;&gt;Node5</title>
<path fill="none" stroke="#191970" d="M58.2439,-67.1214C69.1673,-62.0362 81.6388,-56.2439 93,-51 99.5866,-47.9599 106.5508,-44.7574 113.3834,-41.6222"/>
<polygon fill="#191970" stroke="#191970" points="56.6965,-63.9811 49.1099,-71.3766 59.6525,-70.3263 56.6965,-63.9811"/>
</g>
</g>
</svg>
