<?xml version="1.0" encoding="UTF-8" standalone="no"?>
<!DOCTYPE svg PUBLIC "-//W3C//DTD SVG 1.1//EN"
 "http://www.w3.org/Graphics/SVG/1.1/DTD/svg11.dtd">
<!-- Generated by graphviz version 2.40.1 (20161225.0304)
 -->
<!-- Title: Graphical Class Hierarchy Pages: 1 -->
<svg width="239pt" height="78pt"
 viewBox="0.00 0.00 239.00 77.50" xmlns="http://www.w3.org/2000/svg" xmlns:xlink="http://www.w3.org/1999/xlink">
<g id="graph0" class="graph" transform="scale(1 1) rotate(0) translate(4 73.5)">
<title>Graphical Class Hierarchy</title>
<!-- Node45 -->
<g id="node1" class="node">
<title>Node45</title>
<g id="a_node1"><a xlink:title=" ">
<polygon fill="none" stroke="#bfbfbf" points="0,-28 0,-47 62,-47 62,-28 0,-28"/>
<text text-anchor="middle" x="31" y="-35" font-family="Helvetica,sans-Serif" font-size="10.00" fill="#000000">false_type</text>
</a>
</g>
</g>
<!-- Node0 -->
<g id="node2" class="node">
<title>Node0</title>
<g id="a_node2"><a xlink:href="structis__same__template.html" target="_top" xlink:title=" ">
<polygon fill="none" stroke="#000000" points="98,-50 98,-69 231,-69 231,-50 98,-50"/>
<text text-anchor="middle" x="164.5" y="-57" font-family="Helvetica,sans-Serif" font-size="10.00" fill="#000000">is_same_template&lt; T, U &gt;</text>
</a>
</g>
</g>
<!-- Node45&#45;&gt;Node0 -->
<g id="edge1" class="edge">
<title>Node45&#45;&gt;Node0</title>
<path fill="none" stroke="#191970" d="M72.3469,-44.3137C83.2117,-46.1042 95.1319,-48.0685 106.6881,-49.9729"/>
<polygon fill="#191970" stroke="#191970" points="72.7359,-40.8307 62.2998,-42.658 71.5976,-47.7375 72.7359,-40.8307"/>
</g>
<!-- Node47 -->
<g id="node3" class="node">
<title>Node47</title>
<g id="a_node3"><a xlink:href="structis__specialization.html" target="_top" xlink:title=" ">
<polygon fill="none" stroke="#000000" points="117,-.5 117,-30.5 212,-30.5 212,-.5 117,-.5"/>
<text text-anchor="start" x="125" y="-18.5" font-family="Helvetica,sans-Serif" font-size="10.00" fill="#000000">is_specialization&lt;</text>
<text text-anchor="middle" x="164.5" y="-7.5" font-family="Helvetica,sans-Serif" font-size="10.00" fill="#000000"> T, Template &gt;</text>
</a>
</g>
</g>
<!-- Node45&#45;&gt;Node47 -->
<g id="edge2" class="edge">
<title>Node45&#45;&gt;Node47</title>
<path fill="none" stroke="#191970" d="M72.2356,-30.7046C86.3789,-28.3739 102.3213,-25.7467 116.9254,-23.34"/>
<polygon fill="#191970" stroke="#191970" points="71.5976,-27.2625 62.2998,-32.342 72.7359,-34.1693 71.5976,-27.2625"/>
</g>
</g>
</svg>
