<?xml version="1.0" encoding="UTF-8" standalone="no"?>
<!DOCTYPE svg PUBLIC "-//W3C//DTD SVG 1.1//EN"
 "http://www.w3.org/Graphics/SVG/1.1/DTD/svg11.dtd">
<!-- Generated by graphviz version 2.40.1 (20161225.0304)
 -->
<!-- Title: problems/jsp/jsp_makespan_minimization_solution.hpp Pages: 1 -->
<svg width="333pt" height="173pt"
 viewBox="0.00 0.00 332.50 173.00" xmlns="http://www.w3.org/2000/svg" xmlns:xlink="http://www.w3.org/1999/xlink">
<g id="graph0" class="graph" transform="scale(1 1) rotate(0) translate(4 169)">
<title>problems/jsp/jsp_makespan_minimization_solution.hpp</title>
<!-- Node11 -->
<g id="node1" class="node">
<title>Node11</title>
<g id="a_node1"><a xlink:title="JSP Makespan Minimization.">
<polygon fill="#bfbfbf" stroke="#000000" points="84,-134.5 84,-164.5 222,-164.5 222,-134.5 84,-134.5"/>
<text text-anchor="start" x="92" y="-152.5" font-family="Helvetica,sans-Serif" font-size="10.00" fill="#000000">problems/jsp/jsp_makespan</text>
<text text-anchor="middle" x="153" y="-141.5" font-family="Helvetica,sans-Serif" font-size="10.00" fill="#000000">_minimization_solution.hpp</text>
</a>
</g>
</g>
<!-- Node12 -->
<g id="node2" class="node">
<title>Node12</title>
<g id="a_node2"><a xlink:href="jsp__genetic__encoders_8hpp.html" target="_top" xlink:title="JSP Genetic Encoders.">
<polygon fill="none" stroke="#000000" points="6.5,-67.5 6.5,-97.5 131.5,-97.5 131.5,-67.5 6.5,-67.5"/>
<text text-anchor="start" x="14.5" y="-85.5" font-family="Helvetica,sans-Serif" font-size="10.00" fill="#000000">problems/jsp/jsp_genetic</text>
<text text-anchor="middle" x="69" y="-74.5" font-family="Helvetica,sans-Serif" font-size="10.00" fill="#000000">_encoders.hpp</text>
</a>
</g>
</g>
<!-- Node11&#45;&gt;Node12 -->
<g id="edge1" class="edge">
<title>Node11&#45;&gt;Node12</title>
<path fill="none" stroke="#191970" d="M125.77,-127.7808C113.4301,-117.9383 99.1409,-106.541 87.9855,-97.6432"/>
<polygon fill="#191970" stroke="#191970" points="123.9388,-130.7973 133.9391,-134.2967 128.3038,-125.3248 123.9388,-130.7973"/>
</g>
<!-- Node14 -->
<g id="node4" class="node">
<title>Node14</title>
<g id="a_node4"><a xlink:href="jsp__neighborhoods_8hpp.html" target="_top" xlink:title="JSP Neighborhoods.">
<polygon fill="none" stroke="#000000" points="149.5,-73 149.5,-92 324.5,-92 324.5,-73 149.5,-73"/>
<text text-anchor="middle" x="237" y="-80" font-family="Helvetica,sans-Serif" font-size="10.00" fill="#000000">problems/jsp/jsp_neighborhoods.hpp</text>
</a>
</g>
</g>
<!-- Node11&#45;&gt;Node14 -->
<g id="edge3" class="edge">
<title>Node11&#45;&gt;Node14</title>
<path fill="none" stroke="#191970" d="M180.1097,-127.8767C195.2549,-115.7967 213.3675,-101.3498 225.0206,-92.055"/>
<polygon fill="#191970" stroke="#191970" points="177.6962,-125.3248 172.0609,-134.2967 182.0612,-130.7973 177.6962,-125.3248"/>
</g>
<!-- Node13 -->
<g id="node3" class="node">
<title>Node13</title>
<g id="a_node3"><a xlink:href="jsp__generation__operators_8hpp.html" target="_top" xlink:title="JSP Generation Operators.">
<polygon fill="none" stroke="#000000" points="0,-.5 0,-30.5 138,-30.5 138,-.5 0,-.5"/>
<text text-anchor="start" x="8" y="-18.5" font-family="Helvetica,sans-Serif" font-size="10.00" fill="#000000">problems/jsp/jsp_generation</text>
<text text-anchor="middle" x="69" y="-7.5" font-family="Helvetica,sans-Serif" font-size="10.00" fill="#000000">_operators.hpp</text>
</a>
</g>
</g>
<!-- Node12&#45;&gt;Node13 -->
<g id="edge2" class="edge">
<title>Node12&#45;&gt;Node13</title>
<path fill="none" stroke="#191970" d="M69,-57.0249C69,-48.128 69,-38.4287 69,-30.6432"/>
<polygon fill="#191970" stroke="#191970" points="65.5001,-57.2966 69,-67.2967 72.5001,-57.2967 65.5001,-57.2966"/>
</g>
</g>
</svg>
