<?xml version="1.0" encoding="UTF-8" standalone="no"?>
<!DOCTYPE svg PUBLIC "-//W3C//DTD SVG 1.1//EN"
 "http://www.w3.org/Graphics/SVG/1.1/DTD/svg11.dtd">
<!-- Generated by graphviz version 2.40.1 (20161225.0304)
 -->
<!-- Title: problems/jsp/jsp_schedule_generation_schemes.hpp Pages: 1 -->
<svg width="259pt" height="95pt"
 viewBox="0.00 0.00 259.00 95.00" xmlns="http://www.w3.org/2000/svg" xmlns:xlink="http://www.w3.org/1999/xlink">
<g id="graph0" class="graph" transform="scale(1 1) rotate(0) translate(4 91)">
<title>problems/jsp/jsp_schedule_generation_schemes.hpp</title>
<!-- Node0 -->
<g id="node1" class="node">
<title>Node0</title>
<g id="a_node1"><a xlink:title="JSP Schedule Generation Schemes.">
<polygon fill="#bfbfbf" stroke="#000000" points="65,-56.5 65,-86.5 197,-86.5 197,-56.5 65,-56.5"/>
<text text-anchor="start" x="73" y="-74.5" font-family="Helvetica,sans-Serif" font-size="10.00" fill="#000000">problems/jsp/jsp_schedule</text>
<text text-anchor="middle" x="131" y="-63.5" font-family="Helvetica,sans-Serif" font-size="10.00" fill="#000000">_generation_schemes.hpp</text>
</a>
</g>
</g>
<!-- Node1 -->
<g id="node2" class="node">
<title>Node1</title>
<g id="a_node2"><a xlink:title=" ">
<polygon fill="none" stroke="#bfbfbf" points="0,-.5 0,-19.5 56,-19.5 56,-.5 0,-.5"/>
<text text-anchor="middle" x="28" y="-7.5" font-family="Helvetica,sans-Serif" font-size="10.00" fill="#000000">algorithm</text>
</a>
</g>
</g>
<!-- Node0&#45;&gt;Node1 -->
<g id="edge1" class="edge">
<title>Node0&#45;&gt;Node1</title>
<path fill="none" stroke="#191970" d="M105.8034,-56.4554C89.6728,-46.8241 68.8362,-34.3828 52.7864,-24.7996"/>
<polygon fill="#191970" stroke="#191970" points="54.3416,-21.6518 43.9613,-19.5303 50.753,-27.662 54.3416,-21.6518"/>
</g>
<!-- Node2 -->
<g id="node3" class="node">
<title>Node2</title>
<g id="a_node3"><a xlink:title=" ">
<polygon fill="none" stroke="#bfbfbf" points="74.5,-.5 74.5,-19.5 121.5,-19.5 121.5,-.5 74.5,-.5"/>
<text text-anchor="middle" x="98" y="-7.5" font-family="Helvetica,sans-Serif" font-size="10.00" fill="#000000">iterator</text>
</a>
</g>
</g>
<!-- Node0&#45;&gt;Node2 -->
<g id="edge2" class="edge">
<title>Node0&#45;&gt;Node2</title>
<path fill="none" stroke="#191970" d="M122.8427,-56.2977C118.4051,-48.0277 112.875,-37.7215 108.1596,-28.9339"/>
<polygon fill="#191970" stroke="#191970" points="111.096,-27.0037 103.2837,-19.8469 104.9279,-30.3134 111.096,-27.0037"/>
</g>
<!-- Node3 -->
<g id="node4" class="node">
<title>Node3</title>
<g id="a_node4"><a xlink:title=" ">
<polygon fill="none" stroke="#bfbfbf" points="139.5,-.5 139.5,-19.5 188.5,-19.5 188.5,-.5 139.5,-.5"/>
<text text-anchor="middle" x="164" y="-7.5" font-family="Helvetica,sans-Serif" font-size="10.00" fill="#000000">random</text>
</a>
</g>
</g>
<!-- Node0&#45;&gt;Node3 -->
<g id="edge3" class="edge">
<title>Node0&#45;&gt;Node3</title>
<path fill="none" stroke="#191970" d="M139.1573,-56.2977C143.5949,-48.0277 149.125,-37.7215 153.8404,-28.9339"/>
<polygon fill="#191970" stroke="#191970" points="157.0721,-30.3134 158.7163,-19.8469 150.904,-27.0037 157.0721,-30.3134"/>
</g>
<!-- Node4 -->
<g id="node5" class="node">
<title>Node4</title>
<g id="a_node5"><a xlink:title=" ">
<polygon fill="none" stroke="#bfbfbf" points="207,-.5 207,-19.5 251,-19.5 251,-.5 207,-.5"/>
<text text-anchor="middle" x="229" y="-7.5" font-family="Helvetica,sans-Serif" font-size="10.00" fill="#000000">vector</text>
</a>
</g>
</g>
<!-- Node0&#45;&gt;Node4 -->
<g id="edge4" class="edge">
<title>Node0&#45;&gt;Node4</title>
<path fill="none" stroke="#191970" d="M154.9735,-56.4554C170.1776,-46.9141 189.7759,-34.6151 204.9875,-25.0691"/>
<polygon fill="#191970" stroke="#191970" points="207.2037,-27.8105 213.8135,-19.5303 203.4828,-21.8813 207.2037,-27.8105"/>
</g>
</g>
</svg>
