<?xml version="1.0" encoding="UTF-8" standalone="no"?>
<!DOCTYPE svg PUBLIC "-//W3C//DTD SVG 1.1//EN"
 "http://www.w3.org/Graphics/SVG/1.1/DTD/svg11.dtd">
<!-- Generated by graphviz version 2.40.1 (20161225.0304)
 -->
<!-- Title: problems/jsp/jsp_generation_operators.hpp Pages: 1 -->
<svg width="1115pt" height="251pt"
 viewBox="0.00 0.00 1115.00 251.00" xmlns="http://www.w3.org/2000/svg" xmlns:xlink="http://www.w3.org/1999/xlink">
<g id="graph0" class="graph" transform="scale(1 1) rotate(0) translate(4 247)">
<title>problems/jsp/jsp_generation_operators.hpp</title>
<!-- Node0 -->
<g id="node1" class="node">
<title>Node0</title>
<g id="a_node1"><a xlink:title="JSP Generation Operators.">
<polygon fill="#bfbfbf" stroke="#000000" points="91.5,-212.5 91.5,-242.5 229.5,-242.5 229.5,-212.5 91.5,-212.5"/>
<text text-anchor="start" x="99.5" y="-230.5" font-family="Helvetica,sans-Serif" font-size="10.00" fill="#000000">problems/jsp/jsp_generation</text>
<text text-anchor="middle" x="160.5" y="-219.5" font-family="Helvetica,sans-Serif" font-size="10.00" fill="#000000">_operators.hpp</text>
</a>
</g>
</g>
<!-- Node1 -->
<g id="node2" class="node">
<title>Node1</title>
<g id="a_node2"><a xlink:title=" ">
<polygon fill="none" stroke="#bfbfbf" points="0,-6 0,-25 49,-25 49,-6 0,-6"/>
<text text-anchor="middle" x="24.5" y="-13" font-family="Helvetica,sans-Serif" font-size="10.00" fill="#000000">random</text>
</a>
</g>
</g>
<!-- Node0&#45;&gt;Node1 -->
<g id="edge1" class="edge">
<title>Node0&#45;&gt;Node1</title>
<path fill="none" stroke="#191970" d="M150.7192,-212.2535C126.3095,-174.203 62.7751,-75.1642 36.3245,-33.9324"/>
<polygon fill="#191970" stroke="#191970" points="39.2,-31.9327 30.8545,-25.4056 33.3082,-35.7124 39.2,-31.9327"/>
</g>
<!-- Node2 -->
<g id="node3" class="node">
<title>Node2</title>
<g id="a_node3"><a xlink:href="jsp__genetic__encoders_8hpp.html" target="_top" xlink:title="JSP Genetic Encoders.">
<polygon fill="none" stroke="#000000" points="268,-145.5 268,-175.5 393,-175.5 393,-145.5 268,-145.5"/>
<text text-anchor="start" x="276" y="-163.5" font-family="Helvetica,sans-Serif" font-size="10.00" fill="#000000">problems/jsp/jsp_genetic</text>
<text text-anchor="middle" x="330.5" y="-152.5" font-family="Helvetica,sans-Serif" font-size="10.00" fill="#000000">_encoders.hpp</text>
</a>
</g>
</g>
<!-- Node0&#45;&gt;Node2 -->
<g id="edge2" class="edge">
<title>Node0&#45;&gt;Node2</title>
<path fill="none" stroke="#191970" d="M198.6513,-212.4639C223.4995,-202.6708 256.1156,-189.8162 282.6905,-179.3426"/>
<polygon fill="#191970" stroke="#191970" points="284.1621,-182.5247 292.1823,-175.6017 281.5954,-176.0122 284.1621,-182.5247"/>
</g>
<!-- Node16 -->
<g id="node17" class="node">
<title>Node16</title>
<g id="a_node17"><a xlink:href="jsp__schedule__generation__schemes_8hpp.html" target="_top" xlink:title="JSP Schedule Generation Schemes.">
<polygon fill="none" stroke="#000000" points="94.5,-73 94.5,-103 226.5,-103 226.5,-73 94.5,-73"/>
<text text-anchor="start" x="102.5" y="-91" font-family="Helvetica,sans-Serif" font-size="10.00" fill="#000000">problems/jsp/jsp_schedule</text>
<text text-anchor="middle" x="160.5" y="-80" font-family="Helvetica,sans-Serif" font-size="10.00" fill="#000000">_generation_schemes.hpp</text>
</a>
</g>
</g>
<!-- Node0&#45;&gt;Node16 -->
<g id="edge35" class="edge">
<title>Node0&#45;&gt;Node16</title>
<path fill="none" stroke="#191970" d="M160.5,-212.3055C160.5,-188.5113 160.5,-142.1975 160.5,-113.3105"/>
<polygon fill="#191970" stroke="#191970" points="164.0001,-113.1757 160.5,-103.1758 157.0001,-113.1758 164.0001,-113.1757"/>
</g>
<!-- Node3 -->
<g id="node4" class="node">
<title>Node3</title>
<g id="a_node4"><a xlink:title=" ">
<polygon fill="none" stroke="#bfbfbf" points="204,-6 204,-25 251,-25 251,-6 204,-6"/>
<text text-anchor="middle" x="227.5" y="-13" font-family="Helvetica,sans-Serif" font-size="10.00" fill="#000000">iterator</text>
</a>
</g>
</g>
<!-- Node2&#45;&gt;Node3 -->
<g id="edge3" class="edge">
<title>Node2&#45;&gt;Node3</title>
<path fill="none" stroke="#191970" d="M321.0138,-145.329C309.1748,-126.6031 288.0937,-93.9327 268.5,-67 260.076,-55.4207 250.0764,-42.8392 242.0616,-33.0104"/>
<polygon fill="#191970" stroke="#191970" points="244.6738,-30.6765 235.6187,-25.176 239.2672,-35.1228 244.6738,-30.6765"/>
</g>
<!-- Node4 -->
<g id="node5" class="node">
<title>Node4</title>
<g id="a_node5"><a xlink:title=" ">
<polygon fill="none" stroke="#bfbfbf" points="943.5,-6 943.5,-25 1005.5,-25 1005.5,-6 943.5,-6"/>
<text text-anchor="middle" x="974.5" y="-13" font-family="Helvetica,sans-Serif" font-size="10.00" fill="#000000">type_traits</text>
</a>
</g>
</g>
<!-- Node2&#45;&gt;Node4 -->
<g id="edge4" class="edge">
<title>Node2&#45;&gt;Node4</title>
<path fill="none" stroke="#191970" d="M393.2668,-158.5178C512.8325,-154.0504 768.6393,-140.9767 850.5,-109 894.5631,-91.788 936.4734,-54.2498 958.4843,-32.332"/>
<polygon fill="#191970" stroke="#191970" points="961.1472,-34.6158 965.6604,-25.0303 956.1547,-29.7091 961.1472,-34.6158"/>
</g>
<!-- Node5 -->
<g id="node6" class="node">
<title>Node5</title>
<g id="a_node6"><a xlink:title=" ">
<polygon fill="none" stroke="#bfbfbf" points="1024,-6 1024,-25 1107,-25 1107,-6 1024,-6"/>
<text text-anchor="middle" x="1065.5" y="-13" font-family="Helvetica,sans-Serif" font-size="10.00" fill="#000000">unordered_map</text>
</a>
</g>
</g>
<!-- Node2&#45;&gt;Node5 -->
<g id="edge5" class="edge">
<title>Node2&#45;&gt;Node5</title>
<path fill="none" stroke="#191970" d="M393.2274,-158.1124C520.6518,-152.7241 805.5739,-137.7871 898.5,-109 955.4098,-91.3702 1014.5231,-52.5695 1044.8361,-30.9021"/>
<polygon fill="#191970" stroke="#191970" points="1046.9014,-33.7279 1052.9412,-25.0233 1042.7914,-28.0615 1046.9014,-33.7279"/>
</g>
<!-- Node6 -->
<g id="node7" class="node">
<title>Node6</title>
<g id="a_node7"><a xlink:title=" ">
<polygon fill="none" stroke="#bfbfbf" points="141.5,-6 141.5,-25 185.5,-25 185.5,-6 141.5,-6"/>
<text text-anchor="middle" x="163.5" y="-13" font-family="Helvetica,sans-Serif" font-size="10.00" fill="#000000">vector</text>
</a>
</g>
</g>
<!-- Node2&#45;&gt;Node6 -->
<g id="edge6" class="edge">
<title>Node2&#45;&gt;Node6</title>
<path fill="none" stroke="#191970" d="M310.3045,-145.4948C297.7072,-135.7168 281.4796,-122.3373 268.5,-109 251.9434,-91.9872 252.6602,-83.4038 235.5,-67 221.0562,-53.1929 202.7123,-40.1266 188.1554,-30.61"/>
<polygon fill="#191970" stroke="#191970" points="189.9596,-27.6093 179.6497,-25.1685 186.1872,-33.5059 189.9596,-27.6093"/>
</g>
<!-- Node7 -->
<g id="node8" class="node">
<title>Node7</title>
<g id="a_node8"><a xlink:href="jsp__makespan__minimization__solution_8hpp.html" target="_top" xlink:title="JSP Makespan Minimization.">
<polygon fill="none" stroke="#000000" points="519.5,-73 519.5,-103 657.5,-103 657.5,-73 519.5,-73"/>
<text text-anchor="start" x="527.5" y="-91" font-family="Helvetica,sans-Serif" font-size="10.00" fill="#000000">problems/jsp/jsp_makespan</text>
<text text-anchor="middle" x="588.5" y="-80" font-family="Helvetica,sans-Serif" font-size="10.00" fill="#000000">_minimization_solution.hpp</text>
</a>
</g>
</g>
<!-- Node2&#45;&gt;Node7 -->
<g id="edge7" class="edge">
<title>Node2&#45;&gt;Node7</title>
<path fill="none" stroke="#191970" d="M383.9578,-145.478C425.0371,-133.9343 481.8966,-117.9564 525.2415,-105.7761"/>
<polygon fill="#191970" stroke="#191970" points="526.4305,-109.0777 535.1107,-103.0028 524.5367,-102.3387 526.4305,-109.0777"/>
</g>
<!-- Node14 -->
<g id="node15" class="node">
<title>Node14</title>
<g id="a_node15"><a xlink:href="template__utils_8hpp.html" target="_top" xlink:title=" ">
<polygon fill="none" stroke="#000000" points="269,-6 269,-25 386,-25 386,-6 269,-6"/>
<text text-anchor="middle" x="327.5" y="-13" font-family="Helvetica,sans-Serif" font-size="10.00" fill="#000000">utils/template_utils.hpp</text>
</a>
</g>
</g>
<!-- Node2&#45;&gt;Node14 -->
<g id="edge34" class="edge">
<title>Node2&#45;&gt;Node14</title>
<path fill="none" stroke="#191970" d="M330.1846,-145.2565C329.6401,-118.9384 328.5238,-64.9833 327.9163,-35.6195"/>
<polygon fill="#191970" stroke="#191970" points="331.41,-35.2734 327.7038,-25.348 324.4114,-35.4183 331.41,-35.2734"/>
</g>
<!-- Node2&#45;&gt;Node16 -->
<g id="edge18" class="edge">
<title>Node2&#45;&gt;Node16</title>
<path fill="none" stroke="#191970" d="M295.2759,-145.478C269.0629,-134.2989 233.0984,-118.9611 204.9137,-106.9411"/>
<polygon fill="#191970" stroke="#191970" points="206.2504,-103.7063 195.679,-103.0028 203.5044,-110.1452 206.2504,-103.7063"/>
</g>
<!-- Node18 -->
<g id="node19" class="node">
<title>Node18</title>
<g id="a_node19"><a xlink:href="jsp__total__weighted__tardiness__minimization__solution_8hpp.html" target="_top" xlink:title="JSP Total Weighted Tardiness.">
<polygon fill="none" stroke="#000000" points="675.5,-67.5 675.5,-108.5 841.5,-108.5 841.5,-67.5 675.5,-67.5"/>
<text text-anchor="start" x="683.5" y="-96.5" font-family="Helvetica,sans-Serif" font-size="10.00" fill="#000000">problems/jsp/jsp_total</text>
<text text-anchor="start" x="683.5" y="-85.5" font-family="Helvetica,sans-Serif" font-size="10.00" fill="#000000">_weighted_tardiness_minimization</text>
<text text-anchor="middle" x="758.5" y="-74.5" font-family="Helvetica,sans-Serif" font-size="10.00" fill="#000000">_solution.hpp</text>
</a>
</g>
</g>
<!-- Node2&#45;&gt;Node18 -->
<g id="edge23" class="edge">
<title>Node2&#45;&gt;Node18</title>
<path fill="none" stroke="#191970" d="M393.2769,-152.2603C458.7678,-143.3527 564.6214,-128.0813 665.2756,-109.1731"/>
<polygon fill="#191970" stroke="#191970" points="666.138,-112.572 675.3119,-107.2721 664.8353,-105.6943 666.138,-112.572"/>
</g>
<!-- Node7&#45;&gt;Node4 -->
<g id="edge12" class="edge">
<title>Node7&#45;&gt;Node4</title>
<path fill="none" stroke="#191970" d="M640.7257,-72.9417C649.2943,-70.7593 658.113,-68.685 666.5,-67 784.3266,-43.3285 818.1031,-60.9203 934.5,-31 937.2725,-30.2873 940.1143,-29.4392 942.9419,-28.5124"/>
<polygon fill="#191970" stroke="#191970" points="944.1406,-31.8009 952.3803,-25.1407 941.7856,-25.2089 944.1406,-31.8009"/>
</g>
<!-- Node7&#45;&gt;Node5 -->
<g id="edge13" class="edge">
<title>Node7&#45;&gt;Node5</title>
<path fill="none" stroke="#191970" d="M639.8403,-72.9315C648.6771,-70.6966 657.8126,-68.6081 666.5,-67 819.3946,-38.6977 862.0787,-61.7492 1014.5,-31 1018.9053,-30.1113 1023.4744,-29.002 1027.9868,-27.7878"/>
<polygon fill="#191970" stroke="#191970" points="1029.0402,-31.1268 1037.6887,-25.0069 1027.1114,-24.3978 1029.0402,-31.1268"/>
</g>
<!-- Node8 -->
<g id="node9" class="node">
<title>Node8</title>
<g id="a_node9"><a xlink:title=" ">
<polygon fill="none" stroke="#bfbfbf" points="743.5,-6 743.5,-25 793.5,-25 793.5,-6 743.5,-6"/>
<text text-anchor="middle" x="768.5" y="-13" font-family="Helvetica,sans-Serif" font-size="10.00" fill="#000000">optional</text>
</a>
</g>
</g>
<!-- Node7&#45;&gt;Node8 -->
<g id="edge8" class="edge">
<title>Node7&#45;&gt;Node8</title>
<path fill="none" stroke="#191970" d="M628.7107,-72.9898C658.1713,-61.8259 699.0362,-45.9928 734.5,-31 735.8818,-30.4158 737.2913,-29.8107 738.7124,-29.1933"/>
<polygon fill="#191970" stroke="#191970" points="740.3675,-32.2879 748.0849,-25.0289 737.5252,-25.8909 740.3675,-32.2879"/>
</g>
<!-- Node9 -->
<g id="node10" class="node">
<title>Node9</title>
<g id="a_node10"><a xlink:title=" ">
<polygon fill="none" stroke="#bfbfbf" points="812,-6 812,-25 855,-25 855,-6 812,-6"/>
<text text-anchor="middle" x="833.5" y="-13" font-family="Helvetica,sans-Serif" font-size="10.00" fill="#000000">queue</text>
</a>
</g>
</g>
<!-- Node7&#45;&gt;Node9 -->
<g id="edge9" class="edge">
<title>Node7&#45;&gt;Node9</title>
<path fill="none" stroke="#191970" d="M644.3081,-72.9441C651.7679,-70.9405 659.3189,-68.9171 666.5,-67 726.9105,-50.8724 744.0086,-53.0971 802.5,-31 803.872,-30.4817 805.2639,-29.9215 806.6592,-29.3322"/>
<polygon fill="#191970" stroke="#191970" points="808.1237,-32.5112 815.7479,-25.1543 805.2,-26.151 808.1237,-32.5112"/>
</g>
<!-- Node10 -->
<g id="node11" class="node">
<title>Node10</title>
<g id="a_node11"><a xlink:title=" ">
<polygon fill="none" stroke="#bfbfbf" points="873.5,-6 873.5,-25 925.5,-25 925.5,-6 873.5,-6"/>
<text text-anchor="middle" x="899.5" y="-13" font-family="Helvetica,sans-Serif" font-size="10.00" fill="#000000">sstream</text>
</a>
</g>
</g>
<!-- Node7&#45;&gt;Node10 -->
<g id="edge10" class="edge">
<title>Node7&#45;&gt;Node10</title>
<path fill="none" stroke="#191970" d="M642.0621,-72.9512C650.2214,-70.8412 658.5647,-68.7863 666.5,-67 753.759,-47.3567 779.0093,-57.2933 864.5,-31 866.616,-30.3492 868.7739,-29.6053 870.9271,-28.8036"/>
<polygon fill="#191970" stroke="#191970" points="872.2519,-32.0433 880.1913,-25.0277 869.6098,-25.561 872.2519,-32.0433"/>
</g>
<!-- Node11 -->
<g id="node12" class="node">
<title>Node11</title>
<g id="a_node12"><a xlink:title=" ">
<polygon fill="none" stroke="#bfbfbf" points="404,-6 404,-25 445,-25 445,-6 404,-6"/>
<text text-anchor="middle" x="424.5" y="-13" font-family="Helvetica,sans-Serif" font-size="10.00" fill="#000000">string</text>
</a>
</g>
</g>
<!-- Node7&#45;&gt;Node11 -->
<g id="edge11" class="edge">
<title>Node7&#45;&gt;Node11</title>
<path fill="none" stroke="#191970" d="M550.9124,-72.8915C523.8672,-61.8076 486.6437,-46.1146 454.5,-31 453.5185,-30.5385 452.5223,-30.0628 451.5184,-29.5772"/>
<polygon fill="#191970" stroke="#191970" points="452.9868,-26.3984 442.4763,-25.0643 449.8608,-32.6617 452.9868,-26.3984"/>
</g>
<!-- Node12 -->
<g id="node13" class="node">
<title>Node12</title>
<g id="a_node13"><a xlink:title=" ">
<polygon fill="none" stroke="#bfbfbf" points="463.5,-6 463.5,-25 541.5,-25 541.5,-6 463.5,-6"/>
<text text-anchor="middle" x="502.5" y="-13" font-family="Helvetica,sans-Serif" font-size="10.00" fill="#000000">unordered_set</text>
</a>
</g>
</g>
<!-- Node7&#45;&gt;Node12 -->
<g id="edge14" class="edge">
<title>Node7&#45;&gt;Node12</title>
<path fill="none" stroke="#191970" d="M570.6807,-72.978C556.4507,-60.9817 536.5399,-44.1964 521.9078,-31.8612"/>
<polygon fill="#191970" stroke="#191970" points="523.887,-28.952 513.9854,-25.1825 519.3752,-34.304 523.887,-28.952"/>
</g>
<!-- Node13 -->
<g id="node14" class="node">
<title>Node13</title>
<g id="a_node14"><a xlink:title=" ">
<polygon fill="none" stroke="#bfbfbf" points="559.5,-6 559.5,-25 599.5,-25 599.5,-6 559.5,-6"/>
<text text-anchor="middle" x="579.5" y="-13" font-family="Helvetica,sans-Serif" font-size="10.00" fill="#000000">utility</text>
</a>
</g>
</g>
<!-- Node7&#45;&gt;Node13 -->
<g id="edge15" class="edge">
<title>Node7&#45;&gt;Node13</title>
<path fill="none" stroke="#191970" d="M586.6352,-72.978C585.293,-62.1657 583.4678,-47.4631 581.9995,-35.6348"/>
<polygon fill="#191970" stroke="#191970" points="585.4338,-34.8883 580.7284,-25.3957 578.4871,-35.7507 585.4338,-34.8883"/>
</g>
<!-- Node7&#45;&gt;Node14 -->
<g id="edge16" class="edge">
<title>Node7&#45;&gt;Node14</title>
<path fill="none" stroke="#191970" d="M534.4206,-72.978C486.2519,-59.5977 416.6356,-40.2599 371.7223,-27.784"/>
<polygon fill="#191970" stroke="#191970" points="372.5477,-24.3808 361.9757,-25.0766 370.6741,-31.1254 372.5477,-24.3808"/>
</g>
<!-- Node15 -->
<g id="node16" class="node">
<title>Node15</title>
<g id="a_node16"><a xlink:href="triangular__fuzzy__number_8hpp.html" target="_top" xlink:title="Triangular Fuzzy Number.">
<polygon fill="none" stroke="#000000" points="618,-.5 618,-30.5 725,-30.5 725,-.5 618,-.5"/>
<text text-anchor="start" x="626" y="-18.5" font-family="Helvetica,sans-Serif" font-size="10.00" fill="#000000">utils/triangular_fuzzy</text>
<text text-anchor="middle" x="671.5" y="-7.5" font-family="Helvetica,sans-Serif" font-size="10.00" fill="#000000">_number.hpp</text>
</a>
</g>
</g>
<!-- Node7&#45;&gt;Node15 -->
<g id="edge17" class="edge">
<title>Node7&#45;&gt;Node15</title>
<path fill="none" stroke="#191970" d="M605.6977,-72.978C617.4942,-62.6738 633.3357,-48.8363 646.5192,-37.3206"/>
<polygon fill="#191970" stroke="#191970" points="649.0955,-39.7174 654.3244,-30.5028 644.4904,-34.4455 649.0955,-39.7174"/>
</g>
<!-- Node16&#45;&gt;Node1 -->
<g id="edge21" class="edge">
<title>Node16&#45;&gt;Node1</title>
<path fill="none" stroke="#191970" d="M132.3207,-72.978C108.6606,-60.365 75.0699,-42.4582 51.6917,-29.9956"/>
<polygon fill="#191970" stroke="#191970" points="53.134,-26.7982 42.663,-25.1825 49.841,-32.9753 53.134,-26.7982"/>
</g>
<!-- Node16&#45;&gt;Node3 -->
<g id="edge20" class="edge">
<title>Node16&#45;&gt;Node3</title>
<path fill="none" stroke="#191970" d="M174.3824,-72.978C185.1986,-61.274 200.2273,-45.0115 211.5396,-32.7706"/>
<polygon fill="#191970" stroke="#191970" points="214.1385,-35.1153 218.355,-25.3957 208.9975,-30.3644 214.1385,-35.1153"/>
</g>
<!-- Node16&#45;&gt;Node6 -->
<g id="edge22" class="edge">
<title>Node16&#45;&gt;Node6</title>
<path fill="none" stroke="#191970" d="M161.1216,-72.978C161.569,-62.1657 162.1774,-47.4631 162.6668,-35.6348"/>
<polygon fill="#191970" stroke="#191970" points="166.174,-35.5319 163.0905,-25.3957 159.18,-35.2424 166.174,-35.5319"/>
</g>
<!-- Node17 -->
<g id="node18" class="node">
<title>Node17</title>
<g id="a_node18"><a xlink:title=" ">
<polygon fill="none" stroke="#bfbfbf" points="67.5,-6 67.5,-25 123.5,-25 123.5,-6 67.5,-6"/>
<text text-anchor="middle" x="95.5" y="-13" font-family="Helvetica,sans-Serif" font-size="10.00" fill="#000000">algorithm</text>
</a>
</g>
</g>
<!-- Node16&#45;&gt;Node17 -->
<g id="edge19" class="edge">
<title>Node16&#45;&gt;Node17</title>
<path fill="none" stroke="#191970" d="M147.032,-72.978C136.6387,-61.3854 122.2359,-45.3209 111.2985,-33.1214"/>
<polygon fill="#191970" stroke="#191970" points="113.6535,-30.505 104.372,-25.3957 108.4415,-35.1778 113.6535,-30.505"/>
</g>
<!-- Node18&#45;&gt;Node4 -->
<g id="edge28" class="edge">
<title>Node18&#45;&gt;Node4</title>
<path fill="none" stroke="#191970" d="M824.8235,-67.4949C857.9236,-57.0145 898.4859,-43.7981 934.5,-31 936.6097,-30.2503 938.7755,-29.4629 940.9551,-28.6571"/>
<polygon fill="#191970" stroke="#191970" points="942.3497,-31.8718 950.4688,-25.0651 939.8771,-25.323 942.3497,-31.8718"/>
</g>
<!-- Node18&#45;&gt;Node5 -->
<g id="edge29" class="edge">
<title>Node18&#45;&gt;Node5</title>
<path fill="none" stroke="#191970" d="M841.6062,-71.1661C891.8808,-60.5687 957.1423,-46.0784 1014.5,-31 1018.1136,-30.0501 1021.8559,-29.0142 1025.5964,-27.9432"/>
<polygon fill="#191970" stroke="#191970" points="1026.7968,-31.2385 1035.4042,-25.0608 1024.823,-24.5225 1026.7968,-31.2385"/>
</g>
<!-- Node18&#45;&gt;Node8 -->
<g id="edge24" class="edge">
<title>Node18&#45;&gt;Node8</title>
<path fill="none" stroke="#191970" d="M761.3389,-67.4183C762.7317,-57.32 764.4017,-45.213 765.7784,-35.2314"/>
<polygon fill="#191970" stroke="#191970" points="769.2786,-35.4698 767.1779,-25.0853 762.3443,-34.5133 769.2786,-35.4698"/>
</g>
<!-- Node18&#45;&gt;Node9 -->
<g id="edge25" class="edge">
<title>Node18&#45;&gt;Node9</title>
<path fill="none" stroke="#191970" d="M779.7914,-67.4183C791.3612,-56.2342 805.4799,-42.5861 816.3375,-32.0904"/>
<polygon fill="#191970" stroke="#191970" points="818.8268,-34.5521 823.5841,-25.0853 813.9616,-29.5191 818.8268,-34.5521"/>
</g>
<!-- Node18&#45;&gt;Node10 -->
<g id="edge26" class="edge">
<title>Node18&#45;&gt;Node10</title>
<path fill="none" stroke="#191970" d="M798.5278,-67.4183C821.9684,-55.3655 850.9744,-40.4511 871.8747,-29.7045"/>
<polygon fill="#191970" stroke="#191970" points="873.5654,-32.7708 880.8581,-25.0853 870.3644,-26.5455 873.5654,-32.7708"/>
</g>
<!-- Node18&#45;&gt;Node11 -->
<g id="edge27" class="edge">
<title>Node18&#45;&gt;Node11</title>
<path fill="none" stroke="#191970" d="M675.3002,-68.7883C672.3327,-68.1733 669.3923,-67.5752 666.5,-67 572.7646,-48.3586 545.1425,-61.2946 454.5,-31 453.0752,-30.5238 451.6351,-29.9876 450.197,-29.4083"/>
<polygon fill="#191970" stroke="#191970" points="451.4662,-26.1396 440.919,-25.136 448.5383,-32.4978 451.4662,-26.1396"/>
</g>
<!-- Node18&#45;&gt;Node12 -->
<g id="edge30" class="edge">
<title>Node18&#45;&gt;Node12</title>
<path fill="none" stroke="#191970" d="M680.2338,-67.4426C641.1439,-56.9493 593.1972,-43.7372 550.5,-31 547.3951,-30.0738 544.185,-29.0915 540.965,-28.0887"/>
<polygon fill="#191970" stroke="#191970" points="541.9606,-24.7327 531.3706,-25.0545 539.8498,-31.4069 541.9606,-24.7327"/>
</g>
<!-- Node18&#45;&gt;Node13 -->
<g id="edge31" class="edge">
<title>Node18&#45;&gt;Node13</title>
<path fill="none" stroke="#191970" d="M700.2189,-67.4196C672.4499,-57.1798 638.947,-44.1902 609.5,-31 608.4835,-30.5447 607.4526,-30.0715 606.415,-29.5858"/>
<polygon fill="#191970" stroke="#191970" points="607.6256,-26.2809 597.107,-25.0115 604.5382,-32.5633 607.6256,-26.2809"/>
</g>
<!-- Node18&#45;&gt;Node14 -->
<g id="edge32" class="edge">
<title>Node18&#45;&gt;Node14</title>
<path fill="none" stroke="#191970" d="M675.3259,-68.6526C672.3512,-68.076 669.4022,-67.5228 666.5,-67 546.9224,-45.4576 515.0808,-52.5242 395.5,-31 389.3219,-29.888 382.8572,-28.5906 376.4755,-27.2287"/>
<polygon fill="#191970" stroke="#191970" points="377.0865,-23.7795 366.5684,-25.0526 375.5847,-30.6165 377.0865,-23.7795"/>
</g>
<!-- Node18&#45;&gt;Node15 -->
<g id="edge33" class="edge">
<title>Node18&#45;&gt;Node15</title>
<path fill="none" stroke="#191970" d="M733.802,-67.4183C722.4831,-57.9859 709.0612,-46.801 697.579,-37.2325"/>
<polygon fill="#191970" stroke="#191970" points="699.5418,-34.3122 689.6189,-30.5991 695.0605,-39.6898 699.5418,-34.3122"/>
</g>
</g>
</svg>
