<?xml version="1.0" encoding="UTF-8" standalone="no"?>
<!DOCTYPE svg PUBLIC "-//W3C//DTD SVG 1.1//EN"
 "http://www.w3.org/Graphics/SVG/1.1/DTD/svg11.dtd">
<!-- Generated by graphviz version 2.40.1 (20161225.0304)
 -->
<!-- Title: problems/jsp/jsp_total_weighted_tardiness_minimization_solution.hpp Pages: 1 -->
<!--zoomable 117 -->
<svg id="main" version="1.1" xmlns="http://www.w3.org/2000/svg" xmlns:xlink="http://www.w3.org/1999/xlink" xml:space="preserve" onload="init(evt)">
<style type="text/css"><![CDATA[
.edge:hover path { stroke: red; }
.edge:hover polygon { stroke: red; fill: red; }
]]></style>
<script type="text/javascript"><![CDATA[
var edges = document.getElementsByTagName('g');
if (edges && edges.length) {
  for (var i=0;i<edges.length;i++) {
    if (edges[i].id.substr(0,4)=='edge') {
      edges[i].setAttribute('class','edge');
    }
  }
}
]]></script>
        <defs>
                <circle id="rim" cx="0" cy="0" r="7"/>
                <circle id="rim2" cx="0" cy="0" r="3.5"/>
                <g id="zoomPlus">
                        <use xlink:href="#rim" fill="#404040">
                                <set attributeName="fill" to="#808080" begin="zoomplus.mouseover" end="zoomplus.mouseout"/>
                        </use>
                        <path d="M-4,0h8M0,-4v8" fill="none" stroke="white" stroke-width="1.5" pointer-events="none"/>
                </g>
                <g id="zoomMin">
                        <use xlink:href="#rim" fill="#404040">
                                <set attributeName="fill" to="#808080" begin="zoomminus.mouseover" end="zoomminus.mouseout"/>
                        </use>
                        <path d="M-4,0h8" fill="none" stroke="white" stroke-width="1.5" pointer-events="none"/>
                </g>
                <g id="dirArrow">
                        <path fill="none" stroke="white" stroke-width="1.5" d="M0,-3.0v7 M-2.5,-0.5L0,-3.0L2.5,-0.5"/>
                </g>
               <g id="resetDef">
                       <use xlink:href="#rim2" fill="#404040">
                               <set attributeName="fill" to="#808080" begin="reset.mouseover" end="reset.mouseout"/>
                       </use>
               </g>
        </defs>

<script type="text/javascript">
var viewWidth = 847;
var viewHeight = 117;
var sectionId = 'dynsection-0';
</script>
<script xlink:href="svgpan.js"/>
<svg id="graph" class="graph">
<g id="viewport">
<title>problems/jsp/jsp_total_weighted_tardiness_minimization_solution.hpp</title>
<!-- Node0 -->
<g id="node1" class="node">
<title>Node0</title>
<g id="a_node1"><a xlink:title="JSP Total Weighted Tardiness.">
<polygon fill="#bfbfbf" stroke="#000000" points="253,-67.5 253,-108.5 419,-108.5 419,-67.5 253,-67.5"/>
<text text-anchor="start" x="261" y="-96.5" font-family="Helvetica,sans-Serif" font-size="10.00" fill="#000000">problems/jsp/jsp_total</text>
<text text-anchor="start" x="261" y="-85.5" font-family="Helvetica,sans-Serif" font-size="10.00" fill="#000000">_weighted_tardiness_minimization</text>
<text text-anchor="middle" x="336" y="-74.5" font-family="Helvetica,sans-Serif" font-size="10.00" fill="#000000">_solution.hpp</text>
</a>
</g>
</g>
<!-- Node1 -->
<g id="node2" class="node">
<title>Node1</title>
<g id="a_node2"><a xlink:title=" ">
<polygon fill="none" stroke="#bfbfbf" points="0,-6 0,-25 50,-25 50,-6 0,-6"/>
<text text-anchor="middle" x="25" y="-13" font-family="Helvetica,sans-Serif" font-size="10.00" fill="#000000">optional</text>
</a>
</g>
</g>
<!-- Node0&#45;&gt;Node1 -->
<g id="edge1" class="edge">
<title>Node0&#45;&gt;Node1</title>
<path fill="none" stroke="#191970" d="M252.9253,-75.9219C197.2356,-66.6102 122.714,-51.7851 59,-31 57.1498,-30.3964 55.2663,-29.7214 53.3828,-29.0001"/>
<polygon fill="#191970" stroke="#191970" points="54.6941,-25.7548 44.1182,-25.1227 51.9916,-32.2121 54.6941,-25.7548"/>
</g>
<!-- Node2 -->
<g id="node3" class="node">
<title>Node2</title>
<g id="a_node3"><a xlink:title=" ">
<polygon fill="none" stroke="#bfbfbf" points="68.5,-6 68.5,-25 111.5,-25 111.5,-6 68.5,-6"/>
<text text-anchor="middle" x="90" y="-13" font-family="Helvetica,sans-Serif" font-size="10.00" fill="#000000">queue</text>
</a>
</g>
</g>
<!-- Node0&#45;&gt;Node2 -->
<g id="edge2" class="edge">
<title>Node0&#45;&gt;Node2</title>
<path fill="none" stroke="#191970" d="M252.8282,-70.1507C212.4252,-60.4242 163.5329,-47.0776 121,-31 119.6281,-30.4814 118.2363,-29.921 116.841,-29.3316"/>
<polygon fill="#191970" stroke="#191970" points="118.3004,-26.1504 107.7526,-25.1531 115.3763,-32.5104 118.3004,-26.1504"/>
</g>
<!-- Node3 -->
<g id="node4" class="node">
<title>Node3</title>
<g id="a_node4"><a xlink:title=" ">
<polygon fill="none" stroke="#bfbfbf" points="130,-6 130,-25 182,-25 182,-6 130,-6"/>
<text text-anchor="middle" x="156" y="-13" font-family="Helvetica,sans-Serif" font-size="10.00" fill="#000000">sstream</text>
</a>
</g>
</g>
<!-- Node0&#45;&gt;Node3 -->
<g id="edge3" class="edge">
<title>Node0&#45;&gt;Node3</title>
<path fill="none" stroke="#191970" d="M282.0701,-67.4252C254.6824,-56.8184 220.9501,-43.512 191,-31 189.6203,-30.4236 188.2128,-29.8288 186.7929,-29.2233"/>
<polygon fill="#191970" stroke="#191970" points="187.9761,-25.9215 177.4092,-25.1529 185.1905,-32.3434 187.9761,-25.9215"/>
</g>
<!-- Node4 -->
<g id="node5" class="node">
<title>Node4</title>
<g id="a_node5"><a xlink:title=" ">
<polygon fill="none" stroke="#bfbfbf" points="200.5,-6 200.5,-25 241.5,-25 241.5,-6 200.5,-6"/>
<text text-anchor="middle" x="221" y="-13" font-family="Helvetica,sans-Serif" font-size="10.00" fill="#000000">string</text>
</a>
</g>
</g>
<!-- Node0&#45;&gt;Node4 -->
<g id="edge4" class="edge">
<title>Node0&#45;&gt;Node4</title>
<path fill="none" stroke="#191970" d="M303.3532,-67.4183C284.7517,-55.6913 261.8531,-41.2552 244.9276,-30.5848"/>
<polygon fill="#191970" stroke="#191970" points="246.5302,-27.4577 236.2043,-25.0853 242.797,-33.3791 246.5302,-27.4577"/>
</g>
<!-- Node5 -->
<g id="node6" class="node">
<title>Node5</title>
<g id="a_node6"><a xlink:title=" ">
<polygon fill="none" stroke="#bfbfbf" points="260,-6 260,-25 322,-25 322,-6 260,-6"/>
<text text-anchor="middle" x="291" y="-13" font-family="Helvetica,sans-Serif" font-size="10.00" fill="#000000">type_traits</text>
</a>
</g>
</g>
<!-- Node0&#45;&gt;Node5 -->
<g id="edge5" class="edge">
<title>Node0&#45;&gt;Node5</title>
<path fill="none" stroke="#191970" d="M323.2252,-67.4183C316.6203,-56.7771 308.6309,-43.9053 302.2596,-33.6405"/>
<polygon fill="#191970" stroke="#191970" points="305.1969,-31.736 296.9495,-25.0853 299.2495,-35.4276 305.1969,-31.736"/>
</g>
<!-- Node6 -->
<g id="node7" class="node">
<title>Node6</title>
<g id="a_node7"><a xlink:title=" ">
<polygon fill="none" stroke="#bfbfbf" points="340.5,-6 340.5,-25 423.5,-25 423.5,-6 340.5,-6"/>
<text text-anchor="middle" x="382" y="-13" font-family="Helvetica,sans-Serif" font-size="10.00" fill="#000000">unordered_map</text>
</a>
</g>
</g>
<!-- Node0&#45;&gt;Node6 -->
<g id="edge6" class="edge">
<title>Node0&#45;&gt;Node6</title>
<path fill="none" stroke="#191970" d="M349.0587,-67.4183C355.8104,-56.7771 363.9773,-43.9053 370.4901,-33.6405"/>
<polygon fill="#191970" stroke="#191970" points="373.5161,-35.4043 375.9183,-25.0853 367.6054,-31.654 373.5161,-35.4043"/>
</g>
<!-- Node7 -->
<g id="node8" class="node">
<title>Node7</title>
<g id="a_node8"><a xlink:title=" ">
<polygon fill="none" stroke="#bfbfbf" points="442,-6 442,-25 520,-25 520,-6 442,-6"/>
<text text-anchor="middle" x="481" y="-13" font-family="Helvetica,sans-Serif" font-size="10.00" fill="#000000">unordered_set</text>
</a>
</g>
</g>
<!-- Node0&#45;&gt;Node7 -->
<g id="edge7" class="edge">
<title>Node0&#45;&gt;Node7</title>
<path fill="none" stroke="#191970" d="M377.1633,-67.4183C401.3775,-55.3112 431.3666,-40.3167 452.881,-29.5595"/>
<polygon fill="#191970" stroke="#191970" points="454.4503,-32.688 461.8293,-25.0853 451.3198,-26.427 454.4503,-32.688"/>
</g>
<!-- Node8 -->
<g id="node9" class="node">
<title>Node8</title>
<g id="a_node9"><a xlink:title=" ">
<polygon fill="none" stroke="#bfbfbf" points="538,-6 538,-25 578,-25 578,-6 538,-6"/>
<text text-anchor="middle" x="558" y="-13" font-family="Helvetica,sans-Serif" font-size="10.00" fill="#000000">utility</text>
</a>
</g>
</g>
<!-- Node0&#45;&gt;Node8 -->
<g id="edge8" class="edge">
<title>Node0&#45;&gt;Node8</title>
<path fill="none" stroke="#191970" d="M418.973,-67.4882C453.5439,-57.9211 493.7632,-45.4436 529,-31 530.03,-30.5778 531.0714,-30.13 532.1164,-29.6629"/>
<polygon fill="#191970" stroke="#191970" points="533.9703,-32.6522 541.4118,-25.1106 530.8915,-26.3656 533.9703,-32.6522"/>
</g>
<!-- Node9 -->
<g id="node10" class="node">
<title>Node9</title>
<g id="a_node10"><a xlink:href="template__utils_8hpp.html" target="_top" xlink:title=" ">
<polygon fill="none" stroke="#000000" points="596.5,-6 596.5,-25 713.5,-25 713.5,-6 596.5,-6"/>
<text text-anchor="middle" x="655" y="-13" font-family="Helvetica,sans-Serif" font-size="10.00" fill="#000000">utils/template_utils.hpp</text>
</a>
</g>
</g>
<!-- Node0&#45;&gt;Node9 -->
<g id="edge9" class="edge">
<title>Node0&#45;&gt;Node9</title>
<path fill="none" stroke="#191970" d="M419.0992,-69.1466C467.987,-58.0505 531.0095,-43.7388 587,-31 592.313,-29.7912 597.8593,-28.5284 603.3926,-27.268"/>
<polygon fill="#191970" stroke="#191970" points="604.313,-30.6481 613.2856,-25.014 602.758,-23.823 604.313,-30.6481"/>
</g>
<!-- Node10 -->
<g id="node11" class="node">
<title>Node10</title>
<g id="a_node11"><a xlink:href="triangular__fuzzy__number_8hpp.html" target="_top" xlink:title="Triangular Fuzzy Number.">
<polygon fill="none" stroke="#000000" points="731.5,-.5 731.5,-30.5 838.5,-30.5 838.5,-.5 731.5,-.5"/>
<text text-anchor="start" x="739.5" y="-18.5" font-family="Helvetica,sans-Serif" font-size="10.00" fill="#000000">utils/triangular_fuzzy</text>
<text text-anchor="middle" x="785" y="-7.5" font-family="Helvetica,sans-Serif" font-size="10.00" fill="#000000">_number.hpp</text>
</a>
</g>
</g>
<!-- Node0&#45;&gt;Node10 -->
<g id="edge10" class="edge">
<title>Node0&#45;&gt;Node10</title>
<path fill="none" stroke="#191970" d="M419.0706,-78.1758C495.4106,-68.5958 611.8457,-52.596 721.4048,-31.2187"/>
<polygon fill="#191970" stroke="#191970" points="722.1697,-34.6354 731.3046,-29.2685 720.8167,-27.7674 722.1697,-34.6354"/>
</g>
</g>
</svg>
        <g id="navigator" transform="translate(0 0)" fill="#404254">
                <rect fill="#f2f5e9" fill-opacity="0.5" stroke="#606060" stroke-width=".5" x="0" y="0" width="60" height="60"/>
                <use id="zoomplus" xlink:href="#zoomPlus" x="17" y="9" onmousedown="handleZoom(evt,'in')"/>
                <use id="zoomminus" xlink:href="#zoomMin" x="42" y="9" onmousedown="handleZoom(evt,'out')"/>
                <use id="reset" xlink:href="#resetDef" x="30" y="36" onmousedown="handleReset()"/>
                <g id="arrowUp" xlink:href="#dirArrow" transform="translate(30 24)" onmousedown="handlePan(0,-1)">
                  <use xlink:href="#rim" fill="#404040">
                        <set attributeName="fill" to="#808080" begin="arrowUp.mouseover" end="arrowUp.mouseout"/>
                  </use>
                  <path fill="none" stroke="white" stroke-width="1.5" d="M0,-3.0v7 M-2.5,-0.5L0,-3.0L2.5,-0.5"/>
                </g>
                <g id="arrowRight" xlink:href="#dirArrow" transform="rotate(90) translate(36 -43)" onmousedown="handlePan(1,0)">
                  <use xlink:href="#rim" fill="#404040">
                        <set attributeName="fill" to="#808080" begin="arrowRight.mouseover" end="arrowRight.mouseout"/>
                  </use>
                  <path fill="none" stroke="white" stroke-width="1.5" d="M0,-3.0v7 M-2.5,-0.5L0,-3.0L2.5,-0.5"/>
                </g>
                <g id="arrowDown" xlink:href="#dirArrow" transform="rotate(180) translate(-30 -48)" onmousedown="handlePan(0,1)">
                  <use xlink:href="#rim" fill="#404040">
                        <set attributeName="fill" to="#808080" begin="arrowDown.mouseover" end="arrowDown.mouseout"/>
                  </use>
                  <path fill="none" stroke="white" stroke-width="1.5" d="M0,-3.0v7 M-2.5,-0.5L0,-3.0L2.5,-0.5"/>
                </g>
                <g id="arrowLeft" xlink:href="#dirArrow" transform="rotate(270) translate(-36 17)" onmousedown="handlePan(-1,0)">
                  <use xlink:href="#rim" fill="#404040">
                        <set attributeName="fill" to="#808080" begin="arrowLeft.mouseover" end="arrowLeft.mouseout"/>
                  </use>
                  <path fill="none" stroke="white" stroke-width="1.5" d="M0,-3.0v7 M-2.5,-0.5L0,-3.0L2.5,-0.5"/>
                </g>
        </g>
        <svg viewBox="0 0 15 15" width="100%" height="30px" preserveAspectRatio="xMaxYMin meet">
         <g id="arrow_out" transform="scale(0.3 0.3)">
          <a xlink:href="jsp__total__weighted__tardiness__minimization__solution_8hpp__incl_org.svg" target="_base">
           <rect id="button" ry="5" rx="5" y="6" x="6" height="38" width="38"
                fill="#f2f5e9" fill-opacity="0.5" stroke="#606060" stroke-width="1.0"/>
           <path id="arrow"
             d="M 11.500037,31.436501 C 11.940474,20.09759 22.043105,11.32322 32.158766,21.979434 L 37.068811,17.246167 C 37.068811,17.246167 37.088388,32 37.088388,32 L 22.160133,31.978069 C 22.160133,31.978069 26.997745,27.140456 26.997745,27.140456 C 18.528582,18.264221 13.291696,25.230495 11.500037,31.436501 z"
             style="fill:#404040;"/>
          </a>
         </g>
        </svg>
</svg>
