<?xml version="1.0" encoding="UTF-8" standalone="no"?>
<!DOCTYPE svg PUBLIC "-//W3C//DTD SVG 1.1//EN"
 "http://www.w3.org/Graphics/SVG/1.1/DTD/svg11.dtd">
<!-- Generated by graphviz version 2.40.1 (20161225.0304)
 -->
<!-- Title: GetQuality Pages: 1 -->
<svg width="514pt" height="137pt"
 viewBox="0.00 0.00 514.00 137.00" xmlns="http://www.w3.org/2000/svg" xmlns:xlink="http://www.w3.org/1999/xlink">
<g id="graph0" class="graph" transform="scale(1 1) rotate(0) translate(4 133)">
<title>GetQuality</title>
<!-- Node10 -->
<g id="node1" class="node">
<title>Node10</title>
<g id="a_node1"><a xlink:title="Returns the quality that results of changing the order of a group of tasks in the same machine.">
<polygon fill="#bfbfbf" stroke="#000000" points="0,-55 0,-74 63,-74 63,-55 0,-55"/>
<text text-anchor="middle" x="31.5" y="-62" font-family="Helvetica,sans-Serif" font-size="10.00" fill="#000000">GetQuality</text>
</a>
</g>
</g>
<!-- Node11 -->
<g id="node2" class="node">
<title>Node11</title>
<g id="a_node2"><a xlink:href="jsp__neighborhoods_8hpp.html#ab8f2d3dee981d75f4fa6e0666542d3b5" target="_top" xlink:title="Estimates the makespan that results of changing the order of a group of tasks in the same machine.">
<polygon fill="none" stroke="#000000" points="128.5,-74 128.5,-93 229.5,-93 229.5,-74 128.5,-74"/>
<text text-anchor="middle" x="179" y="-81" font-family="Helvetica,sans-Serif" font-size="10.00" fill="#000000">EstimateMakespan</text>
</a>
</g>
</g>
<!-- Node10&#45;&gt;Node11 -->
<g id="edge1" class="edge">
<title>Node10&#45;&gt;Node11</title>
<path fill="none" stroke="#191970" d="M63.1425,-68.576C79.2152,-70.6464 99.3006,-73.2336 118.2121,-75.6697"/>
<polygon fill="#191970" stroke="#191970" points="117.8994,-79.1583 128.2647,-76.9646 118.7938,-72.2156 117.8994,-79.1583"/>
</g>
<!-- Node16 -->
<g id="node7" class="node">
<title>Node16</title>
<g id="a_node7"><a xlink:href="jsp__neighborhoods_8hpp.html#ab5eb5a1f5f72d9d82f76d3e90e0f1695" target="_top" xlink:title="Estimates the total weighted tardiness that results of changing the order of a group of tasks in the ...">
<polygon fill="none" stroke="#000000" points="99,-36 99,-55 259,-55 259,-36 99,-36"/>
<text text-anchor="middle" x="179" y="-43" font-family="Helvetica,sans-Serif" font-size="10.00" fill="#000000">EstimateTotalWeightedTardiness</text>
</a>
</g>
</g>
<!-- Node10&#45;&gt;Node16 -->
<g id="edge6" class="edge">
<title>Node10&#45;&gt;Node16</title>
<path fill="none" stroke="#191970" d="M63.1425,-60.424C72.7012,-59.1927 83.6792,-57.7786 94.9854,-56.3222"/>
<polygon fill="#191970" stroke="#191970" points="95.5074,-59.784 104.9782,-55.035 94.613,-52.8414 95.5074,-59.784"/>
</g>
<!-- Node12 -->
<g id="node3" class="node">
<title>Node12</title>
<g id="a_node3"><a xlink:href="namespacestd.html#aabf08e25820a0127a265bb20575664b9" target="_top" xlink:title=" ">
<polygon fill="none" stroke="#000000" points="295,-55 295,-74 350,-74 350,-55 295,-55"/>
<text text-anchor="middle" x="322.5" y="-62" font-family="Helvetica,sans-Serif" font-size="10.00" fill="#000000">std::max</text>
</a>
</g>
</g>
<!-- Node11&#45;&gt;Node12 -->
<g id="edge2" class="edge">
<title>Node11&#45;&gt;Node12</title>
<path fill="none" stroke="#191970" d="M229.5927,-76.8013C247.7687,-74.3947 267.934,-71.7248 284.8203,-69.4889"/>
<polygon fill="#191970" stroke="#191970" points="285.4096,-72.9416 294.8636,-68.1592 284.4907,-66.0021 285.4096,-72.9416"/>
</g>
<!-- Node13 -->
<g id="node4" class="node">
<title>Node13</title>
<g id="a_node4"><a xlink:href="classTriangularFuzzyNumber.html#afe61a993d8d969f858845dbb6b5eb7a0" target="_top" xlink:title="Returns the smallest possible value.">
<polygon fill="none" stroke="#000000" points="386,-98.5 386,-128.5 506,-128.5 506,-98.5 386,-98.5"/>
<text text-anchor="start" x="394" y="-116.5" font-family="Helvetica,sans-Serif" font-size="10.00" fill="#000000">TriangularFuzzyNumber</text>
<text text-anchor="middle" x="446" y="-105.5" font-family="Helvetica,sans-Serif" font-size="10.00" fill="#000000">::GetSmallest</text>
</a>
</g>
</g>
<!-- Node12&#45;&gt;Node13 -->
<g id="edge3" class="edge">
<title>Node12&#45;&gt;Node13</title>
<path fill="none" stroke="#191970" d="M346.6052,-74.064C361.2939,-79.8919 380.5781,-87.5431 398.2481,-94.5539"/>
<polygon fill="#191970" stroke="#191970" points="397.2733,-97.9325 407.8592,-98.3672 399.8549,-91.4259 397.2733,-97.9325"/>
</g>
<!-- Node14 -->
<g id="node5" class="node">
<title>Node14</title>
<g id="a_node5"><a xlink:href="classTriangularFuzzyNumber.html#ac79e432898eb12448e54d085295a09f9" target="_top" xlink:title="Returns the most probable value.">
<polygon fill="none" stroke="#000000" points="386,-49.5 386,-79.5 506,-79.5 506,-49.5 386,-49.5"/>
<text text-anchor="start" x="394" y="-67.5" font-family="Helvetica,sans-Serif" font-size="10.00" fill="#000000">TriangularFuzzyNumber</text>
<text text-anchor="middle" x="446" y="-56.5" font-family="Helvetica,sans-Serif" font-size="10.00" fill="#000000">::GetMostProbable</text>
</a>
</g>
</g>
<!-- Node12&#45;&gt;Node14 -->
<g id="edge4" class="edge">
<title>Node12&#45;&gt;Node14</title>
<path fill="none" stroke="#191970" d="M350.2158,-64.5C357.9148,-64.5 366.6403,-64.5 375.6139,-64.5"/>
<polygon fill="#191970" stroke="#191970" points="375.8095,-68.0001 385.8095,-64.5 375.8094,-61.0001 375.8095,-68.0001"/>
</g>
<!-- Node15 -->
<g id="node6" class="node">
<title>Node15</title>
<g id="a_node6"><a xlink:href="classTriangularFuzzyNumber.html#a0133fef04fbb1a8e571d117c01c6af71" target="_top" xlink:title="Returns the largest possible value.">
<polygon fill="none" stroke="#000000" points="386,-.5 386,-30.5 506,-30.5 506,-.5 386,-.5"/>
<text text-anchor="start" x="394" y="-18.5" font-family="Helvetica,sans-Serif" font-size="10.00" fill="#000000">TriangularFuzzyNumber</text>
<text text-anchor="middle" x="446" y="-7.5" font-family="Helvetica,sans-Serif" font-size="10.00" fill="#000000">::GetLargest</text>
</a>
</g>
</g>
<!-- Node12&#45;&gt;Node15 -->
<g id="edge5" class="edge">
<title>Node12&#45;&gt;Node15</title>
<path fill="none" stroke="#191970" d="M346.6052,-54.936C361.2939,-49.1081 380.5781,-41.4569 398.2481,-34.4461"/>
<polygon fill="#191970" stroke="#191970" points="399.8549,-37.5741 407.8592,-30.6328 397.2733,-31.0675 399.8549,-37.5741"/>
</g>
<!-- Node16&#45;&gt;Node12 -->
<g id="edge7" class="edge">
<title>Node16&#45;&gt;Node12</title>
<path fill="none" stroke="#191970" d="M251.1704,-55.0557C262.791,-56.5943 274.397,-58.131 284.7689,-59.5042"/>
<polygon fill="#191970" stroke="#191970" points="284.3113,-62.9741 294.6842,-60.8171 285.2302,-56.0347 284.3113,-62.9741"/>
</g>
</g>
</svg>
