<?xml version="1.0" encoding="UTF-8" standalone="no"?>
<!DOCTYPE svg PUBLIC "-//W3C//DTD SVG 1.1//EN"
 "http://www.w3.org/Graphics/SVG/1.1/DTD/svg11.dtd">
<!-- Generated by graphviz version 2.40.1 (20161225.0304)
 -->
<!-- Title: problems/jsp/jsp_neighborhoods.hpp Pages: 1 -->
<!--zoomable 173 -->
<svg id="main" version="1.1" xmlns="http://www.w3.org/2000/svg" xmlns:xlink="http://www.w3.org/1999/xlink" xml:space="preserve" onload="init(evt)">
<style type="text/css"><![CDATA[
.edge:hover path { stroke: red; }
.edge:hover polygon { stroke: red; fill: red; }
]]></style>
<script type="text/javascript"><![CDATA[
var edges = document.getElementsByTagName('g');
if (edges && edges.length) {
  for (var i=0;i<edges.length;i++) {
    if (edges[i].id.substr(0,4)=='edge') {
      edges[i].setAttribute('class','edge');
    }
  }
}
]]></script>
        <defs>
                <circle id="rim" cx="0" cy="0" r="7"/>
                <circle id="rim2" cx="0" cy="0" r="3.5"/>
                <g id="zoomPlus">
                        <use xlink:href="#rim" fill="#404040">
                                <set attributeName="fill" to="#808080" begin="zoomplus.mouseover" end="zoomplus.mouseout"/>
                        </use>
                        <path d="M-4,0h8M0,-4v8" fill="none" stroke="white" stroke-width="1.5" pointer-events="none"/>
                </g>
                <g id="zoomMin">
                        <use xlink:href="#rim" fill="#404040">
                                <set attributeName="fill" to="#808080" begin="zoomminus.mouseover" end="zoomminus.mouseout"/>
                        </use>
                        <path d="M-4,0h8" fill="none" stroke="white" stroke-width="1.5" pointer-events="none"/>
                </g>
                <g id="dirArrow">
                        <path fill="none" stroke="white" stroke-width="1.5" d="M0,-3.0v7 M-2.5,-0.5L0,-3.0L2.5,-0.5"/>
                </g>
               <g id="resetDef">
                       <use xlink:href="#rim2" fill="#404040">
                               <set attributeName="fill" to="#808080" begin="reset.mouseover" end="reset.mouseout"/>
                       </use>
               </g>
        </defs>

<script type="text/javascript">
var viewWidth = 1012;
var viewHeight = 173;
var sectionId = 'dynsection-0';
</script>
<script xlink:href="svgpan.js"/>
<svg id="graph" class="graph">
<g id="viewport">
<title>problems/jsp/jsp_neighborhoods.hpp</title>
<!-- Node0 -->
<g id="node1" class="node">
<title>Node0</title>
<g id="a_node1"><a xlink:title="JSP Neighborhoods.">
<polygon fill="#bfbfbf" stroke="#000000" points="355.5,-145.5 355.5,-164.5 530.5,-164.5 530.5,-145.5 355.5,-145.5"/>
<text text-anchor="middle" x="443" y="-152.5" font-family="Helvetica,sans-Serif" font-size="10.00" fill="#000000">problems/jsp/jsp_neighborhoods.hpp</text>
</a>
</g>
</g>
<!-- Node1 -->
<g id="node2" class="node">
<title>Node1</title>
<g id="a_node2"><a xlink:title=" ">
<polygon fill="none" stroke="#bfbfbf" points="40,-78.5 40,-97.5 96,-97.5 96,-78.5 40,-78.5"/>
<text text-anchor="middle" x="68" y="-85.5" font-family="Helvetica,sans-Serif" font-size="10.00" fill="#000000">algorithm</text>
</a>
</g>
</g>
<!-- Node0&#45;&gt;Node1 -->
<g id="edge1" class="edge">
<title>Node0&#45;&gt;Node1</title>
<path fill="none" stroke="#191970" d="M355.4178,-150.7077C287.2606,-145.5158 190.9724,-134.0884 110,-109 104.4517,-107.2809 98.7384,-104.892 93.3817,-102.3394"/>
<polygon fill="#191970" stroke="#191970" points="94.7362,-99.1013 84.2375,-97.6769 91.5565,-105.3375 94.7362,-99.1013"/>
</g>
<!-- Node2 -->
<g id="node3" class="node">
<title>Node2</title>
<g id="a_node3"><a xlink:title=" ">
<polygon fill="none" stroke="#bfbfbf" points="0,-6 0,-25 62,-25 62,-6 0,-6"/>
<text text-anchor="middle" x="31" y="-13" font-family="Helvetica,sans-Serif" font-size="10.00" fill="#000000">type_traits</text>
</a>
</g>
</g>
<!-- Node0&#45;&gt;Node2 -->
<g id="edge2" class="edge">
<title>Node0&#45;&gt;Node2</title>
<path fill="none" stroke="#191970" d="M355.1548,-148.9524C278.4469,-142.3807 173.9229,-129.9158 138,-109 117.4847,-97.0552 122.2657,-83.2927 105,-67 90.1992,-53.0332 71.345,-39.9695 56.3723,-30.494"/>
<polygon fill="#191970" stroke="#191970" points="57.9681,-27.3657 47.6223,-25.082 54.2858,-33.3189 57.9681,-27.3657"/>
</g>
<!-- Node3 -->
<g id="node4" class="node">
<title>Node3</title>
<g id="a_node4"><a xlink:title=" ">
<polygon fill="none" stroke="#bfbfbf" points="80,-6 80,-25 120,-25 120,-6 80,-6"/>
<text text-anchor="middle" x="100" y="-13" font-family="Helvetica,sans-Serif" font-size="10.00" fill="#000000">utility</text>
</a>
</g>
</g>
<!-- Node0&#45;&gt;Node3 -->
<g id="edge3" class="edge">
<title>Node0&#45;&gt;Node3</title>
<path fill="none" stroke="#191970" d="M355.3683,-145.9826C291.1486,-138.1972 210.2838,-125.5867 181,-109 164.2734,-99.5259 131.3316,-57.5811 113.0317,-33.2106"/>
<polygon fill="#191970" stroke="#191970" points="115.7878,-31.0516 107.0092,-25.1198 110.1727,-35.2314 115.7878,-31.0516"/>
</g>
<!-- Node4 -->
<g id="node5" class="node">
<title>Node4</title>
<g id="a_node5"><a xlink:title=" ">
<polygon fill="none" stroke="#bfbfbf" points="856,-6 856,-25 900,-25 900,-6 856,-6"/>
<text text-anchor="middle" x="878" y="-13" font-family="Helvetica,sans-Serif" font-size="10.00" fill="#000000">vector</text>
</a>
</g>
</g>
<!-- Node0&#45;&gt;Node4 -->
<g id="edge4" class="edge">
<title>Node0&#45;&gt;Node4</title>
<path fill="none" stroke="#191970" d="M530.7747,-150.9979C621.1974,-145.5955 755.0752,-133.6499 800,-109 831.5002,-91.7161 855.5556,-56.1668 868.1662,-34.2254"/>
<polygon fill="#191970" stroke="#191970" points="871.3709,-35.6623 873.1405,-25.2162 865.2429,-32.2787 871.3709,-35.6623"/>
</g>
<!-- Node5 -->
<g id="node6" class="node">
<title>Node5</title>
<g id="a_node6"><a xlink:href="jsp__makespan__minimization__solution_8hpp.html" target="_top" xlink:title="JSP Makespan Minimization.">
<polygon fill="none" stroke="#000000" points="374,-73 374,-103 512,-103 512,-73 374,-73"/>
<text text-anchor="start" x="382" y="-91" font-family="Helvetica,sans-Serif" font-size="10.00" fill="#000000">problems/jsp/jsp_makespan</text>
<text text-anchor="middle" x="443" y="-80" font-family="Helvetica,sans-Serif" font-size="10.00" fill="#000000">_minimization_solution.hpp</text>
</a>
</g>
</g>
<!-- Node0&#45;&gt;Node5 -->
<g id="edge5" class="edge">
<title>Node0&#45;&gt;Node5</title>
<path fill="none" stroke="#191970" d="M443,-145.4005C443,-137.0099 443,-124.4451 443,-113.2085"/>
<polygon fill="#191970" stroke="#191970" points="446.5001,-113.0217 443,-103.0218 439.5001,-113.0218 446.5001,-113.0217"/>
</g>
<!-- Node12 -->
<g id="node13" class="node">
<title>Node12</title>
<g id="a_node13"><a xlink:href="template__utils_8hpp.html" target="_top" xlink:title=" ">
<polygon fill="none" stroke="#000000" points="720.5,-6 720.5,-25 837.5,-25 837.5,-6 720.5,-6"/>
<text text-anchor="middle" x="779" y="-13" font-family="Helvetica,sans-Serif" font-size="10.00" fill="#000000">utils/template_utils.hpp</text>
</a>
</g>
</g>
<!-- Node0&#45;&gt;Node12 -->
<g id="edge31" class="edge">
<title>Node0&#45;&gt;Node12</title>
<path fill="none" stroke="#191970" d="M464.2177,-145.4723C501.0265,-129.0177 579.1873,-94.4046 646,-67 679.053,-53.4427 717.0953,-38.8085 744.0039,-28.6177"/>
<polygon fill="#191970" stroke="#191970" points="745.266,-31.8824 753.384,-25.0744 742.7924,-25.334 745.266,-31.8824"/>
</g>
<!-- Node14 -->
<g id="node15" class="node">
<title>Node14</title>
<g id="a_node15"><a xlink:href="jsp__move_8hpp.html" target="_top" xlink:title="JSP Move.">
<polygon fill="none" stroke="#000000" points="655,-78.5 655,-97.5 791,-97.5 791,-78.5 655,-78.5"/>
<text text-anchor="middle" x="723" y="-85.5" font-family="Helvetica,sans-Serif" font-size="10.00" fill="#000000">problems/jsp/jsp_move.hpp</text>
</a>
</g>
</g>
<!-- Node0&#45;&gt;Node14 -->
<g id="edge16" class="edge">
<title>Node0&#45;&gt;Node14</title>
<path fill="none" stroke="#191970" d="M482.8198,-145.4717C532.8516,-133.4998 618.7296,-112.9504 673.0954,-99.9415"/>
<polygon fill="#191970" stroke="#191970" points="673.9533,-103.3351 682.8642,-97.6039 672.3242,-96.5272 673.9533,-103.3351"/>
</g>
<!-- Node15 -->
<g id="node16" class="node">
<title>Node15</title>
<g id="a_node16"><a xlink:href="jsp__restriction__list_8hpp.html" target="_top" xlink:title="JSP Restriction List.">
<polygon fill="none" stroke="#000000" points="868,-73 868,-103 1004,-103 1004,-73 868,-73"/>
<text text-anchor="start" x="876" y="-91" font-family="Helvetica,sans-Serif" font-size="10.00" fill="#000000">problems/jsp/jsp_restriction</text>
<text text-anchor="middle" x="936" y="-80" font-family="Helvetica,sans-Serif" font-size="10.00" fill="#000000">_list.hpp</text>
</a>
</g>
</g>
<!-- Node0&#45;&gt;Node15 -->
<g id="edge18" class="edge">
<title>Node0&#45;&gt;Node15</title>
<path fill="none" stroke="#191970" d="M530.509,-148.0467C612.6276,-140.8112 738.6854,-127.8768 847,-109 853.2609,-107.9089 859.7399,-106.6455 866.2159,-105.2904"/>
<polygon fill="#191970" stroke="#191970" points="867.3237,-108.6318 876.3579,-103.0971 865.8441,-101.79 867.3237,-108.6318"/>
</g>
<!-- Node17 -->
<g id="node18" class="node">
<title>Node17</title>
<g id="a_node18"><a xlink:href="jsp__total__weighted__tardiness__minimization__solution_8hpp.html" target="_top" xlink:title="JSP Total Weighted Tardiness.">
<polygon fill="none" stroke="#000000" points="190,-67.5 190,-108.5 356,-108.5 356,-67.5 190,-67.5"/>
<text text-anchor="start" x="198" y="-96.5" font-family="Helvetica,sans-Serif" font-size="10.00" fill="#000000">problems/jsp/jsp_total</text>
<text text-anchor="start" x="198" y="-85.5" font-family="Helvetica,sans-Serif" font-size="10.00" fill="#000000">_weighted_tardiness_minimization</text>
<text text-anchor="middle" x="273" y="-74.5" font-family="Helvetica,sans-Serif" font-size="10.00" fill="#000000">_solution.hpp</text>
</a>
</g>
</g>
<!-- Node0&#45;&gt;Node17 -->
<g id="edge20" class="edge">
<title>Node0&#45;&gt;Node17</title>
<path fill="none" stroke="#191970" d="M418.6431,-145.4005C396.8671,-136.8182 364.0108,-123.869 335.0136,-112.4406"/>
<polygon fill="#191970" stroke="#191970" points="335.9361,-109.0423 325.3493,-108.6318 333.3694,-115.5547 335.9361,-109.0423"/>
</g>
<!-- Node5&#45;&gt;Node2 -->
<g id="edge10" class="edge">
<title>Node5&#45;&gt;Node2</title>
<path fill="none" stroke="#191970" d="M391.2125,-72.9632C382.5099,-70.7518 373.5343,-68.6627 365,-67 235.7869,-41.8255 198.687,-63.0282 71,-31 68.1556,-30.2865 65.2399,-29.4259 62.3422,-28.4801"/>
<polygon fill="#191970" stroke="#191970" points="63.2833,-25.0997 52.6887,-25.0274 60.9259,-31.6908 63.2833,-25.0997"/>
</g>
<!-- Node5&#45;&gt;Node3 -->
<g id="edge13" class="edge">
<title>Node5&#45;&gt;Node3</title>
<path fill="none" stroke="#191970" d="M390.3261,-72.9638C381.8935,-70.804 373.2344,-68.7309 365,-67 261.1669,-45.1741 229.6787,-64.4883 129,-31 127.5781,-30.527 126.1428,-29.9881 124.7119,-29.4017"/>
<polygon fill="#191970" stroke="#191970" points="126.0548,-26.1648 115.5199,-25.039 123.0534,-32.4887 126.0548,-26.1648"/>
</g>
<!-- Node6 -->
<g id="node7" class="node">
<title>Node6</title>
<g id="a_node7"><a xlink:title=" ">
<polygon fill="none" stroke="#bfbfbf" points="138,-6 138,-25 188,-25 188,-6 138,-6"/>
<text text-anchor="middle" x="163" y="-13" font-family="Helvetica,sans-Serif" font-size="10.00" fill="#000000">optional</text>
</a>
</g>
</g>
<!-- Node5&#45;&gt;Node6 -->
<g id="edge6" class="edge">
<title>Node5&#45;&gt;Node6</title>
<path fill="none" stroke="#191970" d="M388.5422,-72.9519C380.6602,-70.8865 372.6338,-68.8442 365,-67 290.7736,-49.068 269.4993,-54.9784 197,-31 195.1523,-30.3889 193.2707,-29.7081 191.3885,-28.9825"/>
<polygon fill="#191970" stroke="#191970" points="192.7028,-25.7383 182.1275,-25.0942 189.9929,-32.1926 192.7028,-25.7383"/>
</g>
<!-- Node7 -->
<g id="node8" class="node">
<title>Node7</title>
<g id="a_node8"><a xlink:title=" ">
<polygon fill="none" stroke="#bfbfbf" points="206.5,-6 206.5,-25 249.5,-25 249.5,-6 206.5,-6"/>
<text text-anchor="middle" x="228" y="-13" font-family="Helvetica,sans-Serif" font-size="10.00" fill="#000000">queue</text>
</a>
</g>
</g>
<!-- Node5&#45;&gt;Node7 -->
<g id="edge7" class="edge">
<title>Node5&#45;&gt;Node7</title>
<path fill="none" stroke="#191970" d="M385.7953,-72.885C349.0464,-62.5403 300.5819,-47.7062 259,-31 257.639,-30.4532 256.2562,-29.87 254.868,-29.2623"/>
<polygon fill="#191970" stroke="#191970" points="256.3446,-26.0891 245.8036,-25.0223 253.3786,-32.4297 256.3446,-26.0891"/>
</g>
<!-- Node8 -->
<g id="node9" class="node">
<title>Node8</title>
<g id="a_node9"><a xlink:title=" ">
<polygon fill="none" stroke="#bfbfbf" points="268,-6 268,-25 320,-25 320,-6 268,-6"/>
<text text-anchor="middle" x="294" y="-13" font-family="Helvetica,sans-Serif" font-size="10.00" fill="#000000">sstream</text>
</a>
</g>
</g>
<!-- Node5&#45;&gt;Node8 -->
<g id="edge8" class="edge">
<title>Node5&#45;&gt;Node8</title>
<path fill="none" stroke="#191970" d="M412.1271,-72.978C385.975,-60.2529 348.7486,-42.1394 323.1106,-29.6646"/>
<polygon fill="#191970" stroke="#191970" points="324.4226,-26.4107 313.8992,-25.1825 321.3599,-32.7051 324.4226,-26.4107"/>
</g>
<!-- Node9 -->
<g id="node10" class="node">
<title>Node9</title>
<g id="a_node10"><a xlink:title=" ">
<polygon fill="none" stroke="#bfbfbf" points="338.5,-6 338.5,-25 379.5,-25 379.5,-6 338.5,-6"/>
<text text-anchor="middle" x="359" y="-13" font-family="Helvetica,sans-Serif" font-size="10.00" fill="#000000">string</text>
</a>
</g>
</g>
<!-- Node5&#45;&gt;Node9 -->
<g id="edge9" class="edge">
<title>Node5&#45;&gt;Node9</title>
<path fill="none" stroke="#191970" d="M425.5951,-72.978C411.7764,-61.051 392.4729,-44.3903 378.2048,-32.0756"/>
<polygon fill="#191970" stroke="#191970" points="380.3225,-29.28 370.4653,-25.3957 375.7487,-34.5791 380.3225,-29.28"/>
</g>
<!-- Node10 -->
<g id="node11" class="node">
<title>Node10</title>
<g id="a_node11"><a xlink:title=" ">
<polygon fill="none" stroke="#bfbfbf" points="397.5,-6 397.5,-25 480.5,-25 480.5,-6 397.5,-6"/>
<text text-anchor="middle" x="439" y="-13" font-family="Helvetica,sans-Serif" font-size="10.00" fill="#000000">unordered_map</text>
</a>
</g>
</g>
<!-- Node5&#45;&gt;Node10 -->
<g id="edge11" class="edge">
<title>Node5&#45;&gt;Node10</title>
<path fill="none" stroke="#191970" d="M442.1712,-72.978C441.5747,-62.1657 440.7635,-47.4631 440.1109,-35.6348"/>
<polygon fill="#191970" stroke="#191970" points="443.5916,-35.1876 439.546,-25.3957 436.6023,-35.5733 443.5916,-35.1876"/>
</g>
<!-- Node11 -->
<g id="node12" class="node">
<title>Node11</title>
<g id="a_node12"><a xlink:title=" ">
<polygon fill="none" stroke="#bfbfbf" points="499,-6 499,-25 577,-25 577,-6 499,-6"/>
<text text-anchor="middle" x="538" y="-13" font-family="Helvetica,sans-Serif" font-size="10.00" fill="#000000">unordered_set</text>
</a>
</g>
</g>
<!-- Node5&#45;&gt;Node11 -->
<g id="edge12" class="edge">
<title>Node5&#45;&gt;Node11</title>
<path fill="none" stroke="#191970" d="M462.6841,-72.978C478.5502,-60.8696 500.8094,-43.8823 517.0128,-31.5165"/>
<polygon fill="#191970" stroke="#191970" points="519.4864,-34.0316 525.3126,-25.1825 515.2397,-28.4669 519.4864,-34.0316"/>
</g>
<!-- Node5&#45;&gt;Node12 -->
<g id="edge14" class="edge">
<title>Node5&#45;&gt;Node12</title>
<path fill="none" stroke="#191970" d="M512.1906,-73.5726C566.3427,-62.2113 643.5247,-45.8649 711,-31 716.3951,-29.8115 722.027,-28.5542 727.64,-27.2906"/>
<polygon fill="#191970" stroke="#191970" points="728.6862,-30.6424 737.6677,-25.0224 727.1419,-23.8149 728.6862,-30.6424"/>
</g>
<!-- Node13 -->
<g id="node14" class="node">
<title>Node13</title>
<g id="a_node14"><a xlink:href="triangular__fuzzy__number_8hpp.html" target="_top" xlink:title="Triangular Fuzzy Number.">
<polygon fill="none" stroke="#000000" points="595.5,-.5 595.5,-30.5 702.5,-30.5 702.5,-.5 595.5,-.5"/>
<text text-anchor="start" x="603.5" y="-18.5" font-family="Helvetica,sans-Serif" font-size="10.00" fill="#000000">utils/triangular_fuzzy</text>
<text text-anchor="middle" x="649" y="-7.5" font-family="Helvetica,sans-Serif" font-size="10.00" fill="#000000">_number.hpp</text>
</a>
</g>
</g>
<!-- Node5&#45;&gt;Node13 -->
<g id="edge15" class="edge">
<title>Node5&#45;&gt;Node13</title>
<path fill="none" stroke="#191970" d="M485.6833,-72.978C517.8616,-61.6531 562.1667,-46.0603 596.5126,-33.9725"/>
<polygon fill="#191970" stroke="#191970" points="598.1004,-37.1242 606.3713,-30.5028 595.7765,-30.5212 598.1004,-37.1242"/>
</g>
<!-- Node14&#45;&gt;Node4 -->
<g id="edge17" class="edge">
<title>Node14&#45;&gt;Node4</title>
<path fill="none" stroke="#191970" d="M744.6051,-78.3274C769.4257,-67.1553 811.3242,-48.113 847,-31 847.9766,-30.5316 848.969,-30.0524 849.9704,-29.5663"/>
<polygon fill="#191970" stroke="#191970" points="851.6039,-32.6633 859.031,-25.1075 848.5132,-26.3826 851.6039,-32.6633"/>
</g>
<!-- Node16 -->
<g id="node17" class="node">
<title>Node16</title>
<g id="a_node17"><a xlink:title=" ">
<polygon fill="none" stroke="#bfbfbf" points="918.5,-6 918.5,-25 961.5,-25 961.5,-6 918.5,-6"/>
<text text-anchor="middle" x="940" y="-13" font-family="Helvetica,sans-Serif" font-size="10.00" fill="#000000">deque</text>
</a>
</g>
</g>
<!-- Node15&#45;&gt;Node16 -->
<g id="edge19" class="edge">
<title>Node15&#45;&gt;Node16</title>
<path fill="none" stroke="#191970" d="M936.8288,-72.978C937.4253,-62.1657 938.2365,-47.4631 938.8891,-35.6348"/>
<polygon fill="#191970" stroke="#191970" points="942.3977,-35.5733 939.454,-25.3957 935.4084,-35.1876 942.3977,-35.5733"/>
</g>
<!-- Node17&#45;&gt;Node2 -->
<g id="edge25" class="edge">
<title>Node17&#45;&gt;Node2</title>
<path fill="none" stroke="#191970" d="M193.3245,-67.3869C155.9358,-57.238 110.9191,-44.3332 71,-31 68.7351,-30.2435 66.4101,-29.4334 64.0756,-28.5949"/>
<polygon fill="#191970" stroke="#191970" points="65.1474,-25.2593 54.5545,-25.0533 62.7069,-31.8202 65.1474,-25.2593"/>
</g>
<!-- Node17&#45;&gt;Node3 -->
<g id="edge28" class="edge">
<title>Node17&#45;&gt;Node3</title>
<path fill="none" stroke="#191970" d="M216.6412,-67.4001C189.7966,-57.1559 157.4213,-44.1683 129,-31 128.0158,-30.544 127.018,-30.0703 126.014,-29.5841"/>
<polygon fill="#191970" stroke="#191970" points="127.5116,-26.4192 117.0112,-25.0077 124.3395,-32.6592 127.5116,-26.4192"/>
</g>
<!-- Node17&#45;&gt;Node6 -->
<g id="edge21" class="edge">
<title>Node17&#45;&gt;Node6</title>
<path fill="none" stroke="#191970" d="M241.7726,-67.4183C224.1446,-55.7999 202.4822,-41.5223 186.3385,-30.8822"/>
<polygon fill="#191970" stroke="#191970" points="187.819,-27.6662 177.5433,-25.0853 183.9668,-33.5109 187.819,-27.6662"/>
</g>
<!-- Node17&#45;&gt;Node7 -->
<g id="edge22" class="edge">
<title>Node17&#45;&gt;Node7</title>
<path fill="none" stroke="#191970" d="M260.2252,-67.4183C253.6203,-56.7771 245.6309,-43.9053 239.2596,-33.6405"/>
<polygon fill="#191970" stroke="#191970" points="242.1969,-31.736 233.9495,-25.0853 236.2495,-35.4276 242.1969,-31.736"/>
</g>
<!-- Node17&#45;&gt;Node8 -->
<g id="edge23" class="edge">
<title>Node17&#45;&gt;Node8</title>
<path fill="none" stroke="#191970" d="M278.9616,-67.4183C281.9181,-57.2115 285.469,-44.9524 288.3777,-34.9102"/>
<polygon fill="#191970" stroke="#191970" points="291.8031,-35.6643 291.2236,-25.0853 285.0795,-33.7167 291.8031,-35.6643"/>
</g>
<!-- Node17&#45;&gt;Node9 -->
<g id="edge24" class="edge">
<title>Node17&#45;&gt;Node9</title>
<path fill="none" stroke="#191970" d="M297.4141,-67.4183C310.8096,-56.1256 327.1849,-42.3208 339.6819,-31.7856"/>
<polygon fill="#191970" stroke="#191970" points="342.24,-34.2068 347.6298,-25.0853 337.7282,-28.8549 342.24,-34.2068"/>
</g>
<!-- Node17&#45;&gt;Node10 -->
<g id="edge26" class="edge">
<title>Node17&#45;&gt;Node10</title>
<path fill="none" stroke="#191970" d="M320.1249,-67.4183C348.2189,-55.1484 383.1032,-39.9127 407.7973,-29.1277"/>
<polygon fill="#191970" stroke="#191970" points="409.2896,-32.2952 417.0529,-25.0853 406.4879,-25.8804 409.2896,-32.2952"/>
</g>
<!-- Node17&#45;&gt;Node11 -->
<g id="edge27" class="edge">
<title>Node17&#45;&gt;Node11</title>
<path fill="none" stroke="#191970" d="M354.5429,-67.4748C395.092,-57.0161 444.7659,-43.8245 489,-31 492.1707,-30.0807 495.4485,-29.1034 498.7361,-28.104"/>
<polygon fill="#191970" stroke="#191970" points="500.0114,-31.3733 508.5314,-25.0756 497.9437,-24.6856 500.0114,-31.3733"/>
</g>
<!-- Node17&#45;&gt;Node12 -->
<g id="edge29" class="edge">
<title>Node17&#45;&gt;Node12</title>
<path fill="none" stroke="#191970" d="M356.1556,-68.5456C359.1356,-67.9993 362.0906,-67.4816 365,-67 517.5323,-41.751 558.4639,-56.2258 711,-31 717.5816,-29.9116 724.4797,-28.5737 731.2534,-27.1442"/>
<polygon fill="#191970" stroke="#191970" points="732.0169,-30.5601 741.0372,-25.0027 730.52,-23.722 732.0169,-30.5601"/>
</g>
<!-- Node17&#45;&gt;Node13 -->
<g id="edge30" class="edge">
<title>Node17&#45;&gt;Node13</title>
<path fill="none" stroke="#191970" d="M356.1949,-68.7631C359.1637,-68.1552 362.1058,-67.5655 365,-67 459.5226,-48.5324 486.7548,-50.7339 585.3567,-31.0265"/>
<polygon fill="#191970" stroke="#191970" points="586.3428,-34.398 595.4495,-28.9833 584.9538,-27.5371 586.3428,-34.398"/>
</g>
</g>
</svg>
        <g id="navigator" transform="translate(0 0)" fill="#404254">
                <rect fill="#f2f5e9" fill-opacity="0.5" stroke="#606060" stroke-width=".5" x="0" y="0" width="60" height="60"/>
                <use id="zoomplus" xlink:href="#zoomPlus" x="17" y="9" onmousedown="handleZoom(evt,'in')"/>
                <use id="zoomminus" xlink:href="#zoomMin" x="42" y="9" onmousedown="handleZoom(evt,'out')"/>
                <use id="reset" xlink:href="#resetDef" x="30" y="36" onmousedown="handleReset()"/>
                <g id="arrowUp" xlink:href="#dirArrow" transform="translate(30 24)" onmousedown="handlePan(0,-1)">
                  <use xlink:href="#rim" fill="#404040">
                        <set attributeName="fill" to="#808080" begin="arrowUp.mouseover" end="arrowUp.mouseout"/>
                  </use>
                  <path fill="none" stroke="white" stroke-width="1.5" d="M0,-3.0v7 M-2.5,-0.5L0,-3.0L2.5,-0.5"/>
                </g>
                <g id="arrowRight" xlink:href="#dirArrow" transform="rotate(90) translate(36 -43)" onmousedown="handlePan(1,0)">
                  <use xlink:href="#rim" fill="#404040">
                        <set attributeName="fill" to="#808080" begin="arrowRight.mouseover" end="arrowRight.mouseout"/>
                  </use>
                  <path fill="none" stroke="white" stroke-width="1.5" d="M0,-3.0v7 M-2.5,-0.5L0,-3.0L2.5,-0.5"/>
                </g>
                <g id="arrowDown" xlink:href="#dirArrow" transform="rotate(180) translate(-30 -48)" onmousedown="handlePan(0,1)">
                  <use xlink:href="#rim" fill="#404040">
                        <set attributeName="fill" to="#808080" begin="arrowDown.mouseover" end="arrowDown.mouseout"/>
                  </use>
                  <path fill="none" stroke="white" stroke-width="1.5" d="M0,-3.0v7 M-2.5,-0.5L0,-3.0L2.5,-0.5"/>
                </g>
                <g id="arrowLeft" xlink:href="#dirArrow" transform="rotate(270) translate(-36 17)" onmousedown="handlePan(-1,0)">
                  <use xlink:href="#rim" fill="#404040">
                        <set attributeName="fill" to="#808080" begin="arrowLeft.mouseover" end="arrowLeft.mouseout"/>
                  </use>
                  <path fill="none" stroke="white" stroke-width="1.5" d="M0,-3.0v7 M-2.5,-0.5L0,-3.0L2.5,-0.5"/>
                </g>
        </g>
        <svg viewBox="0 0 15 15" width="100%" height="30px" preserveAspectRatio="xMaxYMin meet">
         <g id="arrow_out" transform="scale(0.3 0.3)">
          <a xlink:href="jsp__neighborhoods_8hpp__incl_org.svg" target="_base">
           <rect id="button" ry="5" rx="5" y="6" x="6" height="38" width="38"
                fill="#f2f5e9" fill-opacity="0.5" stroke="#606060" stroke-width="1.0"/>
           <path id="arrow"
             d="M 11.500037,31.436501 C 11.940474,20.09759 22.043105,11.32322 32.158766,21.979434 L 37.068811,17.246167 C 37.068811,17.246167 37.088388,32 37.088388,32 L 22.160133,31.978069 C 22.160133,31.978069 26.997745,27.140456 26.997745,27.140456 C 18.528582,18.264221 13.291696,25.230495 11.500037,31.436501 z"
             style="fill:#404040;"/>
          </a>
         </g>
        </svg>
</svg>
