<?xml version="1.0" encoding="UTF-8" standalone="no"?>
<!DOCTYPE svg PUBLIC "-//W3C//DTD SVG 1.1//EN"
 "http://www.w3.org/Graphics/SVG/1.1/DTD/svg11.dtd">
<!-- Generated by graphviz version 2.40.1 (20161225.0304)
 -->
<!-- Title: problems/jsp/jsp_schedule_generation_schemes.hpp Pages: 1 -->
<svg width="185pt" height="173pt"
 viewBox="0.00 0.00 184.50 173.00" xmlns="http://www.w3.org/2000/svg" xmlns:xlink="http://www.w3.org/1999/xlink">
<g id="graph0" class="graph" transform="scale(1 1) rotate(0) translate(4 169)">
<title>problems/jsp/jsp_schedule_generation_schemes.hpp</title>
<!-- Node5 -->
<g id="node1" class="node">
<title>Node5</title>
<g id="a_node1"><a xlink:title="JSP Schedule Generation Schemes.">
<polygon fill="#bfbfbf" stroke="#000000" points="41.5,-134.5 41.5,-164.5 173.5,-164.5 173.5,-134.5 41.5,-134.5"/>
<text text-anchor="start" x="49.5" y="-152.5" font-family="Helvetica,sans-Serif" font-size="10.00" fill="#000000">problems/jsp/jsp_schedule</text>
<text text-anchor="middle" x="107.5" y="-141.5" font-family="Helvetica,sans-Serif" font-size="10.00" fill="#000000">_generation_schemes.hpp</text>
</a>
</g>
</g>
<!-- Node6 -->
<g id="node2" class="node">
<title>Node6</title>
<g id="a_node2"><a xlink:href="jsp__genetic__encoders_8hpp.html" target="_top" xlink:title="JSP Genetic Encoders.">
<polygon fill="none" stroke="#000000" points="0,-67.5 0,-97.5 125,-97.5 125,-67.5 0,-67.5"/>
<text text-anchor="start" x="8" y="-85.5" font-family="Helvetica,sans-Serif" font-size="10.00" fill="#000000">problems/jsp/jsp_genetic</text>
<text text-anchor="middle" x="62.5" y="-74.5" font-family="Helvetica,sans-Serif" font-size="10.00" fill="#000000">_encoders.hpp</text>
</a>
</g>
</g>
<!-- Node5&#45;&gt;Node6 -->
<g id="edge1" class="edge">
<title>Node5&#45;&gt;Node6</title>
<path fill="none" stroke="#191970" d="M91.5643,-125.7735C85.279,-116.4154 78.2447,-105.9421 72.6708,-97.6432"/>
<polygon fill="#191970" stroke="#191970" points="88.8077,-127.9467 97.2888,-134.2967 94.6187,-124.0438 88.8077,-127.9467"/>
</g>
<!-- Node7 -->
<g id="node3" class="node">
<title>Node7</title>
<g id="a_node3"><a xlink:href="jsp__generation__operators_8hpp.html" target="_top" xlink:title="JSP Generation Operators.">
<polygon fill="none" stroke="#000000" points="38.5,-.5 38.5,-30.5 176.5,-30.5 176.5,-.5 38.5,-.5"/>
<text text-anchor="start" x="46.5" y="-18.5" font-family="Helvetica,sans-Serif" font-size="10.00" fill="#000000">problems/jsp/jsp_generation</text>
<text text-anchor="middle" x="107.5" y="-7.5" font-family="Helvetica,sans-Serif" font-size="10.00" fill="#000000">_operators.hpp</text>
</a>
</g>
</g>
<!-- Node5&#45;&gt;Node7 -->
<g id="edge3" class="edge">
<title>Node5&#45;&gt;Node7</title>
<path fill="none" stroke="#191970" d="M122.4765,-125.609C126.94,-117.2056 131.2412,-107.4861 133.5,-98 136.6915,-84.597 136.6915,-80.403 133.5,-67 130.3911,-53.9439 123.4132,-40.4455 117.4684,-30.5452"/>
<polygon fill="#191970" stroke="#191970" points="119.3495,-124.0283 117.4684,-134.4548 125.441,-127.4771 119.3495,-124.0283"/>
</g>
<!-- Node6&#45;&gt;Node7 -->
<g id="edge2" class="edge">
<title>Node6&#45;&gt;Node7</title>
<path fill="none" stroke="#191970" d="M78.4357,-58.7735C84.721,-49.4154 91.7553,-38.9421 97.3292,-30.6432"/>
<polygon fill="#191970" stroke="#191970" points="75.3813,-57.0438 72.7112,-67.2967 81.1923,-60.9467 75.3813,-57.0438"/>
</g>
</g>
</svg>
