<?xml version="1.0" encoding="UTF-8" standalone="no"?>
<!DOCTYPE svg PUBLIC "-//W3C//DTD SVG 1.1//EN"
 "http://www.w3.org/Graphics/SVG/1.1/DTD/svg11.dtd">
<!-- Generated by graphviz version 2.40.1 (20161225.0304)
 -->
<!-- Title: read_standard_due_dates Pages: 1 -->
<svg width="267pt" height="104pt"
 viewBox="0.00 0.00 267.00 104.00" xmlns="http://www.w3.org/2000/svg" xmlns:xlink="http://www.w3.org/1999/xlink">
<g id="graph0" class="graph" transform="scale(1 1) rotate(0) translate(4 100)">
<title>read_standard_due_dates</title>
<!-- Node4 -->
<g id="node1" class="node">
<title>Node4</title>
<g id="a_node1"><a xlink:title="Reads a JSP instance with due dates in standard format.">
<polygon fill="#bfbfbf" stroke="#000000" points="0,-38.5 0,-57.5 128,-57.5 128,-38.5 0,-38.5"/>
<text text-anchor="middle" x="64" y="-45.5" font-family="Helvetica,sans-Serif" font-size="10.00" fill="#000000">read_standard_due_dates</text>
</a>
</g>
</g>
<!-- Node5 -->
<g id="node2" class="node">
<title>Node5</title>
<g id="a_node2"><a xlink:href="classJSP.html#a45cc7bfa121f2b83565f7a6133d3ab39" target="_top" xlink:title="Adds a job to the problem.">
<polygon fill="none" stroke="#000000" points="174.5,-76.5 174.5,-95.5 248.5,-95.5 248.5,-76.5 174.5,-76.5"/>
<text text-anchor="middle" x="211.5" y="-83.5" font-family="Helvetica,sans-Serif" font-size="10.00" fill="#000000">JSP::AddJob</text>
</a>
</g>
</g>
<!-- Node4&#45;&gt;Node5 -->
<g id="edge1" class="edge">
<title>Node4&#45;&gt;Node5</title>
<path fill="none" stroke="#191970" d="M101.2205,-57.589C120.5093,-62.5583 144.2584,-68.6767 164.771,-73.9613"/>
<polygon fill="#191970" stroke="#191970" points="163.9902,-77.3744 174.5472,-76.4799 165.7366,-70.5957 163.9902,-77.3744"/>
</g>
<!-- Node6 -->
<g id="node3" class="node">
<title>Node6</title>
<g id="a_node3"><a xlink:href="classJSP.html#a308c6e99ad53a7df52f216e7afeb539f" target="_top" xlink:title="Adds a machine to the problem.">
<polygon fill="none" stroke="#000000" points="164,-38.5 164,-57.5 259,-57.5 259,-38.5 164,-38.5"/>
<text text-anchor="middle" x="211.5" y="-45.5" font-family="Helvetica,sans-Serif" font-size="10.00" fill="#000000">JSP::AddMachine</text>
</a>
</g>
</g>
<!-- Node4&#45;&gt;Node6 -->
<g id="edge2" class="edge">
<title>Node4&#45;&gt;Node6</title>
<path fill="none" stroke="#191970" d="M128.2666,-48C136.7662,-48 145.4367,-48 153.8163,-48"/>
<polygon fill="#191970" stroke="#191970" points="153.8624,-51.5001 163.8624,-48 153.8623,-44.5001 153.8624,-51.5001"/>
</g>
<!-- Node7 -->
<g id="node4" class="node">
<title>Node7</title>
<g id="a_node4"><a xlink:href="classJSP.html#ac30ab6c08498fddbb7fe9ee9f935c5fd" target="_top" xlink:title="Adds a task to the problem after the last task of the specified job to be proccesed in the specified ...">
<polygon fill="none" stroke="#000000" points="171.5,-.5 171.5,-19.5 251.5,-19.5 251.5,-.5 171.5,-.5"/>
<text text-anchor="middle" x="211.5" y="-7.5" font-family="Helvetica,sans-Serif" font-size="10.00" fill="#000000">JSP::AddTask</text>
</a>
</g>
</g>
<!-- Node4&#45;&gt;Node7 -->
<g id="edge3" class="edge">
<title>Node4&#45;&gt;Node7</title>
<path fill="none" stroke="#191970" d="M101.2205,-38.411C120.5093,-33.4417 144.2584,-27.3233 164.771,-22.0387"/>
<polygon fill="#191970" stroke="#191970" points="165.7366,-25.4043 174.5472,-19.5201 163.9902,-18.6256 165.7366,-25.4043"/>
</g>
</g>
</svg>
