<?xml version="1.0" encoding="UTF-8" standalone="no"?>
<!DOCTYPE svg PUBLIC "-//W3C//DTD SVG 1.1//EN"
 "http://www.w3.org/Graphics/SVG/1.1/DTD/svg11.dtd">
<!-- Generated by graphviz version 2.40.1 (20161225.0304)
 -->
<!-- Title: problems/jsp/jsp_task.hpp Pages: 1 -->
<svg width="225pt" height="140pt"
 viewBox="0.00 0.00 225.00 140.00" xmlns="http://www.w3.org/2000/svg" xmlns:xlink="http://www.w3.org/1999/xlink">
<g id="graph0" class="graph" transform="scale(1 1) rotate(0) translate(4 136)">
<title>problems/jsp/jsp_task.hpp</title>
<!-- Node0 -->
<g id="node1" class="node">
<title>Node0</title>
<g id="a_node1"><a xlink:title="JSP Task.">
<polygon fill="#bfbfbf" stroke="#000000" points="4,-112.5 4,-131.5 135,-131.5 135,-112.5 4,-112.5"/>
<text text-anchor="middle" x="69.5" y="-119.5" font-family="Helvetica,sans-Serif" font-size="10.00" fill="#000000">problems/jsp/jsp_task.hpp</text>
</a>
</g>
</g>
<!-- Node1 -->
<g id="node2" class="node">
<title>Node1</title>
<g id="a_node2"><a xlink:title=" ">
<polygon fill="none" stroke="#bfbfbf" points="0,-56.5 0,-75.5 41,-75.5 41,-56.5 0,-56.5"/>
<text text-anchor="middle" x="20.5" y="-63.5" font-family="Helvetica,sans-Serif" font-size="10.00" fill="#000000">string</text>
</a>
</g>
</g>
<!-- Node0&#45;&gt;Node1 -->
<g id="edge1" class="edge">
<title>Node0&#45;&gt;Node1</title>
<path fill="none" stroke="#191970" d="M60.9649,-112.2455C54.0088,-104.2958 44.0117,-92.8706 35.6949,-83.3656"/>
<polygon fill="#191970" stroke="#191970" points="38.1564,-80.8637 28.9373,-75.6427 32.8884,-85.4732 38.1564,-80.8637"/>
</g>
<!-- Node2 -->
<g id="node3" class="node">
<title>Node2</title>
<g id="a_node3"><a xlink:title=" ">
<polygon fill="none" stroke="#bfbfbf" points="93.5,-.5 93.5,-19.5 133.5,-19.5 133.5,-.5 93.5,-.5"/>
<text text-anchor="middle" x="113.5" y="-7.5" font-family="Helvetica,sans-Serif" font-size="10.00" fill="#000000">utility</text>
</a>
</g>
</g>
<!-- Node0&#45;&gt;Node2 -->
<g id="edge2" class="edge">
<title>Node0&#45;&gt;Node2</title>
<path fill="none" stroke="#191970" d="M71.8055,-112.408C75.0695,-99.3887 81.5361,-75.5094 89.5,-56 93.3171,-46.6492 98.3945,-36.6651 102.896,-28.3963"/>
<polygon fill="#191970" stroke="#191970" points="105.9789,-30.0542 107.8057,-19.6181 99.8696,-26.6372 105.9789,-30.0542"/>
</g>
<!-- Node3 -->
<g id="node4" class="node">
<title>Node3</title>
<g id="a_node4"><a xlink:href="container__utils_8hpp.html" target="_top" xlink:title="Contains utilities to work with the standard library containers.">
<polygon fill="none" stroke="#000000" points="98,-56.5 98,-75.5 217,-75.5 217,-56.5 98,-56.5"/>
<text text-anchor="middle" x="157.5" y="-63.5" font-family="Helvetica,sans-Serif" font-size="10.00" fill="#000000">utils/container_utils.hpp</text>
</a>
</g>
</g>
<!-- Node0&#45;&gt;Node3 -->
<g id="edge3" class="edge">
<title>Node0&#45;&gt;Node3</title>
<path fill="none" stroke="#191970" d="M84.8284,-112.2455C98.3303,-103.6534 118.2122,-91.0014 133.7686,-81.1018"/>
<polygon fill="#191970" stroke="#191970" points="135.7897,-83.9643 142.3472,-75.6427 132.0315,-78.0587 135.7897,-83.9643"/>
</g>
<!-- Node3&#45;&gt;Node2 -->
<g id="edge4" class="edge">
<title>Node3&#45;&gt;Node2</title>
<path fill="none" stroke="#191970" d="M149.8358,-56.2455C143.6527,-48.3761 134.7937,-37.101 127.3711,-27.6542"/>
<polygon fill="#191970" stroke="#191970" points="130.0068,-25.3435 121.0764,-19.6427 124.5025,-29.6683 130.0068,-25.3435"/>
</g>
</g>
</svg>
