<?xml version="1.0" encoding="UTF-8" standalone="no"?>
<!DOCTYPE svg PUBLIC "-//W3C//DTD SVG 1.1//EN"
 "http://www.w3.org/Graphics/SVG/1.1/DTD/svg11.dtd">
<!-- Generated by graphviz version 2.40.1 (20161225.0304)
 -->
<!-- Title: problems/jsp/jsp_genetic_encoders.hpp Pages: 1 -->
<!--zoomable 184 -->
<svg id="main" version="1.1" xmlns="http://www.w3.org/2000/svg" xmlns:xlink="http://www.w3.org/1999/xlink" xml:space="preserve" onload="init(evt)">
<style type="text/css"><![CDATA[
.edge:hover path { stroke: red; }
.edge:hover polygon { stroke: red; fill: red; }
]]></style>
<script type="text/javascript"><![CDATA[
var edges = document.getElementsByTagName('g');
if (edges && edges.length) {
  for (var i=0;i<edges.length;i++) {
    if (edges[i].id.substr(0,4)=='edge') {
      edges[i].setAttribute('class','edge');
    }
  }
}
]]></script>
        <defs>
                <circle id="rim" cx="0" cy="0" r="7"/>
                <circle id="rim2" cx="0" cy="0" r="3.5"/>
                <g id="zoomPlus">
                        <use xlink:href="#rim" fill="#404040">
                                <set attributeName="fill" to="#808080" begin="zoomplus.mouseover" end="zoomplus.mouseout"/>
                        </use>
                        <path d="M-4,0h8M0,-4v8" fill="none" stroke="white" stroke-width="1.5" pointer-events="none"/>
                </g>
                <g id="zoomMin">
                        <use xlink:href="#rim" fill="#404040">
                                <set attributeName="fill" to="#808080" begin="zoomminus.mouseover" end="zoomminus.mouseout"/>
                        </use>
                        <path d="M-4,0h8" fill="none" stroke="white" stroke-width="1.5" pointer-events="none"/>
                </g>
                <g id="dirArrow">
                        <path fill="none" stroke="white" stroke-width="1.5" d="M0,-3.0v7 M-2.5,-0.5L0,-3.0L2.5,-0.5"/>
                </g>
               <g id="resetDef">
                       <use xlink:href="#rim2" fill="#404040">
                               <set attributeName="fill" to="#808080" begin="reset.mouseover" end="reset.mouseout"/>
                       </use>
               </g>
        </defs>

<script type="text/javascript">
var viewWidth = 1116;
var viewHeight = 184;
var sectionId = 'dynsection-0';
</script>
<script xlink:href="svgpan.js"/>
<svg id="graph" class="graph">
<g id="viewport">
<title>problems/jsp/jsp_genetic_encoders.hpp</title>
<!-- Node0 -->
<g id="node1" class="node">
<title>Node0</title>
<g id="a_node1"><a xlink:title="JSP Genetic Encoders.">
<polygon fill="#bfbfbf" stroke="#000000" points="294,-145.5 294,-175.5 419,-175.5 419,-145.5 294,-145.5"/>
<text text-anchor="start" x="302" y="-163.5" font-family="Helvetica,sans-Serif" font-size="10.00" fill="#000000">problems/jsp/jsp_genetic</text>
<text text-anchor="middle" x="356.5" y="-152.5" font-family="Helvetica,sans-Serif" font-size="10.00" fill="#000000">_encoders.hpp</text>
</a>
</g>
</g>
<!-- Node1 -->
<g id="node2" class="node">
<title>Node1</title>
<g id="a_node2"><a xlink:title=" ">
<polygon fill="none" stroke="#bfbfbf" points="0,-6 0,-25 47,-25 47,-6 0,-6"/>
<text text-anchor="middle" x="23.5" y="-13" font-family="Helvetica,sans-Serif" font-size="10.00" fill="#000000">iterator</text>
</a>
</g>
</g>
<!-- Node0&#45;&gt;Node1 -->
<g id="edge1" class="edge">
<title>Node0&#45;&gt;Node1</title>
<path fill="none" stroke="#191970" d="M293.7574,-154.3541C224.3875,-146.5744 117.998,-131.4252 84.5,-109 57.3717,-90.8389 39.5345,-56.0993 30.5062,-34.4592"/>
<polygon fill="#191970" stroke="#191970" points="33.7068,-33.0347 26.7796,-25.0182 27.1957,-35.6049 33.7068,-33.0347"/>
</g>
<!-- Node2 -->
<g id="node3" class="node">
<title>Node2</title>
<g id="a_node3"><a xlink:title=" ">
<polygon fill="none" stroke="#bfbfbf" points="269.5,-6 269.5,-25 331.5,-25 331.5,-6 269.5,-6"/>
<text text-anchor="middle" x="300.5" y="-13" font-family="Helvetica,sans-Serif" font-size="10.00" fill="#000000">type_traits</text>
</a>
</g>
</g>
<!-- Node0&#45;&gt;Node2 -->
<g id="edge2" class="edge">
<title>Node0&#45;&gt;Node2</title>
<path fill="none" stroke="#191970" d="M350.6129,-145.2565C340.3587,-118.7055 319.2412,-64.0262 307.9714,-34.8457"/>
<polygon fill="#191970" stroke="#191970" points="311.1711,-33.4155 304.3034,-25.348 304.6412,-35.9375 311.1711,-33.4155"/>
</g>
<!-- Node3 -->
<g id="node4" class="node">
<title>Node3</title>
<g id="a_node4"><a xlink:title=" ">
<polygon fill="none" stroke="#bfbfbf" points="350,-6 350,-25 433,-25 433,-6 350,-6"/>
<text text-anchor="middle" x="391.5" y="-13" font-family="Helvetica,sans-Serif" font-size="10.00" fill="#000000">unordered_map</text>
</a>
</g>
</g>
<!-- Node0&#45;&gt;Node3 -->
<g id="edge3" class="edge">
<title>Node0&#45;&gt;Node3</title>
<path fill="none" stroke="#191970" d="M360.1795,-145.2565C366.5602,-118.822 379.6711,-64.5053 386.7373,-35.2311"/>
<polygon fill="#191970" stroke="#191970" points="390.1787,-35.8901 389.1229,-25.348 383.3741,-34.2476 390.1787,-35.8901"/>
</g>
<!-- Node4 -->
<g id="node5" class="node">
<title>Node4</title>
<g id="a_node5"><a xlink:title=" ">
<polygon fill="none" stroke="#bfbfbf" points="65.5,-6 65.5,-25 109.5,-25 109.5,-6 65.5,-6"/>
<text text-anchor="middle" x="87.5" y="-13" font-family="Helvetica,sans-Serif" font-size="10.00" fill="#000000">vector</text>
</a>
</g>
</g>
<!-- Node0&#45;&gt;Node4 -->
<g id="edge4" class="edge">
<title>Node0&#45;&gt;Node4</title>
<path fill="none" stroke="#191970" d="M293.976,-155.4167C228.7091,-148.7974 132.3166,-134.8858 106.5,-109 87.1655,-89.6136 84.8776,-56.282 85.6836,-35.0955"/>
<polygon fill="#191970" stroke="#191970" points="89.1837,-35.2059 86.337,-25.0006 82.1983,-34.7537 89.1837,-35.2059"/>
</g>
<!-- Node5 -->
<g id="node6" class="node">
<title>Node5</title>
<g id="a_node6"><a xlink:href="jsp__makespan__minimization__solution_8hpp.html" target="_top" xlink:title="JSP Makespan Minimization.">
<polygon fill="none" stroke="#000000" points="512.5,-73 512.5,-103 650.5,-103 650.5,-73 512.5,-73"/>
<text text-anchor="start" x="520.5" y="-91" font-family="Helvetica,sans-Serif" font-size="10.00" fill="#000000">problems/jsp/jsp_makespan</text>
<text text-anchor="middle" x="581.5" y="-80" font-family="Helvetica,sans-Serif" font-size="10.00" fill="#000000">_minimization_solution.hpp</text>
</a>
</g>
</g>
<!-- Node0&#45;&gt;Node5 -->
<g id="edge5" class="edge">
<title>Node0&#45;&gt;Node5</title>
<path fill="none" stroke="#191970" d="M403.1201,-145.478C438.568,-134.0559 487.4895,-118.2923 525.1351,-106.162"/>
<polygon fill="#191970" stroke="#191970" points="526.4949,-109.4011 534.9396,-103.0028 524.348,-102.7385 526.4949,-109.4011"/>
</g>
<!-- Node12 -->
<g id="node13" class="node">
<title>Node12</title>
<g id="a_node13"><a xlink:href="template__utils_8hpp.html" target="_top" xlink:title=" ">
<polygon fill="none" stroke="#000000" points="991,-6 991,-25 1108,-25 1108,-6 991,-6"/>
<text text-anchor="middle" x="1049.5" y="-13" font-family="Helvetica,sans-Serif" font-size="10.00" fill="#000000">utils/template_utils.hpp</text>
</a>
</g>
</g>
<!-- Node0&#45;&gt;Node12 -->
<g id="edge32" class="edge">
<title>Node0&#45;&gt;Node12</title>
<path fill="none" stroke="#191970" d="M419.1495,-156.3802C532.0153,-148.5428 765.0529,-130.3497 843.5,-109 912.1498,-90.3167 986.7918,-51.2577 1024.5719,-30.0141"/>
<polygon fill="#191970" stroke="#191970" points="1026.3929,-33.005 1033.3567,-25.0203 1022.9335,-26.9196 1026.3929,-33.005"/>
</g>
<!-- Node14 -->
<g id="node15" class="node">
<title>Node14</title>
<g id="a_node15"><a xlink:href="jsp__schedule__generation__schemes_8hpp.html" target="_top" xlink:title="JSP Schedule Generation Schemes.">
<polygon fill="none" stroke="#000000" points="115.5,-73 115.5,-103 247.5,-103 247.5,-73 115.5,-73"/>
<text text-anchor="start" x="123.5" y="-91" font-family="Helvetica,sans-Serif" font-size="10.00" fill="#000000">problems/jsp/jsp_schedule</text>
<text text-anchor="middle" x="181.5" y="-80" font-family="Helvetica,sans-Serif" font-size="10.00" fill="#000000">_generation_schemes.hpp</text>
</a>
</g>
</g>
<!-- Node0&#45;&gt;Node14 -->
<g id="edge16" class="edge">
<title>Node0&#45;&gt;Node14</title>
<path fill="none" stroke="#191970" d="M320.2399,-145.478C293.2559,-134.2989 256.2337,-118.9611 227.22,-106.9411"/>
<polygon fill="#191970" stroke="#191970" points="228.2918,-103.5968 217.7137,-103.0028 225.6126,-110.0638 228.2918,-103.5968"/>
</g>
<!-- Node17 -->
<g id="node18" class="node">
<title>Node17</title>
<g id="a_node18"><a xlink:href="jsp__total__weighted__tardiness__minimization__solution_8hpp.html" target="_top" xlink:title="JSP Total Weighted Tardiness.">
<polygon fill="none" stroke="#000000" points="668.5,-67.5 668.5,-108.5 834.5,-108.5 834.5,-67.5 668.5,-67.5"/>
<text text-anchor="start" x="676.5" y="-96.5" font-family="Helvetica,sans-Serif" font-size="10.00" fill="#000000">problems/jsp/jsp_total</text>
<text text-anchor="start" x="676.5" y="-85.5" font-family="Helvetica,sans-Serif" font-size="10.00" fill="#000000">_weighted_tardiness_minimization</text>
<text text-anchor="middle" x="751.5" y="-74.5" font-family="Helvetica,sans-Serif" font-size="10.00" fill="#000000">_solution.hpp</text>
</a>
</g>
</g>
<!-- Node0&#45;&gt;Node17 -->
<g id="edge21" class="edge">
<title>Node0&#45;&gt;Node17</title>
<path fill="none" stroke="#191970" d="M419.0705,-150.915C478.2521,-141.611 569.7757,-126.6093 658.3528,-109.1812"/>
<polygon fill="#191970" stroke="#191970" points="659.1706,-112.5873 668.3001,-107.2111 657.8106,-105.7206 659.1706,-112.5873"/>
</g>
<!-- Node5&#45;&gt;Node2 -->
<g id="edge10" class="edge">
<title>Node5&#45;&gt;Node2</title>
<path fill="none" stroke="#191970" d="M512.2608,-74.2663C463.7217,-63.9981 397.5762,-48.7161 340.5,-31 338.0727,-30.2466 335.5818,-29.4186 333.0874,-28.5494"/>
<polygon fill="#191970" stroke="#191970" points="334.1697,-25.2184 323.576,-25.0624 331.7602,-31.7907 334.1697,-25.2184"/>
</g>
<!-- Node5&#45;&gt;Node3 -->
<g id="edge11" class="edge">
<title>Node5&#45;&gt;Node3</title>
<path fill="none" stroke="#191970" d="M542.1319,-72.978C507.9505,-59.9351 458.9333,-41.2311 426.199,-28.7404"/>
<polygon fill="#191970" stroke="#191970" points="427.188,-25.3717 416.5973,-25.0766 424.6924,-31.9117 427.188,-25.3717"/>
</g>
<!-- Node6 -->
<g id="node7" class="node">
<title>Node6</title>
<g id="a_node7"><a xlink:title=" ">
<polygon fill="none" stroke="#bfbfbf" points="576.5,-6 576.5,-25 626.5,-25 626.5,-6 576.5,-6"/>
<text text-anchor="middle" x="601.5" y="-13" font-family="Helvetica,sans-Serif" font-size="10.00" fill="#000000">optional</text>
</a>
</g>
</g>
<!-- Node5&#45;&gt;Node6 -->
<g id="edge6" class="edge">
<title>Node5&#45;&gt;Node6</title>
<path fill="none" stroke="#191970" d="M585.644,-72.978C588.6575,-62.0542 592.7663,-47.1596 596.0462,-35.2699"/>
<polygon fill="#191970" stroke="#191970" points="599.4848,-35.9664 598.7702,-25.3957 592.7368,-34.1048 599.4848,-35.9664"/>
</g>
<!-- Node7 -->
<g id="node8" class="node">
<title>Node7</title>
<g id="a_node8"><a xlink:title=" ">
<polygon fill="none" stroke="#bfbfbf" points="645,-6 645,-25 688,-25 688,-6 645,-6"/>
<text text-anchor="middle" x="666.5" y="-13" font-family="Helvetica,sans-Serif" font-size="10.00" fill="#000000">queue</text>
</a>
</g>
</g>
<!-- Node5&#45;&gt;Node7 -->
<g id="edge7" class="edge">
<title>Node5&#45;&gt;Node7</title>
<path fill="none" stroke="#191970" d="M599.1121,-72.978C613.0954,-61.051 632.6286,-44.3903 647.0666,-32.0756"/>
<polygon fill="#191970" stroke="#191970" points="649.5611,-34.5481 654.8982,-25.3957 645.0185,-29.2222 649.5611,-34.5481"/>
</g>
<!-- Node8 -->
<g id="node9" class="node">
<title>Node8</title>
<g id="a_node9"><a xlink:title=" ">
<polygon fill="none" stroke="#bfbfbf" points="706.5,-6 706.5,-25 758.5,-25 758.5,-6 706.5,-6"/>
<text text-anchor="middle" x="732.5" y="-13" font-family="Helvetica,sans-Serif" font-size="10.00" fill="#000000">sstream</text>
</a>
</g>
</g>
<!-- Node5&#45;&gt;Node8 -->
<g id="edge8" class="edge">
<title>Node5&#45;&gt;Node8</title>
<path fill="none" stroke="#191970" d="M612.7873,-72.978C639.2904,-60.2529 677.0165,-42.1394 702.9987,-29.6646"/>
<polygon fill="#191970" stroke="#191970" points="704.8338,-32.666 712.3337,-25.1825 701.804,-26.3557 704.8338,-32.666"/>
</g>
<!-- Node9 -->
<g id="node10" class="node">
<title>Node9</title>
<g id="a_node10"><a xlink:title=" ">
<polygon fill="none" stroke="#bfbfbf" points="777,-6 777,-25 818,-25 818,-6 777,-6"/>
<text text-anchor="middle" x="797.5" y="-13" font-family="Helvetica,sans-Serif" font-size="10.00" fill="#000000">string</text>
</a>
</g>
</g>
<!-- Node5&#45;&gt;Node9 -->
<g id="edge9" class="edge">
<title>Node5&#45;&gt;Node9</title>
<path fill="none" stroke="#191970" d="M634.1925,-72.9983C680.1887,-59.6931 743.2622,-40.8818 767.5,-31 768.6909,-30.5145 769.898,-29.9983 771.1098,-29.4604"/>
<polygon fill="#191970" stroke="#191970" points="772.7941,-32.5344 780.2993,-25.0562 769.7688,-26.2219 772.7941,-32.5344"/>
</g>
<!-- Node10 -->
<g id="node11" class="node">
<title>Node10</title>
<g id="a_node11"><a xlink:title=" ">
<polygon fill="none" stroke="#bfbfbf" points="836.5,-6 836.5,-25 914.5,-25 914.5,-6 836.5,-6"/>
<text text-anchor="middle" x="875.5" y="-13" font-family="Helvetica,sans-Serif" font-size="10.00" fill="#000000">unordered_set</text>
</a>
</g>
</g>
<!-- Node5&#45;&gt;Node10 -->
<g id="edge12" class="edge">
<title>Node5&#45;&gt;Node10</title>
<path fill="none" stroke="#191970" d="M635.9578,-72.9519C643.8398,-70.8865 651.8662,-68.8442 659.5,-67 733.7264,-49.068 753.7387,-50.758 827.5,-31 830.8584,-30.1004 834.3297,-29.107 837.798,-28.0706"/>
<polygon fill="#191970" stroke="#191970" points="838.9503,-31.3778 847.4685,-25.0778 836.8807,-24.6907 838.9503,-31.3778"/>
</g>
<!-- Node11 -->
<g id="node12" class="node">
<title>Node11</title>
<g id="a_node12"><a xlink:title=" ">
<polygon fill="none" stroke="#bfbfbf" points="932.5,-6 932.5,-25 972.5,-25 972.5,-6 932.5,-6"/>
<text text-anchor="middle" x="952.5" y="-13" font-family="Helvetica,sans-Serif" font-size="10.00" fill="#000000">utility</text>
</a>
</g>
</g>
<!-- Node5&#45;&gt;Node11 -->
<g id="edge13" class="edge">
<title>Node5&#45;&gt;Node11</title>
<path fill="none" stroke="#191970" d="M633.7287,-72.9563C642.2969,-70.772 651.1147,-68.6933 659.5,-67 775.5761,-43.5595 810.8412,-67.4843 923.5,-31 924.9256,-30.5383 926.3638,-30.0083 927.797,-29.4289"/>
<polygon fill="#191970" stroke="#191970" points="929.4462,-32.5209 936.9961,-25.0879 926.4588,-26.1903 929.4462,-32.5209"/>
</g>
<!-- Node5&#45;&gt;Node12 -->
<g id="edge14" class="edge">
<title>Node5&#45;&gt;Node12</title>
<path fill="none" stroke="#191970" d="M632.8517,-72.9927C641.6872,-70.7506 650.8193,-68.644 659.5,-67 800.9878,-40.2046 839.518,-55.0398 981.5,-31 987.846,-29.9255 994.4885,-28.629 1001.0307,-27.2489"/>
<polygon fill="#191970" stroke="#191970" points="1002.1502,-30.5869 1011.1716,-25.0314 1000.6548,-23.7484 1002.1502,-30.5869"/>
</g>
<!-- Node13 -->
<g id="node14" class="node">
<title>Node13</title>
<g id="a_node14"><a xlink:href="triangular__fuzzy__number_8hpp.html" target="_top" xlink:title="Triangular Fuzzy Number.">
<polygon fill="none" stroke="#000000" points="451,-.5 451,-30.5 558,-30.5 558,-.5 451,-.5"/>
<text text-anchor="start" x="459" y="-18.5" font-family="Helvetica,sans-Serif" font-size="10.00" fill="#000000">utils/triangular_fuzzy</text>
<text text-anchor="middle" x="504.5" y="-7.5" font-family="Helvetica,sans-Serif" font-size="10.00" fill="#000000">_number.hpp</text>
</a>
</g>
</g>
<!-- Node5&#45;&gt;Node13 -->
<g id="edge15" class="edge">
<title>Node5&#45;&gt;Node13</title>
<path fill="none" stroke="#191970" d="M565.5456,-72.978C554.705,-62.771 540.1824,-49.0971 528.0218,-37.6471"/>
<polygon fill="#191970" stroke="#191970" points="530.114,-34.8097 520.434,-30.5028 525.3153,-39.9062 530.114,-34.8097"/>
</g>
<!-- Node14&#45;&gt;Node1 -->
<g id="edge18" class="edge">
<title>Node14&#45;&gt;Node1</title>
<path fill="none" stroke="#191970" d="M148.2924,-72.9803C123.0762,-61.5452 87.5609,-45.3759 56.5,-31 55.3368,-30.4616 54.1511,-29.9114 52.9538,-29.3547"/>
<polygon fill="#191970" stroke="#191970" points="54.269,-26.1061 43.7275,-25.0448 51.3064,-32.4482 54.269,-26.1061"/>
</g>
<!-- Node14&#45;&gt;Node4 -->
<g id="edge20" class="edge">
<title>Node14&#45;&gt;Node4</title>
<path fill="none" stroke="#191970" d="M162.0231,-72.978C146.324,-60.8696 124.2991,-43.8823 108.2663,-31.5165"/>
<polygon fill="#191970" stroke="#191970" points="110.1098,-28.5184 100.0539,-25.1825 105.8347,-34.0613 110.1098,-28.5184"/>
</g>
<!-- Node15 -->
<g id="node16" class="node">
<title>Node15</title>
<g id="a_node16"><a xlink:title=" ">
<polygon fill="none" stroke="#bfbfbf" points="127.5,-6 127.5,-25 183.5,-25 183.5,-6 127.5,-6"/>
<text text-anchor="middle" x="155.5" y="-13" font-family="Helvetica,sans-Serif" font-size="10.00" fill="#000000">algorithm</text>
</a>
</g>
</g>
<!-- Node14&#45;&gt;Node15 -->
<g id="edge17" class="edge">
<title>Node14&#45;&gt;Node15</title>
<path fill="none" stroke="#191970" d="M176.1128,-72.978C172.1553,-61.9428 166.7446,-46.8552 162.4597,-34.9068"/>
<polygon fill="#191970" stroke="#191970" points="165.7191,-33.6272 159.0488,-25.3957 159.13,-35.9902 165.7191,-33.6272"/>
</g>
<!-- Node16 -->
<g id="node17" class="node">
<title>Node16</title>
<g id="a_node17"><a xlink:title=" ">
<polygon fill="none" stroke="#bfbfbf" points="202,-6 202,-25 251,-25 251,-6 202,-6"/>
<text text-anchor="middle" x="226.5" y="-13" font-family="Helvetica,sans-Serif" font-size="10.00" fill="#000000">random</text>
</a>
</g>
</g>
<!-- Node14&#45;&gt;Node16 -->
<g id="edge19" class="edge">
<title>Node14&#45;&gt;Node16</title>
<path fill="none" stroke="#191970" d="M190.824,-72.978C197.8118,-61.7198 207.4176,-46.2439 214.9014,-34.1866"/>
<polygon fill="#191970" stroke="#191970" points="218.0579,-35.7379 220.3579,-25.3957 212.1104,-32.0463 218.0579,-35.7379"/>
</g>
<!-- Node17&#45;&gt;Node2 -->
<g id="edge26" class="edge">
<title>Node17&#45;&gt;Node2</title>
<path fill="none" stroke="#191970" d="M668.3389,-68.5784C665.3605,-68.0228 662.4072,-67.4942 659.5,-67 518.8405,-43.0869 479.0533,-65.0577 340.5,-31 337.6523,-30.3 334.7343,-29.4487 331.835,-28.5091"/>
<polygon fill="#191970" stroke="#191970" points="332.7737,-25.128 322.1791,-25.0664 330.4229,-31.7215 332.7737,-25.128"/>
</g>
<!-- Node17&#45;&gt;Node3 -->
<g id="edge27" class="edge">
<title>Node17&#45;&gt;Node3</title>
<path fill="none" stroke="#191970" d="M668.3035,-68.7713C665.3351,-68.1611 662.3936,-67.5686 659.5,-67 563.1418,-48.0646 537.0671,-53.5916 441.5,-31 437.6306,-30.0853 433.6234,-29.0305 429.6386,-27.9103"/>
<polygon fill="#191970" stroke="#191970" points="430.452,-24.5013 419.8705,-25.0333 428.4743,-31.2161 430.452,-24.5013"/>
</g>
<!-- Node17&#45;&gt;Node6 -->
<g id="edge22" class="edge">
<title>Node17&#45;&gt;Node6</title>
<path fill="none" stroke="#191970" d="M708.9172,-67.4183C683.8681,-55.3112 652.8449,-40.3167 630.5886,-29.5595"/>
<polygon fill="#191970" stroke="#191970" points="631.8584,-26.2859 621.3318,-25.0853 628.8121,-32.5883 631.8584,-26.2859"/>
</g>
<!-- Node17&#45;&gt;Node7 -->
<g id="edge23" class="edge">
<title>Node17&#45;&gt;Node7</title>
<path fill="none" stroke="#191970" d="M727.3698,-67.4183C714.13,-56.1256 697.9451,-42.3208 685.5934,-31.7856"/>
<polygon fill="#191970" stroke="#191970" points="687.6177,-28.9119 677.738,-25.0853 683.075,-34.2378 687.6177,-28.9119"/>
</g>
<!-- Node17&#45;&gt;Node8 -->
<g id="edge24" class="edge">
<title>Node17&#45;&gt;Node8</title>
<path fill="none" stroke="#191970" d="M746.1062,-67.4183C743.4313,-57.2115 740.2186,-44.9524 737.5868,-34.9102"/>
<polygon fill="#191970" stroke="#191970" points="740.9328,-33.8714 735.012,-25.0853 734.1615,-35.646 740.9328,-33.8714"/>
</g>
<!-- Node17&#45;&gt;Node9 -->
<g id="edge25" class="edge">
<title>Node17&#45;&gt;Node9</title>
<path fill="none" stroke="#191970" d="M764.5587,-67.4183C771.3104,-56.7771 779.4773,-43.9053 785.9901,-33.6405"/>
<polygon fill="#191970" stroke="#191970" points="789.0161,-35.4043 791.4183,-25.0853 783.1054,-31.654 789.0161,-35.4043"/>
</g>
<!-- Node17&#45;&gt;Node10 -->
<g id="edge28" class="edge">
<title>Node17&#45;&gt;Node10</title>
<path fill="none" stroke="#191970" d="M786.7017,-67.4183C807.0376,-55.5284 832.1364,-40.8537 850.4564,-30.1424"/>
<polygon fill="#191970" stroke="#191970" points="852.2396,-33.1542 859.1057,-25.0853 848.7064,-27.1113 852.2396,-33.1542"/>
</g>
<!-- Node17&#45;&gt;Node11 -->
<g id="edge29" class="edge">
<title>Node17&#45;&gt;Node11</title>
<path fill="none" stroke="#191970" d="M822.8083,-67.3748C854.1541,-57.5436 891.1231,-44.8964 923.5,-31 924.523,-30.5609 925.5583,-30.0988 926.5983,-29.6197"/>
<polygon fill="#191970" stroke="#191970" points="928.4725,-32.5968 935.8708,-25.0128 925.3579,-26.3279 928.4725,-32.5968"/>
</g>
<!-- Node17&#45;&gt;Node12 -->
<g id="edge30" class="edge">
<title>Node17&#45;&gt;Node12</title>
<path fill="none" stroke="#191970" d="M834.5096,-67.8047C887.826,-54.8334 955.2692,-38.4253 1000.2623,-27.479"/>
<polygon fill="#191970" stroke="#191970" points="1001.1805,-30.8578 1010.0697,-25.0929 999.5257,-24.0561 1001.1805,-30.8578"/>
</g>
<!-- Node17&#45;&gt;Node13 -->
<g id="edge31" class="edge">
<title>Node17&#45;&gt;Node13</title>
<path fill="none" stroke="#191970" d="M681.3804,-67.4183C644.8773,-56.7039 600.6699,-43.728 565.5819,-33.4289"/>
<polygon fill="#191970" stroke="#191970" points="566.5221,-30.0573 555.9411,-30.5991 564.5505,-36.7739 566.5221,-30.0573"/>
</g>
</g>
</svg>
        <g id="navigator" transform="translate(0 0)" fill="#404254">
                <rect fill="#f2f5e9" fill-opacity="0.5" stroke="#606060" stroke-width=".5" x="0" y="0" width="60" height="60"/>
                <use id="zoomplus" xlink:href="#zoomPlus" x="17" y="9" onmousedown="handleZoom(evt,'in')"/>
                <use id="zoomminus" xlink:href="#zoomMin" x="42" y="9" onmousedown="handleZoom(evt,'out')"/>
                <use id="reset" xlink:href="#resetDef" x="30" y="36" onmousedown="handleReset()"/>
                <g id="arrowUp" xlink:href="#dirArrow" transform="translate(30 24)" onmousedown="handlePan(0,-1)">
                  <use xlink:href="#rim" fill="#404040">
                        <set attributeName="fill" to="#808080" begin="arrowUp.mouseover" end="arrowUp.mouseout"/>
                  </use>
                  <path fill="none" stroke="white" stroke-width="1.5" d="M0,-3.0v7 M-2.5,-0.5L0,-3.0L2.5,-0.5"/>
                </g>
                <g id="arrowRight" xlink:href="#dirArrow" transform="rotate(90) translate(36 -43)" onmousedown="handlePan(1,0)">
                  <use xlink:href="#rim" fill="#404040">
                        <set attributeName="fill" to="#808080" begin="arrowRight.mouseover" end="arrowRight.mouseout"/>
                  </use>
                  <path fill="none" stroke="white" stroke-width="1.5" d="M0,-3.0v7 M-2.5,-0.5L0,-3.0L2.5,-0.5"/>
                </g>
                <g id="arrowDown" xlink:href="#dirArrow" transform="rotate(180) translate(-30 -48)" onmousedown="handlePan(0,1)">
                  <use xlink:href="#rim" fill="#404040">
                        <set attributeName="fill" to="#808080" begin="arrowDown.mouseover" end="arrowDown.mouseout"/>
                  </use>
                  <path fill="none" stroke="white" stroke-width="1.5" d="M0,-3.0v7 M-2.5,-0.5L0,-3.0L2.5,-0.5"/>
                </g>
                <g id="arrowLeft" xlink:href="#dirArrow" transform="rotate(270) translate(-36 17)" onmousedown="handlePan(-1,0)">
                  <use xlink:href="#rim" fill="#404040">
                        <set attributeName="fill" to="#808080" begin="arrowLeft.mouseover" end="arrowLeft.mouseout"/>
                  </use>
                  <path fill="none" stroke="white" stroke-width="1.5" d="M0,-3.0v7 M-2.5,-0.5L0,-3.0L2.5,-0.5"/>
                </g>
        </g>
        <svg viewBox="0 0 15 15" width="100%" height="30px" preserveAspectRatio="xMaxYMin meet">
         <g id="arrow_out" transform="scale(0.3 0.3)">
          <a xlink:href="jsp__genetic__encoders_8hpp__incl_org.svg" target="_base">
           <rect id="button" ry="5" rx="5" y="6" x="6" height="38" width="38"
                fill="#f2f5e9" fill-opacity="0.5" stroke="#606060" stroke-width="1.0"/>
           <path id="arrow"
             d="M 11.500037,31.436501 C 11.940474,20.09759 22.043105,11.32322 32.158766,21.979434 L 37.068811,17.246167 C 37.068811,17.246167 37.088388,32 37.088388,32 L 22.160133,31.978069 C 22.160133,31.978069 26.997745,27.140456 26.997745,27.140456 C 18.528582,18.264221 13.291696,25.230495 11.500037,31.436501 z"
             style="fill:#404040;"/>
          </a>
         </g>
        </svg>
</svg>
