<?xml version="1.0" encoding="UTF-8" standalone="no"?>
<!DOCTYPE svg PUBLIC "-//W3C//DTD SVG 1.1//EN"
 "http://www.w3.org/Graphics/SVG/1.1/DTD/svg11.dtd">
<!-- Generated by graphviz version 2.40.1 (20161225.0304)
 -->
<!-- Title: read_standard Pages: 1 -->
<svg width="217pt" height="104pt"
 viewBox="0.00 0.00 217.00 104.00" xmlns="http://www.w3.org/2000/svg" xmlns:xlink="http://www.w3.org/1999/xlink">
<g id="graph0" class="graph" transform="scale(1 1) rotate(0) translate(4 100)">
<title>read_standard</title>
<!-- Node0 -->
<g id="node1" class="node">
<title>Node0</title>
<g id="a_node1"><a xlink:title="Reads a JSP instance in standard format.">
<polygon fill="#bfbfbf" stroke="#000000" points="0,-38.5 0,-57.5 78,-57.5 78,-38.5 0,-38.5"/>
<text text-anchor="middle" x="39" y="-45.5" font-family="Helvetica,sans-Serif" font-size="10.00" fill="#000000">read_standard</text>
</a>
</g>
</g>
<!-- Node1 -->
<g id="node2" class="node">
<title>Node1</title>
<g id="a_node2"><a xlink:href="classJSP.html#a45cc7bfa121f2b83565f7a6133d3ab39" target="_top" xlink:title="Adds a job to the problem.">
<polygon fill="none" stroke="#000000" points="124.5,-76.5 124.5,-95.5 198.5,-95.5 198.5,-76.5 124.5,-76.5"/>
<text text-anchor="middle" x="161.5" y="-83.5" font-family="Helvetica,sans-Serif" font-size="10.00" fill="#000000">JSP::AddJob</text>
</a>
</g>
</g>
<!-- Node0&#45;&gt;Node1 -->
<g id="edge1" class="edge">
<title>Node0&#45;&gt;Node1</title>
<path fill="none" stroke="#191970" d="M69.9119,-57.589C85.2903,-62.3594 104.0822,-68.1888 120.633,-73.3229"/>
<polygon fill="#191970" stroke="#191970" points="120.0099,-76.7941 130.598,-76.4141 122.0839,-70.1084 120.0099,-76.7941"/>
</g>
<!-- Node2 -->
<g id="node3" class="node">
<title>Node2</title>
<g id="a_node3"><a xlink:href="classJSP.html#a308c6e99ad53a7df52f216e7afeb539f" target="_top" xlink:title="Adds a machine to the problem.">
<polygon fill="none" stroke="#000000" points="114,-38.5 114,-57.5 209,-57.5 209,-38.5 114,-38.5"/>
<text text-anchor="middle" x="161.5" y="-45.5" font-family="Helvetica,sans-Serif" font-size="10.00" fill="#000000">JSP::AddMachine</text>
</a>
</g>
</g>
<!-- Node0&#45;&gt;Node2 -->
<g id="edge2" class="edge">
<title>Node0&#45;&gt;Node2</title>
<path fill="none" stroke="#191970" d="M78.0966,-48C86.2496,-48 95.0078,-48 103.6744,-48"/>
<polygon fill="#191970" stroke="#191970" points="103.7643,-51.5001 113.7642,-48 103.7642,-44.5001 103.7643,-51.5001"/>
</g>
<!-- Node3 -->
<g id="node4" class="node">
<title>Node3</title>
<g id="a_node4"><a xlink:href="classJSP.html#ac30ab6c08498fddbb7fe9ee9f935c5fd" target="_top" xlink:title="Adds a task to the problem after the last task of the specified job to be proccesed in the specified ...">
<polygon fill="none" stroke="#000000" points="121.5,-.5 121.5,-19.5 201.5,-19.5 201.5,-.5 121.5,-.5"/>
<text text-anchor="middle" x="161.5" y="-7.5" font-family="Helvetica,sans-Serif" font-size="10.00" fill="#000000">JSP::AddTask</text>
</a>
</g>
</g>
<!-- Node0&#45;&gt;Node3 -->
<g id="edge3" class="edge">
<title>Node0&#45;&gt;Node3</title>
<path fill="none" stroke="#191970" d="M69.9119,-38.411C85.2903,-33.6406 104.0822,-27.8112 120.633,-22.6771"/>
<polygon fill="#191970" stroke="#191970" points="122.0839,-25.8916 130.598,-19.5859 120.0099,-19.2059 122.0839,-25.8916"/>
</g>
</g>
</svg>
