<?xml version="1.0" encoding="UTF-8" standalone="no"?>
<!DOCTYPE svg PUBLIC "-//W3C//DTD SVG 1.1//EN"
 "http://www.w3.org/Graphics/SVG/1.1/DTD/svg11.dtd">
<!-- Generated by graphviz version 2.40.1 (20161225.0304)
 -->
<!-- Title: problems/jsp/jsp_makespan_minimization_solution.hpp Pages: 1 -->
<svg width="847pt" height="106pt"
 viewBox="0.00 0.00 846.50 106.00" xmlns="http://www.w3.org/2000/svg" xmlns:xlink="http://www.w3.org/1999/xlink">
<g id="graph0" class="graph" transform="scale(1 1) rotate(0) translate(4 102)">
<title>problems/jsp/jsp_makespan_minimization_solution.hpp</title>
<!-- Node0 -->
<g id="node1" class="node">
<title>Node0</title>
<g id="a_node1"><a xlink:title="JSP Makespan Minimization.">
<polygon fill="#bfbfbf" stroke="#000000" points="267,-67.5 267,-97.5 405,-97.5 405,-67.5 267,-67.5"/>
<text text-anchor="start" x="275" y="-85.5" font-family="Helvetica,sans-Serif" font-size="10.00" fill="#000000">problems/jsp/jsp_makespan</text>
<text text-anchor="middle" x="336" y="-74.5" font-family="Helvetica,sans-Serif" font-size="10.00" fill="#000000">_minimization_solution.hpp</text>
</a>
</g>
</g>
<!-- Node1 -->
<g id="node2" class="node">
<title>Node1</title>
<g id="a_node2"><a xlink:title=" ">
<polygon fill="none" stroke="#bfbfbf" points="0,-6 0,-25 50,-25 50,-6 0,-6"/>
<text text-anchor="middle" x="25" y="-13" font-family="Helvetica,sans-Serif" font-size="10.00" fill="#000000">optional</text>
</a>
</g>
</g>
<!-- Node0&#45;&gt;Node1 -->
<g id="edge1" class="edge">
<title>Node0&#45;&gt;Node1</title>
<path fill="none" stroke="#191970" d="M266.8444,-74.4114C210.1061,-66.6472 128.1518,-52.8298 59,-31 57.0977,-30.3995 55.1619,-29.7196 53.228,-28.9881"/>
<polygon fill="#191970" stroke="#191970" points="54.3157,-25.6495 43.7391,-25.0285 51.6199,-32.1096 54.3157,-25.6495"/>
</g>
<!-- Node2 -->
<g id="node3" class="node">
<title>Node2</title>
<g id="a_node3"><a xlink:title=" ">
<polygon fill="none" stroke="#bfbfbf" points="68.5,-6 68.5,-25 111.5,-25 111.5,-6 68.5,-6"/>
<text text-anchor="middle" x="90" y="-13" font-family="Helvetica,sans-Serif" font-size="10.00" fill="#000000">queue</text>
</a>
</g>
</g>
<!-- Node0&#45;&gt;Node2 -->
<g id="edge2" class="edge">
<title>Node0&#45;&gt;Node2</title>
<path fill="none" stroke="#191970" d="M266.5572,-70.065C223.8564,-61.3937 168.4235,-48.2774 121,-31 119.5866,-30.4851 118.1536,-29.9229 116.7183,-29.3276"/>
<polygon fill="#191970" stroke="#191970" points="117.9468,-26.0409 107.3967,-25.0685 115.0377,-32.4078 117.9468,-26.0409"/>
</g>
<!-- Node3 -->
<g id="node4" class="node">
<title>Node3</title>
<g id="a_node4"><a xlink:title=" ">
<polygon fill="none" stroke="#bfbfbf" points="130,-6 130,-25 182,-25 182,-6 130,-6"/>
<text text-anchor="middle" x="156" y="-13" font-family="Helvetica,sans-Serif" font-size="10.00" fill="#000000">sstream</text>
</a>
</g>
</g>
<!-- Node0&#45;&gt;Node3 -->
<g id="edge3" class="edge">
<title>Node0&#45;&gt;Node3</title>
<path fill="none" stroke="#191970" d="M290.9291,-67.4748C262.1401,-57.6362 224.1315,-44.1981 191,-31 189.4295,-30.3744 187.8256,-29.7201 186.2104,-29.049"/>
<polygon fill="#191970" stroke="#191970" points="187.5605,-25.8198 176.9899,-25.1038 184.8069,-32.2554 187.5605,-25.8198"/>
</g>
<!-- Node4 -->
<g id="node5" class="node">
<title>Node4</title>
<g id="a_node5"><a xlink:title=" ">
<polygon fill="none" stroke="#bfbfbf" points="200.5,-6 200.5,-25 241.5,-25 241.5,-6 200.5,-6"/>
<text text-anchor="middle" x="221" y="-13" font-family="Helvetica,sans-Serif" font-size="10.00" fill="#000000">string</text>
</a>
</g>
</g>
<!-- Node0&#45;&gt;Node4 -->
<g id="edge4" class="edge">
<title>Node0&#45;&gt;Node4</title>
<path fill="none" stroke="#191970" d="M310.1918,-67.4639C291.0701,-56.3234 265.1483,-41.2212 246.1782,-30.1691"/>
<polygon fill="#191970" stroke="#191970" points="247.8868,-27.1138 237.4843,-25.1039 244.3629,-33.1622 247.8868,-27.1138"/>
</g>
<!-- Node5 -->
<g id="node6" class="node">
<title>Node5</title>
<g id="a_node6"><a xlink:title=" ">
<polygon fill="none" stroke="#bfbfbf" points="260,-6 260,-25 322,-25 322,-6 260,-6"/>
<text text-anchor="middle" x="291" y="-13" font-family="Helvetica,sans-Serif" font-size="10.00" fill="#000000">type_traits</text>
</a>
</g>
</g>
<!-- Node0&#45;&gt;Node5 -->
<g id="edge5" class="edge">
<title>Node0&#45;&gt;Node5</title>
<path fill="none" stroke="#191970" d="M325.7888,-67.2967C319.0499,-57.2631 310.1894,-44.0709 303.0971,-33.5113"/>
<polygon fill="#191970" stroke="#191970" points="305.8986,-31.4049 297.4175,-25.055 300.0876,-35.3078 305.8986,-31.4049"/>
</g>
<!-- Node6 -->
<g id="node7" class="node">
<title>Node6</title>
<g id="a_node7"><a xlink:title=" ">
<polygon fill="none" stroke="#bfbfbf" points="340.5,-6 340.5,-25 423.5,-25 423.5,-6 340.5,-6"/>
<text text-anchor="middle" x="382" y="-13" font-family="Helvetica,sans-Serif" font-size="10.00" fill="#000000">unordered_map</text>
</a>
</g>
</g>
<!-- Node0&#45;&gt;Node6 -->
<g id="edge6" class="edge">
<title>Node0&#45;&gt;Node6</title>
<path fill="none" stroke="#191970" d="M346.4381,-67.2967C353.3268,-57.2631 362.3842,-44.0709 369.634,-33.5113"/>
<polygon fill="#191970" stroke="#191970" points="372.6652,-35.28 375.4399,-25.055 366.8944,-31.318 372.6652,-35.28"/>
</g>
<!-- Node7 -->
<g id="node8" class="node">
<title>Node7</title>
<g id="a_node8"><a xlink:title=" ">
<polygon fill="none" stroke="#bfbfbf" points="442,-6 442,-25 520,-25 520,-6 442,-6"/>
<text text-anchor="middle" x="481" y="-13" font-family="Helvetica,sans-Serif" font-size="10.00" fill="#000000">unordered_set</text>
</a>
</g>
</g>
<!-- Node0&#45;&gt;Node7 -->
<g id="edge7" class="edge">
<title>Node0&#45;&gt;Node7</title>
<path fill="none" stroke="#191970" d="M368.5408,-67.4639C393.1987,-56.0702 426.8248,-40.5327 450.8706,-29.4219"/>
<polygon fill="#191970" stroke="#191970" points="452.6057,-32.4757 460.2154,-25.1039 449.6695,-26.1213 452.6057,-32.4757"/>
</g>
<!-- Node8 -->
<g id="node9" class="node">
<title>Node8</title>
<g id="a_node9"><a xlink:title=" ">
<polygon fill="none" stroke="#bfbfbf" points="538,-6 538,-25 578,-25 578,-6 538,-6"/>
<text text-anchor="middle" x="558" y="-13" font-family="Helvetica,sans-Serif" font-size="10.00" fill="#000000">utility</text>
</a>
</g>
</g>
<!-- Node0&#45;&gt;Node8 -->
<g id="edge8" class="edge">
<title>Node0&#45;&gt;Node8</title>
<path fill="none" stroke="#191970" d="M405.1166,-68.1319C442.4672,-59.359 488.9987,-46.7829 529,-31 530.1948,-30.5286 531.4036,-30.0203 532.6148,-29.4852"/>
<polygon fill="#191970" stroke="#191970" points="534.2973,-32.5587 541.75,-25.0282 531.2279,-26.2676 534.2973,-32.5587"/>
</g>
<!-- Node9 -->
<g id="node10" class="node">
<title>Node9</title>
<g id="a_node10"><a xlink:href="template__utils_8hpp.html" target="_top" xlink:title=" ">
<polygon fill="none" stroke="#000000" points="596.5,-6 596.5,-25 713.5,-25 713.5,-6 596.5,-6"/>
<text text-anchor="middle" x="655" y="-13" font-family="Helvetica,sans-Serif" font-size="10.00" fill="#000000">utils/template_utils.hpp</text>
</a>
</g>
</g>
<!-- Node0&#45;&gt;Node9 -->
<g id="edge9" class="edge">
<title>Node0&#45;&gt;Node9</title>
<path fill="none" stroke="#191970" d="M405.0667,-68.7492C455.5326,-58.5995 525.5893,-44.2975 587,-31 592.3993,-29.8309 598.034,-28.5861 603.6486,-27.3299"/>
<polygon fill="#191970" stroke="#191970" points="604.692,-30.6826 613.6781,-25.07 603.1533,-23.8538 604.692,-30.6826"/>
</g>
<!-- Node10 -->
<g id="node11" class="node">
<title>Node10</title>
<g id="a_node11"><a xlink:href="triangular__fuzzy__number_8hpp.html" target="_top" xlink:title="Triangular Fuzzy Number.">
<polygon fill="none" stroke="#000000" points="731.5,-.5 731.5,-30.5 838.5,-30.5 838.5,-.5 731.5,-.5"/>
<text text-anchor="start" x="739.5" y="-18.5" font-family="Helvetica,sans-Serif" font-size="10.00" fill="#000000">utils/triangular_fuzzy</text>
<text text-anchor="middle" x="785" y="-7.5" font-family="Helvetica,sans-Serif" font-size="10.00" fill="#000000">_number.hpp</text>
</a>
</g>
</g>
<!-- Node0&#45;&gt;Node10 -->
<g id="edge10" class="edge">
<title>Node0&#45;&gt;Node10</title>
<path fill="none" stroke="#191970" d="M405.2358,-75.666C480.7594,-67.6759 605.344,-52.9323 721.2066,-31.2302"/>
<polygon fill="#191970" stroke="#191970" points="722.1402,-34.6156 731.3136,-29.3149 720.8368,-27.738 722.1402,-34.6156"/>
</g>
</g>
</svg>
