<?xml version="1.0" encoding="UTF-8" standalone="no"?>
<!DOCTYPE svg PUBLIC "-//W3C//DTD SVG 1.1//EN"
 "http://www.w3.org/Graphics/SVG/1.1/DTD/svg11.dtd">
<!-- Generated by graphviz version 2.40.1 (20161225.0304)
 -->
<!-- Title: problems/jsp/jsp_total_weighted_tardiness_minimization_solution.hpp Pages: 1 -->
<svg width="333pt" height="184pt"
 viewBox="0.00 0.00 332.50 184.00" xmlns="http://www.w3.org/2000/svg" xmlns:xlink="http://www.w3.org/1999/xlink">
<g id="graph0" class="graph" transform="scale(1 1) rotate(0) translate(4 180)">
<title>problems/jsp/jsp_total_weighted_tardiness_minimization_solution.hpp</title>
<!-- Node11 -->
<g id="node1" class="node">
<title>Node11</title>
<g id="a_node1"><a xlink:title="JSP Total Weighted Tardiness.">
<polygon fill="#bfbfbf" stroke="#000000" points="70,-134.5 70,-175.5 236,-175.5 236,-134.5 70,-134.5"/>
<text text-anchor="start" x="78" y="-163.5" font-family="Helvetica,sans-Serif" font-size="10.00" fill="#000000">problems/jsp/jsp_total</text>
<text text-anchor="start" x="78" y="-152.5" font-family="Helvetica,sans-Serif" font-size="10.00" fill="#000000">_weighted_tardiness_minimization</text>
<text text-anchor="middle" x="153" y="-141.5" font-family="Helvetica,sans-Serif" font-size="10.00" fill="#000000">_solution.hpp</text>
</a>
</g>
</g>
<!-- Node12 -->
<g id="node2" class="node">
<title>Node12</title>
<g id="a_node2"><a xlink:href="jsp__genetic__encoders_8hpp.html" target="_top" xlink:title="JSP Genetic Encoders.">
<polygon fill="none" stroke="#000000" points="6.5,-67.5 6.5,-97.5 131.5,-97.5 131.5,-67.5 6.5,-67.5"/>
<text text-anchor="start" x="14.5" y="-85.5" font-family="Helvetica,sans-Serif" font-size="10.00" fill="#000000">problems/jsp/jsp_genetic</text>
<text text-anchor="middle" x="69" y="-74.5" font-family="Helvetica,sans-Serif" font-size="10.00" fill="#000000">_encoders.hpp</text>
</a>
</g>
</g>
<!-- Node11&#45;&gt;Node12 -->
<g id="edge1" class="edge">
<title>Node11&#45;&gt;Node12</title>
<path fill="none" stroke="#191970" d="M121.5723,-127.8749C109.7055,-117.6327 96.6343,-106.351 86.4941,-97.5991"/>
<polygon fill="#191970" stroke="#191970" points="119.2965,-130.534 129.1537,-134.4183 123.8702,-125.2349 119.2965,-130.534"/>
</g>
<!-- Node14 -->
<g id="node4" class="node">
<title>Node14</title>
<g id="a_node4"><a xlink:href="jsp__neighborhoods_8hpp.html" target="_top" xlink:title="JSP Neighborhoods.">
<polygon fill="none" stroke="#000000" points="149.5,-73 149.5,-92 324.5,-92 324.5,-73 149.5,-73"/>
<text text-anchor="middle" x="237" y="-80" font-family="Helvetica,sans-Serif" font-size="10.00" fill="#000000">problems/jsp/jsp_neighborhoods.hpp</text>
</a>
</g>
</g>
<!-- Node11&#45;&gt;Node14 -->
<g id="edge3" class="edge">
<title>Node11&#45;&gt;Node14</title>
<path fill="none" stroke="#191970" d="M184.6701,-127.6657C199.1625,-115.1574 215.4044,-101.139 225.8942,-92.0853"/>
<polygon fill="#191970" stroke="#191970" points="182.1298,-125.2349 176.8463,-134.4183 186.7035,-130.534 182.1298,-125.2349"/>
</g>
<!-- Node13 -->
<g id="node3" class="node">
<title>Node13</title>
<g id="a_node3"><a xlink:href="jsp__generation__operators_8hpp.html" target="_top" xlink:title="JSP Generation Operators.">
<polygon fill="none" stroke="#000000" points="0,-.5 0,-30.5 138,-30.5 138,-.5 0,-.5"/>
<text text-anchor="start" x="8" y="-18.5" font-family="Helvetica,sans-Serif" font-size="10.00" fill="#000000">problems/jsp/jsp_generation</text>
<text text-anchor="middle" x="69" y="-7.5" font-family="Helvetica,sans-Serif" font-size="10.00" fill="#000000">_operators.hpp</text>
</a>
</g>
</g>
<!-- Node12&#45;&gt;Node13 -->
<g id="edge2" class="edge">
<title>Node12&#45;&gt;Node13</title>
<path fill="none" stroke="#191970" d="M69,-57.0249C69,-48.128 69,-38.4287 69,-30.6432"/>
<polygon fill="#191970" stroke="#191970" points="65.5001,-57.2966 69,-67.2967 72.5001,-57.2967 65.5001,-57.2966"/>
</g>
</g>
</svg>
