<?xml version="1.0" encoding="UTF-8" standalone="no"?>
<!DOCTYPE svg PUBLIC "-//W3C//DTD SVG 1.1//EN"
 "http://www.w3.org/Graphics/SVG/1.1/DTD/svg11.dtd">
<!-- Generated by graphviz version 2.40.1 (20161225.0304)
 -->
<!-- Title: problems/jsp/jsp.hpp Pages: 1 -->
<svg width="588pt" height="95pt"
 viewBox="0.00 0.00 587.50 95.00" xmlns="http://www.w3.org/2000/svg" xmlns:xlink="http://www.w3.org/1999/xlink">
<g id="graph0" class="graph" transform="scale(1 1) rotate(0) translate(4 91)">
<title>problems/jsp/jsp.hpp</title>
<!-- Node0 -->
<g id="node1" class="node">
<title>Node0</title>
<g id="a_node1"><a xlink:title="JSP formulation.">
<polygon fill="#bfbfbf" stroke="#000000" points="200.5,-67.5 200.5,-86.5 307.5,-86.5 307.5,-67.5 200.5,-67.5"/>
<text text-anchor="middle" x="254" y="-74.5" font-family="Helvetica,sans-Serif" font-size="10.00" fill="#000000">problems/jsp/jsp.hpp</text>
</a>
</g>
</g>
<!-- Node1 -->
<g id="node2" class="node">
<title>Node1</title>
<g id="a_node2"><a xlink:title=" ">
<polygon fill="none" stroke="#bfbfbf" points="0,-6 0,-25 56,-25 56,-6 0,-6"/>
<text text-anchor="middle" x="28" y="-13" font-family="Helvetica,sans-Serif" font-size="10.00" fill="#000000">algorithm</text>
</a>
</g>
</g>
<!-- Node0&#45;&gt;Node1 -->
<g id="edge1" class="edge">
<title>Node0&#45;&gt;Node1</title>
<path fill="none" stroke="#191970" d="M205.6401,-67.4349C167.1,-59.2865 111.9974,-46.4559 65,-31 62.9036,-30.3106 60.7593,-29.5543 58.611,-28.7584"/>
<polygon fill="#191970" stroke="#191970" points="59.8912,-25.5009 49.304,-25.0986 57.3295,-32.0154 59.8912,-25.5009"/>
</g>
<!-- Node2 -->
<g id="node3" class="node">
<title>Node2</title>
<g id="a_node3"><a xlink:title=" ">
<polygon fill="none" stroke="#bfbfbf" points="74.5,-6 74.5,-25 117.5,-25 117.5,-6 74.5,-6"/>
<text text-anchor="middle" x="96" y="-13" font-family="Helvetica,sans-Serif" font-size="10.00" fill="#000000">deque</text>
</a>
</g>
</g>
<!-- Node0&#45;&gt;Node2 -->
<g id="edge2" class="edge">
<title>Node0&#45;&gt;Node2</title>
<path fill="none" stroke="#191970" d="M224.0806,-67.4921C197.8599,-58.8667 158.9044,-45.3384 126,-31 124.9789,-30.555 123.9441,-30.0907 122.9032,-29.6124"/>
<polygon fill="#191970" stroke="#191970" points="124.1029,-26.3038 113.5798,-25.0731 121.0386,-32.5975 124.1029,-26.3038"/>
</g>
<!-- Node3 -->
<g id="node4" class="node">
<title>Node3</title>
<g id="a_node4"><a xlink:title=" ">
<polygon fill="none" stroke="#bfbfbf" points="135.5,-6 135.5,-25 194.5,-25 194.5,-6 135.5,-6"/>
<text text-anchor="middle" x="165" y="-13" font-family="Helvetica,sans-Serif" font-size="10.00" fill="#000000">functional</text>
</a>
</g>
</g>
<!-- Node0&#45;&gt;Node3 -->
<g id="edge3" class="edge">
<title>Node0&#45;&gt;Node3</title>
<path fill="none" stroke="#191970" d="M240.0938,-67.3906C225.9862,-57.6421 203.9276,-42.3994 187.3615,-30.9521"/>
<polygon fill="#191970" stroke="#191970" points="189.0253,-27.8474 178.8086,-25.0419 185.0458,-33.6063 189.0253,-27.8474"/>
</g>
<!-- Node4 -->
<g id="node5" class="node">
<title>Node4</title>
<g id="a_node5"><a xlink:title=" ">
<polygon fill="none" stroke="#bfbfbf" points="212.5,-6 212.5,-25 295.5,-25 295.5,-6 212.5,-6"/>
<text text-anchor="middle" x="254" y="-13" font-family="Helvetica,sans-Serif" font-size="10.00" fill="#000000">unordered_map</text>
</a>
</g>
</g>
<!-- Node0&#45;&gt;Node4 -->
<g id="edge4" class="edge">
<title>Node0&#45;&gt;Node4</title>
<path fill="none" stroke="#191970" d="M254,-67.3906C254,-58.8657 254,-46.1392 254,-35.4235"/>
<polygon fill="#191970" stroke="#191970" points="257.5001,-35.2448 254,-25.2449 250.5001,-35.2449 257.5001,-35.2448"/>
</g>
<!-- Node5 -->
<g id="node6" class="node">
<title>Node5</title>
<g id="a_node6"><a xlink:title=" ">
<polygon fill="none" stroke="#bfbfbf" points="314,-6 314,-25 392,-25 392,-6 314,-6"/>
<text text-anchor="middle" x="353" y="-13" font-family="Helvetica,sans-Serif" font-size="10.00" fill="#000000">unordered_set</text>
</a>
</g>
</g>
<!-- Node0&#45;&gt;Node5 -->
<g id="edge5" class="edge">
<title>Node0&#45;&gt;Node5</title>
<path fill="none" stroke="#191970" d="M269.4688,-67.3906C285.4521,-57.4616 310.6103,-41.833 329.1433,-30.3201"/>
<polygon fill="#191970" stroke="#191970" points="330.9924,-33.2918 337.6399,-25.0419 327.2985,-27.3457 330.9924,-33.2918"/>
</g>
<!-- Node6 -->
<g id="node7" class="node">
<title>Node6</title>
<g id="a_node7"><a xlink:title=" ">
<polygon fill="none" stroke="#bfbfbf" points="410,-6 410,-25 454,-25 454,-6 410,-6"/>
<text text-anchor="middle" x="432" y="-13" font-family="Helvetica,sans-Serif" font-size="10.00" fill="#000000">vector</text>
</a>
</g>
</g>
<!-- Node0&#45;&gt;Node6 -->
<g id="edge6" class="edge">
<title>Node0&#45;&gt;Node6</title>
<path fill="none" stroke="#191970" d="M290.2088,-67.422C320.3138,-59.0443 364.0493,-45.907 401,-31 402.3602,-30.4513 403.7424,-29.8665 405.1301,-29.2576"/>
<polygon fill="#191970" stroke="#191970" points="406.6211,-32.4241 414.1928,-25.0133 403.6523,-26.0849 406.6211,-32.4241"/>
</g>
<!-- Node7 -->
<g id="node8" class="node">
<title>Node7</title>
<g id="a_node8"><a xlink:href="triangular__fuzzy__number_8hpp.html" target="_top" xlink:title="Triangular Fuzzy Number.">
<polygon fill="none" stroke="#000000" points="472.5,-.5 472.5,-30.5 579.5,-30.5 579.5,-.5 472.5,-.5"/>
<text text-anchor="start" x="480.5" y="-18.5" font-family="Helvetica,sans-Serif" font-size="10.00" fill="#000000">utils/triangular_fuzzy</text>
<text text-anchor="middle" x="526" y="-7.5" font-family="Helvetica,sans-Serif" font-size="10.00" fill="#000000">_number.hpp</text>
</a>
</g>
</g>
<!-- Node0&#45;&gt;Node7 -->
<g id="edge7" class="edge">
<title>Node0&#45;&gt;Node7</title>
<path fill="none" stroke="#191970" d="M298.9186,-67.4477C339.1397,-58.8194 399.9842,-45.583 462.3806,-31.1134"/>
<polygon fill="#191970" stroke="#191970" points="463.4586,-34.4562 472.4053,-28.7811 461.8722,-27.6383 463.4586,-34.4562"/>
</g>
</g>
</svg>
