<?xml version="1.0" encoding="UTF-8" standalone="no"?>
<!DOCTYPE svg PUBLIC "-//W3C//DTD SVG 1.1//EN"
 "http://www.w3.org/Graphics/SVG/1.1/DTD/svg11.dtd">
<!-- Generated by graphviz version 2.40.1 (20161225.0304)
 -->
<!-- Title: metaheuristics/utils/local_search_logger.hpp Pages: 1 -->
<svg width="425pt" height="117pt"
 viewBox="0.00 0.00 424.50 117.00" xmlns="http://www.w3.org/2000/svg" xmlns:xlink="http://www.w3.org/1999/xlink">
<g id="graph0" class="graph" transform="scale(1 1) rotate(0) translate(4 113)">
<title>metaheuristics/utils/local_search_logger.hpp</title>
<!-- Node3 -->
<g id="node1" class="node">
<title>Node3</title>
<g id="a_node1"><a xlink:title="Logger for local search algorithms.">
<polygon fill="#bfbfbf" stroke="#000000" points="176,-78.5 176,-108.5 300,-108.5 300,-78.5 176,-78.5"/>
<text text-anchor="start" x="184" y="-96.5" font-family="Helvetica,sans-Serif" font-size="10.00" fill="#000000">metaheuristics/utils</text>
<text text-anchor="middle" x="238" y="-85.5" font-family="Helvetica,sans-Serif" font-size="10.00" fill="#000000">/local_search_logger.hpp</text>
</a>
</g>
</g>
<!-- Node4 -->
<g id="node2" class="node">
<title>Node4</title>
<g id="a_node2"><a xlink:href="memetic__algorithm_8hpp.html" target="_top" xlink:title="Memetic Algorithm.">
<polygon fill="none" stroke="#000000" points="0,-6 0,-36 166,-36 166,-6 0,-6"/>
<text text-anchor="start" x="8" y="-24" font-family="Helvetica,sans-Serif" font-size="10.00" fill="#000000">metaheuristics/evolutionary</text>
<text text-anchor="middle" x="83" y="-13" font-family="Helvetica,sans-Serif" font-size="10.00" fill="#000000">_algorithm/memetic_algorithm.hpp</text>
</a>
</g>
</g>
<!-- Node3&#45;&gt;Node4 -->
<g id="edge1" class="edge">
<title>Node3&#45;&gt;Node4</title>
<path fill="none" stroke="#191970" d="M196.7887,-74.2237C171.1853,-62.248 138.7571,-47.0799 115.075,-36.0028"/>
<polygon fill="#191970" stroke="#191970" points="195.3429,-77.4114 205.8839,-78.478 198.3087,-71.0707 195.3429,-77.4114"/>
</g>
<!-- Node5 -->
<g id="node3" class="node">
<title>Node5</title>
<g id="a_node3"><a xlink:href="tabu__search__fixed__length_8hpp.html" target="_top" xlink:title="Tabu search with a fixed length tabu list.">
<polygon fill="none" stroke="#000000" points="184.5,-.5 184.5,-41.5 291.5,-41.5 291.5,-.5 184.5,-.5"/>
<text text-anchor="start" x="192.5" y="-29.5" font-family="Helvetica,sans-Serif" font-size="10.00" fill="#000000">metaheuristics/tabu</text>
<text text-anchor="start" x="192.5" y="-18.5" font-family="Helvetica,sans-Serif" font-size="10.00" fill="#000000">_search/tabu_search</text>
<text text-anchor="middle" x="238" y="-7.5" font-family="Helvetica,sans-Serif" font-size="10.00" fill="#000000">_fixed_length.hpp</text>
</a>
</g>
</g>
<!-- Node3&#45;&gt;Node5 -->
<g id="edge2" class="edge">
<title>Node3&#45;&gt;Node5</title>
<path fill="none" stroke="#191970" d="M238,-68.4016C238,-59.6173 238,-49.8652 238,-41.5015"/>
<polygon fill="#191970" stroke="#191970" points="234.5001,-68.4779 238,-78.478 241.5001,-68.478 234.5001,-68.4779"/>
</g>
<!-- Node6 -->
<g id="node4" class="node">
<title>Node6</title>
<g id="a_node4"><a xlink:href="tabu__search__variable__length_8hpp.html" target="_top" xlink:title="Tabu search with a variable length tabu list.">
<polygon fill="none" stroke="#000000" points="309.5,-.5 309.5,-41.5 416.5,-41.5 416.5,-.5 309.5,-.5"/>
<text text-anchor="start" x="317.5" y="-29.5" font-family="Helvetica,sans-Serif" font-size="10.00" fill="#000000">metaheuristics/tabu</text>
<text text-anchor="start" x="317.5" y="-18.5" font-family="Helvetica,sans-Serif" font-size="10.00" fill="#000000">_search/tabu_search</text>
<text text-anchor="middle" x="363" y="-7.5" font-family="Helvetica,sans-Serif" font-size="10.00" fill="#000000">_variable_length.hpp</text>
</a>
</g>
</g>
<!-- Node3&#45;&gt;Node6 -->
<g id="edge3" class="edge">
<title>Node3&#45;&gt;Node6</title>
<path fill="none" stroke="#191970" d="M272.9864,-73.2079C290.0527,-63.3094 310.5385,-51.4277 327.6526,-41.5015"/>
<polygon fill="#191970" stroke="#191970" points="270.7944,-70.4331 263.9001,-78.478 274.3064,-76.4883 270.7944,-70.4331"/>
</g>
</g>
</svg>
