<?xml version="1.0" encoding="UTF-8" standalone="no"?>
<!DOCTYPE svg PUBLIC "-//W3C//DTD SVG 1.1//EN"
 "http://www.w3.org/Graphics/SVG/1.1/DTD/svg11.dtd">
<!-- Generated by graphviz version 2.40.1 (20161225.0304)
 -->
<!-- Title: metaheuristics/evolutionary_algorithm/memetic_algorithm.hpp Pages: 1 -->
<svg width="712pt" height="173pt"
 viewBox="0.00 0.00 711.50 173.00" xmlns="http://www.w3.org/2000/svg" xmlns:xlink="http://www.w3.org/1999/xlink">
<g id="graph0" class="graph" transform="scale(1 1) rotate(0) translate(4 169)">
<title>metaheuristics/evolutionary_algorithm/memetic_algorithm.hpp</title>
<!-- Node0 -->
<g id="node1" class="node">
<title>Node0</title>
<g id="a_node1"><a xlink:title="Memetic Algorithm.">
<polygon fill="#bfbfbf" stroke="#000000" points="167,-134.5 167,-164.5 333,-164.5 333,-134.5 167,-134.5"/>
<text text-anchor="start" x="175" y="-152.5" font-family="Helvetica,sans-Serif" font-size="10.00" fill="#000000">metaheuristics/evolutionary</text>
<text text-anchor="middle" x="250" y="-141.5" font-family="Helvetica,sans-Serif" font-size="10.00" fill="#000000">_algorithm/memetic_algorithm.hpp</text>
</a>
</g>
</g>
<!-- Node1 -->
<g id="node2" class="node">
<title>Node1</title>
<g id="a_node2"><a xlink:title=" ">
<polygon fill="none" stroke="#bfbfbf" points="0,-67.5 0,-86.5 56,-86.5 56,-67.5 0,-67.5"/>
<text text-anchor="middle" x="28" y="-74.5" font-family="Helvetica,sans-Serif" font-size="10.00" fill="#000000">algorithm</text>
</a>
</g>
</g>
<!-- Node0&#45;&gt;Node1 -->
<g id="edge1" class="edge">
<title>Node0&#45;&gt;Node1</title>
<path fill="none" stroke="#191970" d="M180.5589,-134.4471C145.2604,-125.731 102.0978,-113.4172 65,-98 60.6625,-96.1974 56.1968,-93.9945 51.9342,-91.7014"/>
<polygon fill="#191970" stroke="#191970" points="53.4796,-88.554 43.0558,-86.6578 50.0219,-94.6405 53.4796,-88.554"/>
</g>
<!-- Node2 -->
<g id="node3" class="node">
<title>Node2</title>
<g id="a_node3"><a xlink:title=" ">
<polygon fill="none" stroke="#bfbfbf" points="74.5,-67.5 74.5,-86.5 125.5,-86.5 125.5,-67.5 74.5,-67.5"/>
<text text-anchor="middle" x="100" y="-74.5" font-family="Helvetica,sans-Serif" font-size="10.00" fill="#000000">numeric</text>
</a>
</g>
</g>
<!-- Node0&#45;&gt;Node2 -->
<g id="edge2" class="edge">
<title>Node0&#45;&gt;Node2</title>
<path fill="none" stroke="#191970" d="M212.5612,-134.401C189.533,-124.7418 159.6261,-111.5228 134,-98 130.443,-96.123 126.7536,-94.0193 123.1741,-91.8877"/>
<polygon fill="#191970" stroke="#191970" points="124.9932,-88.8977 114.6406,-86.6453 121.329,-94.8621 124.9932,-88.8977"/>
</g>
<!-- Node3 -->
<g id="node4" class="node">
<title>Node3</title>
<g id="a_node4"><a xlink:title=" ">
<polygon fill="none" stroke="#bfbfbf" points="143.5,-67.5 143.5,-86.5 192.5,-86.5 192.5,-67.5 143.5,-67.5"/>
<text text-anchor="middle" x="168" y="-74.5" font-family="Helvetica,sans-Serif" font-size="10.00" fill="#000000">random</text>
</a>
</g>
</g>
<!-- Node0&#45;&gt;Node3 -->
<g id="edge3" class="edge">
<title>Node0&#45;&gt;Node3</title>
<path fill="none" stroke="#191970" d="M233.0095,-134.478C219.5198,-122.551 200.676,-105.8903 186.7475,-93.5756"/>
<polygon fill="#191970" stroke="#191970" points="189.0024,-90.8974 179.1923,-86.8957 184.3657,-96.1416 189.0024,-90.8974"/>
</g>
<!-- Node4 -->
<g id="node5" class="node">
<title>Node4</title>
<g id="a_node5"><a xlink:title=" ">
<polygon fill="none" stroke="#bfbfbf" points="211,-67.5 211,-86.5 289,-86.5 289,-67.5 211,-67.5"/>
<text text-anchor="middle" x="250" y="-74.5" font-family="Helvetica,sans-Serif" font-size="10.00" fill="#000000">unordered_set</text>
</a>
</g>
</g>
<!-- Node0&#45;&gt;Node4 -->
<g id="edge4" class="edge">
<title>Node0&#45;&gt;Node4</title>
<path fill="none" stroke="#191970" d="M250,-134.478C250,-123.6657 250,-108.9631 250,-97.1348"/>
<polygon fill="#191970" stroke="#191970" points="253.5001,-96.8956 250,-86.8957 246.5001,-96.8957 253.5001,-96.8956"/>
</g>
<!-- Node5 -->
<g id="node6" class="node">
<title>Node5</title>
<g id="a_node6"><a xlink:href="evolutionary__algorithm__logger_8hpp.html" target="_top" xlink:title="Logger for evolutionary algorithms.">
<polygon fill="none" stroke="#000000" points="449.5,-56.5 449.5,-97.5 566.5,-97.5 566.5,-56.5 449.5,-56.5"/>
<text text-anchor="start" x="457.5" y="-85.5" font-family="Helvetica,sans-Serif" font-size="10.00" fill="#000000">metaheuristics/utils</text>
<text text-anchor="start" x="457.5" y="-74.5" font-family="Helvetica,sans-Serif" font-size="10.00" fill="#000000">/evolutionary_algorithm</text>
<text text-anchor="middle" x="508" y="-63.5" font-family="Helvetica,sans-Serif" font-size="10.00" fill="#000000">_logger.hpp</text>
</a>
</g>
</g>
<!-- Node0&#45;&gt;Node5 -->
<g id="edge5" class="edge">
<title>Node0&#45;&gt;Node5</title>
<path fill="none" stroke="#191970" d="M307.5149,-134.4685C342.9858,-125.0692 389.6273,-112.4801 439.7095,-98.0427"/>
<polygon fill="#191970" stroke="#191970" points="440.8007,-101.3706 449.4335,-95.2285 438.8547,-94.6465 440.8007,-101.3706"/>
</g>
<!-- Node8 -->
<g id="node9" class="node">
<title>Node8</title>
<g id="a_node9"><a xlink:href="local__search__logger_8hpp.html" target="_top" xlink:title="Logger for local search algorithms.">
<polygon fill="none" stroke="#000000" points="307,-62 307,-92 431,-92 431,-62 307,-62"/>
<text text-anchor="start" x="315" y="-80" font-family="Helvetica,sans-Serif" font-size="10.00" fill="#000000">metaheuristics/utils</text>
<text text-anchor="middle" x="369" y="-69" font-family="Helvetica,sans-Serif" font-size="10.00" fill="#000000">/local_search_logger.hpp</text>
</a>
</g>
</g>
<!-- Node0&#45;&gt;Node8 -->
<g id="edge8" class="edge">
<title>Node0&#45;&gt;Node8</title>
<path fill="none" stroke="#191970" d="M274.6569,-134.478C292.3677,-123.6877 316.438,-109.023 335.8324,-97.2071"/>
<polygon fill="#191970" stroke="#191970" points="337.6558,-100.1947 344.3747,-92.0028 334.0138,-94.2168 337.6558,-100.1947"/>
</g>
<!-- Node9 -->
<g id="node10" class="node">
<title>Node9</title>
<g id="a_node10"><a xlink:href="container__utils_8hpp.html" target="_top" xlink:title="Contains utilities to work with the standard library containers.">
<polygon fill="none" stroke="#000000" points="584.5,-67.5 584.5,-86.5 703.5,-86.5 703.5,-67.5 584.5,-67.5"/>
<text text-anchor="middle" x="644" y="-74.5" font-family="Helvetica,sans-Serif" font-size="10.00" fill="#000000">utils/container_utils.hpp</text>
</a>
</g>
</g>
<!-- Node0&#45;&gt;Node9 -->
<g id="edge11" class="edge">
<title>Node0&#45;&gt;Node9</title>
<path fill="none" stroke="#191970" d="M333.0278,-139.7125C399.2883,-131.1044 494.2313,-116.9823 576,-98 586.0197,-95.674 596.7138,-92.64 606.5841,-89.6044"/>
<polygon fill="#191970" stroke="#191970" points="607.6407,-92.9412 616.1243,-86.5946 605.5345,-86.2656 607.6407,-92.9412"/>
</g>
<!-- Node6 -->
<g id="node7" class="node">
<title>Node6</title>
<g id="a_node7"><a xlink:title=" ">
<polygon fill="none" stroke="#bfbfbf" points="448.5,-.5 448.5,-19.5 489.5,-19.5 489.5,-.5 448.5,-.5"/>
<text text-anchor="middle" x="469" y="-7.5" font-family="Helvetica,sans-Serif" font-size="10.00" fill="#000000">string</text>
</a>
</g>
</g>
<!-- Node5&#45;&gt;Node6 -->
<g id="edge6" class="edge">
<title>Node5&#45;&gt;Node6</title>
<path fill="none" stroke="#191970" d="M495.8739,-56.168C490.7401,-47.3484 484.8066,-37.155 479.823,-28.5933"/>
<polygon fill="#191970" stroke="#191970" points="482.7487,-26.6622 474.6931,-19.7805 476.699,-30.1837 482.7487,-26.6622"/>
</g>
<!-- Node7 -->
<g id="node8" class="node">
<title>Node7</title>
<g id="a_node8"><a xlink:title=" ">
<polygon fill="none" stroke="#bfbfbf" points="367,-.5 367,-19.5 411,-19.5 411,-.5 367,-.5"/>
<text text-anchor="middle" x="389" y="-7.5" font-family="Helvetica,sans-Serif" font-size="10.00" fill="#000000">vector</text>
</a>
</g>
</g>
<!-- Node5&#45;&gt;Node7 -->
<g id="edge7" class="edge">
<title>Node5&#45;&gt;Node7</title>
<path fill="none" stroke="#191970" d="M471.3251,-56.3511C453.1714,-46.1301 431.6764,-34.0279 415.2034,-24.7532"/>
<polygon fill="#191970" stroke="#191970" points="416.5787,-21.5109 406.1478,-19.6546 413.1445,-27.6106 416.5787,-21.5109"/>
</g>
<!-- Node8&#45;&gt;Node6 -->
<g id="edge9" class="edge">
<title>Node8&#45;&gt;Node6</title>
<path fill="none" stroke="#191970" d="M391.6915,-61.7967C408.0283,-50.851 429.9759,-36.1462 446.3119,-25.201"/>
<polygon fill="#191970" stroke="#191970" points="448.3793,-28.0289 454.7388,-19.555 444.483,-22.2135 448.3793,-28.0289"/>
</g>
<!-- Node8&#45;&gt;Node7 -->
<g id="edge10" class="edge">
<title>Node8&#45;&gt;Node7</title>
<path fill="none" stroke="#191970" d="M373.5383,-61.7967C376.4124,-52.1685 380.1547,-39.6318 383.2377,-29.3038"/>
<polygon fill="#191970" stroke="#191970" points="386.6411,-30.1383 386.1478,-19.555 379.9336,-28.136 386.6411,-30.1383"/>
</g>
<!-- Node10 -->
<g id="node11" class="node">
<title>Node10</title>
<g id="a_node11"><a xlink:title=" ">
<polygon fill="none" stroke="#bfbfbf" points="624,-.5 624,-19.5 664,-19.5 664,-.5 624,-.5"/>
<text text-anchor="middle" x="644" y="-7.5" font-family="Helvetica,sans-Serif" font-size="10.00" fill="#000000">utility</text>
</a>
</g>
</g>
<!-- Node9&#45;&gt;Node10 -->
<g id="edge12" class="edge">
<title>Node9&#45;&gt;Node10</title>
<path fill="none" stroke="#191970" d="M644,-67.4005C644,-57.649 644,-42.2597 644,-29.8695"/>
<polygon fill="#191970" stroke="#191970" points="647.5001,-29.5816 644,-19.5817 640.5001,-29.5817 647.5001,-29.5816"/>
</g>
</g>
</svg>
