<?xml version="1.0" encoding="UTF-8" standalone="no"?>
<!DOCTYPE svg PUBLIC "-//W3C//DTD SVG 1.1//EN"
 "http://www.w3.org/Graphics/SVG/1.1/DTD/svg11.dtd">
<!-- Generated by graphviz version 2.40.1 (20161225.0304)
 -->
<!-- Title: metaheuristics/utils/move_data.hpp Pages: 1 -->
<svg width="240pt" height="117pt"
 viewBox="0.00 0.00 240.00 117.00" xmlns="http://www.w3.org/2000/svg" xmlns:xlink="http://www.w3.org/1999/xlink">
<g id="graph0" class="graph" transform="scale(1 1) rotate(0) translate(4 113)">
<title>metaheuristics/utils/move_data.hpp</title>
<!-- Node1 -->
<g id="node1" class="node">
<title>Node1</title>
<g id="a_node1"><a xlink:title="Struture to communicate the problems with the local search algorithms.">
<polygon fill="#bfbfbf" stroke="#000000" points="65,-78.5 65,-108.5 166,-108.5 166,-78.5 65,-78.5"/>
<text text-anchor="start" x="73" y="-96.5" font-family="Helvetica,sans-Serif" font-size="10.00" fill="#000000">metaheuristics/utils</text>
<text text-anchor="middle" x="115.5" y="-85.5" font-family="Helvetica,sans-Serif" font-size="10.00" fill="#000000">/move_data.hpp</text>
</a>
</g>
</g>
<!-- Node2 -->
<g id="node2" class="node">
<title>Node2</title>
<g id="a_node2"><a xlink:href="tabu__search__fixed__length_8hpp.html" target="_top" xlink:title="Tabu search with a fixed length tabu list.">
<polygon fill="none" stroke="#000000" points="0,-.5 0,-41.5 107,-41.5 107,-.5 0,-.5"/>
<text text-anchor="start" x="8" y="-29.5" font-family="Helvetica,sans-Serif" font-size="10.00" fill="#000000">metaheuristics/tabu</text>
<text text-anchor="start" x="8" y="-18.5" font-family="Helvetica,sans-Serif" font-size="10.00" fill="#000000">_search/tabu_search</text>
<text text-anchor="middle" x="53.5" y="-7.5" font-family="Helvetica,sans-Serif" font-size="10.00" fill="#000000">_fixed_length.hpp</text>
</a>
</g>
</g>
<!-- Node1&#45;&gt;Node2 -->
<g id="edge1" class="edge">
<title>Node1&#45;&gt;Node2</title>
<path fill="none" stroke="#191970" d="M95.9971,-70.6942C88,-61.3427 78.8135,-50.6005 71.0323,-41.5015"/>
<polygon fill="#191970" stroke="#191970" points="93.4943,-73.1527 102.6536,-78.478 98.8142,-68.6032 93.4943,-73.1527"/>
</g>
<!-- Node3 -->
<g id="node3" class="node">
<title>Node3</title>
<g id="a_node3"><a xlink:href="tabu__search__variable__length_8hpp.html" target="_top" xlink:title="Tabu search with a variable length tabu list.">
<polygon fill="none" stroke="#000000" points="125,-.5 125,-41.5 232,-41.5 232,-.5 125,-.5"/>
<text text-anchor="start" x="133" y="-29.5" font-family="Helvetica,sans-Serif" font-size="10.00" fill="#000000">metaheuristics/tabu</text>
<text text-anchor="start" x="133" y="-18.5" font-family="Helvetica,sans-Serif" font-size="10.00" fill="#000000">_search/tabu_search</text>
<text text-anchor="middle" x="178.5" y="-7.5" font-family="Helvetica,sans-Serif" font-size="10.00" fill="#000000">_variable_length.hpp</text>
</a>
</g>
</g>
<!-- Node1&#45;&gt;Node3 -->
<g id="edge2" class="edge">
<title>Node1&#45;&gt;Node3</title>
<path fill="none" stroke="#191970" d="M135.3174,-70.6942C143.4436,-61.3427 152.7782,-50.6005 160.6849,-41.5015"/>
<polygon fill="#191970" stroke="#191970" points="132.471,-68.6339 128.5536,-78.478 137.7548,-73.2254 132.471,-68.6339"/>
</g>
</g>
</svg>
