<?xml version="1.0" encoding="UTF-8" standalone="no"?>
<!DOCTYPE svg PUBLIC "-//W3C//DTD SVG 1.1//EN"
 "http://www.w3.org/Graphics/SVG/1.1/DTD/svg11.dtd">
<!-- Generated by graphviz version 2.40.1 (20161225.0304)
 -->
<!-- Title: metaheuristics/evolutionary_algorithm/mutation_operators.hpp Pages: 1 -->
<svg width="175pt" height="95pt"
 viewBox="0.00 0.00 175.00 95.00" xmlns="http://www.w3.org/2000/svg" xmlns:xlink="http://www.w3.org/1999/xlink">
<g id="graph0" class="graph" transform="scale(1 1) rotate(0) translate(4 91)">
<title>metaheuristics/evolutionary_algorithm/mutation_operators.hpp</title>
<!-- Node0 -->
<g id="node1" class="node">
<title>Node0</title>
<g id="a_node1"><a xlink:title="Evolutionary Algorithm Mutation Operators.">
<polygon fill="#bfbfbf" stroke="#000000" points="0,-56.5 0,-86.5 167,-86.5 167,-56.5 0,-56.5"/>
<text text-anchor="start" x="8" y="-74.5" font-family="Helvetica,sans-Serif" font-size="10.00" fill="#000000">metaheuristics/evolutionary</text>
<text text-anchor="middle" x="83.5" y="-63.5" font-family="Helvetica,sans-Serif" font-size="10.00" fill="#000000">_algorithm/mutation_operators.hpp</text>
</a>
</g>
</g>
<!-- Node1 -->
<g id="node2" class="node">
<title>Node1</title>
<g id="a_node2"><a xlink:title=" ">
<polygon fill="none" stroke="#bfbfbf" points="20.5,-.5 20.5,-19.5 76.5,-19.5 76.5,-.5 20.5,-.5"/>
<text text-anchor="middle" x="48.5" y="-7.5" font-family="Helvetica,sans-Serif" font-size="10.00" fill="#000000">algorithm</text>
</a>
</g>
</g>
<!-- Node0&#45;&gt;Node1 -->
<g id="edge1" class="edge">
<title>Node0&#45;&gt;Node1</title>
<path fill="none" stroke="#191970" d="M74.8483,-56.2977C70.0912,-47.9388 64.1502,-37.4997 59.1143,-28.6509"/>
<polygon fill="#191970" stroke="#191970" points="62.0921,-26.8069 54.1039,-19.8469 56.0083,-30.2692 62.0921,-26.8069"/>
</g>
<!-- Node2 -->
<g id="node3" class="node">
<title>Node2</title>
<g id="a_node3"><a xlink:title=" ">
<polygon fill="none" stroke="#bfbfbf" points="95,-.5 95,-19.5 144,-19.5 144,-.5 95,-.5"/>
<text text-anchor="middle" x="119.5" y="-7.5" font-family="Helvetica,sans-Serif" font-size="10.00" fill="#000000">random</text>
</a>
</g>
</g>
<!-- Node0&#45;&gt;Node2 -->
<g id="edge2" class="edge">
<title>Node0&#45;&gt;Node2</title>
<path fill="none" stroke="#191970" d="M92.3989,-56.2977C97.2919,-47.9388 103.4026,-37.4997 108.5824,-28.6509"/>
<polygon fill="#191970" stroke="#191970" points="111.7047,-30.2452 113.7359,-19.8469 105.6635,-26.7089 111.7047,-30.2452"/>
</g>
</g>
</svg>
