<?xml version="1.0" encoding="UTF-8" standalone="no"?>
<!DOCTYPE svg PUBLIC "-//W3C//DTD SVG 1.1//EN"
 "http://www.w3.org/Graphics/SVG/1.1/DTD/svg11.dtd">
<!-- Generated by graphviz version 2.40.1 (20161225.0304)
 -->
<!-- Title: metaheuristics/evolutionary_algorithm/replacement_operators.hpp Pages: 1 -->
<svg width="198pt" height="95pt"
 viewBox="0.00 0.00 198.00 95.00" xmlns="http://www.w3.org/2000/svg" xmlns:xlink="http://www.w3.org/1999/xlink">
<g id="graph0" class="graph" transform="scale(1 1) rotate(0) translate(4 91)">
<title>metaheuristics/evolutionary_algorithm/replacement_operators.hpp</title>
<!-- Node0 -->
<g id="node1" class="node">
<title>Node0</title>
<g id="a_node1"><a xlink:title="Evolutionary Algorithm Replacement Operators.">
<polygon fill="#bfbfbf" stroke="#000000" points="8,-56.5 8,-86.5 190,-86.5 190,-56.5 8,-56.5"/>
<text text-anchor="start" x="16" y="-74.5" font-family="Helvetica,sans-Serif" font-size="10.00" fill="#000000">metaheuristics/evolutionary</text>
<text text-anchor="middle" x="99" y="-63.5" font-family="Helvetica,sans-Serif" font-size="10.00" fill="#000000">_algorithm/replacement_operators.hpp</text>
</a>
</g>
</g>
<!-- Node1 -->
<g id="node2" class="node">
<title>Node1</title>
<g id="a_node2"><a xlink:title=" ">
<polygon fill="none" stroke="#bfbfbf" points="0,-.5 0,-19.5 56,-19.5 56,-.5 0,-.5"/>
<text text-anchor="middle" x="28" y="-7.5" font-family="Helvetica,sans-Serif" font-size="10.00" fill="#000000">algorithm</text>
</a>
</g>
</g>
<!-- Node0&#45;&gt;Node1 -->
<g id="edge1" class="edge">
<title>Node0&#45;&gt;Node1</title>
<path fill="none" stroke="#191970" d="M81.4494,-56.2977C70.9779,-47.2274 57.6789,-35.7077 46.9662,-26.4285"/>
<polygon fill="#191970" stroke="#191970" points="49.2182,-23.7487 39.368,-19.8469 44.6351,-29.0398 49.2182,-23.7487"/>
</g>
<!-- Node2 -->
<g id="node3" class="node">
<title>Node2</title>
<g id="a_node3"><a xlink:title=" ">
<polygon fill="none" stroke="#bfbfbf" points="74.5,-.5 74.5,-19.5 123.5,-19.5 123.5,-.5 74.5,-.5"/>
<text text-anchor="middle" x="99" y="-7.5" font-family="Helvetica,sans-Serif" font-size="10.00" fill="#000000">random</text>
</a>
</g>
</g>
<!-- Node0&#45;&gt;Node2 -->
<g id="edge2" class="edge">
<title>Node0&#45;&gt;Node2</title>
<path fill="none" stroke="#191970" d="M99,-56.2977C99,-48.3834 99,-38.6043 99,-30.0759"/>
<polygon fill="#191970" stroke="#191970" points="102.5001,-29.8469 99,-19.8469 95.5001,-29.847 102.5001,-29.8469"/>
</g>
<!-- Node3 -->
<g id="node4" class="node">
<title>Node3</title>
<g id="a_node4"><a xlink:title=" ">
<polygon fill="none" stroke="#bfbfbf" points="142,-.5 142,-19.5 182,-19.5 182,-.5 142,-.5"/>
<text text-anchor="middle" x="162" y="-7.5" font-family="Helvetica,sans-Serif" font-size="10.00" fill="#000000">utility</text>
</a>
</g>
</g>
<!-- Node0&#45;&gt;Node3 -->
<g id="edge3" class="edge">
<title>Node0&#45;&gt;Node3</title>
<path fill="none" stroke="#191970" d="M114.573,-56.2977C123.6825,-47.4052 135.2034,-36.1586 144.6091,-26.9769"/>
<polygon fill="#191970" stroke="#191970" points="147.202,-29.3368 151.9129,-19.8469 142.3122,-24.3278 147.202,-29.3368"/>
</g>
</g>
</svg>
