<?xml version="1.0" encoding="UTF-8" standalone="no"?>
<!DOCTYPE svg PUBLIC "-//W3C//DTD SVG 1.1//EN"
 "http://www.w3.org/Graphics/SVG/1.1/DTD/svg11.dtd">
<!-- Generated by graphviz version 2.40.1 (20161225.0304)
 -->
<!-- Title: is_same_template&lt; T, T &gt; Pages: 1 -->
<svg width="139pt" height="160pt"
 viewBox="0.00 0.00 139.00 160.00" xmlns="http://www.w3.org/2000/svg" xmlns:xlink="http://www.w3.org/1999/xlink">
<g id="graph0" class="graph" transform="scale(1 1) rotate(0) translate(4 156)">
<title>is_same_template&lt; T, T &gt;</title>
<!-- Node0 -->
<g id="node1" class="node">
<title>Node0</title>
<g id="a_node1"><a xlink:title=" ">
<polygon fill="#bfbfbf" stroke="#000000" points="0,-.5 0,-57.5 131,-57.5 131,-.5 0,-.5"/>
<text text-anchor="middle" x="65.5" y="-45.5" font-family="Helvetica,sans-Serif" font-size="10.00" fill="#000000">is_same_template&lt; T, T &gt;</text>
<polyline fill="none" stroke="#000000" points="0,-38.5 131,-38.5 "/>
<text text-anchor="middle" x="65.5" y="-26.5" font-family="Helvetica,sans-Serif" font-size="10.00" fill="#000000"> </text>
<polyline fill="none" stroke="#000000" points="0,-19.5 131,-19.5 "/>
<text text-anchor="middle" x="65.5" y="-7.5" font-family="Helvetica,sans-Serif" font-size="10.00" fill="#000000"> </text>
</a>
</g>
</g>
<!-- Node1 -->
<g id="node2" class="node">
<title>Node1</title>
<g id="a_node2"><a xlink:title=" ">
<polygon fill="none" stroke="#bfbfbf" points="37,-94.5 37,-151.5 94,-151.5 94,-94.5 37,-94.5"/>
<text text-anchor="middle" x="65.5" y="-139.5" font-family="Helvetica,sans-Serif" font-size="10.00" fill="#000000">true_type</text>
<polyline fill="none" stroke="#bfbfbf" points="37,-132.5 94,-132.5 "/>
<text text-anchor="middle" x="65.5" y="-120.5" font-family="Helvetica,sans-Serif" font-size="10.00" fill="#000000"> </text>
<polyline fill="none" stroke="#bfbfbf" points="37,-113.5 94,-113.5 "/>
<text text-anchor="middle" x="65.5" y="-101.5" font-family="Helvetica,sans-Serif" font-size="10.00" fill="#000000"> </text>
</a>
</g>
</g>
<!-- Node1&#45;&gt;Node0 -->
<g id="edge1" class="edge">
<title>Node1&#45;&gt;Node0</title>
<path fill="none" stroke="#191970" d="M65.5,-84.1035C65.5,-75.2052 65.5,-65.9073 65.5,-57.538"/>
<polygon fill="none" stroke="#191970" points="62.0001,-84.2861 65.5,-94.2861 69.0001,-84.2862 62.0001,-84.2861"/>
</g>
</g>
</svg>
