<?xml version="1.0" encoding="UTF-8" standalone="no"?>
<!DOCTYPE svg PUBLIC "-//W3C//DTD SVG 1.1//EN"
 "http://www.w3.org/Graphics/SVG/1.1/DTD/svg11.dtd">
<!-- Generated by graphviz version 2.40.1 (20161225.0304)
 -->
<!-- Title: MemeticAlgorithm::Individual Pages: 1 -->
<svg width="186pt" height="237pt"
 viewBox="0.00 0.00 185.50 237.00" xmlns="http://www.w3.org/2000/svg" xmlns:xlink="http://www.w3.org/1999/xlink">
<g id="graph0" class="graph" transform="scale(1 1) rotate(0) translate(4 233)">
<title>MemeticAlgorithm::Individual</title>
<!-- Node1 -->
<g id="node1" class="node">
<title>Node1</title>
<g id="a_node1"><a xlink:title="Representation of an individual in a memetic algorithm.">
<polygon fill="#bfbfbf" stroke="#000000" points="0,-.5 0,-123.5 143,-123.5 143,-.5 0,-.5"/>
<text text-anchor="middle" x="71.5" y="-111.5" font-family="Helvetica,sans-Serif" font-size="10.00" fill="#000000">MemeticAlgorithm::Individual</text>
<polyline fill="none" stroke="#000000" points="0,-104.5 143,-104.5 "/>
<text text-anchor="middle" x="71.5" y="-92.5" font-family="Helvetica,sans-Serif" font-size="10.00" fill="#000000"> </text>
<polyline fill="none" stroke="#000000" points="0,-85.5 143,-85.5 "/>
<text text-anchor="start" x="8" y="-73.5" font-family="Helvetica,sans-Serif" font-size="10.00" fill="#000000">+ GetQuality()</text>
<text text-anchor="start" x="8" y="-62.5" font-family="Helvetica,sans-Serif" font-size="10.00" fill="#000000">+ operator==()</text>
<text text-anchor="start" x="8" y="-51.5" font-family="Helvetica,sans-Serif" font-size="10.00" fill="#000000">+ operator!=()</text>
<text text-anchor="start" x="8" y="-40.5" font-family="Helvetica,sans-Serif" font-size="10.00" fill="#000000">+ operator&lt;()</text>
<text text-anchor="start" x="8" y="-29.5" font-family="Helvetica,sans-Serif" font-size="10.00" fill="#000000">+ operator&gt;()</text>
<text text-anchor="start" x="8" y="-18.5" font-family="Helvetica,sans-Serif" font-size="10.00" fill="#000000">+ operator&lt;=()</text>
<text text-anchor="start" x="8" y="-7.5" font-family="Helvetica,sans-Serif" font-size="10.00" fill="#000000">+ operator&gt;=()</text>
</a>
</g>
</g>
<!-- Node2 -->
<g id="node2" class="node">
<title>Node2</title>
<g id="a_node2"><a xlink:title=" ">
<polygon fill="none" stroke="#bfbfbf" points="0,-171.5 0,-228.5 45,-228.5 45,-171.5 0,-171.5"/>
<text text-anchor="middle" x="22.5" y="-216.5" font-family="Helvetica,sans-Serif" font-size="10.00" fill="#000000">double</text>
<polyline fill="none" stroke="#bfbfbf" points="0,-209.5 45,-209.5 "/>
<text text-anchor="middle" x="22.5" y="-197.5" font-family="Helvetica,sans-Serif" font-size="10.00" fill="#000000"> </text>
<polyline fill="none" stroke="#bfbfbf" points="0,-190.5 45,-190.5 "/>
<text text-anchor="middle" x="22.5" y="-178.5" font-family="Helvetica,sans-Serif" font-size="10.00" fill="#000000"> </text>
</a>
</g>
</g>
<!-- Node2&#45;&gt;Node1 -->
<g id="edge1" class="edge">
<title>Node2&#45;&gt;Node1</title>
<path fill="none" stroke="#404040" d="M32.6528,-171.4063C36.4687,-160.6596 41.0015,-147.8938 45.6002,-134.9422"/>
<polygon fill="none" stroke="#404040" points="45.6269,-134.867 43.8651,-127.8744 49.6422,-123.5587 51.404,-130.5513 45.6269,-134.867"/>
<text text-anchor="middle" x="62.5" y="-145" font-family="Helvetica,sans-Serif" font-size="10.00" fill="#000000"> +quality</text>
</g>
<!-- Node3 -->
<g id="node3" class="node">
<title>Node3</title>
<g id="a_node3"><a xlink:title=" ">
<polygon fill="none" stroke="#bfbfbf" points="63.5,-171.5 63.5,-228.5 177.5,-228.5 177.5,-171.5 63.5,-171.5"/>
<text text-anchor="middle" x="120.5" y="-216.5" font-family="Helvetica,sans-Serif" font-size="10.00" fill="#000000">vector&lt; unsigned int &gt;</text>
<polyline fill="none" stroke="#bfbfbf" points="63.5,-209.5 177.5,-209.5 "/>
<text text-anchor="middle" x="120.5" y="-197.5" font-family="Helvetica,sans-Serif" font-size="10.00" fill="#000000"> </text>
<polyline fill="none" stroke="#bfbfbf" points="63.5,-190.5 177.5,-190.5 "/>
<text text-anchor="middle" x="120.5" y="-178.5" font-family="Helvetica,sans-Serif" font-size="10.00" fill="#000000"> </text>
</a>
</g>
</g>
<!-- Node3&#45;&gt;Node1 -->
<g id="edge2" class="edge">
<title>Node3&#45;&gt;Node1</title>
<path fill="none" stroke="#404040" d="M110.3472,-171.4063C106.5313,-160.6596 101.9985,-147.8938 97.3998,-134.9422"/>
<polygon fill="none" stroke="#404040" points="97.3731,-134.867 91.596,-130.5513 93.3578,-123.5587 99.1349,-127.8744 97.3731,-134.867"/>
<text text-anchor="middle" x="135.5" y="-145" font-family="Helvetica,sans-Serif" font-size="10.00" fill="#000000"> +chromosome</text>
</g>
</g>
</svg>
