<?xml version="1.0" encoding="UTF-8" standalone="no"?>
<!DOCTYPE svg PUBLIC "-//W3C//DTD SVG 1.1//EN"
 "http://www.w3.org/Graphics/SVG/1.1/DTD/svg11.dtd">
<!-- Generated by graphviz version 2.40.1 (20161225.0304)
 -->
<!-- Title: is_specialization_same_template&lt; T&lt; T1 &gt;, T&lt; T2 &gt; &gt; Pages: 1 -->
<svg width="126pt" height="182pt"
 viewBox="0.00 0.00 126.00 182.00" xmlns="http://www.w3.org/2000/svg" xmlns:xlink="http://www.w3.org/1999/xlink">
<g id="graph0" class="graph" transform="scale(1 1) rotate(0) translate(4 178)">
<title>is_specialization_same_template&lt; T&lt; T1 &gt;, T&lt; T2 &gt; &gt;</title>
<!-- Node2 -->
<g id="node1" class="node">
<title>Node2</title>
<g id="a_node1"><a xlink:title=" ">
<polygon fill="#bfbfbf" stroke="#000000" points="0,-.5 0,-79.5 118,-79.5 118,-.5 0,-.5"/>
<text text-anchor="start" x="8" y="-67.5" font-family="Helvetica,sans-Serif" font-size="10.00" fill="#000000">is_specialization_same</text>
<text text-anchor="start" x="8" y="-56.5" font-family="Helvetica,sans-Serif" font-size="10.00" fill="#000000">_template&lt; T&lt; T1 &gt;, T</text>
<text text-anchor="middle" x="59" y="-45.5" font-family="Helvetica,sans-Serif" font-size="10.00" fill="#000000">&lt; T2 &gt; &gt;</text>
<polyline fill="none" stroke="#000000" points="0,-38.5 118,-38.5 "/>
<text text-anchor="middle" x="59" y="-26.5" font-family="Helvetica,sans-Serif" font-size="10.00" fill="#000000"> </text>
<polyline fill="none" stroke="#000000" points="0,-19.5 118,-19.5 "/>
<text text-anchor="middle" x="59" y="-7.5" font-family="Helvetica,sans-Serif" font-size="10.00" fill="#000000"> </text>
</a>
</g>
</g>
<!-- Node3 -->
<g id="node2" class="node">
<title>Node3</title>
<g id="a_node2"><a xlink:title=" ">
<polygon fill="none" stroke="#bfbfbf" points="20.5,-116.5 20.5,-173.5 97.5,-173.5 97.5,-116.5 20.5,-116.5"/>
<text text-anchor="middle" x="59" y="-161.5" font-family="Helvetica,sans-Serif" font-size="10.00" fill="#000000">std::true_type</text>
<polyline fill="none" stroke="#bfbfbf" points="20.5,-154.5 97.5,-154.5 "/>
<text text-anchor="middle" x="59" y="-142.5" font-family="Helvetica,sans-Serif" font-size="10.00" fill="#000000"> </text>
<polyline fill="none" stroke="#bfbfbf" points="20.5,-135.5 97.5,-135.5 "/>
<text text-anchor="middle" x="59" y="-123.5" font-family="Helvetica,sans-Serif" font-size="10.00" fill="#000000"> </text>
</a>
</g>
</g>
<!-- Node3&#45;&gt;Node2 -->
<g id="edge1" class="edge">
<title>Node3&#45;&gt;Node2</title>
<path fill="none" stroke="#191970" d="M59,-106.1156C59,-97.4889 59,-88.3353 59,-79.6773"/>
<polygon fill="none" stroke="#191970" points="55.5001,-106.3083 59,-116.3083 62.5001,-106.3083 55.5001,-106.3083"/>
</g>
</g>
</svg>
