<?xml version="1.0" encoding="UTF-8" standalone="no"?>
<!DOCTYPE svg PUBLIC "-//W3C//DTD SVG 1.1//EN"
 "http://www.w3.org/Graphics/SVG/1.1/DTD/svg11.dtd">
<!-- Generated by graphviz version 2.40.1 (20161225.0304)
 -->
<!-- Title: LocalSearchLogger&lt; Solution &gt;::Log Pages: 1 -->
<svg width="235pt" height="193pt"
 viewBox="0.00 0.00 234.50 193.00" xmlns="http://www.w3.org/2000/svg" xmlns:xlink="http://www.w3.org/1999/xlink">
<g id="graph0" class="graph" transform="scale(1 1) rotate(0) translate(4 189)">
<title>LocalSearchLogger&lt; Solution &gt;::Log</title>
<!-- Node1 -->
<g id="node1" class="node">
<title>Node1</title>
<g id="a_node1"><a xlink:title="Structure that is used to log each step of the algorithm.">
<polygon fill="#bfbfbf" stroke="#000000" points="30.5,-.5 30.5,-68.5 136.5,-68.5 136.5,-.5 30.5,-.5"/>
<text text-anchor="start" x="38.5" y="-56.5" font-family="Helvetica,sans-Serif" font-size="10.00" fill="#000000">LocalSearchLogger&lt;</text>
<text text-anchor="middle" x="83.5" y="-45.5" font-family="Helvetica,sans-Serif" font-size="10.00" fill="#000000"> Solution &gt;::Log</text>
<polyline fill="none" stroke="#000000" points="30.5,-38.5 136.5,-38.5 "/>
<text text-anchor="middle" x="83.5" y="-26.5" font-family="Helvetica,sans-Serif" font-size="10.00" fill="#000000"> </text>
<polyline fill="none" stroke="#000000" points="30.5,-19.5 136.5,-19.5 "/>
<text text-anchor="start" x="38.5" y="-7.5" font-family="Helvetica,sans-Serif" font-size="10.00" fill="#000000">+ Log()</text>
</a>
</g>
</g>
<!-- Node2 -->
<g id="node2" class="node">
<title>Node2</title>
<g id="a_node2"><a xlink:title=" ">
<polygon fill="none" stroke="#bfbfbf" points="0,-127.5 0,-184.5 45,-184.5 45,-127.5 0,-127.5"/>
<text text-anchor="middle" x="22.5" y="-172.5" font-family="Helvetica,sans-Serif" font-size="10.00" fill="#000000">double</text>
<polyline fill="none" stroke="#bfbfbf" points="0,-165.5 45,-165.5 "/>
<text text-anchor="middle" x="22.5" y="-153.5" font-family="Helvetica,sans-Serif" font-size="10.00" fill="#000000"> </text>
<polyline fill="none" stroke="#bfbfbf" points="0,-146.5 45,-146.5 "/>
<text text-anchor="middle" x="22.5" y="-134.5" font-family="Helvetica,sans-Serif" font-size="10.00" fill="#000000"> </text>
</a>
</g>
</g>
<!-- Node2&#45;&gt;Node1 -->
<g id="edge1" class="edge">
<title>Node2&#45;&gt;Node1</title>
<path fill="none" stroke="#404040" d="M27.6899,-127.1708C30.6702,-114.4165 35.1198,-99.5069 41.5,-87 42.8923,-84.2706 44.4407,-81.549 46.0986,-78.8622"/>
<polygon fill="none" stroke="#404040" points="46.224,-78.6763 46.2646,-71.4653 52.9365,-68.7293 52.8959,-75.9403 46.224,-78.6763"/>
<text text-anchor="middle" x="60.5" y="-95.5" font-family="Helvetica,sans-Serif" font-size="10.00" fill="#000000"> +quality</text>
</g>
<!-- Node3 -->
<g id="node3" class="node">
<title>Node3</title>
<g id="a_node3"><a xlink:title=" ">
<polygon fill="none" stroke="#bfbfbf" points="63,-127.5 63,-184.5 104,-184.5 104,-127.5 63,-127.5"/>
<text text-anchor="middle" x="83.5" y="-172.5" font-family="Helvetica,sans-Serif" font-size="10.00" fill="#000000">string</text>
<polyline fill="none" stroke="#bfbfbf" points="63,-165.5 104,-165.5 "/>
<text text-anchor="middle" x="83.5" y="-153.5" font-family="Helvetica,sans-Serif" font-size="10.00" fill="#000000"> </text>
<polyline fill="none" stroke="#bfbfbf" points="63,-146.5 104,-146.5 "/>
<text text-anchor="middle" x="83.5" y="-134.5" font-family="Helvetica,sans-Serif" font-size="10.00" fill="#000000"> </text>
</a>
</g>
</g>
<!-- Node3&#45;&gt;Node1 -->
<g id="edge2" class="edge">
<title>Node3&#45;&gt;Node1</title>
<path fill="none" stroke="#404040" d="M83.5,-127.2062C83.5,-113.3632 83.5,-96.4255 83.5,-80.8327"/>
<polygon fill="none" stroke="#404040" points="83.5001,-80.7007 79.5,-74.7008 83.5,-68.7007 87.5,-74.7007 83.5001,-80.7007"/>
<text text-anchor="middle" x="97.5" y="-95.5" font-family="Helvetica,sans-Serif" font-size="10.00" fill="#000000"> +msg</text>
</g>
<!-- Node4 -->
<g id="node4" class="node">
<title>Node4</title>
<g id="a_node4"><a xlink:title=" ">
<polygon fill="none" stroke="#bfbfbf" points="122,-127.5 122,-184.5 191,-184.5 191,-127.5 122,-127.5"/>
<text text-anchor="middle" x="156.5" y="-172.5" font-family="Helvetica,sans-Serif" font-size="10.00" fill="#000000">unsigned int</text>
<polyline fill="none" stroke="#bfbfbf" points="122,-165.5 191,-165.5 "/>
<text text-anchor="middle" x="156.5" y="-153.5" font-family="Helvetica,sans-Serif" font-size="10.00" fill="#000000"> </text>
<polyline fill="none" stroke="#bfbfbf" points="122,-146.5 191,-146.5 "/>
<text text-anchor="middle" x="156.5" y="-134.5" font-family="Helvetica,sans-Serif" font-size="10.00" fill="#000000"> </text>
</a>
</g>
</g>
<!-- Node4&#45;&gt;Node1 -->
<g id="edge3" class="edge">
<title>Node4&#45;&gt;Node1</title>
<path fill="none" stroke="#404040" d="M139.6162,-127.422C132.2431,-114.9845 123.4757,-100.2522 115.5,-87 113.9347,-84.3992 112.3224,-81.7284 110.6926,-79.0352"/>
<polygon fill="none" stroke="#404040" points="110.6087,-78.8968 104.0766,-75.8421 104.3839,-68.6375 110.9161,-71.6922 110.6087,-78.8968"/>
<text text-anchor="middle" x="177" y="-101" font-family="Helvetica,sans-Serif" font-size="10.00" fill="#000000"> +neighbors_evaluated</text>
<text text-anchor="middle" x="177" y="-90" font-family="Helvetica,sans-Serif" font-size="10.00" fill="#000000">+neighbors_generated</text>
</g>
</g>
</svg>
