<?xml version="1.0" encoding="UTF-8" standalone="no"?>
<!DOCTYPE svg PUBLIC "-//W3C//DTD SVG 1.1//EN"
 "http://www.w3.org/Graphics/SVG/1.1/DTD/svg11.dtd">
<!-- Generated by graphviz version 2.40.1 (20161225.0304)
 -->
<!-- Title: is_specialization_same_template&lt; T, U &gt; Pages: 1 -->
<svg width="126pt" height="171pt"
 viewBox="0.00 0.00 126.00 171.00" xmlns="http://www.w3.org/2000/svg" xmlns:xlink="http://www.w3.org/1999/xlink">
<g id="graph0" class="graph" transform="scale(1 1) rotate(0) translate(4 167)">
<title>is_specialization_same_template&lt; T, U &gt;</title>
<!-- Node2 -->
<g id="node1" class="node">
<title>Node2</title>
<g id="a_node1"><a xlink:title=" ">
<polygon fill="#bfbfbf" stroke="#000000" points="0,-.5 0,-68.5 118,-68.5 118,-.5 0,-.5"/>
<text text-anchor="start" x="8" y="-56.5" font-family="Helvetica,sans-Serif" font-size="10.00" fill="#000000">is_specialization_same</text>
<text text-anchor="middle" x="59" y="-45.5" font-family="Helvetica,sans-Serif" font-size="10.00" fill="#000000">_template&lt; T, U &gt;</text>
<polyline fill="none" stroke="#000000" points="0,-38.5 118,-38.5 "/>
<text text-anchor="middle" x="59" y="-26.5" font-family="Helvetica,sans-Serif" font-size="10.00" fill="#000000"> </text>
<polyline fill="none" stroke="#000000" points="0,-19.5 118,-19.5 "/>
<text text-anchor="middle" x="59" y="-7.5" font-family="Helvetica,sans-Serif" font-size="10.00" fill="#000000"> </text>
</a>
</g>
</g>
<!-- Node3 -->
<g id="node2" class="node">
<title>Node3</title>
<g id="a_node2"><a xlink:title=" ">
<polygon fill="none" stroke="#bfbfbf" points="4,-105.5 4,-162.5 114,-162.5 114,-105.5 4,-105.5"/>
<text text-anchor="middle" x="59" y="-150.5" font-family="Helvetica,sans-Serif" font-size="10.00" fill="#000000">std::is_same&lt; T, U &gt;</text>
<polyline fill="none" stroke="#bfbfbf" points="4,-143.5 114,-143.5 "/>
<text text-anchor="middle" x="59" y="-131.5" font-family="Helvetica,sans-Serif" font-size="10.00" fill="#000000"> </text>
<polyline fill="none" stroke="#bfbfbf" points="4,-124.5 114,-124.5 "/>
<text text-anchor="middle" x="59" y="-112.5" font-family="Helvetica,sans-Serif" font-size="10.00" fill="#000000"> </text>
</a>
</g>
</g>
<!-- Node3&#45;&gt;Node2 -->
<g id="edge1" class="edge">
<title>Node3&#45;&gt;Node2</title>
<path fill="none" stroke="#191970" d="M59,-95.4268C59,-86.6025 59,-77.2834 59,-68.6596"/>
<polygon fill="none" stroke="#191970" points="55.5001,-95.4873 59,-105.4873 62.5001,-95.4873 55.5001,-95.4873"/>
</g>
</g>
</svg>
