<?xml version="1.0" encoding="UTF-8" standalone="no"?>
<!DOCTYPE svg PUBLIC "-//W3C//DTD SVG 1.1//EN"
 "http://www.w3.org/Graphics/SVG/1.1/DTD/svg11.dtd">
<!-- Generated by graphviz version 2.40.1 (20161225.0304)
 -->
<!-- Title: EvolutionaryAlgorithmLogger&lt; Solution &gt;::Log Pages: 1 -->
<svg width="157pt" height="193pt"
 viewBox="0.00 0.00 157.00 193.00" xmlns="http://www.w3.org/2000/svg" xmlns:xlink="http://www.w3.org/1999/xlink">
<g id="graph0" class="graph" transform="scale(1 1) rotate(0) translate(4 189)">
<title>EvolutionaryAlgorithmLogger&lt; Solution &gt;::Log</title>
<!-- Node1 -->
<g id="node1" class="node">
<title>Node1</title>
<g id="a_node1"><a xlink:title="Structure that is used to log each step of the algorithm.">
<polygon fill="#bfbfbf" stroke="#000000" points="5,-.5 5,-68.5 146,-68.5 146,-.5 5,-.5"/>
<text text-anchor="start" x="13" y="-56.5" font-family="Helvetica,sans-Serif" font-size="10.00" fill="#000000">EvolutionaryAlgorithmLogger</text>
<text text-anchor="middle" x="75.5" y="-45.5" font-family="Helvetica,sans-Serif" font-size="10.00" fill="#000000">&lt; Solution &gt;::Log</text>
<polyline fill="none" stroke="#000000" points="5,-38.5 146,-38.5 "/>
<text text-anchor="middle" x="75.5" y="-26.5" font-family="Helvetica,sans-Serif" font-size="10.00" fill="#000000"> </text>
<polyline fill="none" stroke="#000000" points="5,-19.5 146,-19.5 "/>
<text text-anchor="start" x="13" y="-7.5" font-family="Helvetica,sans-Serif" font-size="10.00" fill="#000000">+ Log()</text>
</a>
</g>
</g>
<!-- Node2 -->
<g id="node2" class="node">
<title>Node2</title>
<g id="a_node2"><a xlink:title=" ">
<polygon fill="none" stroke="#bfbfbf" points="0,-127.5 0,-184.5 45,-184.5 45,-127.5 0,-127.5"/>
<text text-anchor="middle" x="22.5" y="-172.5" font-family="Helvetica,sans-Serif" font-size="10.00" fill="#000000">double</text>
<polyline fill="none" stroke="#bfbfbf" points="0,-165.5 45,-165.5 "/>
<text text-anchor="middle" x="22.5" y="-153.5" font-family="Helvetica,sans-Serif" font-size="10.00" fill="#000000"> </text>
<polyline fill="none" stroke="#bfbfbf" points="0,-146.5 45,-146.5 "/>
<text text-anchor="middle" x="22.5" y="-134.5" font-family="Helvetica,sans-Serif" font-size="10.00" fill="#000000"> </text>
</a>
</g>
</g>
<!-- Node2&#45;&gt;Node1 -->
<g id="edge1" class="edge">
<title>Node2&#45;&gt;Node1</title>
<path fill="none" stroke="#404040" d="M18.2009,-127.4858C17.4356,-114.6528 18.2123,-99.5925 23.5,-87 24.6951,-84.1538 26.125,-81.3789 27.735,-78.6869"/>
<polygon fill="none" stroke="#404040" points="27.8242,-78.5598 27.9995,-71.3508 34.7214,-68.74 34.5461,-75.949 27.8242,-78.5598"/>
<text text-anchor="middle" x="65" y="-101" font-family="Helvetica,sans-Serif" font-size="10.00" fill="#000000"> +average_quality</text>
<text text-anchor="middle" x="65" y="-90" font-family="Helvetica,sans-Serif" font-size="10.00" fill="#000000">+maximum_quality</text>
</g>
<!-- Node3 -->
<g id="node3" class="node">
<title>Node3</title>
<g id="a_node3"><a xlink:title=" ">
<polygon fill="none" stroke="#bfbfbf" points="108,-127.5 108,-184.5 149,-184.5 149,-127.5 108,-127.5"/>
<text text-anchor="middle" x="128.5" y="-172.5" font-family="Helvetica,sans-Serif" font-size="10.00" fill="#000000">string</text>
<polyline fill="none" stroke="#bfbfbf" points="108,-165.5 149,-165.5 "/>
<text text-anchor="middle" x="128.5" y="-153.5" font-family="Helvetica,sans-Serif" font-size="10.00" fill="#000000"> </text>
<polyline fill="none" stroke="#bfbfbf" points="108,-146.5 149,-146.5 "/>
<text text-anchor="middle" x="128.5" y="-134.5" font-family="Helvetica,sans-Serif" font-size="10.00" fill="#000000"> </text>
</a>
</g>
</g>
<!-- Node3&#45;&gt;Node1 -->
<g id="edge2" class="edge">
<title>Node3&#45;&gt;Node1</title>
<path fill="none" stroke="#404040" d="M120.9112,-127.2647C117.1856,-114.666 112.2552,-99.8524 106.5,-87 105.3928,-84.5275 104.1972,-82.0246 102.9418,-79.5222"/>
<polygon fill="none" stroke="#404040" points="102.7902,-79.2378 96.4378,-75.8251 97.1447,-68.6487 103.4972,-72.0614 102.7902,-79.2378"/>
<text text-anchor="middle" x="128.5" y="-95.5" font-family="Helvetica,sans-Serif" font-size="10.00" fill="#000000"> +msg</text>
</g>
</g>
</svg>
