<?xml version="1.0" encoding="UTF-8" standalone="no"?>
<!DOCTYPE svg PUBLIC "-//W3C//DTD SVG 1.1//EN"
 "http://www.w3.org/Graphics/SVG/1.1/DTD/svg11.dtd">
<!-- Generated by graphviz version 2.40.1 (20161225.0304)
 -->
<!-- Title: JSPMakespanMinimizationSolution&lt; Problem, Tails &gt;::TaskMetadata Pages: 1 -->
<svg width="242pt" height="226pt"
 viewBox="0.00 0.00 241.50 226.00" xmlns="http://www.w3.org/2000/svg" xmlns:xlink="http://www.w3.org/1999/xlink">
<g id="graph0" class="graph" transform="scale(1 1) rotate(0) translate(4 222)">
<title>JSPMakespanMinimizationSolution&lt; Problem, Tails &gt;::TaskMetadata</title>
<!-- Node1 -->
<g id="node1" class="node">
<title>Node1</title>
<g id="a_node1"><a xlink:title=" ">
<polygon fill="#bfbfbf" stroke="#000000" points="55,-.5 55,-68.5 225,-68.5 225,-.5 55,-.5"/>
<text text-anchor="start" x="63" y="-56.5" font-family="Helvetica,sans-Serif" font-size="10.00" fill="#000000">JSPMakespanMinimizationSolution</text>
<text text-anchor="middle" x="140" y="-45.5" font-family="Helvetica,sans-Serif" font-size="10.00" fill="#000000">&lt; Problem, Tails &gt;::TaskMetadata</text>
<polyline fill="none" stroke="#000000" points="55,-38.5 225,-38.5 "/>
<text text-anchor="middle" x="140" y="-26.5" font-family="Helvetica,sans-Serif" font-size="10.00" fill="#000000"> </text>
<polyline fill="none" stroke="#000000" points="55,-19.5 225,-19.5 "/>
<text text-anchor="middle" x="140" y="-7.5" font-family="Helvetica,sans-Serif" font-size="10.00" fill="#000000"> </text>
</a>
</g>
</g>
<!-- Node2 -->
<g id="node2" class="node">
<title>Node2</title>
<g id="a_node2"><a xlink:title=" ">
<polygon fill="none" stroke="#bfbfbf" points="0,-149.5 0,-217.5 152,-217.5 152,-149.5 0,-149.5"/>
<text text-anchor="start" x="8" y="-205.5" font-family="Helvetica,sans-Serif" font-size="10.00" fill="#000000">optional&lt; std::reference</text>
<text text-anchor="middle" x="76" y="-194.5" font-family="Helvetica,sans-Serif" font-size="10.00" fill="#000000">_wrapper&lt; const TaskType &gt; &gt;</text>
<polyline fill="none" stroke="#bfbfbf" points="0,-187.5 152,-187.5 "/>
<text text-anchor="middle" x="76" y="-175.5" font-family="Helvetica,sans-Serif" font-size="10.00" fill="#000000"> </text>
<polyline fill="none" stroke="#bfbfbf" points="0,-168.5 152,-168.5 "/>
<text text-anchor="middle" x="76" y="-156.5" font-family="Helvetica,sans-Serif" font-size="10.00" fill="#000000"> </text>
</a>
</g>
</g>
<!-- Node2&#45;&gt;Node1 -->
<g id="edge1" class="edge">
<title>Node2&#45;&gt;Node1</title>
<path fill="none" stroke="#404040" d="M69.5548,-149.3273C67.5577,-130.1219 67.8751,-106.2222 77,-87 78.4386,-83.9694 80.1461,-81.052 82.0609,-78.2525"/>
<polygon fill="none" stroke="#404040" points="82.2704,-77.9919 82.9132,-70.8095 89.7904,-68.6405 89.1475,-75.8229 82.2704,-77.9919"/>
<text text-anchor="middle" x="129.5" y="-123" font-family="Helvetica,sans-Serif" font-size="10.00" fill="#000000"> +machine_predecessor</text>
<text text-anchor="middle" x="129.5" y="-112" font-family="Helvetica,sans-Serif" font-size="10.00" fill="#000000">+job_successor</text>
<text text-anchor="middle" x="129.5" y="-101" font-family="Helvetica,sans-Serif" font-size="10.00" fill="#000000">+job_predecessor</text>
<text text-anchor="middle" x="129.5" y="-90" font-family="Helvetica,sans-Serif" font-size="10.00" fill="#000000">+machine_successor</text>
</g>
<!-- Node3 -->
<g id="node3" class="node">
<title>Node3</title>
<g id="a_node3"><a xlink:title=" ">
<polygon fill="none" stroke="#bfbfbf" points="174.5,-155 174.5,-212 233.5,-212 233.5,-155 174.5,-155"/>
<text text-anchor="middle" x="204" y="-200" font-family="Helvetica,sans-Serif" font-size="10.00" fill="#000000">TimeType</text>
<polyline fill="none" stroke="#bfbfbf" points="174.5,-193 233.5,-193 "/>
<text text-anchor="middle" x="204" y="-181" font-family="Helvetica,sans-Serif" font-size="10.00" fill="#000000"> </text>
<polyline fill="none" stroke="#bfbfbf" points="174.5,-174 233.5,-174 "/>
<text text-anchor="middle" x="204" y="-162" font-family="Helvetica,sans-Serif" font-size="10.00" fill="#000000"> </text>
</a>
</g>
</g>
<!-- Node3&#45;&gt;Node1 -->
<g id="edge2" class="edge">
<title>Node3&#45;&gt;Node1</title>
<path fill="none" stroke="#404040" d="M200.9171,-154.935C197.9713,-135.1137 192.3771,-108.5128 182,-87 180.6688,-84.2403 179.169,-81.4945 177.5492,-78.7889"/>
<polygon fill="none" stroke="#404040" points="177.4332,-78.6136 170.7858,-75.8185 170.8093,-68.6074 177.4566,-71.4025 177.4332,-78.6136"/>
<text text-anchor="middle" x="211.5" y="-112" font-family="Helvetica,sans-Serif" font-size="10.00" fill="#000000"> +head</text>
<text text-anchor="middle" x="211.5" y="-101" font-family="Helvetica,sans-Serif" font-size="10.00" fill="#000000">+tail</text>
</g>
</g>
</svg>
