<?xml version="1.0" encoding="UTF-8" standalone="no"?>
<!DOCTYPE svg PUBLIC "-//W3C//DTD SVG 1.1//EN"
 "http://www.w3.org/Graphics/SVG/1.1/DTD/svg11.dtd">
<!-- Generated by graphviz version 2.40.1 (20161225.0304)
 -->
<!-- Title: MoveData&lt; Move &gt; Pages: 1 -->
<svg width="161pt" height="237pt"
 viewBox="0.00 0.00 161.00 237.00" xmlns="http://www.w3.org/2000/svg" xmlns:xlink="http://www.w3.org/1999/xlink">
<g id="graph0" class="graph" transform="scale(1 1) rotate(0) translate(4 233)">
<title>MoveData&lt; Move &gt;</title>
<!-- Node1 -->
<g id="node1" class="node">
<title>Node1</title>
<g id="a_node1"><a xlink:title="Auxiliary class that is used to pass a candidate move along with its estimated quality to the local s...">
<polygon fill="#bfbfbf" stroke="#000000" points="0,-.5 0,-123.5 104,-123.5 104,-.5 0,-.5"/>
<text text-anchor="middle" x="52" y="-111.5" font-family="Helvetica,sans-Serif" font-size="10.00" fill="#000000">MoveData&lt; Move &gt;</text>
<polyline fill="none" stroke="#000000" points="0,-104.5 104,-104.5 "/>
<text text-anchor="middle" x="52" y="-92.5" font-family="Helvetica,sans-Serif" font-size="10.00" fill="#000000"> </text>
<polyline fill="none" stroke="#000000" points="0,-85.5 104,-85.5 "/>
<text text-anchor="start" x="8" y="-73.5" font-family="Helvetica,sans-Serif" font-size="10.00" fill="#000000">+ MoveData()</text>
<text text-anchor="start" x="8" y="-62.5" font-family="Helvetica,sans-Serif" font-size="10.00" fill="#000000">+ operator==()</text>
<text text-anchor="start" x="8" y="-51.5" font-family="Helvetica,sans-Serif" font-size="10.00" fill="#000000">+ operator!=()</text>
<text text-anchor="start" x="8" y="-40.5" font-family="Helvetica,sans-Serif" font-size="10.00" fill="#000000">+ operator&lt;()</text>
<text text-anchor="start" x="8" y="-29.5" font-family="Helvetica,sans-Serif" font-size="10.00" fill="#000000">+ operator&gt;()</text>
<text text-anchor="start" x="8" y="-18.5" font-family="Helvetica,sans-Serif" font-size="10.00" fill="#000000">+ operator&lt;=()</text>
<text text-anchor="start" x="8" y="-7.5" font-family="Helvetica,sans-Serif" font-size="10.00" fill="#000000">+ operator&gt;=()</text>
</a>
</g>
</g>
<!-- Node2 -->
<g id="node2" class="node">
<title>Node2</title>
<g id="a_node2"><a xlink:title=" ">
<polygon fill="none" stroke="#bfbfbf" points="1.5,-171.5 1.5,-228.5 42.5,-228.5 42.5,-171.5 1.5,-171.5"/>
<text text-anchor="middle" x="22" y="-216.5" font-family="Helvetica,sans-Serif" font-size="10.00" fill="#000000">Move</text>
<polyline fill="none" stroke="#bfbfbf" points="1.5,-209.5 42.5,-209.5 "/>
<text text-anchor="middle" x="22" y="-197.5" font-family="Helvetica,sans-Serif" font-size="10.00" fill="#000000"> </text>
<polyline fill="none" stroke="#bfbfbf" points="1.5,-190.5 42.5,-190.5 "/>
<text text-anchor="middle" x="22" y="-178.5" font-family="Helvetica,sans-Serif" font-size="10.00" fill="#000000"> </text>
</a>
</g>
</g>
<!-- Node2&#45;&gt;Node1 -->
<g id="edge1" class="edge">
<title>Node2&#45;&gt;Node1</title>
<path fill="none" stroke="#404040" d="M23.2441,-171.2117C23.978,-161.8365 25.1448,-151.4205 27,-142 27.4244,-139.8451 27.8856,-137.6661 28.3779,-135.4735"/>
<polygon fill="none" stroke="#404040" points="28.413,-135.3301 25.9585,-128.5495 31.2734,-123.676 33.7279,-130.4565 28.413,-135.3301"/>
<text text-anchor="middle" x="44" y="-145" font-family="Helvetica,sans-Serif" font-size="10.00" fill="#000000"> +move</text>
</g>
<!-- Node3 -->
<g id="node3" class="node">
<title>Node3</title>
<g id="a_node3"><a xlink:title=" ">
<polygon fill="none" stroke="#bfbfbf" points="60.5,-171.5 60.5,-228.5 105.5,-228.5 105.5,-171.5 60.5,-171.5"/>
<text text-anchor="middle" x="83" y="-216.5" font-family="Helvetica,sans-Serif" font-size="10.00" fill="#000000">double</text>
<polyline fill="none" stroke="#bfbfbf" points="60.5,-209.5 105.5,-209.5 "/>
<text text-anchor="middle" x="83" y="-197.5" font-family="Helvetica,sans-Serif" font-size="10.00" fill="#000000"> </text>
<polyline fill="none" stroke="#bfbfbf" points="60.5,-190.5 105.5,-190.5 "/>
<text text-anchor="middle" x="83" y="-178.5" font-family="Helvetica,sans-Serif" font-size="10.00" fill="#000000"> </text>
</a>
</g>
</g>
<!-- Node3&#45;&gt;Node1 -->
<g id="edge2" class="edge">
<title>Node3&#45;&gt;Node1</title>
<path fill="none" stroke="#404040" d="M76.5768,-171.4063C74.187,-160.7682 71.3529,-148.1515 68.4737,-135.3346"/>
<polygon fill="none" stroke="#404040" points="68.4586,-135.2669 63.2407,-130.2895 65.8284,-123.5587 71.0462,-128.536 68.4586,-135.2669"/>
<text text-anchor="middle" x="112.5" y="-145" font-family="Helvetica,sans-Serif" font-size="10.00" fill="#000000"> +quality_estimate</text>
</g>
</g>
</svg>
