<?xml version="1.0" encoding="UTF-8" standalone="no"?>
<!DOCTYPE svg PUBLIC "-//W3C//DTD SVG 1.1//EN"
 "http://www.w3.org/Graphics/SVG/1.1/DTD/svg11.dtd">
<!-- Generated by graphviz version 2.40.1 (20161225.0304)
 -->
<!-- Title: EvolutionaryAlgorithm::Individual Pages: 1 -->
<svg width="186pt" height="248pt"
 viewBox="0.00 0.00 185.50 248.00" xmlns="http://www.w3.org/2000/svg" xmlns:xlink="http://www.w3.org/1999/xlink">
<g id="graph0" class="graph" transform="scale(1 1) rotate(0) translate(4 244)">
<title>EvolutionaryAlgorithm::Individual</title>
<!-- Node1 -->
<g id="node1" class="node">
<title>Node1</title>
<g id="a_node1"><a xlink:title="Representation of an individual in a evolutionary algorithm.">
<polygon fill="#bfbfbf" stroke="#000000" points="15.5,-.5 15.5,-134.5 127.5,-134.5 127.5,-.5 15.5,-.5"/>
<text text-anchor="start" x="23.5" y="-122.5" font-family="Helvetica,sans-Serif" font-size="10.00" fill="#000000">EvolutionaryAlgorithm</text>
<text text-anchor="middle" x="71.5" y="-111.5" font-family="Helvetica,sans-Serif" font-size="10.00" fill="#000000">::Individual</text>
<polyline fill="none" stroke="#000000" points="15.5,-104.5 127.5,-104.5 "/>
<text text-anchor="middle" x="71.5" y="-92.5" font-family="Helvetica,sans-Serif" font-size="10.00" fill="#000000"> </text>
<polyline fill="none" stroke="#000000" points="15.5,-85.5 127.5,-85.5 "/>
<text text-anchor="start" x="23.5" y="-73.5" font-family="Helvetica,sans-Serif" font-size="10.00" fill="#000000">+ GetQuality()</text>
<text text-anchor="start" x="23.5" y="-62.5" font-family="Helvetica,sans-Serif" font-size="10.00" fill="#000000">+ operator==()</text>
<text text-anchor="start" x="23.5" y="-51.5" font-family="Helvetica,sans-Serif" font-size="10.00" fill="#000000">+ operator!=()</text>
<text text-anchor="start" x="23.5" y="-40.5" font-family="Helvetica,sans-Serif" font-size="10.00" fill="#000000">+ operator&lt;()</text>
<text text-anchor="start" x="23.5" y="-29.5" font-family="Helvetica,sans-Serif" font-size="10.00" fill="#000000">+ operator&gt;()</text>
<text text-anchor="start" x="23.5" y="-18.5" font-family="Helvetica,sans-Serif" font-size="10.00" fill="#000000">+ operator&lt;=()</text>
<text text-anchor="start" x="23.5" y="-7.5" font-family="Helvetica,sans-Serif" font-size="10.00" fill="#000000">+ operator&gt;=()</text>
</a>
</g>
</g>
<!-- Node2 -->
<g id="node2" class="node">
<title>Node2</title>
<g id="a_node2"><a xlink:title=" ">
<polygon fill="none" stroke="#bfbfbf" points="0,-182.5 0,-239.5 45,-239.5 45,-182.5 0,-182.5"/>
<text text-anchor="middle" x="22.5" y="-227.5" font-family="Helvetica,sans-Serif" font-size="10.00" fill="#000000">double</text>
<polyline fill="none" stroke="#bfbfbf" points="0,-220.5 45,-220.5 "/>
<text text-anchor="middle" x="22.5" y="-208.5" font-family="Helvetica,sans-Serif" font-size="10.00" fill="#000000"> </text>
<polyline fill="none" stroke="#bfbfbf" points="0,-201.5 45,-201.5 "/>
<text text-anchor="middle" x="22.5" y="-189.5" font-family="Helvetica,sans-Serif" font-size="10.00" fill="#000000"> </text>
</a>
</g>
</g>
<!-- Node2&#45;&gt;Node1 -->
<g id="edge1" class="edge">
<title>Node2&#45;&gt;Node1</title>
<path fill="none" stroke="#404040" d="M32.2981,-182.3055C35.9271,-171.6778 40.239,-159.0502 44.6534,-146.1222"/>
<polygon fill="none" stroke="#404040" points="44.6668,-146.0829 42.8202,-139.1122 48.5445,-134.7267 50.391,-141.6974 44.6668,-146.0829"/>
<text text-anchor="middle" x="60.5" y="-156" font-family="Helvetica,sans-Serif" font-size="10.00" fill="#000000"> +quality</text>
</g>
<!-- Node3 -->
<g id="node3" class="node">
<title>Node3</title>
<g id="a_node3"><a xlink:title=" ">
<polygon fill="none" stroke="#bfbfbf" points="63.5,-182.5 63.5,-239.5 177.5,-239.5 177.5,-182.5 63.5,-182.5"/>
<text text-anchor="middle" x="120.5" y="-227.5" font-family="Helvetica,sans-Serif" font-size="10.00" fill="#000000">vector&lt; unsigned int &gt;</text>
<polyline fill="none" stroke="#bfbfbf" points="63.5,-220.5 177.5,-220.5 "/>
<text text-anchor="middle" x="120.5" y="-208.5" font-family="Helvetica,sans-Serif" font-size="10.00" fill="#000000"> </text>
<polyline fill="none" stroke="#bfbfbf" points="63.5,-201.5 177.5,-201.5 "/>
<text text-anchor="middle" x="120.5" y="-189.5" font-family="Helvetica,sans-Serif" font-size="10.00" fill="#000000"> </text>
</a>
</g>
</g>
<!-- Node3&#45;&gt;Node1 -->
<g id="edge2" class="edge">
<title>Node3&#45;&gt;Node1</title>
<path fill="none" stroke="#404040" d="M110.7019,-182.3055C107.0729,-171.6778 102.761,-159.0502 98.3466,-146.1222"/>
<polygon fill="none" stroke="#404040" points="98.3332,-146.0829 92.609,-141.6974 94.4555,-134.7267 100.1798,-139.1122 98.3332,-146.0829"/>
<text text-anchor="middle" x="135.5" y="-156" font-family="Helvetica,sans-Serif" font-size="10.00" fill="#000000"> +chromosome</text>
</g>
</g>
</svg>
