<?xml version="1.0" encoding="UTF-8" standalone="no"?>
<!DOCTYPE svg PUBLIC "-//W3C//DTD SVG 1.1//EN"
 "http://www.w3.org/Graphics/SVG/1.1/DTD/svg11.dtd">
<!-- Generated by graphviz version 2.40.1 (20161225.0304)
 -->
<!-- Title: is_specialization&lt; T, Template &gt; Pages: 1 -->
<svg width="103pt" height="171pt"
 viewBox="0.00 0.00 103.00 171.00" xmlns="http://www.w3.org/2000/svg" xmlns:xlink="http://www.w3.org/1999/xlink">
<g id="graph0" class="graph" transform="scale(1 1) rotate(0) translate(4 167)">
<title>is_specialization&lt; T, Template &gt;</title>
<!-- Node2 -->
<g id="node1" class="node">
<title>Node2</title>
<g id="a_node1"><a xlink:title=" ">
<polygon fill="#bfbfbf" stroke="#000000" points="0,-.5 0,-68.5 95,-68.5 95,-.5 0,-.5"/>
<text text-anchor="start" x="8" y="-56.5" font-family="Helvetica,sans-Serif" font-size="10.00" fill="#000000">is_specialization&lt;</text>
<text text-anchor="middle" x="47.5" y="-45.5" font-family="Helvetica,sans-Serif" font-size="10.00" fill="#000000"> T, Template &gt;</text>
<polyline fill="none" stroke="#000000" points="0,-38.5 95,-38.5 "/>
<text text-anchor="middle" x="47.5" y="-26.5" font-family="Helvetica,sans-Serif" font-size="10.00" fill="#000000"> </text>
<polyline fill="none" stroke="#000000" points="0,-19.5 95,-19.5 "/>
<text text-anchor="middle" x="47.5" y="-7.5" font-family="Helvetica,sans-Serif" font-size="10.00" fill="#000000"> </text>
</a>
</g>
</g>
<!-- Node3 -->
<g id="node2" class="node">
<title>Node3</title>
<g id="a_node2"><a xlink:title=" ">
<polygon fill="none" stroke="#bfbfbf" points="7,-105.5 7,-162.5 88,-162.5 88,-105.5 7,-105.5"/>
<text text-anchor="middle" x="47.5" y="-150.5" font-family="Helvetica,sans-Serif" font-size="10.00" fill="#000000">std::false_type</text>
<polyline fill="none" stroke="#bfbfbf" points="7,-143.5 88,-143.5 "/>
<text text-anchor="middle" x="47.5" y="-131.5" font-family="Helvetica,sans-Serif" font-size="10.00" fill="#000000"> </text>
<polyline fill="none" stroke="#bfbfbf" points="7,-124.5 88,-124.5 "/>
<text text-anchor="middle" x="47.5" y="-112.5" font-family="Helvetica,sans-Serif" font-size="10.00" fill="#000000"> </text>
</a>
</g>
</g>
<!-- Node3&#45;&gt;Node2 -->
<g id="edge1" class="edge">
<title>Node3&#45;&gt;Node2</title>
<path fill="none" stroke="#191970" d="M47.5,-95.4268C47.5,-86.6025 47.5,-77.2834 47.5,-68.6596"/>
<polygon fill="none" stroke="#191970" points="44.0001,-95.4873 47.5,-105.4873 51.0001,-95.4873 44.0001,-95.4873"/>
</g>
</g>
</svg>
