<?xml version="1.0" encoding="UTF-8" standalone="no"?>
<!DOCTYPE svg PUBLIC "-//W3C//DTD SVG 1.1//EN"
 "http://www.w3.org/Graphics/SVG/1.1/DTD/svg11.dtd">
<!-- Generated by graphviz version 2.40.1 (20161225.0304)
 -->
<!-- Title: JSPTotalWeightedTardinessMinimizationSolution&lt; Problem, Tails &gt;::TaskMetadata Pages: 1 -->
<svg width="409pt" height="270pt"
 viewBox="0.00 0.00 409.00 270.00" xmlns="http://www.w3.org/2000/svg" xmlns:xlink="http://www.w3.org/1999/xlink">
<g id="graph0" class="graph" transform="scale(1 1) rotate(0) translate(4 266)">
<title>JSPTotalWeightedTardinessMinimizationSolution&lt; Problem, Tails &gt;::TaskMetadata</title>
<!-- Node1 -->
<g id="node1" class="node">
<title>Node1</title>
<g id="a_node1"><a xlink:title=" ">
<polygon fill="#bfbfbf" stroke="#000000" points="126.5,-.5 126.5,-79.5 281.5,-79.5 281.5,-.5 126.5,-.5"/>
<text text-anchor="start" x="134.5" y="-67.5" font-family="Helvetica,sans-Serif" font-size="10.00" fill="#000000">JSPTotalWeightedTardiness</text>
<text text-anchor="start" x="134.5" y="-56.5" font-family="Helvetica,sans-Serif" font-size="10.00" fill="#000000">MinimizationSolution&lt; Problem,</text>
<text text-anchor="middle" x="204" y="-45.5" font-family="Helvetica,sans-Serif" font-size="10.00" fill="#000000"> Tails &gt;::TaskMetadata</text>
<polyline fill="none" stroke="#000000" points="126.5,-38.5 281.5,-38.5 "/>
<text text-anchor="middle" x="204" y="-26.5" font-family="Helvetica,sans-Serif" font-size="10.00" fill="#000000"> </text>
<polyline fill="none" stroke="#000000" points="126.5,-19.5 281.5,-19.5 "/>
<text text-anchor="middle" x="204" y="-7.5" font-family="Helvetica,sans-Serif" font-size="10.00" fill="#000000"> </text>
</a>
</g>
</g>
<!-- Node2 -->
<g id="node2" class="node">
<title>Node2</title>
<g id="a_node2"><a xlink:title=" ">
<polygon fill="none" stroke="#bfbfbf" points="0,-177 0,-245 152,-245 152,-177 0,-177"/>
<text text-anchor="start" x="8" y="-233" font-family="Helvetica,sans-Serif" font-size="10.00" fill="#000000">optional&lt; std::reference</text>
<text text-anchor="middle" x="76" y="-222" font-family="Helvetica,sans-Serif" font-size="10.00" fill="#000000">_wrapper&lt; const TaskType &gt; &gt;</text>
<polyline fill="none" stroke="#bfbfbf" points="0,-215 152,-215 "/>
<text text-anchor="middle" x="76" y="-203" font-family="Helvetica,sans-Serif" font-size="10.00" fill="#000000"> </text>
<polyline fill="none" stroke="#bfbfbf" points="0,-196 152,-196 "/>
<text text-anchor="middle" x="76" y="-184" font-family="Helvetica,sans-Serif" font-size="10.00" fill="#000000"> </text>
</a>
</g>
</g>
<!-- Node2&#45;&gt;Node1 -->
<g id="edge1" class="edge">
<title>Node2&#45;&gt;Node1</title>
<path fill="none" stroke="#404040" d="M74.1333,-176.8569C74.5078,-152.7287 78.6067,-120.7606 95,-98 100.8979,-89.8113 108.3129,-82.6729 116.4874,-76.4754"/>
<polygon fill="none" stroke="#404040" points="116.5189,-76.4536 119.1771,-69.7503 126.3871,-69.6258 123.729,-76.3291 116.5189,-76.4536"/>
<text text-anchor="middle" x="147.5" y="-134" font-family="Helvetica,sans-Serif" font-size="10.00" fill="#000000"> +machine_predecessor</text>
<text text-anchor="middle" x="147.5" y="-123" font-family="Helvetica,sans-Serif" font-size="10.00" fill="#000000">+job_successor</text>
<text text-anchor="middle" x="147.5" y="-112" font-family="Helvetica,sans-Serif" font-size="10.00" fill="#000000">+job_predecessor</text>
<text text-anchor="middle" x="147.5" y="-101" font-family="Helvetica,sans-Serif" font-size="10.00" fill="#000000">+machine_successor</text>
</g>
<!-- Node3 -->
<g id="node3" class="node">
<title>Node3</title>
<g id="a_node3"><a xlink:title=" ">
<polygon fill="none" stroke="#bfbfbf" points="174.5,-182.5 174.5,-239.5 233.5,-239.5 233.5,-182.5 174.5,-182.5"/>
<text text-anchor="middle" x="204" y="-227.5" font-family="Helvetica,sans-Serif" font-size="10.00" fill="#000000">TimeType</text>
<polyline fill="none" stroke="#bfbfbf" points="174.5,-220.5 233.5,-220.5 "/>
<text text-anchor="middle" x="204" y="-208.5" font-family="Helvetica,sans-Serif" font-size="10.00" fill="#000000"> </text>
<polyline fill="none" stroke="#bfbfbf" points="174.5,-201.5 233.5,-201.5 "/>
<text text-anchor="middle" x="204" y="-189.5" font-family="Helvetica,sans-Serif" font-size="10.00" fill="#000000"> </text>
</a>
</g>
</g>
<!-- Node3&#45;&gt;Node1 -->
<g id="edge2" class="edge">
<title>Node3&#45;&gt;Node1</title>
<path fill="none" stroke="#404040" d="M204,-182.3784C204,-157.7535 204,-121.6083 204,-91.8995"/>
<polygon fill="none" stroke="#404040" points="204.0001,-91.6136 200,-85.6136 204,-79.6136 208,-85.6135 204.0001,-91.6136"/>
<text text-anchor="middle" x="219.5" y="-117.5" font-family="Helvetica,sans-Serif" font-size="10.00" fill="#000000"> +head</text>
</g>
<!-- Node4 -->
<g id="node4" class="node">
<title>Node4</title>
<g id="a_node4"><a xlink:title=" ">
<polygon fill="none" stroke="#bfbfbf" points="251,-160.5 251,-261.5 401,-261.5 401,-160.5 251,-160.5"/>
<text text-anchor="start" x="259" y="-249.5" font-family="Helvetica,sans-Serif" font-size="10.00" fill="#000000">unordered_map&lt; std</text>
<text text-anchor="start" x="259" y="-238.5" font-family="Helvetica,sans-Serif" font-size="10.00" fill="#000000">::reference_wrapper</text>
<text text-anchor="start" x="259" y="-227.5" font-family="Helvetica,sans-Serif" font-size="10.00" fill="#000000">&lt; const JobType &gt;, TimeType,</text>
<text text-anchor="start" x="259" y="-216.5" font-family="Helvetica,sans-Serif" font-size="10.00" fill="#000000"> std::hash&lt; JobType &gt;, std</text>
<text text-anchor="middle" x="326" y="-205.5" font-family="Helvetica,sans-Serif" font-size="10.00" fill="#000000">::equal_to&lt; JobType &gt; &gt;</text>
<polyline fill="none" stroke="#bfbfbf" points="251,-198.5 401,-198.5 "/>
<text text-anchor="middle" x="326" y="-186.5" font-family="Helvetica,sans-Serif" font-size="10.00" fill="#000000"> </text>
<polyline fill="none" stroke="#bfbfbf" points="251,-179.5 401,-179.5 "/>
<text text-anchor="middle" x="326" y="-167.5" font-family="Helvetica,sans-Serif" font-size="10.00" fill="#000000"> </text>
</a>
</g>
</g>
<!-- Node4&#45;&gt;Node1 -->
<g id="edge3" class="edge">
<title>Node4&#45;&gt;Node1</title>
<path fill="none" stroke="#404040" d="M289.7263,-160.1573C273.7678,-137.7893 255.0915,-111.6119 239.252,-89.4106"/>
<polygon fill="none" stroke="#404040" points="239.1635,-89.2865 232.4225,-86.7253 232.194,-79.5178 238.9349,-82.079 239.1635,-89.2865"/>
<text text-anchor="middle" x="289" y="-117.5" font-family="Helvetica,sans-Serif" font-size="10.00" fill="#000000"> +tails</text>
</g>
</g>
</svg>
