<?xml version="1.0" encoding="UTF-8" standalone="no"?>
<!DOCTYPE svg PUBLIC "-//W3C//DTD SVG 1.1//EN"
 "http://www.w3.org/Graphics/SVG/1.1/DTD/svg11.dtd">
<!-- Generated by graphviz version 2.40.1 (20161225.0304)
 -->
<!-- Title: is_specialization&lt; Template&lt; Args... &gt;, Template &gt; Pages: 1 -->
<svg width="115pt" height="182pt"
 viewBox="0.00 0.00 115.00 182.00" xmlns="http://www.w3.org/2000/svg" xmlns:xlink="http://www.w3.org/1999/xlink">
<g id="graph0" class="graph" transform="scale(1 1) rotate(0) translate(4 178)">
<title>is_specialization&lt; Template&lt; Args... &gt;, Template &gt;</title>
<!-- Node0 -->
<g id="node1" class="node">
<title>Node0</title>
<g id="a_node1"><a xlink:title=" ">
<polygon fill="#bfbfbf" stroke="#000000" points="0,-.5 0,-79.5 107,-79.5 107,-.5 0,-.5"/>
<text text-anchor="start" x="8" y="-67.5" font-family="Helvetica,sans-Serif" font-size="10.00" fill="#000000">is_specialization&lt;</text>
<text text-anchor="start" x="8" y="-56.5" font-family="Helvetica,sans-Serif" font-size="10.00" fill="#000000"> Template&lt; Args... &gt;</text>
<text text-anchor="middle" x="53.5" y="-45.5" font-family="Helvetica,sans-Serif" font-size="10.00" fill="#000000">, Template &gt;</text>
<polyline fill="none" stroke="#000000" points="0,-38.5 107,-38.5 "/>
<text text-anchor="middle" x="53.5" y="-26.5" font-family="Helvetica,sans-Serif" font-size="10.00" fill="#000000"> </text>
<polyline fill="none" stroke="#000000" points="0,-19.5 107,-19.5 "/>
<text text-anchor="middle" x="53.5" y="-7.5" font-family="Helvetica,sans-Serif" font-size="10.00" fill="#000000"> </text>
</a>
</g>
</g>
<!-- Node1 -->
<g id="node2" class="node">
<title>Node1</title>
<g id="a_node2"><a xlink:title=" ">
<polygon fill="none" stroke="#bfbfbf" points="25,-116.5 25,-173.5 82,-173.5 82,-116.5 25,-116.5"/>
<text text-anchor="middle" x="53.5" y="-161.5" font-family="Helvetica,sans-Serif" font-size="10.00" fill="#000000">true_type</text>
<polyline fill="none" stroke="#bfbfbf" points="25,-154.5 82,-154.5 "/>
<text text-anchor="middle" x="53.5" y="-142.5" font-family="Helvetica,sans-Serif" font-size="10.00" fill="#000000"> </text>
<polyline fill="none" stroke="#bfbfbf" points="25,-135.5 82,-135.5 "/>
<text text-anchor="middle" x="53.5" y="-123.5" font-family="Helvetica,sans-Serif" font-size="10.00" fill="#000000"> </text>
</a>
</g>
</g>
<!-- Node1&#45;&gt;Node0 -->
<g id="edge1" class="edge">
<title>Node1&#45;&gt;Node0</title>
<path fill="none" stroke="#191970" d="M53.5,-106.1156C53.5,-97.4889 53.5,-88.3353 53.5,-79.6773"/>
<polygon fill="none" stroke="#191970" points="50.0001,-106.3083 53.5,-116.3083 57.0001,-106.3083 50.0001,-106.3083"/>
</g>
</g>
</svg>
