<?xml version="1.0" encoding="UTF-8" standalone="no"?>
<!DOCTYPE svg PUBLIC "-//W3C//DTD SVG 1.1//EN"
 "http://www.w3.org/Graphics/SVG/1.1/DTD/svg11.dtd">
<!-- Generated by graphviz version 2.40.1 (20161225.0304)
 -->
<!-- Title: metaheuristics/tabu_search/tabu_search_variable_length.hpp Pages: 1 -->
<svg width="625pt" height="173pt"
 viewBox="0.00 0.00 625.00 173.00" xmlns="http://www.w3.org/2000/svg" xmlns:xlink="http://www.w3.org/1999/xlink">
<g id="graph0" class="graph" transform="scale(1 1) rotate(0) translate(4 169)">
<title>metaheuristics/tabu_search/tabu_search_variable_length.hpp</title>
<!-- Node0 -->
<g id="node1" class="node">
<title>Node0</title>
<g id="a_node1"><a xlink:title="Tabu search with a variable length tabu list.">
<polygon fill="#bfbfbf" stroke="#000000" points="198.5,-123.5 198.5,-164.5 305.5,-164.5 305.5,-123.5 198.5,-123.5"/>
<text text-anchor="start" x="206.5" y="-152.5" font-family="Helvetica,sans-Serif" font-size="10.00" fill="#000000">metaheuristics/tabu</text>
<text text-anchor="start" x="206.5" y="-141.5" font-family="Helvetica,sans-Serif" font-size="10.00" fill="#000000">_search/tabu_search</text>
<text text-anchor="middle" x="252" y="-130.5" font-family="Helvetica,sans-Serif" font-size="10.00" fill="#000000">_variable_length.hpp</text>
</a>
</g>
</g>
<!-- Node1 -->
<g id="node2" class="node">
<title>Node1</title>
<g id="a_node2"><a xlink:href="local__search__logger_8hpp.html" target="_top" xlink:title="Logger for local search algorithms.">
<polygon fill="none" stroke="#000000" points="0,-56.5 0,-86.5 124,-86.5 124,-56.5 0,-56.5"/>
<text text-anchor="start" x="8" y="-74.5" font-family="Helvetica,sans-Serif" font-size="10.00" fill="#000000">metaheuristics/utils</text>
<text text-anchor="middle" x="62" y="-63.5" font-family="Helvetica,sans-Serif" font-size="10.00" fill="#000000">/local_search_logger.hpp</text>
</a>
</g>
</g>
<!-- Node0&#45;&gt;Node1 -->
<g id="edge1" class="edge">
<title>Node0&#45;&gt;Node1</title>
<path fill="none" stroke="#191970" d="M198.3155,-123.5151C170.8522,-113.0357 137.6678,-100.3732 110.9169,-90.1656"/>
<polygon fill="#191970" stroke="#191970" points="111.9656,-86.8197 101.3749,-86.5246 109.47,-93.3598 111.9656,-86.8197"/>
</g>
<!-- Node4 -->
<g id="node5" class="node">
<title>Node4</title>
<g id="a_node5"><a xlink:href="move__data_8hpp.html" target="_top" xlink:title="Struture to communicate the problems with the local search algorithms.">
<polygon fill="none" stroke="#000000" points="142.5,-56.5 142.5,-86.5 243.5,-86.5 243.5,-56.5 142.5,-56.5"/>
<text text-anchor="start" x="150.5" y="-74.5" font-family="Helvetica,sans-Serif" font-size="10.00" fill="#000000">metaheuristics/utils</text>
<text text-anchor="middle" x="193" y="-63.5" font-family="Helvetica,sans-Serif" font-size="10.00" fill="#000000">/move_data.hpp</text>
</a>
</g>
</g>
<!-- Node0&#45;&gt;Node4 -->
<g id="edge4" class="edge">
<title>Node0&#45;&gt;Node4</title>
<path fill="none" stroke="#191970" d="M235.2508,-123.4183C227.9474,-114.4438 219.3529,-103.8827 211.8288,-94.637"/>
<polygon fill="#191970" stroke="#191970" points="214.3142,-92.1462 205.2875,-86.5991 208.8849,-96.5646 214.3142,-92.1462"/>
</g>
<!-- Node5 -->
<g id="node6" class="node">
<title>Node5</title>
<g id="a_node6"><a xlink:href="neighborhoods_8hpp.html" target="_top" xlink:title="Functions to manage neighborhoods.">
<polygon fill="none" stroke="#000000" points="261.5,-56.5 261.5,-86.5 362.5,-86.5 362.5,-56.5 261.5,-56.5"/>
<text text-anchor="start" x="269.5" y="-74.5" font-family="Helvetica,sans-Serif" font-size="10.00" fill="#000000">metaheuristics/utils</text>
<text text-anchor="middle" x="312" y="-63.5" font-family="Helvetica,sans-Serif" font-size="10.00" fill="#000000">/neighborhoods.hpp</text>
</a>
</g>
</g>
<!-- Node0&#45;&gt;Node5 -->
<g id="edge5" class="edge">
<title>Node0&#45;&gt;Node5</title>
<path fill="none" stroke="#191970" d="M269.0331,-123.4183C276.5361,-114.3522 285.379,-103.6671 293.086,-94.3544"/>
<polygon fill="#191970" stroke="#191970" points="295.8249,-96.5346 299.5042,-86.5991 290.4321,-92.0716 295.8249,-96.5346"/>
</g>
<!-- Node7 -->
<g id="node8" class="node">
<title>Node7</title>
<g id="a_node8"><a xlink:href="tabu__list_8hpp.html" target="_top" xlink:title="Tabu List.">
<polygon fill="none" stroke="#000000" points="387.5,-56.5 387.5,-86.5 488.5,-86.5 488.5,-56.5 387.5,-56.5"/>
<text text-anchor="start" x="395.5" y="-74.5" font-family="Helvetica,sans-Serif" font-size="10.00" fill="#000000">metaheuristics/utils</text>
<text text-anchor="middle" x="438" y="-63.5" font-family="Helvetica,sans-Serif" font-size="10.00" fill="#000000">/tabu_list.hpp</text>
</a>
</g>
</g>
<!-- Node0&#45;&gt;Node7 -->
<g id="edge7" class="edge">
<title>Node0&#45;&gt;Node7</title>
<path fill="none" stroke="#191970" d="M304.8026,-123.4183C331.4685,-113.0244 363.5941,-100.5023 389.6138,-90.3602"/>
<polygon fill="#191970" stroke="#191970" points="391.2169,-93.4919 399.263,-86.5991 388.6746,-86.9699 391.2169,-93.4919"/>
</g>
<!-- Node2 -->
<g id="node3" class="node">
<title>Node2</title>
<g id="a_node3"><a xlink:title=" ">
<polygon fill="none" stroke="#bfbfbf" points="11.5,-.5 11.5,-19.5 52.5,-19.5 52.5,-.5 11.5,-.5"/>
<text text-anchor="middle" x="32" y="-7.5" font-family="Helvetica,sans-Serif" font-size="10.00" fill="#000000">string</text>
</a>
</g>
</g>
<!-- Node1&#45;&gt;Node2 -->
<g id="edge2" class="edge">
<title>Node1&#45;&gt;Node2</title>
<path fill="none" stroke="#191970" d="M54.5843,-56.2977C50.5501,-48.0277 45.5227,-37.7215 41.236,-28.9339"/>
<polygon fill="#191970" stroke="#191970" points="44.3334,-27.3001 36.8034,-19.8469 38.042,-30.3691 44.3334,-27.3001"/>
</g>
<!-- Node3 -->
<g id="node4" class="node">
<title>Node3</title>
<g id="a_node4"><a xlink:title=" ">
<polygon fill="none" stroke="#bfbfbf" points="71,-.5 71,-19.5 115,-19.5 115,-.5 71,-.5"/>
<text text-anchor="middle" x="93" y="-7.5" font-family="Helvetica,sans-Serif" font-size="10.00" fill="#000000">vector</text>
</a>
</g>
</g>
<!-- Node1&#45;&gt;Node3 -->
<g id="edge3" class="edge">
<title>Node1&#45;&gt;Node3</title>
<path fill="none" stroke="#191970" d="M69.6629,-56.2977C73.8316,-48.0277 79.0265,-37.7215 83.4561,-28.9339"/>
<polygon fill="#191970" stroke="#191970" points="86.6607,-30.3521 88.0365,-19.8469 80.4099,-27.2012 86.6607,-30.3521"/>
</g>
<!-- Node6 -->
<g id="node7" class="node">
<title>Node6</title>
<g id="a_node7"><a xlink:title=" ">
<polygon fill="none" stroke="#bfbfbf" points="277,-.5 277,-19.5 333,-19.5 333,-.5 277,-.5"/>
<text text-anchor="middle" x="305" y="-7.5" font-family="Helvetica,sans-Serif" font-size="10.00" fill="#000000">algorithm</text>
</a>
</g>
</g>
<!-- Node5&#45;&gt;Node6 -->
<g id="edge6" class="edge">
<title>Node5&#45;&gt;Node6</title>
<path fill="none" stroke="#191970" d="M310.2697,-56.2977C309.3587,-48.2945 308.2307,-38.3843 307.2524,-29.7889"/>
<polygon fill="#191970" stroke="#191970" points="310.7293,-29.3869 306.1208,-19.8469 303.7742,-30.1786 310.7293,-29.3869"/>
</g>
<!-- Node8 -->
<g id="node9" class="node">
<title>Node8</title>
<g id="a_node9"><a xlink:title=" ">
<polygon fill="none" stroke="#bfbfbf" points="351.5,-.5 351.5,-19.5 394.5,-19.5 394.5,-.5 351.5,-.5"/>
<text text-anchor="middle" x="373" y="-7.5" font-family="Helvetica,sans-Serif" font-size="10.00" fill="#000000">deque</text>
</a>
</g>
</g>
<!-- Node7&#45;&gt;Node8 -->
<g id="edge8" class="edge">
<title>Node7&#45;&gt;Node8</title>
<path fill="none" stroke="#191970" d="M421.9326,-56.2977C412.534,-47.4052 400.6473,-36.1586 390.943,-26.9769"/>
<polygon fill="#191970" stroke="#191970" points="393.0768,-24.1774 383.4073,-19.8469 388.2658,-29.2621 393.0768,-24.1774"/>
</g>
<!-- Node9 -->
<g id="node10" class="node">
<title>Node9</title>
<g id="a_node10"><a xlink:title=" ">
<polygon fill="none" stroke="#bfbfbf" points="413,-.5 413,-19.5 463,-19.5 463,-.5 413,-.5"/>
<text text-anchor="middle" x="438" y="-7.5" font-family="Helvetica,sans-Serif" font-size="10.00" fill="#000000">optional</text>
</a>
</g>
</g>
<!-- Node7&#45;&gt;Node9 -->
<g id="edge9" class="edge">
<title>Node7&#45;&gt;Node9</title>
<path fill="none" stroke="#191970" d="M438,-56.2977C438,-48.3834 438,-38.6043 438,-30.0759"/>
<polygon fill="#191970" stroke="#191970" points="441.5001,-29.8469 438,-19.8469 434.5001,-29.847 441.5001,-29.8469"/>
</g>
<!-- Node10 -->
<g id="node11" class="node">
<title>Node10</title>
<g id="a_node11"><a xlink:title=" ">
<polygon fill="none" stroke="#bfbfbf" points="481,-.5 481,-19.5 559,-19.5 559,-.5 481,-.5"/>
<text text-anchor="middle" x="520" y="-7.5" font-family="Helvetica,sans-Serif" font-size="10.00" fill="#000000">unordered_set</text>
</a>
</g>
</g>
<!-- Node7&#45;&gt;Node10 -->
<g id="edge10" class="edge">
<title>Node7&#45;&gt;Node10</title>
<path fill="none" stroke="#191970" d="M458.2697,-56.2977C470.6006,-47.0495 486.3266,-35.2551 498.8197,-25.8853"/>
<polygon fill="#191970" stroke="#191970" points="500.9708,-28.647 506.8708,-19.8469 496.7707,-23.047 500.9708,-28.647"/>
</g>
<!-- Node11 -->
<g id="node12" class="node">
<title>Node11</title>
<g id="a_node12"><a xlink:title=" ">
<polygon fill="none" stroke="#bfbfbf" points="577,-.5 577,-19.5 617,-19.5 617,-.5 577,-.5"/>
<text text-anchor="middle" x="597" y="-7.5" font-family="Helvetica,sans-Serif" font-size="10.00" fill="#000000">utility</text>
</a>
</g>
</g>
<!-- Node7&#45;&gt;Node11 -->
<g id="edge11" class="edge">
<title>Node7&#45;&gt;Node11</title>
<path fill="none" stroke="#191970" d="M476.8958,-56.4554C504.8159,-45.6561 541.8694,-31.3241 567.3988,-21.4495"/>
<polygon fill="#191970" stroke="#191970" points="568.8439,-24.6433 576.9079,-17.7715 566.3186,-18.1147 568.8439,-24.6433"/>
</g>
</g>
</svg>
