<?xml version="1.0" encoding="UTF-8" standalone="no"?>
<!DOCTYPE svg PUBLIC "-//W3C//DTD SVG 1.1//EN"
 "http://www.w3.org/Graphics/SVG/1.1/DTD/svg11.dtd">
<!-- Generated by graphviz version 2.40.1 (20161225.0304)
 -->
<!-- Title: metaheuristics/utils/tabu_list.hpp Pages: 1 -->
<svg width="274pt" height="95pt"
 viewBox="0.00 0.00 273.50 95.00" xmlns="http://www.w3.org/2000/svg" xmlns:xlink="http://www.w3.org/1999/xlink">
<g id="graph0" class="graph" transform="scale(1 1) rotate(0) translate(4 91)">
<title>metaheuristics/utils/tabu_list.hpp</title>
<!-- Node0 -->
<g id="node1" class="node">
<title>Node0</title>
<g id="a_node1"><a xlink:title="Tabu List.">
<polygon fill="#bfbfbf" stroke="#000000" points="77,-56.5 77,-86.5 178,-86.5 178,-56.5 77,-56.5"/>
<text text-anchor="start" x="85" y="-74.5" font-family="Helvetica,sans-Serif" font-size="10.00" fill="#000000">metaheuristics/utils</text>
<text text-anchor="middle" x="127.5" y="-63.5" font-family="Helvetica,sans-Serif" font-size="10.00" fill="#000000">/tabu_list.hpp</text>
</a>
</g>
</g>
<!-- Node1 -->
<g id="node2" class="node">
<title>Node1</title>
<g id="a_node2"><a xlink:title=" ">
<polygon fill="none" stroke="#bfbfbf" points="0,-.5 0,-19.5 43,-19.5 43,-.5 0,-.5"/>
<text text-anchor="middle" x="21.5" y="-7.5" font-family="Helvetica,sans-Serif" font-size="10.00" fill="#000000">deque</text>
</a>
</g>
</g>
<!-- Node0&#45;&gt;Node1 -->
<g id="edge1" class="edge">
<title>Node0&#45;&gt;Node1</title>
<path fill="none" stroke="#191970" d="M101.5695,-56.4554C84.9691,-46.8241 63.5256,-34.3828 47.0083,-24.7996"/>
<polygon fill="#191970" stroke="#191970" points="48.3323,-21.5214 37.9262,-19.5303 44.8194,-27.5761 48.3323,-21.5214"/>
</g>
<!-- Node2 -->
<g id="node3" class="node">
<title>Node2</title>
<g id="a_node3"><a xlink:title=" ">
<polygon fill="none" stroke="#bfbfbf" points="61.5,-.5 61.5,-19.5 111.5,-19.5 111.5,-.5 61.5,-.5"/>
<text text-anchor="middle" x="86.5" y="-7.5" font-family="Helvetica,sans-Serif" font-size="10.00" fill="#000000">optional</text>
</a>
</g>
</g>
<!-- Node0&#45;&gt;Node2 -->
<g id="edge2" class="edge">
<title>Node0&#45;&gt;Node2</title>
<path fill="none" stroke="#191970" d="M117.3652,-56.2977C111.7332,-47.8498 104.6849,-37.2773 98.746,-28.369"/>
<polygon fill="#191970" stroke="#191970" points="101.5238,-26.226 93.0646,-19.8469 95.6995,-30.1089 101.5238,-26.226"/>
</g>
<!-- Node3 -->
<g id="node4" class="node">
<title>Node3</title>
<g id="a_node4"><a xlink:title=" ">
<polygon fill="none" stroke="#bfbfbf" points="129.5,-.5 129.5,-19.5 207.5,-19.5 207.5,-.5 129.5,-.5"/>
<text text-anchor="middle" x="168.5" y="-7.5" font-family="Helvetica,sans-Serif" font-size="10.00" fill="#000000">unordered_set</text>
</a>
</g>
</g>
<!-- Node0&#45;&gt;Node3 -->
<g id="edge3" class="edge">
<title>Node0&#45;&gt;Node3</title>
<path fill="none" stroke="#191970" d="M137.6348,-56.2977C143.2668,-47.8498 150.3151,-37.2773 156.254,-28.369"/>
<polygon fill="#191970" stroke="#191970" points="159.3005,-30.1089 161.9354,-19.8469 153.4762,-26.226 159.3005,-30.1089"/>
</g>
<!-- Node4 -->
<g id="node5" class="node">
<title>Node4</title>
<g id="a_node5"><a xlink:title=" ">
<polygon fill="none" stroke="#bfbfbf" points="225.5,-.5 225.5,-19.5 265.5,-19.5 265.5,-.5 225.5,-.5"/>
<text text-anchor="middle" x="245.5" y="-7.5" font-family="Helvetica,sans-Serif" font-size="10.00" fill="#000000">utility</text>
</a>
</g>
</g>
<!-- Node0&#45;&gt;Node4 -->
<g id="edge4" class="edge">
<title>Node0&#45;&gt;Node4</title>
<path fill="none" stroke="#191970" d="M156.366,-56.4554C175.1911,-46.644 199.611,-33.9167 218.1292,-24.2653"/>
<polygon fill="#191970" stroke="#191970" points="219.964,-27.2559 227.2142,-19.5303 216.7287,-21.0484 219.964,-27.2559"/>
</g>
</g>
</svg>
