<?xml version="1.0" encoding="UTF-8" standalone="no"?>
<!DOCTYPE svg PUBLIC "-//W3C//DTD SVG 1.1//EN"
 "http://www.w3.org/Graphics/SVG/1.1/DTD/svg11.dtd">
<!-- Generated by graphviz version 2.40.1 (20161225.0304)
 -->
<!-- Title: utils/template_utils.hpp Pages: 1 -->
<svg width="364pt" height="240pt"
 viewBox="0.00 0.00 363.64 240.00" xmlns="http://www.w3.org/2000/svg" xmlns:xlink="http://www.w3.org/1999/xlink">
<g id="graph0" class="graph" transform="scale(1 1) rotate(0) translate(4 236)">
<title>utils/template_utils.hpp</title>
<!-- Node1 -->
<g id="node1" class="node">
<title>Node1</title>
<g id="a_node1"><a xlink:title=" ">
<polygon fill="#bfbfbf" stroke="#000000" points="112.1924,-212.5 112.1924,-231.5 229.1924,-231.5 229.1924,-212.5 112.1924,-212.5"/>
<text text-anchor="middle" x="170.6924" y="-219.5" font-family="Helvetica,sans-Serif" font-size="10.00" fill="#000000">utils/template_utils.hpp</text>
</a>
</g>
</g>
<!-- Node2 -->
<g id="node2" class="node">
<title>Node2</title>
<g id="a_node2"><a xlink:href="jsp__makespan__minimization__solution_8hpp.html" target="_top" xlink:title="JSP Makespan Minimization.">
<polygon fill="none" stroke="#000000" points="16.6924,-140 16.6924,-170 154.6924,-170 154.6924,-140 16.6924,-140"/>
<text text-anchor="start" x="24.6924" y="-158" font-family="Helvetica,sans-Serif" font-size="10.00" fill="#000000">problems/jsp/jsp_makespan</text>
<text text-anchor="middle" x="85.6924" y="-147" font-family="Helvetica,sans-Serif" font-size="10.00" fill="#000000">_minimization_solution.hpp</text>
</a>
</g>
</g>
<!-- Node1&#45;&gt;Node2 -->
<g id="edge1" class="edge">
<title>Node1&#45;&gt;Node2</title>
<path fill="none" stroke="#191970" d="M150.5353,-206.1115C136.6703,-195.1825 118.3721,-180.7592 104.7499,-170.0218"/>
<polygon fill="#191970" stroke="#191970" points="148.4938,-208.9588 158.514,-212.4005 152.8271,-203.4613 148.4938,-208.9588"/>
</g>
<!-- Node3 -->
<g id="node3" class="node">
<title>Node3</title>
<g id="a_node3"><a xlink:href="jsp__genetic__encoders_8hpp.html" target="_top" xlink:title="JSP Genetic Encoders.">
<polygon fill="none" stroke="#000000" points="23.1924,-67.5 23.1924,-97.5 148.1924,-97.5 148.1924,-67.5 23.1924,-67.5"/>
<text text-anchor="start" x="31.1924" y="-85.5" font-family="Helvetica,sans-Serif" font-size="10.00" fill="#000000">problems/jsp/jsp_genetic</text>
<text text-anchor="middle" x="85.6924" y="-74.5" font-family="Helvetica,sans-Serif" font-size="10.00" fill="#000000">_encoders.hpp</text>
</a>
</g>
</g>
<!-- Node1&#45;&gt;Node3 -->
<g id="edge8" class="edge">
<title>Node1&#45;&gt;Node3</title>
<path fill="none" stroke="#191970" d="M102.3238,-211.1817C63.1658,-203.4359 19.5116,-191.6162 7.6924,-176 -3.5727,-161.1157 -1.1522,-150.4383 7.6924,-134 16.3807,-117.8524 32.5963,-105.9259 48.0012,-97.6402"/>
<polygon fill="#191970" stroke="#191970" points="101.6808,-214.6221 112.1603,-213.063 102.9958,-207.7467 101.6808,-214.6221"/>
</g>
<!-- Node5 -->
<g id="node5" class="node">
<title>Node5</title>
<g id="a_node5"><a xlink:href="jsp__neighborhoods_8hpp.html" target="_top" xlink:title="JSP Neighborhoods.">
<polygon fill="none" stroke="#000000" points="168.1924,-73 168.1924,-92 343.1924,-92 343.1924,-73 168.1924,-73"/>
<text text-anchor="middle" x="255.6924" y="-80" font-family="Helvetica,sans-Serif" font-size="10.00" fill="#000000">problems/jsp/jsp_neighborhoods.hpp</text>
</a>
</g>
</g>
<!-- Node1&#45;&gt;Node5 -->
<g id="edge9" class="edge">
<title>Node1&#45;&gt;Node5</title>
<path fill="none" stroke="#191970" d="M239.6408,-212.8473C283.3941,-205.4642 334.223,-193.4174 347.6924,-176 359.1117,-161.2337 357.1329,-150.1035 347.6924,-134 335.2877,-112.84 310.6624,-99.7216 290.0087,-92.0237"/>
<polygon fill="#191970" stroke="#191970" points="238.8734,-209.4261 229.5661,-214.4881 239.9987,-216.3351 238.8734,-209.4261"/>
</g>
<!-- Node6 -->
<g id="node6" class="node">
<title>Node6</title>
<g id="a_node6"><a xlink:href="jsp__total__weighted__tardiness__minimization__solution_8hpp.html" target="_top" xlink:title="JSP Total Weighted Tardiness.">
<polygon fill="none" stroke="#000000" points="172.6924,-134.5 172.6924,-175.5 338.6924,-175.5 338.6924,-134.5 172.6924,-134.5"/>
<text text-anchor="start" x="180.6924" y="-163.5" font-family="Helvetica,sans-Serif" font-size="10.00" fill="#000000">problems/jsp/jsp_total</text>
<text text-anchor="start" x="180.6924" y="-152.5" font-family="Helvetica,sans-Serif" font-size="10.00" fill="#000000">_weighted_tardiness_minimization</text>
<text text-anchor="middle" x="255.6924" y="-141.5" font-family="Helvetica,sans-Serif" font-size="10.00" fill="#000000">_solution.hpp</text>
</a>
</g>
</g>
<!-- Node1&#45;&gt;Node6 -->
<g id="edge5" class="edge">
<title>Node1&#45;&gt;Node6</title>
<path fill="none" stroke="#191970" d="M191.019,-205.9779C202.5595,-196.8813 217.1298,-185.3965 229.5178,-175.6318"/>
<polygon fill="#191970" stroke="#191970" points="188.5578,-203.4613 182.8709,-212.4005 192.8911,-208.9588 188.5578,-203.4613"/>
</g>
<!-- Node2&#45;&gt;Node3 -->
<g id="edge2" class="edge">
<title>Node2&#45;&gt;Node3</title>
<path fill="none" stroke="#191970" d="M85.6924,-129.8409C85.6924,-119.0601 85.6924,-106.8309 85.6924,-97.5028"/>
<polygon fill="#191970" stroke="#191970" points="82.1925,-129.9779 85.6924,-139.978 89.1925,-129.978 82.1925,-129.9779"/>
</g>
<!-- Node2&#45;&gt;Node5 -->
<g id="edge4" class="edge">
<title>Node2&#45;&gt;Node5</title>
<path fill="none" stroke="#191970" d="M130.3485,-135.9555C163.3308,-121.8895 206.8647,-103.3236 232.9887,-92.1825"/>
<polygon fill="#191970" stroke="#191970" points="128.742,-132.8356 120.9166,-139.978 131.488,-139.2745 128.742,-132.8356"/>
</g>
<!-- Node4 -->
<g id="node4" class="node">
<title>Node4</title>
<g id="a_node4"><a xlink:href="jsp__generation__operators_8hpp.html" target="_top" xlink:title="JSP Generation Operators.">
<polygon fill="none" stroke="#000000" points="16.6924,-.5 16.6924,-30.5 154.6924,-30.5 154.6924,-.5 16.6924,-.5"/>
<text text-anchor="start" x="24.6924" y="-18.5" font-family="Helvetica,sans-Serif" font-size="10.00" fill="#000000">problems/jsp/jsp_generation</text>
<text text-anchor="middle" x="85.6924" y="-7.5" font-family="Helvetica,sans-Serif" font-size="10.00" fill="#000000">_operators.hpp</text>
</a>
</g>
</g>
<!-- Node3&#45;&gt;Node4 -->
<g id="edge3" class="edge">
<title>Node3&#45;&gt;Node4</title>
<path fill="none" stroke="#191970" d="M85.6924,-57.0249C85.6924,-48.128 85.6924,-38.4287 85.6924,-30.6432"/>
<polygon fill="#191970" stroke="#191970" points="82.1925,-57.2966 85.6924,-67.2967 89.1925,-57.2967 82.1925,-57.2966"/>
</g>
<!-- Node6&#45;&gt;Node3 -->
<g id="edge6" class="edge">
<title>Node6&#45;&gt;Node3</title>
<path fill="none" stroke="#191970" d="M198.2053,-130.4834C172.651,-119.5853 143.378,-107.1012 121.0972,-97.5991"/>
<polygon fill="#191970" stroke="#191970" points="196.8605,-133.7149 207.432,-134.4183 199.6066,-127.276 196.8605,-133.7149"/>
</g>
<!-- Node6&#45;&gt;Node5 -->
<g id="edge7" class="edge">
<title>Node6&#45;&gt;Node5</title>
<path fill="none" stroke="#191970" d="M255.6924,-124.1575C255.6924,-112.6039 255.6924,-100.3007 255.6924,-92.0853"/>
<polygon fill="#191970" stroke="#191970" points="252.1925,-124.4183 255.6924,-134.4183 259.1925,-124.4184 252.1925,-124.4183"/>
</g>
</g>
</svg>
