<?xml version="1.0" encoding="UTF-8" standalone="no"?>
<!DOCTYPE svg PUBLIC "-//W3C//DTD SVG 1.1//EN"
 "http://www.w3.org/Graphics/SVG/1.1/DTD/svg11.dtd">
<!-- Generated by graphviz version 2.40.1 (20161225.0304)
 -->
<!-- Title: utils/triangular_fuzzy_number.hpp Pages: 1 -->
<svg width="495pt" height="251pt"
 viewBox="0.00 0.00 495.00 251.00" xmlns="http://www.w3.org/2000/svg" xmlns:xlink="http://www.w3.org/1999/xlink">
<g id="graph0" class="graph" transform="scale(1 1) rotate(0) translate(4 247)">
<title>utils/triangular_fuzzy_number.hpp</title>
<!-- Node1 -->
<g id="node1" class="node">
<title>Node1</title>
<g id="a_node1"><a xlink:title="Triangular Fuzzy Number.">
<polygon fill="#bfbfbf" stroke="#000000" points="194.5,-212.5 194.5,-242.5 301.5,-242.5 301.5,-212.5 194.5,-212.5"/>
<text text-anchor="start" x="202.5" y="-230.5" font-family="Helvetica,sans-Serif" font-size="10.00" fill="#000000">utils/triangular_fuzzy</text>
<text text-anchor="middle" x="248" y="-219.5" font-family="Helvetica,sans-Serif" font-size="10.00" fill="#000000">_number.hpp</text>
</a>
</g>
</g>
<!-- Node2 -->
<g id="node2" class="node">
<title>Node2</title>
<g id="a_node2"><a xlink:href="jsp_8hpp.html" target="_top" xlink:title="JSP formulation.">
<polygon fill="none" stroke="#000000" points="29.5,-145.5 29.5,-164.5 136.5,-164.5 136.5,-145.5 29.5,-145.5"/>
<text text-anchor="middle" x="83" y="-152.5" font-family="Helvetica,sans-Serif" font-size="10.00" fill="#000000">problems/jsp/jsp.hpp</text>
</a>
</g>
</g>
<!-- Node1&#45;&gt;Node2 -->
<g id="edge1" class="edge">
<title>Node1&#45;&gt;Node2</title>
<path fill="none" stroke="#191970" d="M204.2446,-208.2742C172.2828,-194.2303 130.2829,-175.7758 105.036,-164.6825"/>
<polygon fill="#191970" stroke="#191970" points="203.2487,-211.6595 213.8119,-212.478 206.0647,-205.2508 203.2487,-211.6595"/>
</g>
<!-- Node4 -->
<g id="node4" class="node">
<title>Node4</title>
<g id="a_node4"><a xlink:href="jsp__makespan__minimization__solution_8hpp.html" target="_top" xlink:title="JSP Makespan Minimization.">
<polygon fill="none" stroke="#000000" points="349,-140 349,-170 487,-170 487,-140 349,-140"/>
<text text-anchor="start" x="357" y="-158" font-family="Helvetica,sans-Serif" font-size="10.00" fill="#000000">problems/jsp/jsp_makespan</text>
<text text-anchor="middle" x="418" y="-147" font-family="Helvetica,sans-Serif" font-size="10.00" fill="#000000">_minimization_solution.hpp</text>
</a>
</g>
</g>
<!-- Node1&#45;&gt;Node4 -->
<g id="edge3" class="edge">
<title>Node1&#45;&gt;Node4</title>
<path fill="none" stroke="#191970" d="M292.4622,-208.5382C320.6559,-196.5144 356.6192,-181.1771 382.821,-170.0028"/>
<polygon fill="#191970" stroke="#191970" points="291.0495,-205.3356 283.2241,-212.478 293.7956,-211.7745 291.0495,-205.3356"/>
</g>
<!-- Node8 -->
<g id="node8" class="node">
<title>Node8</title>
<g id="a_node8"><a xlink:href="jsp__total__weighted__tardiness__minimization__solution_8hpp.html" target="_top" xlink:title="JSP Total Weighted Tardiness.">
<polygon fill="none" stroke="#000000" points="165,-134.5 165,-175.5 331,-175.5 331,-134.5 165,-134.5"/>
<text text-anchor="start" x="173" y="-163.5" font-family="Helvetica,sans-Serif" font-size="10.00" fill="#000000">problems/jsp/jsp_total</text>
<text text-anchor="start" x="173" y="-152.5" font-family="Helvetica,sans-Serif" font-size="10.00" fill="#000000">_weighted_tardiness_minimization</text>
<text text-anchor="middle" x="248" y="-141.5" font-family="Helvetica,sans-Serif" font-size="10.00" fill="#000000">_solution.hpp</text>
</a>
</g>
</g>
<!-- Node1&#45;&gt;Node8 -->
<g id="edge7" class="edge">
<title>Node1&#45;&gt;Node8</title>
<path fill="none" stroke="#191970" d="M248,-202.4016C248,-193.6173 248,-183.8652 248,-175.5015"/>
<polygon fill="#191970" stroke="#191970" points="244.5001,-202.4779 248,-212.478 251.5001,-202.478 244.5001,-202.4779"/>
</g>
<!-- Node3 -->
<g id="node3" class="node">
<title>Node3</title>
<g id="a_node3"><a xlink:href="jsp__readers_8hpp.html" target="_top" xlink:title="Readers for JSP instances.">
<polygon fill="none" stroke="#000000" points="0,-73 0,-92 144,-92 144,-73 0,-73"/>
<text text-anchor="middle" x="72" y="-80" font-family="Helvetica,sans-Serif" font-size="10.00" fill="#000000">problems/jsp/jsp_readers.hpp</text>
</a>
</g>
</g>
<!-- Node2&#45;&gt;Node3 -->
<g id="edge2" class="edge">
<title>Node2&#45;&gt;Node3</title>
<path fill="none" stroke="#191970" d="M79.9815,-135.1054C77.8601,-121.1237 75.1156,-103.0346 73.46,-92.1228"/>
<polygon fill="#191970" stroke="#191970" points="76.5559,-135.8605 81.5165,-145.2223 83.4767,-134.8104 76.5559,-135.8605"/>
</g>
<!-- Node5 -->
<g id="node5" class="node">
<title>Node5</title>
<g id="a_node5"><a xlink:href="jsp__genetic__encoders_8hpp.html" target="_top" xlink:title="JSP Genetic Encoders.">
<polygon fill="none" stroke="#000000" points="355.5,-67.5 355.5,-97.5 480.5,-97.5 480.5,-67.5 355.5,-67.5"/>
<text text-anchor="start" x="363.5" y="-85.5" font-family="Helvetica,sans-Serif" font-size="10.00" fill="#000000">problems/jsp/jsp_genetic</text>
<text text-anchor="middle" x="418" y="-74.5" font-family="Helvetica,sans-Serif" font-size="10.00" fill="#000000">_encoders.hpp</text>
</a>
</g>
</g>
<!-- Node4&#45;&gt;Node5 -->
<g id="edge4" class="edge">
<title>Node4&#45;&gt;Node5</title>
<path fill="none" stroke="#191970" d="M418,-129.8409C418,-119.0601 418,-106.8309 418,-97.5028"/>
<polygon fill="#191970" stroke="#191970" points="414.5001,-129.9779 418,-139.978 421.5001,-129.978 414.5001,-129.9779"/>
</g>
<!-- Node7 -->
<g id="node7" class="node">
<title>Node7</title>
<g id="a_node7"><a xlink:href="jsp__neighborhoods_8hpp.html" target="_top" xlink:title="JSP Neighborhoods.">
<polygon fill="none" stroke="#000000" points="162.5,-73 162.5,-92 337.5,-92 337.5,-73 162.5,-73"/>
<text text-anchor="middle" x="250" y="-80" font-family="Helvetica,sans-Serif" font-size="10.00" fill="#000000">problems/jsp/jsp_neighborhoods.hpp</text>
</a>
</g>
</g>
<!-- Node4&#45;&gt;Node7 -->
<g id="edge6" class="edge">
<title>Node4&#45;&gt;Node7</title>
<path fill="none" stroke="#191970" d="M373.8693,-135.9555C341.2751,-121.8895 298.2533,-103.3236 272.4367,-92.1825"/>
<polygon fill="#191970" stroke="#191970" points="372.6219,-139.2292 383.1903,-139.978 375.3956,-132.8021 372.6219,-139.2292"/>
</g>
<!-- Node6 -->
<g id="node6" class="node">
<title>Node6</title>
<g id="a_node6"><a xlink:href="jsp__generation__operators_8hpp.html" target="_top" xlink:title="JSP Generation Operators.">
<polygon fill="none" stroke="#000000" points="349,-.5 349,-30.5 487,-30.5 487,-.5 349,-.5"/>
<text text-anchor="start" x="357" y="-18.5" font-family="Helvetica,sans-Serif" font-size="10.00" fill="#000000">problems/jsp/jsp_generation</text>
<text text-anchor="middle" x="418" y="-7.5" font-family="Helvetica,sans-Serif" font-size="10.00" fill="#000000">_operators.hpp</text>
</a>
</g>
</g>
<!-- Node5&#45;&gt;Node6 -->
<g id="edge5" class="edge">
<title>Node5&#45;&gt;Node6</title>
<path fill="none" stroke="#191970" d="M418,-57.0249C418,-48.128 418,-38.4287 418,-30.6432"/>
<polygon fill="#191970" stroke="#191970" points="414.5001,-57.2966 418,-67.2967 421.5001,-57.2967 414.5001,-57.2966"/>
</g>
<!-- Node8&#45;&gt;Node5 -->
<g id="edge8" class="edge">
<title>Node8&#45;&gt;Node5</title>
<path fill="none" stroke="#191970" d="M305.4871,-130.4834C331.0414,-119.5853 360.3145,-107.1012 382.5952,-97.5991"/>
<polygon fill="#191970" stroke="#191970" points="304.0859,-127.276 296.2605,-134.4183 306.8319,-133.7149 304.0859,-127.276"/>
</g>
<!-- Node8&#45;&gt;Node7 -->
<g id="edge9" class="edge">
<title>Node8&#45;&gt;Node7</title>
<path fill="none" stroke="#191970" d="M248.8508,-124.1575C249.1695,-112.6039 249.5089,-100.3007 249.7356,-92.0853"/>
<polygon fill="#191970" stroke="#191970" points="245.345,-124.3256 248.5678,-134.4183 252.3423,-124.5187 245.345,-124.3256"/>
</g>
</g>
</svg>
